%TF.GenerationSoftware,KiCad,Pcbnew,8.0.8*%
%TF.CreationDate,2025-06-15T23:17:14+08:00*%
%TF.ProjectId,2x2,3278322e-6b69-4636-9164-5f7063625858,rev?*%
%TF.SameCoordinates,Original*%
%TF.FileFunction,Legend,Top*%
%TF.FilePolarity,Positive*%
%FSLAX46Y46*%
G04 Gerber Fmt 4.6, Leading zero omitted, Abs format (unit mm)*
G04 Created by KiCad (PCBNEW 8.0.8) date 2025-06-15 23:17:14*
%MOMM*%
%LPD*%
G01*
G04 APERTURE LIST*
%ADD10C,0.150000*%
%ADD11C,0.000000*%
%ADD12C,0.010000*%
%ADD13C,0.120000*%
G04 APERTURE END LIST*
D10*
X141489828Y-87478973D02*
X139989828Y-87478973D01*
X139989828Y-87478973D02*
X141061257Y-86978973D01*
X141061257Y-86978973D02*
X139989828Y-86478973D01*
X139989828Y-86478973D02*
X141489828Y-86478973D01*
X141489828Y-85764687D02*
X140489828Y-85764687D01*
X139989828Y-85764687D02*
X140061257Y-85836115D01*
X140061257Y-85836115D02*
X140132685Y-85764687D01*
X140132685Y-85764687D02*
X140061257Y-85693258D01*
X140061257Y-85693258D02*
X139989828Y-85764687D01*
X139989828Y-85764687D02*
X140132685Y-85764687D01*
X141418400Y-84407544D02*
X141489828Y-84550401D01*
X141489828Y-84550401D02*
X141489828Y-84836115D01*
X141489828Y-84836115D02*
X141418400Y-84978972D01*
X141418400Y-84978972D02*
X141346971Y-85050401D01*
X141346971Y-85050401D02*
X141204114Y-85121829D01*
X141204114Y-85121829D02*
X140775542Y-85121829D01*
X140775542Y-85121829D02*
X140632685Y-85050401D01*
X140632685Y-85050401D02*
X140561257Y-84978972D01*
X140561257Y-84978972D02*
X140489828Y-84836115D01*
X140489828Y-84836115D02*
X140489828Y-84550401D01*
X140489828Y-84550401D02*
X140561257Y-84407544D01*
X141489828Y-83764687D02*
X140489828Y-83764687D01*
X140775542Y-83764687D02*
X140632685Y-83693258D01*
X140632685Y-83693258D02*
X140561257Y-83621830D01*
X140561257Y-83621830D02*
X140489828Y-83478972D01*
X140489828Y-83478972D02*
X140489828Y-83336115D01*
X141489828Y-82621830D02*
X141418400Y-82764687D01*
X141418400Y-82764687D02*
X141346971Y-82836116D01*
X141346971Y-82836116D02*
X141204114Y-82907544D01*
X141204114Y-82907544D02*
X140775542Y-82907544D01*
X140775542Y-82907544D02*
X140632685Y-82836116D01*
X140632685Y-82836116D02*
X140561257Y-82764687D01*
X140561257Y-82764687D02*
X140489828Y-82621830D01*
X140489828Y-82621830D02*
X140489828Y-82407544D01*
X140489828Y-82407544D02*
X140561257Y-82264687D01*
X140561257Y-82264687D02*
X140632685Y-82193259D01*
X140632685Y-82193259D02*
X140775542Y-82121830D01*
X140775542Y-82121830D02*
X141204114Y-82121830D01*
X141204114Y-82121830D02*
X141346971Y-82193259D01*
X141346971Y-82193259D02*
X141418400Y-82264687D01*
X141418400Y-82264687D02*
X141489828Y-82407544D01*
X141489828Y-82407544D02*
X141489828Y-82621830D01*
X140489828Y-80836116D02*
X141489828Y-80836116D01*
X140489828Y-81478973D02*
X141275542Y-81478973D01*
X141275542Y-81478973D02*
X141418400Y-81407544D01*
X141418400Y-81407544D02*
X141489828Y-81264687D01*
X141489828Y-81264687D02*
X141489828Y-81050401D01*
X141489828Y-81050401D02*
X141418400Y-80907544D01*
X141418400Y-80907544D02*
X141346971Y-80836116D01*
X141418400Y-80193258D02*
X141489828Y-80050401D01*
X141489828Y-80050401D02*
X141489828Y-79764687D01*
X141489828Y-79764687D02*
X141418400Y-79621830D01*
X141418400Y-79621830D02*
X141275542Y-79550401D01*
X141275542Y-79550401D02*
X141204114Y-79550401D01*
X141204114Y-79550401D02*
X141061257Y-79621830D01*
X141061257Y-79621830D02*
X140989828Y-79764687D01*
X140989828Y-79764687D02*
X140989828Y-79978973D01*
X140989828Y-79978973D02*
X140918400Y-80121830D01*
X140918400Y-80121830D02*
X140775542Y-80193258D01*
X140775542Y-80193258D02*
X140704114Y-80193258D01*
X140704114Y-80193258D02*
X140561257Y-80121830D01*
X140561257Y-80121830D02*
X140489828Y-79978973D01*
X140489828Y-79978973D02*
X140489828Y-79764687D01*
X140489828Y-79764687D02*
X140561257Y-79621830D01*
X141489828Y-78907544D02*
X139989828Y-78907544D01*
X140561257Y-78907544D02*
X140489828Y-78764687D01*
X140489828Y-78764687D02*
X140489828Y-78478972D01*
X140489828Y-78478972D02*
X140561257Y-78336115D01*
X140561257Y-78336115D02*
X140632685Y-78264687D01*
X140632685Y-78264687D02*
X140775542Y-78193258D01*
X140775542Y-78193258D02*
X141204114Y-78193258D01*
X141204114Y-78193258D02*
X141346971Y-78264687D01*
X141346971Y-78264687D02*
X141418400Y-78336115D01*
X141418400Y-78336115D02*
X141489828Y-78478972D01*
X141489828Y-78478972D02*
X141489828Y-78764687D01*
X141489828Y-78764687D02*
X141418400Y-78907544D01*
X146529466Y-77287219D02*
X146529466Y-78001504D01*
X146529466Y-78001504D02*
X146481847Y-78144361D01*
X146481847Y-78144361D02*
X146386609Y-78239600D01*
X146386609Y-78239600D02*
X146243752Y-78287219D01*
X146243752Y-78287219D02*
X146148514Y-78287219D01*
X146910419Y-77287219D02*
X147529466Y-77287219D01*
X147529466Y-77287219D02*
X147196133Y-77668171D01*
X147196133Y-77668171D02*
X147338990Y-77668171D01*
X147338990Y-77668171D02*
X147434228Y-77715790D01*
X147434228Y-77715790D02*
X147481847Y-77763409D01*
X147481847Y-77763409D02*
X147529466Y-77858647D01*
X147529466Y-77858647D02*
X147529466Y-78096742D01*
X147529466Y-78096742D02*
X147481847Y-78191980D01*
X147481847Y-78191980D02*
X147434228Y-78239600D01*
X147434228Y-78239600D02*
X147338990Y-78287219D01*
X147338990Y-78287219D02*
X147053276Y-78287219D01*
X147053276Y-78287219D02*
X146958038Y-78239600D01*
X146958038Y-78239600D02*
X146910419Y-78191980D01*
X85110419Y-75060133D02*
X85824704Y-75060133D01*
X85824704Y-75060133D02*
X85967561Y-75107752D01*
X85967561Y-75107752D02*
X86062800Y-75202990D01*
X86062800Y-75202990D02*
X86110419Y-75345847D01*
X86110419Y-75345847D02*
X86110419Y-75441085D01*
X85205657Y-74631561D02*
X85158038Y-74583942D01*
X85158038Y-74583942D02*
X85110419Y-74488704D01*
X85110419Y-74488704D02*
X85110419Y-74250609D01*
X85110419Y-74250609D02*
X85158038Y-74155371D01*
X85158038Y-74155371D02*
X85205657Y-74107752D01*
X85205657Y-74107752D02*
X85300895Y-74060133D01*
X85300895Y-74060133D02*
X85396133Y-74060133D01*
X85396133Y-74060133D02*
X85538990Y-74107752D01*
X85538990Y-74107752D02*
X86110419Y-74679180D01*
X86110419Y-74679180D02*
X86110419Y-74060133D01*
X85135819Y-90325533D02*
X85850104Y-90325533D01*
X85850104Y-90325533D02*
X85992961Y-90373152D01*
X85992961Y-90373152D02*
X86088200Y-90468390D01*
X86088200Y-90468390D02*
X86135819Y-90611247D01*
X86135819Y-90611247D02*
X86135819Y-90706485D01*
X86135819Y-89325533D02*
X86135819Y-89896961D01*
X86135819Y-89611247D02*
X85135819Y-89611247D01*
X85135819Y-89611247D02*
X85278676Y-89706485D01*
X85278676Y-89706485D02*
X85373914Y-89801723D01*
X85373914Y-89801723D02*
X85421533Y-89896961D01*
X101547705Y-67866419D02*
X101547705Y-66866419D01*
X101547705Y-66866419D02*
X101785800Y-66866419D01*
X101785800Y-66866419D02*
X101928657Y-66914038D01*
X101928657Y-66914038D02*
X102023895Y-67009276D01*
X102023895Y-67009276D02*
X102071514Y-67104514D01*
X102071514Y-67104514D02*
X102119133Y-67294990D01*
X102119133Y-67294990D02*
X102119133Y-67437847D01*
X102119133Y-67437847D02*
X102071514Y-67628323D01*
X102071514Y-67628323D02*
X102023895Y-67723561D01*
X102023895Y-67723561D02*
X101928657Y-67818800D01*
X101928657Y-67818800D02*
X101785800Y-67866419D01*
X101785800Y-67866419D02*
X101547705Y-67866419D01*
X102976276Y-66866419D02*
X102785800Y-66866419D01*
X102785800Y-66866419D02*
X102690562Y-66914038D01*
X102690562Y-66914038D02*
X102642943Y-66961657D01*
X102642943Y-66961657D02*
X102547705Y-67104514D01*
X102547705Y-67104514D02*
X102500086Y-67294990D01*
X102500086Y-67294990D02*
X102500086Y-67675942D01*
X102500086Y-67675942D02*
X102547705Y-67771180D01*
X102547705Y-67771180D02*
X102595324Y-67818800D01*
X102595324Y-67818800D02*
X102690562Y-67866419D01*
X102690562Y-67866419D02*
X102881038Y-67866419D01*
X102881038Y-67866419D02*
X102976276Y-67818800D01*
X102976276Y-67818800D02*
X103023895Y-67771180D01*
X103023895Y-67771180D02*
X103071514Y-67675942D01*
X103071514Y-67675942D02*
X103071514Y-67437847D01*
X103071514Y-67437847D02*
X103023895Y-67342609D01*
X103023895Y-67342609D02*
X102976276Y-67294990D01*
X102976276Y-67294990D02*
X102881038Y-67247371D01*
X102881038Y-67247371D02*
X102690562Y-67247371D01*
X102690562Y-67247371D02*
X102595324Y-67294990D01*
X102595324Y-67294990D02*
X102547705Y-67342609D01*
X102547705Y-67342609D02*
X102500086Y-67437847D01*
X101649305Y-48384619D02*
X101649305Y-47384619D01*
X101649305Y-47384619D02*
X101887400Y-47384619D01*
X101887400Y-47384619D02*
X102030257Y-47432238D01*
X102030257Y-47432238D02*
X102125495Y-47527476D01*
X102125495Y-47527476D02*
X102173114Y-47622714D01*
X102173114Y-47622714D02*
X102220733Y-47813190D01*
X102220733Y-47813190D02*
X102220733Y-47956047D01*
X102220733Y-47956047D02*
X102173114Y-48146523D01*
X102173114Y-48146523D02*
X102125495Y-48241761D01*
X102125495Y-48241761D02*
X102030257Y-48337000D01*
X102030257Y-48337000D02*
X101887400Y-48384619D01*
X101887400Y-48384619D02*
X101649305Y-48384619D01*
X103125495Y-47384619D02*
X102649305Y-47384619D01*
X102649305Y-47384619D02*
X102601686Y-47860809D01*
X102601686Y-47860809D02*
X102649305Y-47813190D01*
X102649305Y-47813190D02*
X102744543Y-47765571D01*
X102744543Y-47765571D02*
X102982638Y-47765571D01*
X102982638Y-47765571D02*
X103077876Y-47813190D01*
X103077876Y-47813190D02*
X103125495Y-47860809D01*
X103125495Y-47860809D02*
X103173114Y-47956047D01*
X103173114Y-47956047D02*
X103173114Y-48194142D01*
X103173114Y-48194142D02*
X103125495Y-48289380D01*
X103125495Y-48289380D02*
X103077876Y-48337000D01*
X103077876Y-48337000D02*
X102982638Y-48384619D01*
X102982638Y-48384619D02*
X102744543Y-48384619D01*
X102744543Y-48384619D02*
X102649305Y-48337000D01*
X102649305Y-48337000D02*
X102601686Y-48289380D01*
X120625705Y-67842019D02*
X120625705Y-66842019D01*
X120625705Y-66842019D02*
X120863800Y-66842019D01*
X120863800Y-66842019D02*
X121006657Y-66889638D01*
X121006657Y-66889638D02*
X121101895Y-66984876D01*
X121101895Y-66984876D02*
X121149514Y-67080114D01*
X121149514Y-67080114D02*
X121197133Y-67270590D01*
X121197133Y-67270590D02*
X121197133Y-67413447D01*
X121197133Y-67413447D02*
X121149514Y-67603923D01*
X121149514Y-67603923D02*
X121101895Y-67699161D01*
X121101895Y-67699161D02*
X121006657Y-67794400D01*
X121006657Y-67794400D02*
X120863800Y-67842019D01*
X120863800Y-67842019D02*
X120625705Y-67842019D01*
X121578086Y-66937257D02*
X121625705Y-66889638D01*
X121625705Y-66889638D02*
X121720943Y-66842019D01*
X121720943Y-66842019D02*
X121959038Y-66842019D01*
X121959038Y-66842019D02*
X122054276Y-66889638D01*
X122054276Y-66889638D02*
X122101895Y-66937257D01*
X122101895Y-66937257D02*
X122149514Y-67032495D01*
X122149514Y-67032495D02*
X122149514Y-67127733D01*
X122149514Y-67127733D02*
X122101895Y-67270590D01*
X122101895Y-67270590D02*
X121530467Y-67842019D01*
X121530467Y-67842019D02*
X122149514Y-67842019D01*
X123488219Y-46000894D02*
X122488219Y-46000894D01*
X122488219Y-46000894D02*
X122488219Y-45762799D01*
X122488219Y-45762799D02*
X122535838Y-45619942D01*
X122535838Y-45619942D02*
X122631076Y-45524704D01*
X122631076Y-45524704D02*
X122726314Y-45477085D01*
X122726314Y-45477085D02*
X122916790Y-45429466D01*
X122916790Y-45429466D02*
X123059647Y-45429466D01*
X123059647Y-45429466D02*
X123250123Y-45477085D01*
X123250123Y-45477085D02*
X123345361Y-45524704D01*
X123345361Y-45524704D02*
X123440600Y-45619942D01*
X123440600Y-45619942D02*
X123488219Y-45762799D01*
X123488219Y-45762799D02*
X123488219Y-46000894D01*
X123488219Y-44477085D02*
X123488219Y-45048513D01*
X123488219Y-44762799D02*
X122488219Y-44762799D01*
X122488219Y-44762799D02*
X122631076Y-44858037D01*
X122631076Y-44858037D02*
X122726314Y-44953275D01*
X122726314Y-44953275D02*
X122773933Y-45048513D01*
D11*
%TO.C,LOGO2*%
G36*
X127607200Y-44752400D02*
G01*
X127207200Y-44752400D01*
X127207200Y-44352400D01*
X127607200Y-44352400D01*
X127607200Y-44752400D01*
G37*
G36*
X128007200Y-44752400D02*
G01*
X127607200Y-44752400D01*
X127607200Y-44352400D01*
X128007200Y-44352400D01*
X128007200Y-44752400D01*
G37*
G36*
X128407200Y-44752400D02*
G01*
X128007200Y-44752400D01*
X128007200Y-44352400D01*
X128407200Y-44352400D01*
X128407200Y-44752400D01*
G37*
G36*
X128807200Y-44752400D02*
G01*
X128407200Y-44752400D01*
X128407200Y-44352400D01*
X128807200Y-44352400D01*
X128807200Y-44752400D01*
G37*
G36*
X129207200Y-44752400D02*
G01*
X128807200Y-44752400D01*
X128807200Y-44352400D01*
X129207200Y-44352400D01*
X129207200Y-44752400D01*
G37*
G36*
X129607200Y-44752400D02*
G01*
X129207200Y-44752400D01*
X129207200Y-44352400D01*
X129607200Y-44352400D01*
X129607200Y-44752400D01*
G37*
G36*
X130007200Y-44752400D02*
G01*
X129607200Y-44752400D01*
X129607200Y-44352400D01*
X130007200Y-44352400D01*
X130007200Y-44752400D01*
G37*
G36*
X130807200Y-44752400D02*
G01*
X130407200Y-44752400D01*
X130407200Y-44352400D01*
X130807200Y-44352400D01*
X130807200Y-44752400D01*
G37*
G36*
X131607200Y-44752400D02*
G01*
X131207200Y-44752400D01*
X131207200Y-44352400D01*
X131607200Y-44352400D01*
X131607200Y-44752400D01*
G37*
G36*
X132007200Y-44752400D02*
G01*
X131607200Y-44752400D01*
X131607200Y-44352400D01*
X132007200Y-44352400D01*
X132007200Y-44752400D01*
G37*
G36*
X132407200Y-44752400D02*
G01*
X132007200Y-44752400D01*
X132007200Y-44352400D01*
X132407200Y-44352400D01*
X132407200Y-44752400D01*
G37*
G36*
X132807200Y-44752400D02*
G01*
X132407200Y-44752400D01*
X132407200Y-44352400D01*
X132807200Y-44352400D01*
X132807200Y-44752400D01*
G37*
G36*
X133607200Y-44752400D02*
G01*
X133207200Y-44752400D01*
X133207200Y-44352400D01*
X133607200Y-44352400D01*
X133607200Y-44752400D01*
G37*
G36*
X134007200Y-44752400D02*
G01*
X133607200Y-44752400D01*
X133607200Y-44352400D01*
X134007200Y-44352400D01*
X134007200Y-44752400D01*
G37*
G36*
X134807200Y-44752400D02*
G01*
X134407200Y-44752400D01*
X134407200Y-44352400D01*
X134807200Y-44352400D01*
X134807200Y-44752400D01*
G37*
G36*
X136807200Y-44752400D02*
G01*
X136407200Y-44752400D01*
X136407200Y-44352400D01*
X136807200Y-44352400D01*
X136807200Y-44752400D01*
G37*
G36*
X138007200Y-44752400D02*
G01*
X137607200Y-44752400D01*
X137607200Y-44352400D01*
X138007200Y-44352400D01*
X138007200Y-44752400D01*
G37*
G36*
X138407200Y-44752400D02*
G01*
X138007200Y-44752400D01*
X138007200Y-44352400D01*
X138407200Y-44352400D01*
X138407200Y-44752400D01*
G37*
G36*
X138807200Y-44752400D02*
G01*
X138407200Y-44752400D01*
X138407200Y-44352400D01*
X138807200Y-44352400D01*
X138807200Y-44752400D01*
G37*
G36*
X139207200Y-44752400D02*
G01*
X138807200Y-44752400D01*
X138807200Y-44352400D01*
X139207200Y-44352400D01*
X139207200Y-44752400D01*
G37*
G36*
X139607200Y-44752400D02*
G01*
X139207200Y-44752400D01*
X139207200Y-44352400D01*
X139607200Y-44352400D01*
X139607200Y-44752400D01*
G37*
G36*
X140007200Y-44752400D02*
G01*
X139607200Y-44752400D01*
X139607200Y-44352400D01*
X140007200Y-44352400D01*
X140007200Y-44752400D01*
G37*
G36*
X140407200Y-44752400D02*
G01*
X140007200Y-44752400D01*
X140007200Y-44352400D01*
X140407200Y-44352400D01*
X140407200Y-44752400D01*
G37*
G36*
X127607200Y-45152400D02*
G01*
X127207200Y-45152400D01*
X127207200Y-44752400D01*
X127607200Y-44752400D01*
X127607200Y-45152400D01*
G37*
G36*
X130007200Y-45152400D02*
G01*
X129607200Y-45152400D01*
X129607200Y-44752400D01*
X130007200Y-44752400D01*
X130007200Y-45152400D01*
G37*
G36*
X131207200Y-45152400D02*
G01*
X130807200Y-45152400D01*
X130807200Y-44752400D01*
X131207200Y-44752400D01*
X131207200Y-45152400D01*
G37*
G36*
X132407200Y-45152400D02*
G01*
X132007200Y-45152400D01*
X132007200Y-44752400D01*
X132407200Y-44752400D01*
X132407200Y-45152400D01*
G37*
G36*
X132807200Y-45152400D02*
G01*
X132407200Y-45152400D01*
X132407200Y-44752400D01*
X132807200Y-44752400D01*
X132807200Y-45152400D01*
G37*
G36*
X133207200Y-45152400D02*
G01*
X132807200Y-45152400D01*
X132807200Y-44752400D01*
X133207200Y-44752400D01*
X133207200Y-45152400D01*
G37*
G36*
X134007200Y-45152400D02*
G01*
X133607200Y-45152400D01*
X133607200Y-44752400D01*
X134007200Y-44752400D01*
X134007200Y-45152400D01*
G37*
G36*
X134807200Y-45152400D02*
G01*
X134407200Y-45152400D01*
X134407200Y-44752400D01*
X134807200Y-44752400D01*
X134807200Y-45152400D01*
G37*
G36*
X135207200Y-45152400D02*
G01*
X134807200Y-45152400D01*
X134807200Y-44752400D01*
X135207200Y-44752400D01*
X135207200Y-45152400D01*
G37*
G36*
X138007200Y-45152400D02*
G01*
X137607200Y-45152400D01*
X137607200Y-44752400D01*
X138007200Y-44752400D01*
X138007200Y-45152400D01*
G37*
G36*
X140407200Y-45152400D02*
G01*
X140007200Y-45152400D01*
X140007200Y-44752400D01*
X140407200Y-44752400D01*
X140407200Y-45152400D01*
G37*
G36*
X127607200Y-45552400D02*
G01*
X127207200Y-45552400D01*
X127207200Y-45152400D01*
X127607200Y-45152400D01*
X127607200Y-45552400D01*
G37*
G36*
X128407200Y-45552400D02*
G01*
X128007200Y-45552400D01*
X128007200Y-45152400D01*
X128407200Y-45152400D01*
X128407200Y-45552400D01*
G37*
G36*
X128807200Y-45552400D02*
G01*
X128407200Y-45552400D01*
X128407200Y-45152400D01*
X128807200Y-45152400D01*
X128807200Y-45552400D01*
G37*
G36*
X129207200Y-45552400D02*
G01*
X128807200Y-45552400D01*
X128807200Y-45152400D01*
X129207200Y-45152400D01*
X129207200Y-45552400D01*
G37*
G36*
X130007200Y-45552400D02*
G01*
X129607200Y-45552400D01*
X129607200Y-45152400D01*
X130007200Y-45152400D01*
X130007200Y-45552400D01*
G37*
G36*
X131207200Y-45552400D02*
G01*
X130807200Y-45552400D01*
X130807200Y-45152400D01*
X131207200Y-45152400D01*
X131207200Y-45552400D01*
G37*
G36*
X131607200Y-45552400D02*
G01*
X131207200Y-45552400D01*
X131207200Y-45152400D01*
X131607200Y-45152400D01*
X131607200Y-45552400D01*
G37*
G36*
X132407200Y-45552400D02*
G01*
X132007200Y-45552400D01*
X132007200Y-45152400D01*
X132407200Y-45152400D01*
X132407200Y-45552400D01*
G37*
G36*
X133207200Y-45552400D02*
G01*
X132807200Y-45552400D01*
X132807200Y-45152400D01*
X133207200Y-45152400D01*
X133207200Y-45552400D01*
G37*
G36*
X133607200Y-45552400D02*
G01*
X133207200Y-45552400D01*
X133207200Y-45152400D01*
X133607200Y-45152400D01*
X133607200Y-45552400D01*
G37*
G36*
X134007200Y-45552400D02*
G01*
X133607200Y-45552400D01*
X133607200Y-45152400D01*
X134007200Y-45152400D01*
X134007200Y-45552400D01*
G37*
G36*
X134407200Y-45552400D02*
G01*
X134007200Y-45552400D01*
X134007200Y-45152400D01*
X134407200Y-45152400D01*
X134407200Y-45552400D01*
G37*
G36*
X134807200Y-45552400D02*
G01*
X134407200Y-45552400D01*
X134407200Y-45152400D01*
X134807200Y-45152400D01*
X134807200Y-45552400D01*
G37*
G36*
X135607200Y-45552400D02*
G01*
X135207200Y-45552400D01*
X135207200Y-45152400D01*
X135607200Y-45152400D01*
X135607200Y-45552400D01*
G37*
G36*
X136007200Y-45552400D02*
G01*
X135607200Y-45552400D01*
X135607200Y-45152400D01*
X136007200Y-45152400D01*
X136007200Y-45552400D01*
G37*
G36*
X136807200Y-45552400D02*
G01*
X136407200Y-45552400D01*
X136407200Y-45152400D01*
X136807200Y-45152400D01*
X136807200Y-45552400D01*
G37*
G36*
X137207200Y-45552400D02*
G01*
X136807200Y-45552400D01*
X136807200Y-45152400D01*
X137207200Y-45152400D01*
X137207200Y-45552400D01*
G37*
G36*
X138007200Y-45552400D02*
G01*
X137607200Y-45552400D01*
X137607200Y-45152400D01*
X138007200Y-45152400D01*
X138007200Y-45552400D01*
G37*
G36*
X138807200Y-45552400D02*
G01*
X138407200Y-45552400D01*
X138407200Y-45152400D01*
X138807200Y-45152400D01*
X138807200Y-45552400D01*
G37*
G36*
X139207200Y-45552400D02*
G01*
X138807200Y-45552400D01*
X138807200Y-45152400D01*
X139207200Y-45152400D01*
X139207200Y-45552400D01*
G37*
G36*
X139607200Y-45552400D02*
G01*
X139207200Y-45552400D01*
X139207200Y-45152400D01*
X139607200Y-45152400D01*
X139607200Y-45552400D01*
G37*
G36*
X140407200Y-45552400D02*
G01*
X140007200Y-45552400D01*
X140007200Y-45152400D01*
X140407200Y-45152400D01*
X140407200Y-45552400D01*
G37*
G36*
X127607200Y-45952400D02*
G01*
X127207200Y-45952400D01*
X127207200Y-45552400D01*
X127607200Y-45552400D01*
X127607200Y-45952400D01*
G37*
G36*
X128407200Y-45952400D02*
G01*
X128007200Y-45952400D01*
X128007200Y-45552400D01*
X128407200Y-45552400D01*
X128407200Y-45952400D01*
G37*
G36*
X128807200Y-45952400D02*
G01*
X128407200Y-45952400D01*
X128407200Y-45552400D01*
X128807200Y-45552400D01*
X128807200Y-45952400D01*
G37*
G36*
X129207200Y-45952400D02*
G01*
X128807200Y-45952400D01*
X128807200Y-45552400D01*
X129207200Y-45552400D01*
X129207200Y-45952400D01*
G37*
G36*
X130007200Y-45952400D02*
G01*
X129607200Y-45952400D01*
X129607200Y-45552400D01*
X130007200Y-45552400D01*
X130007200Y-45952400D01*
G37*
G36*
X130807200Y-45952400D02*
G01*
X130407200Y-45952400D01*
X130407200Y-45552400D01*
X130807200Y-45552400D01*
X130807200Y-45952400D01*
G37*
G36*
X131607200Y-45952400D02*
G01*
X131207200Y-45952400D01*
X131207200Y-45552400D01*
X131607200Y-45552400D01*
X131607200Y-45952400D01*
G37*
G36*
X132407200Y-45952400D02*
G01*
X132007200Y-45952400D01*
X132007200Y-45552400D01*
X132407200Y-45552400D01*
X132407200Y-45952400D01*
G37*
G36*
X134007200Y-45952400D02*
G01*
X133607200Y-45952400D01*
X133607200Y-45552400D01*
X134007200Y-45552400D01*
X134007200Y-45952400D01*
G37*
G36*
X134407200Y-45952400D02*
G01*
X134007200Y-45952400D01*
X134007200Y-45552400D01*
X134407200Y-45552400D01*
X134407200Y-45952400D01*
G37*
G36*
X135207200Y-45952400D02*
G01*
X134807200Y-45952400D01*
X134807200Y-45552400D01*
X135207200Y-45552400D01*
X135207200Y-45952400D01*
G37*
G36*
X136007200Y-45952400D02*
G01*
X135607200Y-45952400D01*
X135607200Y-45552400D01*
X136007200Y-45552400D01*
X136007200Y-45952400D01*
G37*
G36*
X136407200Y-45952400D02*
G01*
X136007200Y-45952400D01*
X136007200Y-45552400D01*
X136407200Y-45552400D01*
X136407200Y-45952400D01*
G37*
G36*
X136807200Y-45952400D02*
G01*
X136407200Y-45952400D01*
X136407200Y-45552400D01*
X136807200Y-45552400D01*
X136807200Y-45952400D01*
G37*
G36*
X138007200Y-45952400D02*
G01*
X137607200Y-45952400D01*
X137607200Y-45552400D01*
X138007200Y-45552400D01*
X138007200Y-45952400D01*
G37*
G36*
X138807200Y-45952400D02*
G01*
X138407200Y-45952400D01*
X138407200Y-45552400D01*
X138807200Y-45552400D01*
X138807200Y-45952400D01*
G37*
G36*
X139207200Y-45952400D02*
G01*
X138807200Y-45952400D01*
X138807200Y-45552400D01*
X139207200Y-45552400D01*
X139207200Y-45952400D01*
G37*
G36*
X139607200Y-45952400D02*
G01*
X139207200Y-45952400D01*
X139207200Y-45552400D01*
X139607200Y-45552400D01*
X139607200Y-45952400D01*
G37*
G36*
X140407200Y-45952400D02*
G01*
X140007200Y-45952400D01*
X140007200Y-45552400D01*
X140407200Y-45552400D01*
X140407200Y-45952400D01*
G37*
G36*
X127607200Y-46352400D02*
G01*
X127207200Y-46352400D01*
X127207200Y-45952400D01*
X127607200Y-45952400D01*
X127607200Y-46352400D01*
G37*
G36*
X128407200Y-46352400D02*
G01*
X128007200Y-46352400D01*
X128007200Y-45952400D01*
X128407200Y-45952400D01*
X128407200Y-46352400D01*
G37*
G36*
X128807200Y-46352400D02*
G01*
X128407200Y-46352400D01*
X128407200Y-45952400D01*
X128807200Y-45952400D01*
X128807200Y-46352400D01*
G37*
G36*
X129207200Y-46352400D02*
G01*
X128807200Y-46352400D01*
X128807200Y-45952400D01*
X129207200Y-45952400D01*
X129207200Y-46352400D01*
G37*
G36*
X130007200Y-46352400D02*
G01*
X129607200Y-46352400D01*
X129607200Y-45952400D01*
X130007200Y-45952400D01*
X130007200Y-46352400D01*
G37*
G36*
X130807200Y-46352400D02*
G01*
X130407200Y-46352400D01*
X130407200Y-45952400D01*
X130807200Y-45952400D01*
X130807200Y-46352400D01*
G37*
G36*
X131207200Y-46352400D02*
G01*
X130807200Y-46352400D01*
X130807200Y-45952400D01*
X131207200Y-45952400D01*
X131207200Y-46352400D01*
G37*
G36*
X132407200Y-46352400D02*
G01*
X132007200Y-46352400D01*
X132007200Y-45952400D01*
X132407200Y-45952400D01*
X132407200Y-46352400D01*
G37*
G36*
X132807200Y-46352400D02*
G01*
X132407200Y-46352400D01*
X132407200Y-45952400D01*
X132807200Y-45952400D01*
X132807200Y-46352400D01*
G37*
G36*
X134007200Y-46352400D02*
G01*
X133607200Y-46352400D01*
X133607200Y-45952400D01*
X134007200Y-45952400D01*
X134007200Y-46352400D01*
G37*
G36*
X134407200Y-46352400D02*
G01*
X134007200Y-46352400D01*
X134007200Y-45952400D01*
X134407200Y-45952400D01*
X134407200Y-46352400D01*
G37*
G36*
X135207200Y-46352400D02*
G01*
X134807200Y-46352400D01*
X134807200Y-45952400D01*
X135207200Y-45952400D01*
X135207200Y-46352400D01*
G37*
G36*
X136407200Y-46352400D02*
G01*
X136007200Y-46352400D01*
X136007200Y-45952400D01*
X136407200Y-45952400D01*
X136407200Y-46352400D01*
G37*
G36*
X138007200Y-46352400D02*
G01*
X137607200Y-46352400D01*
X137607200Y-45952400D01*
X138007200Y-45952400D01*
X138007200Y-46352400D01*
G37*
G36*
X138807200Y-46352400D02*
G01*
X138407200Y-46352400D01*
X138407200Y-45952400D01*
X138807200Y-45952400D01*
X138807200Y-46352400D01*
G37*
G36*
X139207200Y-46352400D02*
G01*
X138807200Y-46352400D01*
X138807200Y-45952400D01*
X139207200Y-45952400D01*
X139207200Y-46352400D01*
G37*
G36*
X139607200Y-46352400D02*
G01*
X139207200Y-46352400D01*
X139207200Y-45952400D01*
X139607200Y-45952400D01*
X139607200Y-46352400D01*
G37*
G36*
X140407200Y-46352400D02*
G01*
X140007200Y-46352400D01*
X140007200Y-45952400D01*
X140407200Y-45952400D01*
X140407200Y-46352400D01*
G37*
G36*
X127607200Y-46752400D02*
G01*
X127207200Y-46752400D01*
X127207200Y-46352400D01*
X127607200Y-46352400D01*
X127607200Y-46752400D01*
G37*
G36*
X130007200Y-46752400D02*
G01*
X129607200Y-46752400D01*
X129607200Y-46352400D01*
X130007200Y-46352400D01*
X130007200Y-46752400D01*
G37*
G36*
X130807200Y-46752400D02*
G01*
X130407200Y-46752400D01*
X130407200Y-46352400D01*
X130807200Y-46352400D01*
X130807200Y-46752400D01*
G37*
G36*
X131207200Y-46752400D02*
G01*
X130807200Y-46752400D01*
X130807200Y-46352400D01*
X131207200Y-46352400D01*
X131207200Y-46752400D01*
G37*
G36*
X132007200Y-46752400D02*
G01*
X131607200Y-46752400D01*
X131607200Y-46352400D01*
X132007200Y-46352400D01*
X132007200Y-46752400D01*
G37*
G36*
X133207200Y-46752400D02*
G01*
X132807200Y-46752400D01*
X132807200Y-46352400D01*
X133207200Y-46352400D01*
X133207200Y-46752400D01*
G37*
G36*
X133607200Y-46752400D02*
G01*
X133207200Y-46752400D01*
X133207200Y-46352400D01*
X133607200Y-46352400D01*
X133607200Y-46752400D01*
G37*
G36*
X134407200Y-46752400D02*
G01*
X134007200Y-46752400D01*
X134007200Y-46352400D01*
X134407200Y-46352400D01*
X134407200Y-46752400D01*
G37*
G36*
X134807200Y-46752400D02*
G01*
X134407200Y-46752400D01*
X134407200Y-46352400D01*
X134807200Y-46352400D01*
X134807200Y-46752400D01*
G37*
G36*
X135607200Y-46752400D02*
G01*
X135207200Y-46752400D01*
X135207200Y-46352400D01*
X135607200Y-46352400D01*
X135607200Y-46752400D01*
G37*
G36*
X136007200Y-46752400D02*
G01*
X135607200Y-46752400D01*
X135607200Y-46352400D01*
X136007200Y-46352400D01*
X136007200Y-46752400D01*
G37*
G36*
X136807200Y-46752400D02*
G01*
X136407200Y-46752400D01*
X136407200Y-46352400D01*
X136807200Y-46352400D01*
X136807200Y-46752400D01*
G37*
G36*
X137207200Y-46752400D02*
G01*
X136807200Y-46752400D01*
X136807200Y-46352400D01*
X137207200Y-46352400D01*
X137207200Y-46752400D01*
G37*
G36*
X138007200Y-46752400D02*
G01*
X137607200Y-46752400D01*
X137607200Y-46352400D01*
X138007200Y-46352400D01*
X138007200Y-46752400D01*
G37*
G36*
X140407200Y-46752400D02*
G01*
X140007200Y-46752400D01*
X140007200Y-46352400D01*
X140407200Y-46352400D01*
X140407200Y-46752400D01*
G37*
G36*
X127607200Y-47152400D02*
G01*
X127207200Y-47152400D01*
X127207200Y-46752400D01*
X127607200Y-46752400D01*
X127607200Y-47152400D01*
G37*
G36*
X128007200Y-47152400D02*
G01*
X127607200Y-47152400D01*
X127607200Y-46752400D01*
X128007200Y-46752400D01*
X128007200Y-47152400D01*
G37*
G36*
X128407200Y-47152400D02*
G01*
X128007200Y-47152400D01*
X128007200Y-46752400D01*
X128407200Y-46752400D01*
X128407200Y-47152400D01*
G37*
G36*
X128807200Y-47152400D02*
G01*
X128407200Y-47152400D01*
X128407200Y-46752400D01*
X128807200Y-46752400D01*
X128807200Y-47152400D01*
G37*
G36*
X129207200Y-47152400D02*
G01*
X128807200Y-47152400D01*
X128807200Y-46752400D01*
X129207200Y-46752400D01*
X129207200Y-47152400D01*
G37*
G36*
X129607200Y-47152400D02*
G01*
X129207200Y-47152400D01*
X129207200Y-46752400D01*
X129607200Y-46752400D01*
X129607200Y-47152400D01*
G37*
G36*
X130007200Y-47152400D02*
G01*
X129607200Y-47152400D01*
X129607200Y-46752400D01*
X130007200Y-46752400D01*
X130007200Y-47152400D01*
G37*
G36*
X130807200Y-47152400D02*
G01*
X130407200Y-47152400D01*
X130407200Y-46752400D01*
X130807200Y-46752400D01*
X130807200Y-47152400D01*
G37*
G36*
X131607200Y-47152400D02*
G01*
X131207200Y-47152400D01*
X131207200Y-46752400D01*
X131607200Y-46752400D01*
X131607200Y-47152400D01*
G37*
G36*
X132407200Y-47152400D02*
G01*
X132007200Y-47152400D01*
X132007200Y-46752400D01*
X132407200Y-46752400D01*
X132407200Y-47152400D01*
G37*
G36*
X133207200Y-47152400D02*
G01*
X132807200Y-47152400D01*
X132807200Y-46752400D01*
X133207200Y-46752400D01*
X133207200Y-47152400D01*
G37*
G36*
X134007200Y-47152400D02*
G01*
X133607200Y-47152400D01*
X133607200Y-46752400D01*
X134007200Y-46752400D01*
X134007200Y-47152400D01*
G37*
G36*
X134807200Y-47152400D02*
G01*
X134407200Y-47152400D01*
X134407200Y-46752400D01*
X134807200Y-46752400D01*
X134807200Y-47152400D01*
G37*
G36*
X135607200Y-47152400D02*
G01*
X135207200Y-47152400D01*
X135207200Y-46752400D01*
X135607200Y-46752400D01*
X135607200Y-47152400D01*
G37*
G36*
X136407200Y-47152400D02*
G01*
X136007200Y-47152400D01*
X136007200Y-46752400D01*
X136407200Y-46752400D01*
X136407200Y-47152400D01*
G37*
G36*
X137207200Y-47152400D02*
G01*
X136807200Y-47152400D01*
X136807200Y-46752400D01*
X137207200Y-46752400D01*
X137207200Y-47152400D01*
G37*
G36*
X138007200Y-47152400D02*
G01*
X137607200Y-47152400D01*
X137607200Y-46752400D01*
X138007200Y-46752400D01*
X138007200Y-47152400D01*
G37*
G36*
X138407200Y-47152400D02*
G01*
X138007200Y-47152400D01*
X138007200Y-46752400D01*
X138407200Y-46752400D01*
X138407200Y-47152400D01*
G37*
G36*
X138807200Y-47152400D02*
G01*
X138407200Y-47152400D01*
X138407200Y-46752400D01*
X138807200Y-46752400D01*
X138807200Y-47152400D01*
G37*
G36*
X139207200Y-47152400D02*
G01*
X138807200Y-47152400D01*
X138807200Y-46752400D01*
X139207200Y-46752400D01*
X139207200Y-47152400D01*
G37*
G36*
X139607200Y-47152400D02*
G01*
X139207200Y-47152400D01*
X139207200Y-46752400D01*
X139607200Y-46752400D01*
X139607200Y-47152400D01*
G37*
G36*
X140007200Y-47152400D02*
G01*
X139607200Y-47152400D01*
X139607200Y-46752400D01*
X140007200Y-46752400D01*
X140007200Y-47152400D01*
G37*
G36*
X140407200Y-47152400D02*
G01*
X140007200Y-47152400D01*
X140007200Y-46752400D01*
X140407200Y-46752400D01*
X140407200Y-47152400D01*
G37*
G36*
X130807200Y-47552400D02*
G01*
X130407200Y-47552400D01*
X130407200Y-47152400D01*
X130807200Y-47152400D01*
X130807200Y-47552400D01*
G37*
G36*
X131207200Y-47552400D02*
G01*
X130807200Y-47552400D01*
X130807200Y-47152400D01*
X131207200Y-47152400D01*
X131207200Y-47552400D01*
G37*
G36*
X131607200Y-47552400D02*
G01*
X131207200Y-47552400D01*
X131207200Y-47152400D01*
X131607200Y-47152400D01*
X131607200Y-47552400D01*
G37*
G36*
X134407200Y-47552400D02*
G01*
X134007200Y-47552400D01*
X134007200Y-47152400D01*
X134407200Y-47152400D01*
X134407200Y-47552400D01*
G37*
G36*
X134807200Y-47552400D02*
G01*
X134407200Y-47552400D01*
X134407200Y-47152400D01*
X134807200Y-47152400D01*
X134807200Y-47552400D01*
G37*
G36*
X135207200Y-47552400D02*
G01*
X134807200Y-47552400D01*
X134807200Y-47152400D01*
X135207200Y-47152400D01*
X135207200Y-47552400D01*
G37*
G36*
X135607200Y-47552400D02*
G01*
X135207200Y-47552400D01*
X135207200Y-47152400D01*
X135607200Y-47152400D01*
X135607200Y-47552400D01*
G37*
G36*
X136007200Y-47552400D02*
G01*
X135607200Y-47552400D01*
X135607200Y-47152400D01*
X136007200Y-47152400D01*
X136007200Y-47552400D01*
G37*
G36*
X136407200Y-47552400D02*
G01*
X136007200Y-47552400D01*
X136007200Y-47152400D01*
X136407200Y-47152400D01*
X136407200Y-47552400D01*
G37*
G36*
X137207200Y-47552400D02*
G01*
X136807200Y-47552400D01*
X136807200Y-47152400D01*
X137207200Y-47152400D01*
X137207200Y-47552400D01*
G37*
G36*
X127607200Y-47952400D02*
G01*
X127207200Y-47952400D01*
X127207200Y-47552400D01*
X127607200Y-47552400D01*
X127607200Y-47952400D01*
G37*
G36*
X129207200Y-47952400D02*
G01*
X128807200Y-47952400D01*
X128807200Y-47552400D01*
X129207200Y-47552400D01*
X129207200Y-47952400D01*
G37*
G36*
X130007200Y-47952400D02*
G01*
X129607200Y-47952400D01*
X129607200Y-47552400D01*
X130007200Y-47552400D01*
X130007200Y-47952400D01*
G37*
G36*
X130407200Y-47952400D02*
G01*
X130007200Y-47952400D01*
X130007200Y-47552400D01*
X130407200Y-47552400D01*
X130407200Y-47952400D01*
G37*
G36*
X130807200Y-47952400D02*
G01*
X130407200Y-47952400D01*
X130407200Y-47552400D01*
X130807200Y-47552400D01*
X130807200Y-47952400D01*
G37*
G36*
X131207200Y-47952400D02*
G01*
X130807200Y-47952400D01*
X130807200Y-47552400D01*
X131207200Y-47552400D01*
X131207200Y-47952400D01*
G37*
G36*
X132407200Y-47952400D02*
G01*
X132007200Y-47952400D01*
X132007200Y-47552400D01*
X132407200Y-47552400D01*
X132407200Y-47952400D01*
G37*
G36*
X133607200Y-47952400D02*
G01*
X133207200Y-47952400D01*
X133207200Y-47552400D01*
X133607200Y-47552400D01*
X133607200Y-47952400D01*
G37*
G36*
X134407200Y-47952400D02*
G01*
X134007200Y-47952400D01*
X134007200Y-47552400D01*
X134407200Y-47552400D01*
X134407200Y-47952400D01*
G37*
G36*
X134807200Y-47952400D02*
G01*
X134407200Y-47952400D01*
X134407200Y-47552400D01*
X134807200Y-47552400D01*
X134807200Y-47952400D01*
G37*
G36*
X135607200Y-47952400D02*
G01*
X135207200Y-47952400D01*
X135207200Y-47552400D01*
X135607200Y-47552400D01*
X135607200Y-47952400D01*
G37*
G36*
X136007200Y-47952400D02*
G01*
X135607200Y-47952400D01*
X135607200Y-47552400D01*
X136007200Y-47552400D01*
X136007200Y-47952400D01*
G37*
G36*
X136807200Y-47952400D02*
G01*
X136407200Y-47952400D01*
X136407200Y-47552400D01*
X136807200Y-47552400D01*
X136807200Y-47952400D01*
G37*
G36*
X137607200Y-47952400D02*
G01*
X137207200Y-47952400D01*
X137207200Y-47552400D01*
X137607200Y-47552400D01*
X137607200Y-47952400D01*
G37*
G36*
X138007200Y-47952400D02*
G01*
X137607200Y-47952400D01*
X137607200Y-47552400D01*
X138007200Y-47552400D01*
X138007200Y-47952400D01*
G37*
G36*
X138407200Y-47952400D02*
G01*
X138007200Y-47952400D01*
X138007200Y-47552400D01*
X138407200Y-47552400D01*
X138407200Y-47952400D01*
G37*
G36*
X138807200Y-47952400D02*
G01*
X138407200Y-47952400D01*
X138407200Y-47552400D01*
X138807200Y-47552400D01*
X138807200Y-47952400D01*
G37*
G36*
X139207200Y-47952400D02*
G01*
X138807200Y-47952400D01*
X138807200Y-47552400D01*
X139207200Y-47552400D01*
X139207200Y-47952400D01*
G37*
G36*
X140407200Y-47952400D02*
G01*
X140007200Y-47952400D01*
X140007200Y-47552400D01*
X140407200Y-47552400D01*
X140407200Y-47952400D01*
G37*
G36*
X127607200Y-48352400D02*
G01*
X127207200Y-48352400D01*
X127207200Y-47952400D01*
X127607200Y-47952400D01*
X127607200Y-48352400D01*
G37*
G36*
X128407200Y-48352400D02*
G01*
X128007200Y-48352400D01*
X128007200Y-47952400D01*
X128407200Y-47952400D01*
X128407200Y-48352400D01*
G37*
G36*
X128807200Y-48352400D02*
G01*
X128407200Y-48352400D01*
X128407200Y-47952400D01*
X128807200Y-47952400D01*
X128807200Y-48352400D01*
G37*
G36*
X129207200Y-48352400D02*
G01*
X128807200Y-48352400D01*
X128807200Y-47952400D01*
X129207200Y-47952400D01*
X129207200Y-48352400D01*
G37*
G36*
X129607200Y-48352400D02*
G01*
X129207200Y-48352400D01*
X129207200Y-47952400D01*
X129607200Y-47952400D01*
X129607200Y-48352400D01*
G37*
G36*
X131207200Y-48352400D02*
G01*
X130807200Y-48352400D01*
X130807200Y-47952400D01*
X131207200Y-47952400D01*
X131207200Y-48352400D01*
G37*
G36*
X132007200Y-48352400D02*
G01*
X131607200Y-48352400D01*
X131607200Y-47952400D01*
X132007200Y-47952400D01*
X132007200Y-48352400D01*
G37*
G36*
X133207200Y-48352400D02*
G01*
X132807200Y-48352400D01*
X132807200Y-47952400D01*
X133207200Y-47952400D01*
X133207200Y-48352400D01*
G37*
G36*
X133607200Y-48352400D02*
G01*
X133207200Y-48352400D01*
X133207200Y-47952400D01*
X133607200Y-47952400D01*
X133607200Y-48352400D01*
G37*
G36*
X134007200Y-48352400D02*
G01*
X133607200Y-48352400D01*
X133607200Y-47952400D01*
X134007200Y-47952400D01*
X134007200Y-48352400D01*
G37*
G36*
X134407200Y-48352400D02*
G01*
X134007200Y-48352400D01*
X134007200Y-47952400D01*
X134407200Y-47952400D01*
X134407200Y-48352400D01*
G37*
G36*
X134807200Y-48352400D02*
G01*
X134407200Y-48352400D01*
X134407200Y-47952400D01*
X134807200Y-47952400D01*
X134807200Y-48352400D01*
G37*
G36*
X136007200Y-48352400D02*
G01*
X135607200Y-48352400D01*
X135607200Y-47952400D01*
X136007200Y-47952400D01*
X136007200Y-48352400D01*
G37*
G36*
X136807200Y-48352400D02*
G01*
X136407200Y-48352400D01*
X136407200Y-47952400D01*
X136807200Y-47952400D01*
X136807200Y-48352400D01*
G37*
G36*
X137607200Y-48352400D02*
G01*
X137207200Y-48352400D01*
X137207200Y-47952400D01*
X137607200Y-47952400D01*
X137607200Y-48352400D01*
G37*
G36*
X139207200Y-48352400D02*
G01*
X138807200Y-48352400D01*
X138807200Y-47952400D01*
X139207200Y-47952400D01*
X139207200Y-48352400D01*
G37*
G36*
X139607200Y-48352400D02*
G01*
X139207200Y-48352400D01*
X139207200Y-47952400D01*
X139607200Y-47952400D01*
X139607200Y-48352400D01*
G37*
G36*
X127607200Y-48752400D02*
G01*
X127207200Y-48752400D01*
X127207200Y-48352400D01*
X127607200Y-48352400D01*
X127607200Y-48752400D01*
G37*
G36*
X129207200Y-48752400D02*
G01*
X128807200Y-48752400D01*
X128807200Y-48352400D01*
X129207200Y-48352400D01*
X129207200Y-48752400D01*
G37*
G36*
X129607200Y-48752400D02*
G01*
X129207200Y-48752400D01*
X129207200Y-48352400D01*
X129607200Y-48352400D01*
X129607200Y-48752400D01*
G37*
G36*
X130007200Y-48752400D02*
G01*
X129607200Y-48752400D01*
X129607200Y-48352400D01*
X130007200Y-48352400D01*
X130007200Y-48752400D01*
G37*
G36*
X130407200Y-48752400D02*
G01*
X130007200Y-48752400D01*
X130007200Y-48352400D01*
X130407200Y-48352400D01*
X130407200Y-48752400D01*
G37*
G36*
X131207200Y-48752400D02*
G01*
X130807200Y-48752400D01*
X130807200Y-48352400D01*
X131207200Y-48352400D01*
X131207200Y-48752400D01*
G37*
G36*
X132407200Y-48752400D02*
G01*
X132007200Y-48752400D01*
X132007200Y-48352400D01*
X132407200Y-48352400D01*
X132407200Y-48752400D01*
G37*
G36*
X132807200Y-48752400D02*
G01*
X132407200Y-48752400D01*
X132407200Y-48352400D01*
X132807200Y-48352400D01*
X132807200Y-48752400D01*
G37*
G36*
X133207200Y-48752400D02*
G01*
X132807200Y-48752400D01*
X132807200Y-48352400D01*
X133207200Y-48352400D01*
X133207200Y-48752400D01*
G37*
G36*
X133607200Y-48752400D02*
G01*
X133207200Y-48752400D01*
X133207200Y-48352400D01*
X133607200Y-48352400D01*
X133607200Y-48752400D01*
G37*
G36*
X134007200Y-48752400D02*
G01*
X133607200Y-48752400D01*
X133607200Y-48352400D01*
X134007200Y-48352400D01*
X134007200Y-48752400D01*
G37*
G36*
X134807200Y-48752400D02*
G01*
X134407200Y-48752400D01*
X134407200Y-48352400D01*
X134807200Y-48352400D01*
X134807200Y-48752400D01*
G37*
G36*
X135607200Y-48752400D02*
G01*
X135207200Y-48752400D01*
X135207200Y-48352400D01*
X135607200Y-48352400D01*
X135607200Y-48752400D01*
G37*
G36*
X136807200Y-48752400D02*
G01*
X136407200Y-48752400D01*
X136407200Y-48352400D01*
X136807200Y-48352400D01*
X136807200Y-48752400D01*
G37*
G36*
X139207200Y-48752400D02*
G01*
X138807200Y-48752400D01*
X138807200Y-48352400D01*
X139207200Y-48352400D01*
X139207200Y-48752400D01*
G37*
G36*
X140007200Y-48752400D02*
G01*
X139607200Y-48752400D01*
X139607200Y-48352400D01*
X140007200Y-48352400D01*
X140007200Y-48752400D01*
G37*
G36*
X127607200Y-49152400D02*
G01*
X127207200Y-49152400D01*
X127207200Y-48752400D01*
X127607200Y-48752400D01*
X127607200Y-49152400D01*
G37*
G36*
X128007200Y-49152400D02*
G01*
X127607200Y-49152400D01*
X127607200Y-48752400D01*
X128007200Y-48752400D01*
X128007200Y-49152400D01*
G37*
G36*
X128807200Y-49152400D02*
G01*
X128407200Y-49152400D01*
X128407200Y-48752400D01*
X128807200Y-48752400D01*
X128807200Y-49152400D01*
G37*
G36*
X129607200Y-49152400D02*
G01*
X129207200Y-49152400D01*
X129207200Y-48752400D01*
X129607200Y-48752400D01*
X129607200Y-49152400D01*
G37*
G36*
X130407200Y-49152400D02*
G01*
X130007200Y-49152400D01*
X130007200Y-48752400D01*
X130407200Y-48752400D01*
X130407200Y-49152400D01*
G37*
G36*
X130807200Y-49152400D02*
G01*
X130407200Y-49152400D01*
X130407200Y-48752400D01*
X130807200Y-48752400D01*
X130807200Y-49152400D01*
G37*
G36*
X131607200Y-49152400D02*
G01*
X131207200Y-49152400D01*
X131207200Y-48752400D01*
X131607200Y-48752400D01*
X131607200Y-49152400D01*
G37*
G36*
X132807200Y-49152400D02*
G01*
X132407200Y-49152400D01*
X132407200Y-48752400D01*
X132807200Y-48752400D01*
X132807200Y-49152400D01*
G37*
G36*
X136407200Y-49152400D02*
G01*
X136007200Y-49152400D01*
X136007200Y-48752400D01*
X136407200Y-48752400D01*
X136407200Y-49152400D01*
G37*
G36*
X136807200Y-49152400D02*
G01*
X136407200Y-49152400D01*
X136407200Y-48752400D01*
X136807200Y-48752400D01*
X136807200Y-49152400D01*
G37*
G36*
X137607200Y-49152400D02*
G01*
X137207200Y-49152400D01*
X137207200Y-48752400D01*
X137607200Y-48752400D01*
X137607200Y-49152400D01*
G37*
G36*
X140007200Y-49152400D02*
G01*
X139607200Y-49152400D01*
X139607200Y-48752400D01*
X140007200Y-48752400D01*
X140007200Y-49152400D01*
G37*
G36*
X127607200Y-49552400D02*
G01*
X127207200Y-49552400D01*
X127207200Y-49152400D01*
X127607200Y-49152400D01*
X127607200Y-49552400D01*
G37*
G36*
X128407200Y-49552400D02*
G01*
X128007200Y-49552400D01*
X128007200Y-49152400D01*
X128407200Y-49152400D01*
X128407200Y-49552400D01*
G37*
G36*
X128807200Y-49552400D02*
G01*
X128407200Y-49552400D01*
X128407200Y-49152400D01*
X128807200Y-49152400D01*
X128807200Y-49552400D01*
G37*
G36*
X129207200Y-49552400D02*
G01*
X128807200Y-49552400D01*
X128807200Y-49152400D01*
X129207200Y-49152400D01*
X129207200Y-49552400D01*
G37*
G36*
X129607200Y-49552400D02*
G01*
X129207200Y-49552400D01*
X129207200Y-49152400D01*
X129607200Y-49152400D01*
X129607200Y-49552400D01*
G37*
G36*
X130007200Y-49552400D02*
G01*
X129607200Y-49552400D01*
X129607200Y-49152400D01*
X130007200Y-49152400D01*
X130007200Y-49552400D01*
G37*
G36*
X130807200Y-49552400D02*
G01*
X130407200Y-49552400D01*
X130407200Y-49152400D01*
X130807200Y-49152400D01*
X130807200Y-49552400D01*
G37*
G36*
X131207200Y-49552400D02*
G01*
X130807200Y-49552400D01*
X130807200Y-49152400D01*
X131207200Y-49152400D01*
X131207200Y-49552400D01*
G37*
G36*
X131607200Y-49552400D02*
G01*
X131207200Y-49552400D01*
X131207200Y-49152400D01*
X131607200Y-49152400D01*
X131607200Y-49552400D01*
G37*
G36*
X132807200Y-49552400D02*
G01*
X132407200Y-49552400D01*
X132407200Y-49152400D01*
X132807200Y-49152400D01*
X132807200Y-49552400D01*
G37*
G36*
X134007200Y-49552400D02*
G01*
X133607200Y-49552400D01*
X133607200Y-49152400D01*
X134007200Y-49152400D01*
X134007200Y-49552400D01*
G37*
G36*
X135207200Y-49552400D02*
G01*
X134807200Y-49552400D01*
X134807200Y-49152400D01*
X135207200Y-49152400D01*
X135207200Y-49552400D01*
G37*
G36*
X136407200Y-49552400D02*
G01*
X136007200Y-49552400D01*
X136007200Y-49152400D01*
X136407200Y-49152400D01*
X136407200Y-49552400D01*
G37*
G36*
X136807200Y-49552400D02*
G01*
X136407200Y-49552400D01*
X136407200Y-49152400D01*
X136807200Y-49152400D01*
X136807200Y-49552400D01*
G37*
G36*
X137607200Y-49552400D02*
G01*
X137207200Y-49552400D01*
X137207200Y-49152400D01*
X137607200Y-49152400D01*
X137607200Y-49552400D01*
G37*
G36*
X138007200Y-49552400D02*
G01*
X137607200Y-49552400D01*
X137607200Y-49152400D01*
X138007200Y-49152400D01*
X138007200Y-49552400D01*
G37*
G36*
X139207200Y-49552400D02*
G01*
X138807200Y-49552400D01*
X138807200Y-49152400D01*
X139207200Y-49152400D01*
X139207200Y-49552400D01*
G37*
G36*
X140007200Y-49552400D02*
G01*
X139607200Y-49552400D01*
X139607200Y-49152400D01*
X140007200Y-49152400D01*
X140007200Y-49552400D01*
G37*
G36*
X140407200Y-49552400D02*
G01*
X140007200Y-49552400D01*
X140007200Y-49152400D01*
X140407200Y-49152400D01*
X140407200Y-49552400D01*
G37*
G36*
X127607200Y-49952400D02*
G01*
X127207200Y-49952400D01*
X127207200Y-49552400D01*
X127607200Y-49552400D01*
X127607200Y-49952400D01*
G37*
G36*
X128007200Y-49952400D02*
G01*
X127607200Y-49952400D01*
X127607200Y-49552400D01*
X128007200Y-49552400D01*
X128007200Y-49952400D01*
G37*
G36*
X128407200Y-49952400D02*
G01*
X128007200Y-49952400D01*
X128007200Y-49552400D01*
X128407200Y-49552400D01*
X128407200Y-49952400D01*
G37*
G36*
X128807200Y-49952400D02*
G01*
X128407200Y-49952400D01*
X128407200Y-49552400D01*
X128807200Y-49552400D01*
X128807200Y-49952400D01*
G37*
G36*
X130807200Y-49952400D02*
G01*
X130407200Y-49952400D01*
X130407200Y-49552400D01*
X130807200Y-49552400D01*
X130807200Y-49952400D01*
G37*
G36*
X132807200Y-49952400D02*
G01*
X132407200Y-49952400D01*
X132407200Y-49552400D01*
X132807200Y-49552400D01*
X132807200Y-49952400D01*
G37*
G36*
X133207200Y-49952400D02*
G01*
X132807200Y-49952400D01*
X132807200Y-49552400D01*
X133207200Y-49552400D01*
X133207200Y-49952400D01*
G37*
G36*
X134407200Y-49952400D02*
G01*
X134007200Y-49952400D01*
X134007200Y-49552400D01*
X134407200Y-49552400D01*
X134407200Y-49952400D01*
G37*
G36*
X134807200Y-49952400D02*
G01*
X134407200Y-49952400D01*
X134407200Y-49552400D01*
X134807200Y-49552400D01*
X134807200Y-49952400D01*
G37*
G36*
X135207200Y-49952400D02*
G01*
X134807200Y-49952400D01*
X134807200Y-49552400D01*
X135207200Y-49552400D01*
X135207200Y-49952400D01*
G37*
G36*
X135607200Y-49952400D02*
G01*
X135207200Y-49952400D01*
X135207200Y-49552400D01*
X135607200Y-49552400D01*
X135607200Y-49952400D01*
G37*
G36*
X136007200Y-49952400D02*
G01*
X135607200Y-49952400D01*
X135607200Y-49552400D01*
X136007200Y-49552400D01*
X136007200Y-49952400D01*
G37*
G36*
X137207200Y-49952400D02*
G01*
X136807200Y-49952400D01*
X136807200Y-49552400D01*
X137207200Y-49552400D01*
X137207200Y-49952400D01*
G37*
G36*
X138007200Y-49952400D02*
G01*
X137607200Y-49952400D01*
X137607200Y-49552400D01*
X138007200Y-49552400D01*
X138007200Y-49952400D01*
G37*
G36*
X138407200Y-49952400D02*
G01*
X138007200Y-49952400D01*
X138007200Y-49552400D01*
X138407200Y-49552400D01*
X138407200Y-49952400D01*
G37*
G36*
X138807200Y-49952400D02*
G01*
X138407200Y-49952400D01*
X138407200Y-49552400D01*
X138807200Y-49552400D01*
X138807200Y-49952400D01*
G37*
G36*
X139607200Y-49952400D02*
G01*
X139207200Y-49952400D01*
X139207200Y-49552400D01*
X139607200Y-49552400D01*
X139607200Y-49952400D01*
G37*
G36*
X128007200Y-50352400D02*
G01*
X127607200Y-50352400D01*
X127607200Y-49952400D01*
X128007200Y-49952400D01*
X128007200Y-50352400D01*
G37*
G36*
X128407200Y-50352400D02*
G01*
X128007200Y-50352400D01*
X128007200Y-49952400D01*
X128407200Y-49952400D01*
X128407200Y-50352400D01*
G37*
G36*
X128807200Y-50352400D02*
G01*
X128407200Y-50352400D01*
X128407200Y-49952400D01*
X128807200Y-49952400D01*
X128807200Y-50352400D01*
G37*
G36*
X129207200Y-50352400D02*
G01*
X128807200Y-50352400D01*
X128807200Y-49952400D01*
X129207200Y-49952400D01*
X129207200Y-50352400D01*
G37*
G36*
X129607200Y-50352400D02*
G01*
X129207200Y-50352400D01*
X129207200Y-49952400D01*
X129607200Y-49952400D01*
X129607200Y-50352400D01*
G37*
G36*
X130007200Y-50352400D02*
G01*
X129607200Y-50352400D01*
X129607200Y-49952400D01*
X130007200Y-49952400D01*
X130007200Y-50352400D01*
G37*
G36*
X130807200Y-50352400D02*
G01*
X130407200Y-50352400D01*
X130407200Y-49952400D01*
X130807200Y-49952400D01*
X130807200Y-50352400D01*
G37*
G36*
X131607200Y-50352400D02*
G01*
X131207200Y-50352400D01*
X131207200Y-49952400D01*
X131607200Y-49952400D01*
X131607200Y-50352400D01*
G37*
G36*
X133207200Y-50352400D02*
G01*
X132807200Y-50352400D01*
X132807200Y-49952400D01*
X133207200Y-49952400D01*
X133207200Y-50352400D01*
G37*
G36*
X133607200Y-50352400D02*
G01*
X133207200Y-50352400D01*
X133207200Y-49952400D01*
X133607200Y-49952400D01*
X133607200Y-50352400D01*
G37*
G36*
X134807200Y-50352400D02*
G01*
X134407200Y-50352400D01*
X134407200Y-49952400D01*
X134807200Y-49952400D01*
X134807200Y-50352400D01*
G37*
G36*
X135607200Y-50352400D02*
G01*
X135207200Y-50352400D01*
X135207200Y-49952400D01*
X135607200Y-49952400D01*
X135607200Y-50352400D01*
G37*
G36*
X136807200Y-50352400D02*
G01*
X136407200Y-50352400D01*
X136407200Y-49952400D01*
X136807200Y-49952400D01*
X136807200Y-50352400D01*
G37*
G36*
X137207200Y-50352400D02*
G01*
X136807200Y-50352400D01*
X136807200Y-49952400D01*
X137207200Y-49952400D01*
X137207200Y-50352400D01*
G37*
G36*
X137607200Y-50352400D02*
G01*
X137207200Y-50352400D01*
X137207200Y-49952400D01*
X137607200Y-49952400D01*
X137607200Y-50352400D01*
G37*
G36*
X138007200Y-50352400D02*
G01*
X137607200Y-50352400D01*
X137607200Y-49952400D01*
X138007200Y-49952400D01*
X138007200Y-50352400D01*
G37*
G36*
X138407200Y-50352400D02*
G01*
X138007200Y-50352400D01*
X138007200Y-49952400D01*
X138407200Y-49952400D01*
X138407200Y-50352400D01*
G37*
G36*
X139207200Y-50352400D02*
G01*
X138807200Y-50352400D01*
X138807200Y-49952400D01*
X139207200Y-49952400D01*
X139207200Y-50352400D01*
G37*
G36*
X139607200Y-50352400D02*
G01*
X139207200Y-50352400D01*
X139207200Y-49952400D01*
X139607200Y-49952400D01*
X139607200Y-50352400D01*
G37*
G36*
X140007200Y-50352400D02*
G01*
X139607200Y-50352400D01*
X139607200Y-49952400D01*
X140007200Y-49952400D01*
X140007200Y-50352400D01*
G37*
G36*
X128007200Y-50752400D02*
G01*
X127607200Y-50752400D01*
X127607200Y-50352400D01*
X128007200Y-50352400D01*
X128007200Y-50752400D01*
G37*
G36*
X128807200Y-50752400D02*
G01*
X128407200Y-50752400D01*
X128407200Y-50352400D01*
X128807200Y-50352400D01*
X128807200Y-50752400D01*
G37*
G36*
X132407200Y-50752400D02*
G01*
X132007200Y-50752400D01*
X132007200Y-50352400D01*
X132407200Y-50352400D01*
X132407200Y-50752400D01*
G37*
G36*
X132807200Y-50752400D02*
G01*
X132407200Y-50752400D01*
X132407200Y-50352400D01*
X132807200Y-50352400D01*
X132807200Y-50752400D01*
G37*
G36*
X133607200Y-50752400D02*
G01*
X133207200Y-50752400D01*
X133207200Y-50352400D01*
X133607200Y-50352400D01*
X133607200Y-50752400D01*
G37*
G36*
X134007200Y-50752400D02*
G01*
X133607200Y-50752400D01*
X133607200Y-50352400D01*
X134007200Y-50352400D01*
X134007200Y-50752400D01*
G37*
G36*
X134407200Y-50752400D02*
G01*
X134007200Y-50752400D01*
X134007200Y-50352400D01*
X134407200Y-50352400D01*
X134407200Y-50752400D01*
G37*
G36*
X134807200Y-50752400D02*
G01*
X134407200Y-50752400D01*
X134407200Y-50352400D01*
X134807200Y-50352400D01*
X134807200Y-50752400D01*
G37*
G36*
X136007200Y-50752400D02*
G01*
X135607200Y-50752400D01*
X135607200Y-50352400D01*
X136007200Y-50352400D01*
X136007200Y-50752400D01*
G37*
G36*
X136407200Y-50752400D02*
G01*
X136007200Y-50752400D01*
X136007200Y-50352400D01*
X136407200Y-50352400D01*
X136407200Y-50752400D01*
G37*
G36*
X136807200Y-50752400D02*
G01*
X136407200Y-50752400D01*
X136407200Y-50352400D01*
X136807200Y-50352400D01*
X136807200Y-50752400D01*
G37*
G36*
X137607200Y-50752400D02*
G01*
X137207200Y-50752400D01*
X137207200Y-50352400D01*
X137607200Y-50352400D01*
X137607200Y-50752400D01*
G37*
G36*
X138007200Y-50752400D02*
G01*
X137607200Y-50752400D01*
X137607200Y-50352400D01*
X138007200Y-50352400D01*
X138007200Y-50752400D01*
G37*
G36*
X127607200Y-51152400D02*
G01*
X127207200Y-51152400D01*
X127207200Y-50752400D01*
X127607200Y-50752400D01*
X127607200Y-51152400D01*
G37*
G36*
X128007200Y-51152400D02*
G01*
X127607200Y-51152400D01*
X127607200Y-50752400D01*
X128007200Y-50752400D01*
X128007200Y-51152400D01*
G37*
G36*
X129607200Y-51152400D02*
G01*
X129207200Y-51152400D01*
X129207200Y-50752400D01*
X129607200Y-50752400D01*
X129607200Y-51152400D01*
G37*
G36*
X130007200Y-51152400D02*
G01*
X129607200Y-51152400D01*
X129607200Y-50752400D01*
X130007200Y-50752400D01*
X130007200Y-51152400D01*
G37*
G36*
X130807200Y-51152400D02*
G01*
X130407200Y-51152400D01*
X130407200Y-50752400D01*
X130807200Y-50752400D01*
X130807200Y-51152400D01*
G37*
G36*
X131207200Y-51152400D02*
G01*
X130807200Y-51152400D01*
X130807200Y-50752400D01*
X131207200Y-50752400D01*
X131207200Y-51152400D01*
G37*
G36*
X131607200Y-51152400D02*
G01*
X131207200Y-51152400D01*
X131207200Y-50752400D01*
X131607200Y-50752400D01*
X131607200Y-51152400D01*
G37*
G36*
X132007200Y-51152400D02*
G01*
X131607200Y-51152400D01*
X131607200Y-50752400D01*
X132007200Y-50752400D01*
X132007200Y-51152400D01*
G37*
G36*
X132407200Y-51152400D02*
G01*
X132007200Y-51152400D01*
X132007200Y-50752400D01*
X132407200Y-50752400D01*
X132407200Y-51152400D01*
G37*
G36*
X134407200Y-51152400D02*
G01*
X134007200Y-51152400D01*
X134007200Y-50752400D01*
X134407200Y-50752400D01*
X134407200Y-51152400D01*
G37*
G36*
X135207200Y-51152400D02*
G01*
X134807200Y-51152400D01*
X134807200Y-50752400D01*
X135207200Y-50752400D01*
X135207200Y-51152400D01*
G37*
G36*
X136007200Y-51152400D02*
G01*
X135607200Y-51152400D01*
X135607200Y-50752400D01*
X136007200Y-50752400D01*
X136007200Y-51152400D01*
G37*
G36*
X136407200Y-51152400D02*
G01*
X136007200Y-51152400D01*
X136007200Y-50752400D01*
X136407200Y-50752400D01*
X136407200Y-51152400D01*
G37*
G36*
X137207200Y-51152400D02*
G01*
X136807200Y-51152400D01*
X136807200Y-50752400D01*
X137207200Y-50752400D01*
X137207200Y-51152400D01*
G37*
G36*
X138007200Y-51152400D02*
G01*
X137607200Y-51152400D01*
X137607200Y-50752400D01*
X138007200Y-50752400D01*
X138007200Y-51152400D01*
G37*
G36*
X138807200Y-51152400D02*
G01*
X138407200Y-51152400D01*
X138407200Y-50752400D01*
X138807200Y-50752400D01*
X138807200Y-51152400D01*
G37*
G36*
X140007200Y-51152400D02*
G01*
X139607200Y-51152400D01*
X139607200Y-50752400D01*
X140007200Y-50752400D01*
X140007200Y-51152400D01*
G37*
G36*
X128007200Y-51552400D02*
G01*
X127607200Y-51552400D01*
X127607200Y-51152400D01*
X128007200Y-51152400D01*
X128007200Y-51552400D01*
G37*
G36*
X128807200Y-51552400D02*
G01*
X128407200Y-51552400D01*
X128407200Y-51152400D01*
X128807200Y-51152400D01*
X128807200Y-51552400D01*
G37*
G36*
X129607200Y-51552400D02*
G01*
X129207200Y-51552400D01*
X129207200Y-51152400D01*
X129607200Y-51152400D01*
X129607200Y-51552400D01*
G37*
G36*
X130407200Y-51552400D02*
G01*
X130007200Y-51552400D01*
X130007200Y-51152400D01*
X130407200Y-51152400D01*
X130407200Y-51552400D01*
G37*
G36*
X130807200Y-51552400D02*
G01*
X130407200Y-51552400D01*
X130407200Y-51152400D01*
X130807200Y-51152400D01*
X130807200Y-51552400D01*
G37*
G36*
X132007200Y-51552400D02*
G01*
X131607200Y-51552400D01*
X131607200Y-51152400D01*
X132007200Y-51152400D01*
X132007200Y-51552400D01*
G37*
G36*
X132807200Y-51552400D02*
G01*
X132407200Y-51552400D01*
X132407200Y-51152400D01*
X132807200Y-51152400D01*
X132807200Y-51552400D01*
G37*
G36*
X133207200Y-51552400D02*
G01*
X132807200Y-51552400D01*
X132807200Y-51152400D01*
X133207200Y-51152400D01*
X133207200Y-51552400D01*
G37*
G36*
X133607200Y-51552400D02*
G01*
X133207200Y-51552400D01*
X133207200Y-51152400D01*
X133607200Y-51152400D01*
X133607200Y-51552400D01*
G37*
G36*
X134007200Y-51552400D02*
G01*
X133607200Y-51552400D01*
X133607200Y-51152400D01*
X134007200Y-51152400D01*
X134007200Y-51552400D01*
G37*
G36*
X136807200Y-51552400D02*
G01*
X136407200Y-51552400D01*
X136407200Y-51152400D01*
X136807200Y-51152400D01*
X136807200Y-51552400D01*
G37*
G36*
X137607200Y-51552400D02*
G01*
X137207200Y-51552400D01*
X137207200Y-51152400D01*
X137607200Y-51152400D01*
X137607200Y-51552400D01*
G37*
G36*
X139207200Y-51552400D02*
G01*
X138807200Y-51552400D01*
X138807200Y-51152400D01*
X139207200Y-51152400D01*
X139207200Y-51552400D01*
G37*
G36*
X139607200Y-51552400D02*
G01*
X139207200Y-51552400D01*
X139207200Y-51152400D01*
X139607200Y-51152400D01*
X139607200Y-51552400D01*
G37*
G36*
X140007200Y-51552400D02*
G01*
X139607200Y-51552400D01*
X139607200Y-51152400D01*
X140007200Y-51152400D01*
X140007200Y-51552400D01*
G37*
G36*
X127607200Y-51952400D02*
G01*
X127207200Y-51952400D01*
X127207200Y-51552400D01*
X127607200Y-51552400D01*
X127607200Y-51952400D01*
G37*
G36*
X128007200Y-51952400D02*
G01*
X127607200Y-51952400D01*
X127607200Y-51552400D01*
X128007200Y-51552400D01*
X128007200Y-51952400D01*
G37*
G36*
X128407200Y-51952400D02*
G01*
X128007200Y-51952400D01*
X128007200Y-51552400D01*
X128407200Y-51552400D01*
X128407200Y-51952400D01*
G37*
G36*
X128807200Y-51952400D02*
G01*
X128407200Y-51952400D01*
X128407200Y-51552400D01*
X128807200Y-51552400D01*
X128807200Y-51952400D01*
G37*
G36*
X130007200Y-51952400D02*
G01*
X129607200Y-51952400D01*
X129607200Y-51552400D01*
X130007200Y-51552400D01*
X130007200Y-51952400D01*
G37*
G36*
X132007200Y-51952400D02*
G01*
X131607200Y-51952400D01*
X131607200Y-51552400D01*
X132007200Y-51552400D01*
X132007200Y-51952400D01*
G37*
G36*
X133207200Y-51952400D02*
G01*
X132807200Y-51952400D01*
X132807200Y-51552400D01*
X133207200Y-51552400D01*
X133207200Y-51952400D01*
G37*
G36*
X133607200Y-51952400D02*
G01*
X133207200Y-51952400D01*
X133207200Y-51552400D01*
X133607200Y-51552400D01*
X133607200Y-51952400D01*
G37*
G36*
X134407200Y-51952400D02*
G01*
X134007200Y-51952400D01*
X134007200Y-51552400D01*
X134407200Y-51552400D01*
X134407200Y-51952400D01*
G37*
G36*
X135607200Y-51952400D02*
G01*
X135207200Y-51952400D01*
X135207200Y-51552400D01*
X135607200Y-51552400D01*
X135607200Y-51952400D01*
G37*
G36*
X136007200Y-51952400D02*
G01*
X135607200Y-51952400D01*
X135607200Y-51552400D01*
X136007200Y-51552400D01*
X136007200Y-51952400D01*
G37*
G36*
X136407200Y-51952400D02*
G01*
X136007200Y-51952400D01*
X136007200Y-51552400D01*
X136407200Y-51552400D01*
X136407200Y-51952400D01*
G37*
G36*
X136807200Y-51952400D02*
G01*
X136407200Y-51952400D01*
X136407200Y-51552400D01*
X136807200Y-51552400D01*
X136807200Y-51952400D01*
G37*
G36*
X137607200Y-51952400D02*
G01*
X137207200Y-51952400D01*
X137207200Y-51552400D01*
X137607200Y-51552400D01*
X137607200Y-51952400D01*
G37*
G36*
X138007200Y-51952400D02*
G01*
X137607200Y-51952400D01*
X137607200Y-51552400D01*
X138007200Y-51552400D01*
X138007200Y-51952400D01*
G37*
G36*
X138407200Y-51952400D02*
G01*
X138007200Y-51952400D01*
X138007200Y-51552400D01*
X138407200Y-51552400D01*
X138407200Y-51952400D01*
G37*
G36*
X139207200Y-51952400D02*
G01*
X138807200Y-51952400D01*
X138807200Y-51552400D01*
X139207200Y-51552400D01*
X139207200Y-51952400D01*
G37*
G36*
X140007200Y-51952400D02*
G01*
X139607200Y-51952400D01*
X139607200Y-51552400D01*
X140007200Y-51552400D01*
X140007200Y-51952400D01*
G37*
G36*
X128007200Y-52352400D02*
G01*
X127607200Y-52352400D01*
X127607200Y-51952400D01*
X128007200Y-51952400D01*
X128007200Y-52352400D01*
G37*
G36*
X128807200Y-52352400D02*
G01*
X128407200Y-52352400D01*
X128407200Y-51952400D01*
X128807200Y-51952400D01*
X128807200Y-52352400D01*
G37*
G36*
X129207200Y-52352400D02*
G01*
X128807200Y-52352400D01*
X128807200Y-51952400D01*
X129207200Y-51952400D01*
X129207200Y-52352400D01*
G37*
G36*
X130407200Y-52352400D02*
G01*
X130007200Y-52352400D01*
X130007200Y-51952400D01*
X130407200Y-51952400D01*
X130407200Y-52352400D01*
G37*
G36*
X131607200Y-52352400D02*
G01*
X131207200Y-52352400D01*
X131207200Y-51952400D01*
X131607200Y-51952400D01*
X131607200Y-52352400D01*
G37*
G36*
X132407200Y-52352400D02*
G01*
X132007200Y-52352400D01*
X132007200Y-51952400D01*
X132407200Y-51952400D01*
X132407200Y-52352400D01*
G37*
G36*
X133207200Y-52352400D02*
G01*
X132807200Y-52352400D01*
X132807200Y-51952400D01*
X133207200Y-51952400D01*
X133207200Y-52352400D01*
G37*
G36*
X134407200Y-52352400D02*
G01*
X134007200Y-52352400D01*
X134007200Y-51952400D01*
X134407200Y-51952400D01*
X134407200Y-52352400D01*
G37*
G36*
X134807200Y-52352400D02*
G01*
X134407200Y-52352400D01*
X134407200Y-51952400D01*
X134807200Y-51952400D01*
X134807200Y-52352400D01*
G37*
G36*
X135207200Y-52352400D02*
G01*
X134807200Y-52352400D01*
X134807200Y-51952400D01*
X135207200Y-51952400D01*
X135207200Y-52352400D01*
G37*
G36*
X135607200Y-52352400D02*
G01*
X135207200Y-52352400D01*
X135207200Y-51952400D01*
X135607200Y-51952400D01*
X135607200Y-52352400D01*
G37*
G36*
X136007200Y-52352400D02*
G01*
X135607200Y-52352400D01*
X135607200Y-51952400D01*
X136007200Y-51952400D01*
X136007200Y-52352400D01*
G37*
G36*
X136807200Y-52352400D02*
G01*
X136407200Y-52352400D01*
X136407200Y-51952400D01*
X136807200Y-51952400D01*
X136807200Y-52352400D01*
G37*
G36*
X137207200Y-52352400D02*
G01*
X136807200Y-52352400D01*
X136807200Y-51952400D01*
X137207200Y-51952400D01*
X137207200Y-52352400D01*
G37*
G36*
X138007200Y-52352400D02*
G01*
X137607200Y-52352400D01*
X137607200Y-51952400D01*
X138007200Y-51952400D01*
X138007200Y-52352400D01*
G37*
G36*
X138407200Y-52352400D02*
G01*
X138007200Y-52352400D01*
X138007200Y-51952400D01*
X138407200Y-51952400D01*
X138407200Y-52352400D01*
G37*
G36*
X140007200Y-52352400D02*
G01*
X139607200Y-52352400D01*
X139607200Y-51952400D01*
X140007200Y-51952400D01*
X140007200Y-52352400D01*
G37*
G36*
X140407200Y-52352400D02*
G01*
X140007200Y-52352400D01*
X140007200Y-51952400D01*
X140407200Y-51952400D01*
X140407200Y-52352400D01*
G37*
G36*
X128007200Y-52752400D02*
G01*
X127607200Y-52752400D01*
X127607200Y-52352400D01*
X128007200Y-52352400D01*
X128007200Y-52752400D01*
G37*
G36*
X128407200Y-52752400D02*
G01*
X128007200Y-52752400D01*
X128007200Y-52352400D01*
X128407200Y-52352400D01*
X128407200Y-52752400D01*
G37*
G36*
X128807200Y-52752400D02*
G01*
X128407200Y-52752400D01*
X128407200Y-52352400D01*
X128807200Y-52352400D01*
X128807200Y-52752400D01*
G37*
G36*
X129207200Y-52752400D02*
G01*
X128807200Y-52752400D01*
X128807200Y-52352400D01*
X129207200Y-52352400D01*
X129207200Y-52752400D01*
G37*
G36*
X130007200Y-52752400D02*
G01*
X129607200Y-52752400D01*
X129607200Y-52352400D01*
X130007200Y-52352400D01*
X130007200Y-52752400D01*
G37*
G36*
X130407200Y-52752400D02*
G01*
X130007200Y-52752400D01*
X130007200Y-52352400D01*
X130407200Y-52352400D01*
X130407200Y-52752400D01*
G37*
G36*
X130807200Y-52752400D02*
G01*
X130407200Y-52752400D01*
X130407200Y-52352400D01*
X130807200Y-52352400D01*
X130807200Y-52752400D01*
G37*
G36*
X131207200Y-52752400D02*
G01*
X130807200Y-52752400D01*
X130807200Y-52352400D01*
X131207200Y-52352400D01*
X131207200Y-52752400D01*
G37*
G36*
X131607200Y-52752400D02*
G01*
X131207200Y-52752400D01*
X131207200Y-52352400D01*
X131607200Y-52352400D01*
X131607200Y-52752400D01*
G37*
G36*
X132007200Y-52752400D02*
G01*
X131607200Y-52752400D01*
X131607200Y-52352400D01*
X132007200Y-52352400D01*
X132007200Y-52752400D01*
G37*
G36*
X132407200Y-52752400D02*
G01*
X132007200Y-52752400D01*
X132007200Y-52352400D01*
X132407200Y-52352400D01*
X132407200Y-52752400D01*
G37*
G36*
X132807200Y-52752400D02*
G01*
X132407200Y-52752400D01*
X132407200Y-52352400D01*
X132807200Y-52352400D01*
X132807200Y-52752400D01*
G37*
G36*
X133607200Y-52752400D02*
G01*
X133207200Y-52752400D01*
X133207200Y-52352400D01*
X133607200Y-52352400D01*
X133607200Y-52752400D01*
G37*
G36*
X134807200Y-52752400D02*
G01*
X134407200Y-52752400D01*
X134407200Y-52352400D01*
X134807200Y-52352400D01*
X134807200Y-52752400D01*
G37*
G36*
X135607200Y-52752400D02*
G01*
X135207200Y-52752400D01*
X135207200Y-52352400D01*
X135607200Y-52352400D01*
X135607200Y-52752400D01*
G37*
G36*
X137207200Y-52752400D02*
G01*
X136807200Y-52752400D01*
X136807200Y-52352400D01*
X137207200Y-52352400D01*
X137207200Y-52752400D01*
G37*
G36*
X138407200Y-52752400D02*
G01*
X138007200Y-52752400D01*
X138007200Y-52352400D01*
X138407200Y-52352400D01*
X138407200Y-52752400D01*
G37*
G36*
X139207200Y-52752400D02*
G01*
X138807200Y-52752400D01*
X138807200Y-52352400D01*
X139207200Y-52352400D01*
X139207200Y-52752400D01*
G37*
G36*
X140407200Y-52752400D02*
G01*
X140007200Y-52752400D01*
X140007200Y-52352400D01*
X140407200Y-52352400D01*
X140407200Y-52752400D01*
G37*
G36*
X127607200Y-53152400D02*
G01*
X127207200Y-53152400D01*
X127207200Y-52752400D01*
X127607200Y-52752400D01*
X127607200Y-53152400D01*
G37*
G36*
X128407200Y-53152400D02*
G01*
X128007200Y-53152400D01*
X128007200Y-52752400D01*
X128407200Y-52752400D01*
X128407200Y-53152400D01*
G37*
G36*
X128807200Y-53152400D02*
G01*
X128407200Y-53152400D01*
X128407200Y-52752400D01*
X128807200Y-52752400D01*
X128807200Y-53152400D01*
G37*
G36*
X129607200Y-53152400D02*
G01*
X129207200Y-53152400D01*
X129207200Y-52752400D01*
X129607200Y-52752400D01*
X129607200Y-53152400D01*
G37*
G36*
X131607200Y-53152400D02*
G01*
X131207200Y-53152400D01*
X131207200Y-52752400D01*
X131607200Y-52752400D01*
X131607200Y-53152400D01*
G37*
G36*
X132007200Y-53152400D02*
G01*
X131607200Y-53152400D01*
X131607200Y-52752400D01*
X132007200Y-52752400D01*
X132007200Y-53152400D01*
G37*
G36*
X132407200Y-53152400D02*
G01*
X132007200Y-53152400D01*
X132007200Y-52752400D01*
X132407200Y-52752400D01*
X132407200Y-53152400D01*
G37*
G36*
X133207200Y-53152400D02*
G01*
X132807200Y-53152400D01*
X132807200Y-52752400D01*
X133207200Y-52752400D01*
X133207200Y-53152400D01*
G37*
G36*
X134007200Y-53152400D02*
G01*
X133607200Y-53152400D01*
X133607200Y-52752400D01*
X134007200Y-52752400D01*
X134007200Y-53152400D01*
G37*
G36*
X135207200Y-53152400D02*
G01*
X134807200Y-53152400D01*
X134807200Y-52752400D01*
X135207200Y-52752400D01*
X135207200Y-53152400D01*
G37*
G36*
X136407200Y-53152400D02*
G01*
X136007200Y-53152400D01*
X136007200Y-52752400D01*
X136407200Y-52752400D01*
X136407200Y-53152400D01*
G37*
G36*
X137607200Y-53152400D02*
G01*
X137207200Y-53152400D01*
X137207200Y-52752400D01*
X137607200Y-52752400D01*
X137607200Y-53152400D01*
G37*
G36*
X138007200Y-53152400D02*
G01*
X137607200Y-53152400D01*
X137607200Y-52752400D01*
X138007200Y-52752400D01*
X138007200Y-53152400D01*
G37*
G36*
X139207200Y-53152400D02*
G01*
X138807200Y-53152400D01*
X138807200Y-52752400D01*
X139207200Y-52752400D01*
X139207200Y-53152400D01*
G37*
G36*
X139607200Y-53152400D02*
G01*
X139207200Y-53152400D01*
X139207200Y-52752400D01*
X139607200Y-52752400D01*
X139607200Y-53152400D01*
G37*
G36*
X140007200Y-53152400D02*
G01*
X139607200Y-53152400D01*
X139607200Y-52752400D01*
X140007200Y-52752400D01*
X140007200Y-53152400D01*
G37*
G36*
X130007200Y-53552400D02*
G01*
X129607200Y-53552400D01*
X129607200Y-53152400D01*
X130007200Y-53152400D01*
X130007200Y-53552400D01*
G37*
G36*
X130807200Y-53552400D02*
G01*
X130407200Y-53552400D01*
X130407200Y-53152400D01*
X130807200Y-53152400D01*
X130807200Y-53552400D01*
G37*
G36*
X132407200Y-53552400D02*
G01*
X132007200Y-53552400D01*
X132007200Y-53152400D01*
X132407200Y-53152400D01*
X132407200Y-53552400D01*
G37*
G36*
X132807200Y-53552400D02*
G01*
X132407200Y-53552400D01*
X132407200Y-53152400D01*
X132807200Y-53152400D01*
X132807200Y-53552400D01*
G37*
G36*
X133207200Y-53552400D02*
G01*
X132807200Y-53552400D01*
X132807200Y-53152400D01*
X133207200Y-53152400D01*
X133207200Y-53552400D01*
G37*
G36*
X134007200Y-53552400D02*
G01*
X133607200Y-53552400D01*
X133607200Y-53152400D01*
X134007200Y-53152400D01*
X134007200Y-53552400D01*
G37*
G36*
X134407200Y-53552400D02*
G01*
X134007200Y-53552400D01*
X134007200Y-53152400D01*
X134407200Y-53152400D01*
X134407200Y-53552400D01*
G37*
G36*
X135207200Y-53552400D02*
G01*
X134807200Y-53552400D01*
X134807200Y-53152400D01*
X135207200Y-53152400D01*
X135207200Y-53552400D01*
G37*
G36*
X136407200Y-53552400D02*
G01*
X136007200Y-53552400D01*
X136007200Y-53152400D01*
X136407200Y-53152400D01*
X136407200Y-53552400D01*
G37*
G36*
X137607200Y-53552400D02*
G01*
X137207200Y-53552400D01*
X137207200Y-53152400D01*
X137607200Y-53152400D01*
X137607200Y-53552400D01*
G37*
G36*
X138807200Y-53552400D02*
G01*
X138407200Y-53552400D01*
X138407200Y-53152400D01*
X138807200Y-53152400D01*
X138807200Y-53552400D01*
G37*
G36*
X140007200Y-53552400D02*
G01*
X139607200Y-53552400D01*
X139607200Y-53152400D01*
X140007200Y-53152400D01*
X140007200Y-53552400D01*
G37*
G36*
X128407200Y-53952400D02*
G01*
X128007200Y-53952400D01*
X128007200Y-53552400D01*
X128407200Y-53552400D01*
X128407200Y-53952400D01*
G37*
G36*
X129207200Y-53952400D02*
G01*
X128807200Y-53952400D01*
X128807200Y-53552400D01*
X129207200Y-53552400D01*
X129207200Y-53952400D01*
G37*
G36*
X129607200Y-53952400D02*
G01*
X129207200Y-53952400D01*
X129207200Y-53552400D01*
X129607200Y-53552400D01*
X129607200Y-53952400D01*
G37*
G36*
X130407200Y-53952400D02*
G01*
X130007200Y-53952400D01*
X130007200Y-53552400D01*
X130407200Y-53552400D01*
X130407200Y-53952400D01*
G37*
G36*
X130807200Y-53952400D02*
G01*
X130407200Y-53952400D01*
X130407200Y-53552400D01*
X130807200Y-53552400D01*
X130807200Y-53952400D01*
G37*
G36*
X131607200Y-53952400D02*
G01*
X131207200Y-53952400D01*
X131207200Y-53552400D01*
X131607200Y-53552400D01*
X131607200Y-53952400D01*
G37*
G36*
X132007200Y-53952400D02*
G01*
X131607200Y-53952400D01*
X131607200Y-53552400D01*
X132007200Y-53552400D01*
X132007200Y-53952400D01*
G37*
G36*
X132407200Y-53952400D02*
G01*
X132007200Y-53952400D01*
X132007200Y-53552400D01*
X132407200Y-53552400D01*
X132407200Y-53952400D01*
G37*
G36*
X132807200Y-53952400D02*
G01*
X132407200Y-53952400D01*
X132407200Y-53552400D01*
X132807200Y-53552400D01*
X132807200Y-53952400D01*
G37*
G36*
X133207200Y-53952400D02*
G01*
X132807200Y-53952400D01*
X132807200Y-53552400D01*
X133207200Y-53552400D01*
X133207200Y-53952400D01*
G37*
G36*
X134407200Y-53952400D02*
G01*
X134007200Y-53952400D01*
X134007200Y-53552400D01*
X134407200Y-53552400D01*
X134407200Y-53952400D01*
G37*
G36*
X134807200Y-53952400D02*
G01*
X134407200Y-53952400D01*
X134407200Y-53552400D01*
X134807200Y-53552400D01*
X134807200Y-53952400D01*
G37*
G36*
X135207200Y-53952400D02*
G01*
X134807200Y-53952400D01*
X134807200Y-53552400D01*
X135207200Y-53552400D01*
X135207200Y-53952400D01*
G37*
G36*
X135607200Y-53952400D02*
G01*
X135207200Y-53952400D01*
X135207200Y-53552400D01*
X135607200Y-53552400D01*
X135607200Y-53952400D01*
G37*
G36*
X136007200Y-53952400D02*
G01*
X135607200Y-53952400D01*
X135607200Y-53552400D01*
X136007200Y-53552400D01*
X136007200Y-53952400D01*
G37*
G36*
X137207200Y-53952400D02*
G01*
X136807200Y-53952400D01*
X136807200Y-53552400D01*
X137207200Y-53552400D01*
X137207200Y-53952400D01*
G37*
G36*
X137607200Y-53952400D02*
G01*
X137207200Y-53952400D01*
X137207200Y-53552400D01*
X137607200Y-53552400D01*
X137607200Y-53952400D01*
G37*
G36*
X138007200Y-53952400D02*
G01*
X137607200Y-53952400D01*
X137607200Y-53552400D01*
X138007200Y-53552400D01*
X138007200Y-53952400D01*
G37*
G36*
X138407200Y-53952400D02*
G01*
X138007200Y-53952400D01*
X138007200Y-53552400D01*
X138407200Y-53552400D01*
X138407200Y-53952400D01*
G37*
G36*
X138807200Y-53952400D02*
G01*
X138407200Y-53952400D01*
X138407200Y-53552400D01*
X138807200Y-53552400D01*
X138807200Y-53952400D01*
G37*
G36*
X139207200Y-53952400D02*
G01*
X138807200Y-53952400D01*
X138807200Y-53552400D01*
X139207200Y-53552400D01*
X139207200Y-53952400D01*
G37*
G36*
X140007200Y-53952400D02*
G01*
X139607200Y-53952400D01*
X139607200Y-53552400D01*
X140007200Y-53552400D01*
X140007200Y-53952400D01*
G37*
G36*
X140407200Y-53952400D02*
G01*
X140007200Y-53952400D01*
X140007200Y-53552400D01*
X140407200Y-53552400D01*
X140407200Y-53952400D01*
G37*
G36*
X127607200Y-54352400D02*
G01*
X127207200Y-54352400D01*
X127207200Y-53952400D01*
X127607200Y-53952400D01*
X127607200Y-54352400D01*
G37*
G36*
X128007200Y-54352400D02*
G01*
X127607200Y-54352400D01*
X127607200Y-53952400D01*
X128007200Y-53952400D01*
X128007200Y-54352400D01*
G37*
G36*
X128407200Y-54352400D02*
G01*
X128007200Y-54352400D01*
X128007200Y-53952400D01*
X128407200Y-53952400D01*
X128407200Y-54352400D01*
G37*
G36*
X128807200Y-54352400D02*
G01*
X128407200Y-54352400D01*
X128407200Y-53952400D01*
X128807200Y-53952400D01*
X128807200Y-54352400D01*
G37*
G36*
X130007200Y-54352400D02*
G01*
X129607200Y-54352400D01*
X129607200Y-53952400D01*
X130007200Y-53952400D01*
X130007200Y-54352400D01*
G37*
G36*
X131207200Y-54352400D02*
G01*
X130807200Y-54352400D01*
X130807200Y-53952400D01*
X131207200Y-53952400D01*
X131207200Y-54352400D01*
G37*
G36*
X131607200Y-54352400D02*
G01*
X131207200Y-54352400D01*
X131207200Y-53952400D01*
X131607200Y-53952400D01*
X131607200Y-54352400D01*
G37*
G36*
X132407200Y-54352400D02*
G01*
X132007200Y-54352400D01*
X132007200Y-53952400D01*
X132407200Y-53952400D01*
X132407200Y-54352400D01*
G37*
G36*
X132807200Y-54352400D02*
G01*
X132407200Y-54352400D01*
X132407200Y-53952400D01*
X132807200Y-53952400D01*
X132807200Y-54352400D01*
G37*
G36*
X133607200Y-54352400D02*
G01*
X133207200Y-54352400D01*
X133207200Y-53952400D01*
X133607200Y-53952400D01*
X133607200Y-54352400D01*
G37*
G36*
X134007200Y-54352400D02*
G01*
X133607200Y-54352400D01*
X133607200Y-53952400D01*
X134007200Y-53952400D01*
X134007200Y-54352400D01*
G37*
G36*
X134407200Y-54352400D02*
G01*
X134007200Y-54352400D01*
X134007200Y-53952400D01*
X134407200Y-53952400D01*
X134407200Y-54352400D01*
G37*
G36*
X135607200Y-54352400D02*
G01*
X135207200Y-54352400D01*
X135207200Y-53952400D01*
X135607200Y-53952400D01*
X135607200Y-54352400D01*
G37*
G36*
X136007200Y-54352400D02*
G01*
X135607200Y-54352400D01*
X135607200Y-53952400D01*
X136007200Y-53952400D01*
X136007200Y-54352400D01*
G37*
G36*
X136407200Y-54352400D02*
G01*
X136007200Y-54352400D01*
X136007200Y-53952400D01*
X136407200Y-53952400D01*
X136407200Y-54352400D01*
G37*
G36*
X136807200Y-54352400D02*
G01*
X136407200Y-54352400D01*
X136407200Y-53952400D01*
X136807200Y-53952400D01*
X136807200Y-54352400D01*
G37*
G36*
X137207200Y-54352400D02*
G01*
X136807200Y-54352400D01*
X136807200Y-53952400D01*
X137207200Y-53952400D01*
X137207200Y-54352400D01*
G37*
G36*
X137607200Y-54352400D02*
G01*
X137207200Y-54352400D01*
X137207200Y-53952400D01*
X137607200Y-53952400D01*
X137607200Y-54352400D01*
G37*
G36*
X138007200Y-54352400D02*
G01*
X137607200Y-54352400D01*
X137607200Y-53952400D01*
X138007200Y-53952400D01*
X138007200Y-54352400D01*
G37*
G36*
X138407200Y-54352400D02*
G01*
X138007200Y-54352400D01*
X138007200Y-53952400D01*
X138407200Y-53952400D01*
X138407200Y-54352400D01*
G37*
G36*
X138807200Y-54352400D02*
G01*
X138407200Y-54352400D01*
X138407200Y-53952400D01*
X138807200Y-53952400D01*
X138807200Y-54352400D01*
G37*
G36*
X139607200Y-54352400D02*
G01*
X139207200Y-54352400D01*
X139207200Y-53952400D01*
X139607200Y-53952400D01*
X139607200Y-54352400D01*
G37*
G36*
X140007200Y-54352400D02*
G01*
X139607200Y-54352400D01*
X139607200Y-53952400D01*
X140007200Y-53952400D01*
X140007200Y-54352400D01*
G37*
G36*
X140407200Y-54352400D02*
G01*
X140007200Y-54352400D01*
X140007200Y-53952400D01*
X140407200Y-53952400D01*
X140407200Y-54352400D01*
G37*
G36*
X130807200Y-54752400D02*
G01*
X130407200Y-54752400D01*
X130407200Y-54352400D01*
X130807200Y-54352400D01*
X130807200Y-54752400D01*
G37*
G36*
X131207200Y-54752400D02*
G01*
X130807200Y-54752400D01*
X130807200Y-54352400D01*
X131207200Y-54352400D01*
X131207200Y-54752400D01*
G37*
G36*
X131607200Y-54752400D02*
G01*
X131207200Y-54752400D01*
X131207200Y-54352400D01*
X131607200Y-54352400D01*
X131607200Y-54752400D01*
G37*
G36*
X132007200Y-54752400D02*
G01*
X131607200Y-54752400D01*
X131607200Y-54352400D01*
X132007200Y-54352400D01*
X132007200Y-54752400D01*
G37*
G36*
X132407200Y-54752400D02*
G01*
X132007200Y-54752400D01*
X132007200Y-54352400D01*
X132407200Y-54352400D01*
X132407200Y-54752400D01*
G37*
G36*
X134007200Y-54752400D02*
G01*
X133607200Y-54752400D01*
X133607200Y-54352400D01*
X134007200Y-54352400D01*
X134007200Y-54752400D01*
G37*
G36*
X134407200Y-54752400D02*
G01*
X134007200Y-54752400D01*
X134007200Y-54352400D01*
X134407200Y-54352400D01*
X134407200Y-54752400D01*
G37*
G36*
X134807200Y-54752400D02*
G01*
X134407200Y-54752400D01*
X134407200Y-54352400D01*
X134807200Y-54352400D01*
X134807200Y-54752400D01*
G37*
G36*
X135607200Y-54752400D02*
G01*
X135207200Y-54752400D01*
X135207200Y-54352400D01*
X135607200Y-54352400D01*
X135607200Y-54752400D01*
G37*
G36*
X136007200Y-54752400D02*
G01*
X135607200Y-54752400D01*
X135607200Y-54352400D01*
X136007200Y-54352400D01*
X136007200Y-54752400D01*
G37*
G36*
X136807200Y-54752400D02*
G01*
X136407200Y-54752400D01*
X136407200Y-54352400D01*
X136807200Y-54352400D01*
X136807200Y-54752400D01*
G37*
G36*
X137207200Y-54752400D02*
G01*
X136807200Y-54752400D01*
X136807200Y-54352400D01*
X137207200Y-54352400D01*
X137207200Y-54752400D01*
G37*
G36*
X138807200Y-54752400D02*
G01*
X138407200Y-54752400D01*
X138407200Y-54352400D01*
X138807200Y-54352400D01*
X138807200Y-54752400D01*
G37*
G36*
X139607200Y-54752400D02*
G01*
X139207200Y-54752400D01*
X139207200Y-54352400D01*
X139607200Y-54352400D01*
X139607200Y-54752400D01*
G37*
G36*
X127607200Y-55152400D02*
G01*
X127207200Y-55152400D01*
X127207200Y-54752400D01*
X127607200Y-54752400D01*
X127607200Y-55152400D01*
G37*
G36*
X128007200Y-55152400D02*
G01*
X127607200Y-55152400D01*
X127607200Y-54752400D01*
X128007200Y-54752400D01*
X128007200Y-55152400D01*
G37*
G36*
X128407200Y-55152400D02*
G01*
X128007200Y-55152400D01*
X128007200Y-54752400D01*
X128407200Y-54752400D01*
X128407200Y-55152400D01*
G37*
G36*
X128807200Y-55152400D02*
G01*
X128407200Y-55152400D01*
X128407200Y-54752400D01*
X128807200Y-54752400D01*
X128807200Y-55152400D01*
G37*
G36*
X129207200Y-55152400D02*
G01*
X128807200Y-55152400D01*
X128807200Y-54752400D01*
X129207200Y-54752400D01*
X129207200Y-55152400D01*
G37*
G36*
X129607200Y-55152400D02*
G01*
X129207200Y-55152400D01*
X129207200Y-54752400D01*
X129607200Y-54752400D01*
X129607200Y-55152400D01*
G37*
G36*
X130007200Y-55152400D02*
G01*
X129607200Y-55152400D01*
X129607200Y-54752400D01*
X130007200Y-54752400D01*
X130007200Y-55152400D01*
G37*
G36*
X130807200Y-55152400D02*
G01*
X130407200Y-55152400D01*
X130407200Y-54752400D01*
X130807200Y-54752400D01*
X130807200Y-55152400D01*
G37*
G36*
X131207200Y-55152400D02*
G01*
X130807200Y-55152400D01*
X130807200Y-54752400D01*
X131207200Y-54752400D01*
X131207200Y-55152400D01*
G37*
G36*
X131607200Y-55152400D02*
G01*
X131207200Y-55152400D01*
X131207200Y-54752400D01*
X131607200Y-54752400D01*
X131607200Y-55152400D01*
G37*
G36*
X132007200Y-55152400D02*
G01*
X131607200Y-55152400D01*
X131607200Y-54752400D01*
X132007200Y-54752400D01*
X132007200Y-55152400D01*
G37*
G36*
X132807200Y-55152400D02*
G01*
X132407200Y-55152400D01*
X132407200Y-54752400D01*
X132807200Y-54752400D01*
X132807200Y-55152400D01*
G37*
G36*
X133207200Y-55152400D02*
G01*
X132807200Y-55152400D01*
X132807200Y-54752400D01*
X133207200Y-54752400D01*
X133207200Y-55152400D01*
G37*
G36*
X133607200Y-55152400D02*
G01*
X133207200Y-55152400D01*
X133207200Y-54752400D01*
X133607200Y-54752400D01*
X133607200Y-55152400D01*
G37*
G36*
X134807200Y-55152400D02*
G01*
X134407200Y-55152400D01*
X134407200Y-54752400D01*
X134807200Y-54752400D01*
X134807200Y-55152400D01*
G37*
G36*
X135607200Y-55152400D02*
G01*
X135207200Y-55152400D01*
X135207200Y-54752400D01*
X135607200Y-54752400D01*
X135607200Y-55152400D01*
G37*
G36*
X137207200Y-55152400D02*
G01*
X136807200Y-55152400D01*
X136807200Y-54752400D01*
X137207200Y-54752400D01*
X137207200Y-55152400D01*
G37*
G36*
X138007200Y-55152400D02*
G01*
X137607200Y-55152400D01*
X137607200Y-54752400D01*
X138007200Y-54752400D01*
X138007200Y-55152400D01*
G37*
G36*
X138807200Y-55152400D02*
G01*
X138407200Y-55152400D01*
X138407200Y-54752400D01*
X138807200Y-54752400D01*
X138807200Y-55152400D01*
G37*
G36*
X139207200Y-55152400D02*
G01*
X138807200Y-55152400D01*
X138807200Y-54752400D01*
X139207200Y-54752400D01*
X139207200Y-55152400D01*
G37*
G36*
X140007200Y-55152400D02*
G01*
X139607200Y-55152400D01*
X139607200Y-54752400D01*
X140007200Y-54752400D01*
X140007200Y-55152400D01*
G37*
G36*
X127607200Y-55552400D02*
G01*
X127207200Y-55552400D01*
X127207200Y-55152400D01*
X127607200Y-55152400D01*
X127607200Y-55552400D01*
G37*
G36*
X130007200Y-55552400D02*
G01*
X129607200Y-55552400D01*
X129607200Y-55152400D01*
X130007200Y-55152400D01*
X130007200Y-55552400D01*
G37*
G36*
X131207200Y-55552400D02*
G01*
X130807200Y-55552400D01*
X130807200Y-55152400D01*
X131207200Y-55152400D01*
X131207200Y-55552400D01*
G37*
G36*
X131607200Y-55552400D02*
G01*
X131207200Y-55552400D01*
X131207200Y-55152400D01*
X131607200Y-55152400D01*
X131607200Y-55552400D01*
G37*
G36*
X133207200Y-55552400D02*
G01*
X132807200Y-55552400D01*
X132807200Y-55152400D01*
X133207200Y-55152400D01*
X133207200Y-55552400D01*
G37*
G36*
X134007200Y-55552400D02*
G01*
X133607200Y-55552400D01*
X133607200Y-55152400D01*
X134007200Y-55152400D01*
X134007200Y-55552400D01*
G37*
G36*
X135607200Y-55552400D02*
G01*
X135207200Y-55552400D01*
X135207200Y-55152400D01*
X135607200Y-55152400D01*
X135607200Y-55552400D01*
G37*
G36*
X136407200Y-55552400D02*
G01*
X136007200Y-55552400D01*
X136007200Y-55152400D01*
X136407200Y-55152400D01*
X136407200Y-55552400D01*
G37*
G36*
X137207200Y-55552400D02*
G01*
X136807200Y-55552400D01*
X136807200Y-55152400D01*
X137207200Y-55152400D01*
X137207200Y-55552400D01*
G37*
G36*
X138807200Y-55552400D02*
G01*
X138407200Y-55552400D01*
X138407200Y-55152400D01*
X138807200Y-55152400D01*
X138807200Y-55552400D01*
G37*
G36*
X140007200Y-55552400D02*
G01*
X139607200Y-55552400D01*
X139607200Y-55152400D01*
X140007200Y-55152400D01*
X140007200Y-55552400D01*
G37*
G36*
X127607200Y-55952400D02*
G01*
X127207200Y-55952400D01*
X127207200Y-55552400D01*
X127607200Y-55552400D01*
X127607200Y-55952400D01*
G37*
G36*
X128407200Y-55952400D02*
G01*
X128007200Y-55952400D01*
X128007200Y-55552400D01*
X128407200Y-55552400D01*
X128407200Y-55952400D01*
G37*
G36*
X128807200Y-55952400D02*
G01*
X128407200Y-55952400D01*
X128407200Y-55552400D01*
X128807200Y-55552400D01*
X128807200Y-55952400D01*
G37*
G36*
X129207200Y-55952400D02*
G01*
X128807200Y-55952400D01*
X128807200Y-55552400D01*
X129207200Y-55552400D01*
X129207200Y-55952400D01*
G37*
G36*
X130007200Y-55952400D02*
G01*
X129607200Y-55952400D01*
X129607200Y-55552400D01*
X130007200Y-55552400D01*
X130007200Y-55952400D01*
G37*
G36*
X130807200Y-55952400D02*
G01*
X130407200Y-55952400D01*
X130407200Y-55552400D01*
X130807200Y-55552400D01*
X130807200Y-55952400D01*
G37*
G36*
X131607200Y-55952400D02*
G01*
X131207200Y-55952400D01*
X131207200Y-55552400D01*
X131607200Y-55552400D01*
X131607200Y-55952400D01*
G37*
G36*
X133607200Y-55952400D02*
G01*
X133207200Y-55952400D01*
X133207200Y-55552400D01*
X133607200Y-55552400D01*
X133607200Y-55952400D01*
G37*
G36*
X134007200Y-55952400D02*
G01*
X133607200Y-55952400D01*
X133607200Y-55552400D01*
X134007200Y-55552400D01*
X134007200Y-55952400D01*
G37*
G36*
X136407200Y-55952400D02*
G01*
X136007200Y-55952400D01*
X136007200Y-55552400D01*
X136407200Y-55552400D01*
X136407200Y-55952400D01*
G37*
G36*
X137207200Y-55952400D02*
G01*
X136807200Y-55952400D01*
X136807200Y-55552400D01*
X137207200Y-55552400D01*
X137207200Y-55952400D01*
G37*
G36*
X137607200Y-55952400D02*
G01*
X137207200Y-55952400D01*
X137207200Y-55552400D01*
X137607200Y-55552400D01*
X137607200Y-55952400D01*
G37*
G36*
X138007200Y-55952400D02*
G01*
X137607200Y-55952400D01*
X137607200Y-55552400D01*
X138007200Y-55552400D01*
X138007200Y-55952400D01*
G37*
G36*
X138407200Y-55952400D02*
G01*
X138007200Y-55952400D01*
X138007200Y-55552400D01*
X138407200Y-55552400D01*
X138407200Y-55952400D01*
G37*
G36*
X138807200Y-55952400D02*
G01*
X138407200Y-55952400D01*
X138407200Y-55552400D01*
X138807200Y-55552400D01*
X138807200Y-55952400D01*
G37*
G36*
X139207200Y-55952400D02*
G01*
X138807200Y-55952400D01*
X138807200Y-55552400D01*
X139207200Y-55552400D01*
X139207200Y-55952400D01*
G37*
G36*
X127607200Y-56352400D02*
G01*
X127207200Y-56352400D01*
X127207200Y-55952400D01*
X127607200Y-55952400D01*
X127607200Y-56352400D01*
G37*
G36*
X128407200Y-56352400D02*
G01*
X128007200Y-56352400D01*
X128007200Y-55952400D01*
X128407200Y-55952400D01*
X128407200Y-56352400D01*
G37*
G36*
X128807200Y-56352400D02*
G01*
X128407200Y-56352400D01*
X128407200Y-55952400D01*
X128807200Y-55952400D01*
X128807200Y-56352400D01*
G37*
G36*
X129207200Y-56352400D02*
G01*
X128807200Y-56352400D01*
X128807200Y-55952400D01*
X129207200Y-55952400D01*
X129207200Y-56352400D01*
G37*
G36*
X130007200Y-56352400D02*
G01*
X129607200Y-56352400D01*
X129607200Y-55952400D01*
X130007200Y-55952400D01*
X130007200Y-56352400D01*
G37*
G36*
X131207200Y-56352400D02*
G01*
X130807200Y-56352400D01*
X130807200Y-55952400D01*
X131207200Y-55952400D01*
X131207200Y-56352400D01*
G37*
G36*
X131607200Y-56352400D02*
G01*
X131207200Y-56352400D01*
X131207200Y-55952400D01*
X131607200Y-55952400D01*
X131607200Y-56352400D01*
G37*
G36*
X133207200Y-56352400D02*
G01*
X132807200Y-56352400D01*
X132807200Y-55952400D01*
X133207200Y-55952400D01*
X133207200Y-56352400D01*
G37*
G36*
X134407200Y-56352400D02*
G01*
X134007200Y-56352400D01*
X134007200Y-55952400D01*
X134407200Y-55952400D01*
X134407200Y-56352400D01*
G37*
G36*
X134807200Y-56352400D02*
G01*
X134407200Y-56352400D01*
X134407200Y-55952400D01*
X134807200Y-55952400D01*
X134807200Y-56352400D01*
G37*
G36*
X135207200Y-56352400D02*
G01*
X134807200Y-56352400D01*
X134807200Y-55952400D01*
X135207200Y-55952400D01*
X135207200Y-56352400D01*
G37*
G36*
X135607200Y-56352400D02*
G01*
X135207200Y-56352400D01*
X135207200Y-55952400D01*
X135607200Y-55952400D01*
X135607200Y-56352400D01*
G37*
G36*
X136007200Y-56352400D02*
G01*
X135607200Y-56352400D01*
X135607200Y-55952400D01*
X136007200Y-55952400D01*
X136007200Y-56352400D01*
G37*
G36*
X136807200Y-56352400D02*
G01*
X136407200Y-56352400D01*
X136407200Y-55952400D01*
X136807200Y-55952400D01*
X136807200Y-56352400D01*
G37*
G36*
X137207200Y-56352400D02*
G01*
X136807200Y-56352400D01*
X136807200Y-55952400D01*
X137207200Y-55952400D01*
X137207200Y-56352400D01*
G37*
G36*
X138007200Y-56352400D02*
G01*
X137607200Y-56352400D01*
X137607200Y-55952400D01*
X138007200Y-55952400D01*
X138007200Y-56352400D01*
G37*
G36*
X138407200Y-56352400D02*
G01*
X138007200Y-56352400D01*
X138007200Y-55952400D01*
X138407200Y-55952400D01*
X138407200Y-56352400D01*
G37*
G36*
X138807200Y-56352400D02*
G01*
X138407200Y-56352400D01*
X138407200Y-55952400D01*
X138807200Y-55952400D01*
X138807200Y-56352400D01*
G37*
G36*
X139207200Y-56352400D02*
G01*
X138807200Y-56352400D01*
X138807200Y-55952400D01*
X139207200Y-55952400D01*
X139207200Y-56352400D01*
G37*
G36*
X140007200Y-56352400D02*
G01*
X139607200Y-56352400D01*
X139607200Y-55952400D01*
X140007200Y-55952400D01*
X140007200Y-56352400D01*
G37*
G36*
X127607200Y-56752400D02*
G01*
X127207200Y-56752400D01*
X127207200Y-56352400D01*
X127607200Y-56352400D01*
X127607200Y-56752400D01*
G37*
G36*
X128407200Y-56752400D02*
G01*
X128007200Y-56752400D01*
X128007200Y-56352400D01*
X128407200Y-56352400D01*
X128407200Y-56752400D01*
G37*
G36*
X128807200Y-56752400D02*
G01*
X128407200Y-56752400D01*
X128407200Y-56352400D01*
X128807200Y-56352400D01*
X128807200Y-56752400D01*
G37*
G36*
X129207200Y-56752400D02*
G01*
X128807200Y-56752400D01*
X128807200Y-56352400D01*
X129207200Y-56352400D01*
X129207200Y-56752400D01*
G37*
G36*
X130007200Y-56752400D02*
G01*
X129607200Y-56752400D01*
X129607200Y-56352400D01*
X130007200Y-56352400D01*
X130007200Y-56752400D01*
G37*
G36*
X131207200Y-56752400D02*
G01*
X130807200Y-56752400D01*
X130807200Y-56352400D01*
X131207200Y-56352400D01*
X131207200Y-56752400D01*
G37*
G36*
X132007200Y-56752400D02*
G01*
X131607200Y-56752400D01*
X131607200Y-56352400D01*
X132007200Y-56352400D01*
X132007200Y-56752400D01*
G37*
G36*
X132407200Y-56752400D02*
G01*
X132007200Y-56752400D01*
X132007200Y-56352400D01*
X132407200Y-56352400D01*
X132407200Y-56752400D01*
G37*
G36*
X133607200Y-56752400D02*
G01*
X133207200Y-56752400D01*
X133207200Y-56352400D01*
X133607200Y-56352400D01*
X133607200Y-56752400D01*
G37*
G36*
X134407200Y-56752400D02*
G01*
X134007200Y-56752400D01*
X134007200Y-56352400D01*
X134407200Y-56352400D01*
X134407200Y-56752400D01*
G37*
G36*
X134807200Y-56752400D02*
G01*
X134407200Y-56752400D01*
X134407200Y-56352400D01*
X134807200Y-56352400D01*
X134807200Y-56752400D01*
G37*
G36*
X135607200Y-56752400D02*
G01*
X135207200Y-56752400D01*
X135207200Y-56352400D01*
X135607200Y-56352400D01*
X135607200Y-56752400D01*
G37*
G36*
X136807200Y-56752400D02*
G01*
X136407200Y-56752400D01*
X136407200Y-56352400D01*
X136807200Y-56352400D01*
X136807200Y-56752400D01*
G37*
G36*
X137207200Y-56752400D02*
G01*
X136807200Y-56752400D01*
X136807200Y-56352400D01*
X137207200Y-56352400D01*
X137207200Y-56752400D01*
G37*
G36*
X138007200Y-56752400D02*
G01*
X137607200Y-56752400D01*
X137607200Y-56352400D01*
X138007200Y-56352400D01*
X138007200Y-56752400D01*
G37*
G36*
X138407200Y-56752400D02*
G01*
X138007200Y-56752400D01*
X138007200Y-56352400D01*
X138407200Y-56352400D01*
X138407200Y-56752400D01*
G37*
G36*
X138807200Y-56752400D02*
G01*
X138407200Y-56752400D01*
X138407200Y-56352400D01*
X138807200Y-56352400D01*
X138807200Y-56752400D01*
G37*
G36*
X139207200Y-56752400D02*
G01*
X138807200Y-56752400D01*
X138807200Y-56352400D01*
X139207200Y-56352400D01*
X139207200Y-56752400D01*
G37*
G36*
X139607200Y-56752400D02*
G01*
X139207200Y-56752400D01*
X139207200Y-56352400D01*
X139607200Y-56352400D01*
X139607200Y-56752400D01*
G37*
G36*
X127607200Y-57152400D02*
G01*
X127207200Y-57152400D01*
X127207200Y-56752400D01*
X127607200Y-56752400D01*
X127607200Y-57152400D01*
G37*
G36*
X130007200Y-57152400D02*
G01*
X129607200Y-57152400D01*
X129607200Y-56752400D01*
X130007200Y-56752400D01*
X130007200Y-57152400D01*
G37*
G36*
X131207200Y-57152400D02*
G01*
X130807200Y-57152400D01*
X130807200Y-56752400D01*
X131207200Y-56752400D01*
X131207200Y-57152400D01*
G37*
G36*
X131607200Y-57152400D02*
G01*
X131207200Y-57152400D01*
X131207200Y-56752400D01*
X131607200Y-56752400D01*
X131607200Y-57152400D01*
G37*
G36*
X132007200Y-57152400D02*
G01*
X131607200Y-57152400D01*
X131607200Y-56752400D01*
X132007200Y-56752400D01*
X132007200Y-57152400D01*
G37*
G36*
X132407200Y-57152400D02*
G01*
X132007200Y-57152400D01*
X132007200Y-56752400D01*
X132407200Y-56752400D01*
X132407200Y-57152400D01*
G37*
G36*
X133607200Y-57152400D02*
G01*
X133207200Y-57152400D01*
X133207200Y-56752400D01*
X133607200Y-56752400D01*
X133607200Y-57152400D01*
G37*
G36*
X134007200Y-57152400D02*
G01*
X133607200Y-57152400D01*
X133607200Y-56752400D01*
X134007200Y-56752400D01*
X134007200Y-57152400D01*
G37*
G36*
X134407200Y-57152400D02*
G01*
X134007200Y-57152400D01*
X134007200Y-56752400D01*
X134407200Y-56752400D01*
X134407200Y-57152400D01*
G37*
G36*
X134807200Y-57152400D02*
G01*
X134407200Y-57152400D01*
X134407200Y-56752400D01*
X134807200Y-56752400D01*
X134807200Y-57152400D01*
G37*
G36*
X136007200Y-57152400D02*
G01*
X135607200Y-57152400D01*
X135607200Y-56752400D01*
X136007200Y-56752400D01*
X136007200Y-57152400D01*
G37*
G36*
X139607200Y-57152400D02*
G01*
X139207200Y-57152400D01*
X139207200Y-56752400D01*
X139607200Y-56752400D01*
X139607200Y-57152400D01*
G37*
G36*
X127607200Y-57552400D02*
G01*
X127207200Y-57552400D01*
X127207200Y-57152400D01*
X127607200Y-57152400D01*
X127607200Y-57552400D01*
G37*
G36*
X128007200Y-57552400D02*
G01*
X127607200Y-57552400D01*
X127607200Y-57152400D01*
X128007200Y-57152400D01*
X128007200Y-57552400D01*
G37*
G36*
X128407200Y-57552400D02*
G01*
X128007200Y-57552400D01*
X128007200Y-57152400D01*
X128407200Y-57152400D01*
X128407200Y-57552400D01*
G37*
G36*
X128807200Y-57552400D02*
G01*
X128407200Y-57552400D01*
X128407200Y-57152400D01*
X128807200Y-57152400D01*
X128807200Y-57552400D01*
G37*
G36*
X129207200Y-57552400D02*
G01*
X128807200Y-57552400D01*
X128807200Y-57152400D01*
X129207200Y-57152400D01*
X129207200Y-57552400D01*
G37*
G36*
X129607200Y-57552400D02*
G01*
X129207200Y-57552400D01*
X129207200Y-57152400D01*
X129607200Y-57152400D01*
X129607200Y-57552400D01*
G37*
G36*
X130007200Y-57552400D02*
G01*
X129607200Y-57552400D01*
X129607200Y-57152400D01*
X130007200Y-57152400D01*
X130007200Y-57552400D01*
G37*
G36*
X130807200Y-57552400D02*
G01*
X130407200Y-57552400D01*
X130407200Y-57152400D01*
X130807200Y-57152400D01*
X130807200Y-57552400D01*
G37*
G36*
X131607200Y-57552400D02*
G01*
X131207200Y-57552400D01*
X131207200Y-57152400D01*
X131607200Y-57152400D01*
X131607200Y-57552400D01*
G37*
G36*
X133207200Y-57552400D02*
G01*
X132807200Y-57552400D01*
X132807200Y-57152400D01*
X133207200Y-57152400D01*
X133207200Y-57552400D01*
G37*
G36*
X134407200Y-57552400D02*
G01*
X134007200Y-57552400D01*
X134007200Y-57152400D01*
X134407200Y-57152400D01*
X134407200Y-57552400D01*
G37*
G36*
X135207200Y-57552400D02*
G01*
X134807200Y-57552400D01*
X134807200Y-57152400D01*
X135207200Y-57152400D01*
X135207200Y-57552400D01*
G37*
G36*
X135607200Y-57552400D02*
G01*
X135207200Y-57552400D01*
X135207200Y-57152400D01*
X135607200Y-57152400D01*
X135607200Y-57552400D01*
G37*
G36*
X136007200Y-57552400D02*
G01*
X135607200Y-57552400D01*
X135607200Y-57152400D01*
X136007200Y-57152400D01*
X136007200Y-57552400D01*
G37*
G36*
X136407200Y-57552400D02*
G01*
X136007200Y-57552400D01*
X136007200Y-57152400D01*
X136407200Y-57152400D01*
X136407200Y-57552400D01*
G37*
G36*
X137207200Y-57552400D02*
G01*
X136807200Y-57552400D01*
X136807200Y-57152400D01*
X137207200Y-57152400D01*
X137207200Y-57552400D01*
G37*
G36*
X138007200Y-57552400D02*
G01*
X137607200Y-57552400D01*
X137607200Y-57152400D01*
X138007200Y-57152400D01*
X138007200Y-57552400D01*
G37*
G36*
X139607200Y-57552400D02*
G01*
X139207200Y-57552400D01*
X139207200Y-57152400D01*
X139607200Y-57152400D01*
X139607200Y-57552400D01*
G37*
G36*
X140407200Y-57552400D02*
G01*
X140007200Y-57552400D01*
X140007200Y-57152400D01*
X140407200Y-57152400D01*
X140407200Y-57552400D01*
G37*
D12*
%TO.C,LOGO1*%
X147109528Y-53841865D02*
X147189420Y-53848113D01*
X147244834Y-53857151D01*
X147259312Y-53862205D01*
X147301076Y-53898656D01*
X147347619Y-53959326D01*
X147389825Y-54029528D01*
X147418578Y-54094576D01*
X147425833Y-54130478D01*
X147405957Y-54216403D01*
X147351489Y-54291383D01*
X147283891Y-54338001D01*
X147192109Y-54365936D01*
X147077574Y-54378046D01*
X146956691Y-54374585D01*
X146845867Y-54355813D01*
X146775666Y-54330042D01*
X146700690Y-54281925D01*
X146659425Y-54226551D01*
X146643672Y-54150700D01*
X146642667Y-54115618D01*
X146648023Y-54058668D01*
X146669041Y-54009581D01*
X146713139Y-53952958D01*
X146730029Y-53934310D01*
X146817392Y-53839533D01*
X147017171Y-53839533D01*
X147109528Y-53841865D01*
G36*
X147109528Y-53841865D02*
G01*
X147189420Y-53848113D01*
X147244834Y-53857151D01*
X147259312Y-53862205D01*
X147301076Y-53898656D01*
X147347619Y-53959326D01*
X147389825Y-54029528D01*
X147418578Y-54094576D01*
X147425833Y-54130478D01*
X147405957Y-54216403D01*
X147351489Y-54291383D01*
X147283891Y-54338001D01*
X147192109Y-54365936D01*
X147077574Y-54378046D01*
X146956691Y-54374585D01*
X146845867Y-54355813D01*
X146775666Y-54330042D01*
X146700690Y-54281925D01*
X146659425Y-54226551D01*
X146643672Y-54150700D01*
X146642667Y-54115618D01*
X146648023Y-54058668D01*
X146669041Y-54009581D01*
X146713139Y-53952958D01*
X146730029Y-53934310D01*
X146817392Y-53839533D01*
X147017171Y-53839533D01*
X147109528Y-53841865D01*
G37*
X147126640Y-52045308D02*
X147229771Y-52067995D01*
X147278474Y-52087991D01*
X147364331Y-52149294D01*
X147411329Y-52224728D01*
X147419022Y-52310634D01*
X147386965Y-52403353D01*
X147326924Y-52486129D01*
X147251574Y-52569533D01*
X147037079Y-52568860D01*
X146928709Y-52567044D01*
X146852465Y-52559853D01*
X146798170Y-52543467D01*
X146755645Y-52514067D01*
X146714711Y-52467834D01*
X146693735Y-52440027D01*
X146656651Y-52362830D01*
X146642630Y-52273549D01*
X146653429Y-52190342D01*
X146666653Y-52160065D01*
X146717397Y-52110674D01*
X146798917Y-52073306D01*
X146901064Y-52049159D01*
X147013687Y-52039428D01*
X147126640Y-52045308D01*
G36*
X147126640Y-52045308D02*
G01*
X147229771Y-52067995D01*
X147278474Y-52087991D01*
X147364331Y-52149294D01*
X147411329Y-52224728D01*
X147419022Y-52310634D01*
X147386965Y-52403353D01*
X147326924Y-52486129D01*
X147251574Y-52569533D01*
X147037079Y-52568860D01*
X146928709Y-52567044D01*
X146852465Y-52559853D01*
X146798170Y-52543467D01*
X146755645Y-52514067D01*
X146714711Y-52467834D01*
X146693735Y-52440027D01*
X146656651Y-52362830D01*
X146642630Y-52273549D01*
X146653429Y-52190342D01*
X146666653Y-52160065D01*
X146717397Y-52110674D01*
X146798917Y-52073306D01*
X146901064Y-52049159D01*
X147013687Y-52039428D01*
X147126640Y-52045308D01*
G37*
X147224776Y-50889677D02*
X147298504Y-50923762D01*
X147357074Y-50965996D01*
X147409927Y-51042528D01*
X147433677Y-51138532D01*
X147424826Y-51239769D01*
X147424573Y-51240714D01*
X147385667Y-51319481D01*
X147316135Y-51373541D01*
X147213304Y-51405524D01*
X147129500Y-51420849D01*
X147129500Y-51148524D01*
X147130295Y-51033767D01*
X147133131Y-50955239D01*
X147138687Y-50906860D01*
X147147641Y-50882546D01*
X147159872Y-50876200D01*
X147224776Y-50889677D01*
G36*
X147224776Y-50889677D02*
G01*
X147298504Y-50923762D01*
X147357074Y-50965996D01*
X147409927Y-51042528D01*
X147433677Y-51138532D01*
X147424826Y-51239769D01*
X147424573Y-51240714D01*
X147385667Y-51319481D01*
X147316135Y-51373541D01*
X147213304Y-51405524D01*
X147129500Y-51420849D01*
X147129500Y-51148524D01*
X147130295Y-51033767D01*
X147133131Y-50955239D01*
X147138687Y-50906860D01*
X147147641Y-50882546D01*
X147159872Y-50876200D01*
X147224776Y-50889677D01*
G37*
X147187708Y-48942017D02*
X147302101Y-48984339D01*
X147380375Y-49048261D01*
X147423344Y-49134683D01*
X147432889Y-49214616D01*
X147415559Y-49318817D01*
X147364577Y-49398617D01*
X147287284Y-49449217D01*
X147226274Y-49473467D01*
X147183449Y-49483400D01*
X147155592Y-49474009D01*
X147139484Y-49440283D01*
X147131907Y-49377217D01*
X147129645Y-49279800D01*
X147129500Y-49203630D01*
X147129500Y-48928060D01*
X147187708Y-48942017D01*
G36*
X147187708Y-48942017D02*
G01*
X147302101Y-48984339D01*
X147380375Y-49048261D01*
X147423344Y-49134683D01*
X147432889Y-49214616D01*
X147415559Y-49318817D01*
X147364577Y-49398617D01*
X147287284Y-49449217D01*
X147226274Y-49473467D01*
X147183449Y-49483400D01*
X147155592Y-49474009D01*
X147139484Y-49440283D01*
X147131907Y-49377217D01*
X147129645Y-49279800D01*
X147129500Y-49203630D01*
X147129500Y-48928060D01*
X147187708Y-48942017D01*
G37*
X147171242Y-46095046D02*
X147284245Y-46130354D01*
X147363668Y-46190109D01*
X147410507Y-46275058D01*
X147425754Y-46384626D01*
X147410286Y-46494831D01*
X147363031Y-46579228D01*
X147283038Y-46638534D01*
X147169355Y-46673465D01*
X147026866Y-46684735D01*
X146890701Y-46675195D01*
X146787367Y-46644489D01*
X146712077Y-46590870D01*
X146687516Y-46560882D01*
X146649146Y-46478690D01*
X146632977Y-46384093D01*
X146641621Y-46302963D01*
X146677708Y-46213294D01*
X146727374Y-46150440D01*
X146797462Y-46110469D01*
X146894818Y-46089448D01*
X147023667Y-46083442D01*
X147171242Y-46095046D01*
G36*
X147171242Y-46095046D02*
G01*
X147284245Y-46130354D01*
X147363668Y-46190109D01*
X147410507Y-46275058D01*
X147425754Y-46384626D01*
X147410286Y-46494831D01*
X147363031Y-46579228D01*
X147283038Y-46638534D01*
X147169355Y-46673465D01*
X147026866Y-46684735D01*
X146890701Y-46675195D01*
X146787367Y-46644489D01*
X146712077Y-46590870D01*
X146687516Y-46560882D01*
X146649146Y-46478690D01*
X146632977Y-46384093D01*
X146641621Y-46302963D01*
X146677708Y-46213294D01*
X146727374Y-46150440D01*
X146797462Y-46110469D01*
X146894818Y-46089448D01*
X147023667Y-46083442D01*
X147171242Y-46095046D01*
G37*
X147785667Y-45162251D02*
X147774166Y-45294738D01*
X147738821Y-45393006D01*
X147678367Y-45458641D01*
X147591538Y-45493232D01*
X147516843Y-45499833D01*
X147403553Y-45482652D01*
X147315652Y-45432115D01*
X147254301Y-45349583D01*
X147220660Y-45236414D01*
X147214200Y-45145325D01*
X147214167Y-45013033D01*
X147785667Y-45013033D01*
X147785667Y-45162251D01*
G36*
X147785667Y-45162251D02*
G01*
X147774166Y-45294738D01*
X147738821Y-45393006D01*
X147678367Y-45458641D01*
X147591538Y-45493232D01*
X147516843Y-45499833D01*
X147403553Y-45482652D01*
X147315652Y-45432115D01*
X147254301Y-45349583D01*
X147220660Y-45236414D01*
X147214200Y-45145325D01*
X147214167Y-45013033D01*
X147785667Y-45013033D01*
X147785667Y-45162251D01*
G37*
X144734013Y-62044143D02*
X144820349Y-62076972D01*
X144896350Y-62121268D01*
X144909221Y-62131400D01*
X144985942Y-62222477D01*
X145027024Y-62335316D01*
X145034000Y-62413446D01*
X145015878Y-62531585D01*
X144963079Y-62626657D01*
X144877952Y-62696117D01*
X144762847Y-62737418D01*
X144729831Y-62743022D01*
X144631833Y-62756454D01*
X144631833Y-62393743D01*
X144632592Y-62254391D01*
X144635084Y-62152918D01*
X144639632Y-62084894D01*
X144646560Y-62045890D01*
X144656191Y-62031476D01*
X144658292Y-62031151D01*
X144734013Y-62044143D01*
G36*
X144734013Y-62044143D02*
G01*
X144820349Y-62076972D01*
X144896350Y-62121268D01*
X144909221Y-62131400D01*
X144985942Y-62222477D01*
X145027024Y-62335316D01*
X145034000Y-62413446D01*
X145015878Y-62531585D01*
X144963079Y-62626657D01*
X144877952Y-62696117D01*
X144762847Y-62737418D01*
X144729831Y-62743022D01*
X144631833Y-62756454D01*
X144631833Y-62393743D01*
X144632592Y-62254391D01*
X144635084Y-62152918D01*
X144639632Y-62084894D01*
X144646560Y-62045890D01*
X144656191Y-62031476D01*
X144658292Y-62031151D01*
X144734013Y-62044143D01*
G37*
X144260187Y-59565289D02*
X144325624Y-59600165D01*
X144373762Y-59663072D01*
X144407122Y-59757921D01*
X144428225Y-59888623D01*
X144434140Y-59956546D01*
X144447673Y-60147200D01*
X144298218Y-60147200D01*
X144218531Y-60145921D01*
X144168180Y-60139298D01*
X144134184Y-60123149D01*
X144103562Y-60093294D01*
X144093196Y-60081162D01*
X144010425Y-59958329D01*
X143969623Y-59836057D01*
X143969323Y-59720213D01*
X144001161Y-59642919D01*
X144063412Y-59585595D01*
X144145802Y-59556519D01*
X144174927Y-59554533D01*
X144260187Y-59565289D01*
G36*
X144260187Y-59565289D02*
G01*
X144325624Y-59600165D01*
X144373762Y-59663072D01*
X144407122Y-59757921D01*
X144428225Y-59888623D01*
X144434140Y-59956546D01*
X144447673Y-60147200D01*
X144298218Y-60147200D01*
X144218531Y-60145921D01*
X144168180Y-60139298D01*
X144134184Y-60123149D01*
X144103562Y-60093294D01*
X144093196Y-60081162D01*
X144010425Y-59958329D01*
X143969623Y-59836057D01*
X143969323Y-59720213D01*
X144001161Y-59642919D01*
X144063412Y-59585595D01*
X144145802Y-59556519D01*
X144174927Y-59554533D01*
X144260187Y-59565289D01*
G37*
X144962274Y-44957094D02*
X145136110Y-44997178D01*
X145278583Y-45063160D01*
X145388598Y-45154545D01*
X145459868Y-45259946D01*
X145497693Y-45374336D01*
X145513126Y-45507521D01*
X145506113Y-45643126D01*
X145476599Y-45764779D01*
X145461664Y-45799575D01*
X145387880Y-45902811D01*
X145280419Y-45986683D01*
X145144043Y-46049572D01*
X144983508Y-46089861D01*
X144803573Y-46105930D01*
X144608999Y-46096163D01*
X144594563Y-46094421D01*
X144495668Y-46077848D01*
X144397474Y-46054537D01*
X144319703Y-46029244D01*
X144313554Y-46026679D01*
X144212578Y-45966440D01*
X144121465Y-45881762D01*
X144051823Y-45785018D01*
X144021726Y-45715621D01*
X144005603Y-45629545D01*
X143999373Y-45523996D01*
X144002893Y-45416570D01*
X144016025Y-45324862D01*
X144025088Y-45293256D01*
X144087545Y-45174911D01*
X144180659Y-45081542D01*
X144305595Y-45012594D01*
X144463517Y-44967512D01*
X144655590Y-44945738D01*
X144758168Y-44943399D01*
X144962274Y-44957094D01*
G36*
X144962274Y-44957094D02*
G01*
X145136110Y-44997178D01*
X145278583Y-45063160D01*
X145388598Y-45154545D01*
X145459868Y-45259946D01*
X145497693Y-45374336D01*
X145513126Y-45507521D01*
X145506113Y-45643126D01*
X145476599Y-45764779D01*
X145461664Y-45799575D01*
X145387880Y-45902811D01*
X145280419Y-45986683D01*
X145144043Y-46049572D01*
X144983508Y-46089861D01*
X144803573Y-46105930D01*
X144608999Y-46096163D01*
X144594563Y-46094421D01*
X144495668Y-46077848D01*
X144397474Y-46054537D01*
X144319703Y-46029244D01*
X144313554Y-46026679D01*
X144212578Y-45966440D01*
X144121465Y-45881762D01*
X144051823Y-45785018D01*
X144021726Y-45715621D01*
X144005603Y-45629545D01*
X143999373Y-45523996D01*
X144002893Y-45416570D01*
X144016025Y-45324862D01*
X144025088Y-45293256D01*
X144087545Y-45174911D01*
X144180659Y-45081542D01*
X144305595Y-45012594D01*
X144463517Y-44967512D01*
X144655590Y-44945738D01*
X144758168Y-44943399D01*
X144962274Y-44957094D01*
G37*
X146421950Y-40001447D02*
X146949583Y-40007116D01*
X146955985Y-40130610D01*
X146955444Y-40209643D01*
X146945961Y-40266716D01*
X146937518Y-40284069D01*
X146922556Y-40293572D01*
X146892293Y-40300925D01*
X146842122Y-40306372D01*
X146767436Y-40310159D01*
X146663626Y-40312534D01*
X146526085Y-40313741D01*
X146376231Y-40314033D01*
X146188822Y-40314686D01*
X146038075Y-40317249D01*
X145918333Y-40322624D01*
X145823937Y-40331714D01*
X145749229Y-40345422D01*
X145688551Y-40364652D01*
X145636243Y-40390306D01*
X145586648Y-40423288D01*
X145558996Y-40444469D01*
X145483129Y-40526130D01*
X145419386Y-40636024D01*
X145374579Y-40760382D01*
X145357875Y-40851053D01*
X145345631Y-40969685D01*
X146949583Y-40980783D01*
X146949583Y-41255950D01*
X146150542Y-41261496D01*
X145351500Y-41267042D01*
X145351500Y-41337029D01*
X145371653Y-41481079D01*
X145428306Y-41616238D01*
X145515752Y-41734464D01*
X145628282Y-41827713D01*
X145737263Y-41880595D01*
X145778750Y-41893734D01*
X145822172Y-41903847D01*
X145873593Y-41911322D01*
X145939079Y-41916545D01*
X146024694Y-41919905D01*
X146136501Y-41921789D01*
X146280567Y-41922584D01*
X146396457Y-41922700D01*
X146565693Y-41922533D01*
X146697308Y-41922971D01*
X146796008Y-41925420D01*
X146866496Y-41931286D01*
X146913479Y-41941975D01*
X146941662Y-41958893D01*
X146955748Y-41983446D01*
X146960444Y-42017041D01*
X146960454Y-42061084D01*
X146960167Y-42091172D01*
X146952559Y-42170052D01*
X146931005Y-42216658D01*
X146928298Y-42219132D01*
X146895816Y-42228113D01*
X146827903Y-42234425D01*
X146731363Y-42238233D01*
X146613002Y-42239705D01*
X146479627Y-42239007D01*
X146338044Y-42236304D01*
X146195058Y-42231764D01*
X146057474Y-42225552D01*
X145932101Y-42217834D01*
X145825742Y-42208777D01*
X145745204Y-42198548D01*
X145702538Y-42189187D01*
X145537527Y-42120377D01*
X145400729Y-42028521D01*
X145289864Y-41910500D01*
X145202654Y-41763192D01*
X145136818Y-41583478D01*
X145090077Y-41368237D01*
X145086560Y-41345908D01*
X145074415Y-41266533D01*
X144844806Y-41266533D01*
X144740378Y-41265536D01*
X144670974Y-41261875D01*
X144629315Y-41254546D01*
X144608125Y-41242544D01*
X144602348Y-41233052D01*
X144594204Y-41187195D01*
X144591482Y-41119827D01*
X144594083Y-41051121D01*
X144601907Y-41001251D01*
X144603518Y-40996658D01*
X144623959Y-40983700D01*
X144675599Y-40975299D01*
X144762538Y-40971004D01*
X144844305Y-40970200D01*
X145074415Y-40970200D01*
X145086073Y-40890825D01*
X145116944Y-40710544D01*
X145152755Y-40564993D01*
X145196493Y-40446615D01*
X145251143Y-40347849D01*
X145319691Y-40261139D01*
X145345467Y-40234286D01*
X145472760Y-40134500D01*
X145626901Y-40059232D01*
X145778607Y-40017167D01*
X145832831Y-40011321D01*
X145922046Y-40006580D01*
X146038919Y-40003122D01*
X146176118Y-40001126D01*
X146326309Y-40000772D01*
X146421950Y-40001447D01*
G36*
X146421950Y-40001447D02*
G01*
X146949583Y-40007116D01*
X146955985Y-40130610D01*
X146955444Y-40209643D01*
X146945961Y-40266716D01*
X146937518Y-40284069D01*
X146922556Y-40293572D01*
X146892293Y-40300925D01*
X146842122Y-40306372D01*
X146767436Y-40310159D01*
X146663626Y-40312534D01*
X146526085Y-40313741D01*
X146376231Y-40314033D01*
X146188822Y-40314686D01*
X146038075Y-40317249D01*
X145918333Y-40322624D01*
X145823937Y-40331714D01*
X145749229Y-40345422D01*
X145688551Y-40364652D01*
X145636243Y-40390306D01*
X145586648Y-40423288D01*
X145558996Y-40444469D01*
X145483129Y-40526130D01*
X145419386Y-40636024D01*
X145374579Y-40760382D01*
X145357875Y-40851053D01*
X145345631Y-40969685D01*
X146949583Y-40980783D01*
X146949583Y-41255950D01*
X146150542Y-41261496D01*
X145351500Y-41267042D01*
X145351500Y-41337029D01*
X145371653Y-41481079D01*
X145428306Y-41616238D01*
X145515752Y-41734464D01*
X145628282Y-41827713D01*
X145737263Y-41880595D01*
X145778750Y-41893734D01*
X145822172Y-41903847D01*
X145873593Y-41911322D01*
X145939079Y-41916545D01*
X146024694Y-41919905D01*
X146136501Y-41921789D01*
X146280567Y-41922584D01*
X146396457Y-41922700D01*
X146565693Y-41922533D01*
X146697308Y-41922971D01*
X146796008Y-41925420D01*
X146866496Y-41931286D01*
X146913479Y-41941975D01*
X146941662Y-41958893D01*
X146955748Y-41983446D01*
X146960444Y-42017041D01*
X146960454Y-42061084D01*
X146960167Y-42091172D01*
X146952559Y-42170052D01*
X146931005Y-42216658D01*
X146928298Y-42219132D01*
X146895816Y-42228113D01*
X146827903Y-42234425D01*
X146731363Y-42238233D01*
X146613002Y-42239705D01*
X146479627Y-42239007D01*
X146338044Y-42236304D01*
X146195058Y-42231764D01*
X146057474Y-42225552D01*
X145932101Y-42217834D01*
X145825742Y-42208777D01*
X145745204Y-42198548D01*
X145702538Y-42189187D01*
X145537527Y-42120377D01*
X145400729Y-42028521D01*
X145289864Y-41910500D01*
X145202654Y-41763192D01*
X145136818Y-41583478D01*
X145090077Y-41368237D01*
X145086560Y-41345908D01*
X145074415Y-41266533D01*
X144844806Y-41266533D01*
X144740378Y-41265536D01*
X144670974Y-41261875D01*
X144629315Y-41254546D01*
X144608125Y-41242544D01*
X144602348Y-41233052D01*
X144594204Y-41187195D01*
X144591482Y-41119827D01*
X144594083Y-41051121D01*
X144601907Y-41001251D01*
X144603518Y-40996658D01*
X144623959Y-40983700D01*
X144675599Y-40975299D01*
X144762538Y-40971004D01*
X144844305Y-40970200D01*
X145074415Y-40970200D01*
X145086073Y-40890825D01*
X145116944Y-40710544D01*
X145152755Y-40564993D01*
X145196493Y-40446615D01*
X145251143Y-40347849D01*
X145319691Y-40261139D01*
X145345467Y-40234286D01*
X145472760Y-40134500D01*
X145626901Y-40059232D01*
X145778607Y-40017167D01*
X145832831Y-40011321D01*
X145922046Y-40006580D01*
X146038919Y-40003122D01*
X146176118Y-40001126D01*
X146326309Y-40000772D01*
X146421950Y-40001447D01*
G37*
X146887857Y-37551783D02*
X149172083Y-37551783D01*
X149291632Y-37607831D01*
X149435975Y-37698089D01*
X149557040Y-37819688D01*
X149645202Y-37961401D01*
X149701250Y-38080950D01*
X149701250Y-63671450D01*
X149645202Y-63790998D01*
X149554944Y-63935341D01*
X149433345Y-64056406D01*
X149291632Y-64144568D01*
X149172083Y-64200616D01*
X145796000Y-64200616D01*
X145353383Y-64200604D01*
X144951104Y-64200553D01*
X144587167Y-64200440D01*
X144259576Y-64200241D01*
X143966336Y-64199933D01*
X143705452Y-64199492D01*
X143474926Y-64198897D01*
X143272764Y-64198122D01*
X143096971Y-64197146D01*
X142945550Y-64195944D01*
X142816506Y-64194493D01*
X142707843Y-64192771D01*
X142617565Y-64190754D01*
X142543678Y-64188418D01*
X142484184Y-64185741D01*
X142437089Y-64182699D01*
X142400398Y-64179269D01*
X142372113Y-64175427D01*
X142350240Y-64171151D01*
X142332783Y-64166416D01*
X142317747Y-64161201D01*
X142314680Y-64160031D01*
X142207509Y-64102025D01*
X142100562Y-64015324D01*
X142006556Y-63911679D01*
X141946846Y-63820035D01*
X141890750Y-63713783D01*
X141890388Y-62393199D01*
X143766454Y-62393199D01*
X143768906Y-62505175D01*
X143778266Y-62615272D01*
X143794157Y-62709011D01*
X143796827Y-62719794D01*
X143826603Y-62820558D01*
X143856849Y-62886144D01*
X143893113Y-62923404D01*
X143940944Y-62939187D01*
X143976155Y-62941200D01*
X144025220Y-62937961D01*
X144052041Y-62923489D01*
X144058184Y-62890652D01*
X144045215Y-62832317D01*
X144018000Y-62750700D01*
X143994214Y-62656441D01*
X143980135Y-62545330D01*
X143976379Y-62432366D01*
X143983565Y-62332551D01*
X143998243Y-62270536D01*
X144057780Y-62169629D01*
X144149330Y-62096267D01*
X144272569Y-62050674D01*
X144332190Y-62040057D01*
X144441333Y-62025579D01*
X144441333Y-62481877D01*
X144441622Y-62643740D01*
X144443487Y-62768187D01*
X144448425Y-62860135D01*
X144457934Y-62924503D01*
X144473511Y-62966208D01*
X144496655Y-62990167D01*
X144528862Y-63001298D01*
X144571631Y-63004519D01*
X144600554Y-63004700D01*
X144759972Y-62989253D01*
X144907953Y-62945487D01*
X144998313Y-62899201D01*
X145097653Y-62812594D01*
X145169949Y-62700993D01*
X145215040Y-62572104D01*
X145232767Y-62433634D01*
X145222970Y-62293290D01*
X145185488Y-62158778D01*
X145120162Y-62037806D01*
X145026832Y-61938079D01*
X145018405Y-61931445D01*
X144936769Y-61873996D01*
X144859108Y-61833749D01*
X144774950Y-61807885D01*
X144673826Y-61793583D01*
X144545266Y-61788023D01*
X144484353Y-61787616D01*
X144368128Y-61788534D01*
X144283919Y-61792188D01*
X144221430Y-61799932D01*
X144170367Y-61813118D01*
X144120433Y-61833099D01*
X144113250Y-61836376D01*
X143978378Y-61919616D01*
X143874472Y-62031289D01*
X143800481Y-62172621D01*
X143783794Y-62221533D01*
X143771291Y-62293825D01*
X143766454Y-62393199D01*
X141890388Y-62393199D01*
X141889983Y-60916456D01*
X143787485Y-60916456D01*
X143789376Y-60957500D01*
X143795750Y-61067950D01*
X144252465Y-61078533D01*
X144402759Y-61082142D01*
X144484353Y-61084608D01*
X144517000Y-61085596D01*
X144601460Y-61089678D01*
X144662410Y-61095174D01*
X144706119Y-61102866D01*
X144738860Y-61113540D01*
X144766902Y-61127980D01*
X144795794Y-61146492D01*
X144862574Y-61198841D01*
X144923969Y-61259775D01*
X144938725Y-61277702D01*
X144970334Y-61324812D01*
X144986125Y-61370102D01*
X144990035Y-61430096D01*
X144988063Y-61484910D01*
X144981083Y-61618283D01*
X145086917Y-61618283D01*
X145150061Y-61616720D01*
X145184691Y-61605972D01*
X145204626Y-61576949D01*
X145220576Y-61530373D01*
X145237227Y-61423493D01*
X145215753Y-61322586D01*
X145154694Y-61223379D01*
X145093219Y-61157908D01*
X144986855Y-61057366D01*
X145094691Y-61057366D01*
X145159175Y-61055325D01*
X145193662Y-61045449D01*
X145210432Y-61022104D01*
X145216554Y-61001477D01*
X145220219Y-60937426D01*
X145211164Y-60890352D01*
X145191746Y-60835116D01*
X144536081Y-60829194D01*
X144371513Y-60828096D01*
X144218920Y-60827818D01*
X144083908Y-60828311D01*
X143972086Y-60829528D01*
X143889061Y-60831422D01*
X143840440Y-60833945D01*
X143831709Y-60835161D01*
X143803321Y-60846338D01*
X143789935Y-60869520D01*
X143787485Y-60916456D01*
X141889983Y-60916456D01*
X141889668Y-59765400D01*
X143766084Y-59765400D01*
X143777488Y-59875121D01*
X143788524Y-59916499D01*
X143815948Y-59978663D01*
X143856129Y-60050495D01*
X143873280Y-60077060D01*
X143933513Y-60165671D01*
X143864631Y-60172310D01*
X143822740Y-60179179D01*
X143801507Y-60197181D01*
X143792440Y-60238324D01*
X143789327Y-60278804D01*
X143787530Y-60340073D01*
X143796056Y-60372050D01*
X143820312Y-60387487D01*
X143837454Y-60392349D01*
X143873597Y-60395890D01*
X143945375Y-60398389D01*
X144046099Y-60399781D01*
X144169082Y-60400001D01*
X144218920Y-60399636D01*
X144307636Y-60398984D01*
X144394210Y-60397773D01*
X144554201Y-60394924D01*
X144677965Y-60391922D01*
X144771605Y-60388189D01*
X144841224Y-60383145D01*
X144892928Y-60376211D01*
X144932819Y-60366810D01*
X144967002Y-60354361D01*
X144996811Y-60340619D01*
X145094548Y-60276175D01*
X145164386Y-60189482D01*
X145208301Y-60076379D01*
X145228274Y-59932705D01*
X145229927Y-59850484D01*
X145219703Y-59716237D01*
X145193809Y-59595813D01*
X145155191Y-59493823D01*
X145106796Y-59414879D01*
X145051569Y-59363591D01*
X144992458Y-59344571D01*
X144932407Y-59362429D01*
X144922502Y-59369325D01*
X144906021Y-59386309D01*
X144902443Y-59409784D01*
X144913402Y-59449412D01*
X144940538Y-59514858D01*
X144951260Y-59539133D01*
X145008097Y-59697960D01*
X145028369Y-59836709D01*
X145012213Y-59956393D01*
X145009321Y-59965261D01*
X144968996Y-60044520D01*
X144908095Y-60095692D01*
X144819567Y-60123236D01*
X144748250Y-60130377D01*
X144621250Y-60136616D01*
X144607818Y-59903783D01*
X144597051Y-59762217D01*
X144582130Y-59654375D01*
X144561215Y-59571710D01*
X144532466Y-59505674D01*
X144516336Y-59478882D01*
X144430858Y-59382671D01*
X144326569Y-59318947D01*
X144211366Y-59288824D01*
X144093146Y-59293417D01*
X143979808Y-59333841D01*
X143898999Y-59391765D01*
X143845793Y-59453783D01*
X143803531Y-59525070D01*
X143795796Y-59543950D01*
X143772324Y-59647999D01*
X143766084Y-59765400D01*
X141889668Y-59765400D01*
X141889322Y-58502702D01*
X143785142Y-58502702D01*
X143787322Y-58574244D01*
X143795526Y-58638067D01*
X143809119Y-58678873D01*
X143813221Y-58683632D01*
X143839300Y-58695089D01*
X143899976Y-58716922D01*
X143989320Y-58747262D01*
X144101402Y-58784245D01*
X144211366Y-58819870D01*
X144230296Y-58826003D01*
X144370072Y-58870670D01*
X144514801Y-58916380D01*
X144658555Y-58961266D01*
X144795406Y-59003461D01*
X144919425Y-59041100D01*
X145024684Y-59072316D01*
X145105253Y-59095243D01*
X145155205Y-59108013D01*
X145167634Y-59110033D01*
X145199559Y-59091645D01*
X145219520Y-59045383D01*
X145225159Y-58984605D01*
X145214119Y-58922665D01*
X145204574Y-58900684D01*
X145182743Y-58883778D01*
X145130653Y-58860469D01*
X145045982Y-58829955D01*
X144926403Y-58791436D01*
X144769592Y-58744110D01*
X144643614Y-58707385D01*
X144500925Y-58665534D01*
X144373516Y-58626833D01*
X144266477Y-58592936D01*
X144184897Y-58565500D01*
X144133866Y-58546180D01*
X144118473Y-58536630D01*
X144118499Y-58536605D01*
X144142367Y-58527017D01*
X144201425Y-58507569D01*
X144290136Y-58479959D01*
X144402962Y-58445883D01*
X144534369Y-58407037D01*
X144668552Y-58368072D01*
X145202687Y-58214253D01*
X145215604Y-58145400D01*
X145219120Y-58060169D01*
X145196000Y-57997261D01*
X145164858Y-57970542D01*
X145135197Y-57960440D01*
X145070571Y-57941321D01*
X144976974Y-57914863D01*
X144860403Y-57882740D01*
X144726853Y-57846630D01*
X144616012Y-57817106D01*
X144475861Y-57779612D01*
X144350291Y-57745242D01*
X144244782Y-57715561D01*
X144164813Y-57692132D01*
X144115866Y-57676517D01*
X144102720Y-57670655D01*
X144122173Y-57662172D01*
X144177040Y-57643669D01*
X144262039Y-57616787D01*
X144371889Y-57583166D01*
X144501307Y-57544446D01*
X144643811Y-57502617D01*
X144828112Y-57448089D01*
X144973376Y-57403005D01*
X145081661Y-57366653D01*
X145155028Y-57338318D01*
X145195535Y-57317287D01*
X145204728Y-57308261D01*
X145222385Y-57243826D01*
X145219756Y-57170956D01*
X145197809Y-57113122D01*
X145188053Y-57103884D01*
X145172164Y-57098976D01*
X145145942Y-57099413D01*
X145105187Y-57106213D01*
X145045698Y-57120395D01*
X144963276Y-57142974D01*
X144853721Y-57174968D01*
X144712833Y-57217394D01*
X144536411Y-57271271D01*
X144504601Y-57281023D01*
X144343403Y-57330842D01*
X144194650Y-57377551D01*
X144063325Y-57419526D01*
X143954411Y-57455147D01*
X143872891Y-57482791D01*
X143823749Y-57500837D01*
X143811625Y-57506571D01*
X143795866Y-57541056D01*
X143786802Y-57609101D01*
X143785167Y-57663788D01*
X143786174Y-57737700D01*
X143792461Y-57780937D01*
X143808925Y-57805153D01*
X143840464Y-57822005D01*
X143853958Y-57827513D01*
X143894963Y-57841179D01*
X143969622Y-57863326D01*
X144070592Y-57891885D01*
X144190529Y-57924788D01*
X144322090Y-57959966D01*
X144352336Y-57967929D01*
X144478049Y-58001899D01*
X144586675Y-58033130D01*
X144672709Y-58059880D01*
X144730643Y-58080406D01*
X144754970Y-58092966D01*
X144754503Y-58095170D01*
X144726903Y-58105059D01*
X144664838Y-58124711D01*
X144574541Y-58152238D01*
X144462244Y-58185750D01*
X144334181Y-58223358D01*
X144272016Y-58241419D01*
X144139589Y-58280623D01*
X144020928Y-58317386D01*
X143922075Y-58349703D01*
X143849073Y-58375567D01*
X143807963Y-58392973D01*
X143801382Y-58397653D01*
X143789617Y-58438739D01*
X143785142Y-58502702D01*
X141889322Y-58502702D01*
X141888829Y-56700863D01*
X143785167Y-56700863D01*
X143787620Y-56763125D01*
X143798988Y-56795838D01*
X143825277Y-56811688D01*
X143839574Y-56815715D01*
X143884936Y-56820847D01*
X143964516Y-56823531D01*
X144070529Y-56824019D01*
X144195190Y-56822563D01*
X144330715Y-56819414D01*
X144469317Y-56814823D01*
X144603213Y-56809043D01*
X144724617Y-56802324D01*
X144825743Y-56794918D01*
X144898808Y-56787077D01*
X144932639Y-56780394D01*
X145054162Y-56719147D01*
X145145840Y-56629135D01*
X145172164Y-56578012D01*
X145205169Y-56513912D01*
X145229645Y-56377033D01*
X145230134Y-56358089D01*
X145217550Y-56247420D01*
X145175276Y-56138700D01*
X145099752Y-56024179D01*
X145048491Y-55962414D01*
X145010402Y-55912190D01*
X145001054Y-55882451D01*
X145006481Y-55877178D01*
X145085008Y-55830449D01*
X145152091Y-55751855D01*
X145201857Y-55651499D01*
X145228434Y-55539481D01*
X145231270Y-55490533D01*
X145222225Y-55391152D01*
X145191593Y-55299486D01*
X145134311Y-55203445D01*
X145082864Y-55135991D01*
X145030037Y-55070772D01*
X146069537Y-55070772D01*
X146080417Y-55126384D01*
X146106732Y-55171179D01*
X146118792Y-55181019D01*
X146153068Y-55197358D01*
X146219883Y-55224612D01*
X146313727Y-55260825D01*
X146429088Y-55304041D01*
X146560455Y-55352302D01*
X146702316Y-55403653D01*
X146849161Y-55456136D01*
X146995478Y-55507795D01*
X147135756Y-55556675D01*
X147264483Y-55600817D01*
X147376149Y-55638265D01*
X147465241Y-55667064D01*
X147526250Y-55685256D01*
X147553664Y-55690885D01*
X147554372Y-55690665D01*
X147567003Y-55663524D01*
X147573684Y-55611466D01*
X147574000Y-55596638D01*
X147574543Y-55570439D01*
X147573190Y-55549504D01*
X147565468Y-55531566D01*
X147546902Y-55514356D01*
X147513021Y-55495606D01*
X147459351Y-55473051D01*
X147381418Y-55444420D01*
X147274749Y-55407447D01*
X147134872Y-55359865D01*
X147050125Y-55331060D01*
X146945223Y-55294611D01*
X146856215Y-55262261D01*
X146790037Y-55236643D01*
X146753623Y-55220393D01*
X146748744Y-55216593D01*
X146767821Y-55206278D01*
X146820823Y-55184522D01*
X146901644Y-55153653D01*
X147004175Y-55115996D01*
X147122310Y-55073880D01*
X147135036Y-55069411D01*
X147256592Y-55026217D01*
X147365230Y-54986536D01*
X147454277Y-54952894D01*
X147517061Y-54927813D01*
X147546911Y-54913818D01*
X147547542Y-54913361D01*
X147563666Y-54881497D01*
X147572456Y-54828350D01*
X147573024Y-54771884D01*
X147564481Y-54730057D01*
X147557077Y-54720572D01*
X147533553Y-54724957D01*
X147475789Y-54742624D01*
X147389093Y-54771744D01*
X147278771Y-54810489D01*
X147150127Y-54857029D01*
X147008469Y-54909537D01*
X147005196Y-54910765D01*
X146470238Y-55111416D01*
X146299851Y-55045708D01*
X146219174Y-55017063D01*
X146151572Y-54997573D01*
X146108045Y-54990242D01*
X146100316Y-54991185D01*
X146075650Y-55020365D01*
X146069537Y-55070772D01*
X145030037Y-55070772D01*
X145009999Y-55046033D01*
X145106263Y-55046033D01*
X145166682Y-55043312D01*
X145198032Y-55030711D01*
X145213452Y-55001571D01*
X145216554Y-54990144D01*
X145220219Y-54926093D01*
X145211163Y-54879019D01*
X145191745Y-54823783D01*
X144515097Y-54818187D01*
X144349124Y-54817144D01*
X144196181Y-54816814D01*
X144061558Y-54817160D01*
X143950543Y-54818142D01*
X143868426Y-54819723D01*
X143820496Y-54821866D01*
X143810694Y-54823242D01*
X143793210Y-54848539D01*
X143788037Y-54908836D01*
X143789344Y-54945254D01*
X143795750Y-55056616D01*
X144286221Y-55067200D01*
X144442543Y-55070678D01*
X144562218Y-55073933D01*
X144650923Y-55077622D01*
X144714335Y-55082404D01*
X144758130Y-55088937D01*
X144787985Y-55097877D01*
X144809577Y-55109884D01*
X144828583Y-55125615D01*
X144834131Y-55130700D01*
X144930023Y-55235273D01*
X144989714Y-55336865D01*
X145012925Y-55432067D01*
X144999375Y-55517472D01*
X144948784Y-55589674D01*
X144875895Y-55638387D01*
X144843812Y-55652359D01*
X144808833Y-55662927D01*
X144764755Y-55670565D01*
X144705377Y-55675746D01*
X144624496Y-55678945D01*
X144515910Y-55680633D01*
X144373416Y-55681285D01*
X144312942Y-55681357D01*
X144174227Y-55682208D01*
X144048994Y-55684412D01*
X143943701Y-55687738D01*
X143864805Y-55691956D01*
X143818765Y-55696836D01*
X143810333Y-55699280D01*
X143791812Y-55735423D01*
X143788572Y-55810016D01*
X143789166Y-55820664D01*
X143795750Y-55924450D01*
X144752122Y-55935810D01*
X144840874Y-56011779D01*
X144929460Y-56105166D01*
X144985511Y-56202300D01*
X145008606Y-56297533D01*
X144998325Y-56385218D01*
X144954248Y-56459706D01*
X144878275Y-56514262D01*
X144847784Y-56525771D01*
X144807364Y-56534498D01*
X144751290Y-56540797D01*
X144673838Y-56545023D01*
X144569281Y-56547533D01*
X144431896Y-56548682D01*
X144320660Y-56548866D01*
X144147586Y-56549624D01*
X144013738Y-56552001D01*
X143916036Y-56556150D01*
X143851396Y-56562224D01*
X143816738Y-56570377D01*
X143810567Y-56574266D01*
X143795442Y-56609421D01*
X143786350Y-56669210D01*
X143785167Y-56700863D01*
X141888829Y-56700863D01*
X141888048Y-53850503D01*
X143788037Y-53850503D01*
X143789344Y-53886921D01*
X143795750Y-53998283D01*
X144196181Y-54007344D01*
X144263425Y-54008866D01*
X144731101Y-54019450D01*
X144830585Y-54101021D01*
X144909482Y-54169953D01*
X144958291Y-54227107D01*
X144982524Y-54283615D01*
X144987692Y-54350611D01*
X144983004Y-54408935D01*
X144976142Y-54478360D01*
X144977874Y-54516921D01*
X144991618Y-54535769D01*
X145020788Y-54546056D01*
X145025364Y-54547213D01*
X145090140Y-54553297D01*
X145142164Y-54548104D01*
X145185965Y-54529546D01*
X145212755Y-54489650D01*
X145224930Y-54451769D01*
X145236172Y-54342289D01*
X145208180Y-54237771D01*
X145139746Y-54134812D01*
X145095598Y-54088241D01*
X144991807Y-53987700D01*
X145097167Y-53987700D01*
X145160789Y-53985536D01*
X145194597Y-53975157D01*
X145211044Y-53950736D01*
X145216554Y-53931810D01*
X145220219Y-53867759D01*
X145211163Y-53820685D01*
X145191745Y-53765450D01*
X144515097Y-53759854D01*
X144349124Y-53758811D01*
X144196181Y-53758481D01*
X144061558Y-53758826D01*
X143950543Y-53759809D01*
X143868426Y-53761390D01*
X143820496Y-53763533D01*
X143810694Y-53764909D01*
X143793210Y-53790206D01*
X143788037Y-53850503D01*
X141888048Y-53850503D01*
X141888007Y-53700031D01*
X146474589Y-53700031D01*
X146477720Y-53755012D01*
X146486181Y-53784885D01*
X146516598Y-53810779D01*
X146561262Y-53818366D01*
X146623495Y-53818366D01*
X146554645Y-53904041D01*
X146513412Y-53962631D01*
X146490546Y-54020016D01*
X146479336Y-54095185D01*
X146477324Y-54122744D01*
X146485550Y-54259583D01*
X146528668Y-54372928D01*
X146605991Y-54462222D01*
X146716832Y-54526909D01*
X146860502Y-54566433D01*
X147036316Y-54580238D01*
X147042906Y-54580248D01*
X147207209Y-54569850D01*
X147338217Y-54537678D01*
X147439996Y-54481861D01*
X147516615Y-54400529D01*
X147547542Y-54348169D01*
X147557077Y-54322177D01*
X147587780Y-54238478D01*
X147591435Y-54134144D01*
X147557909Y-54025878D01*
X147522628Y-53959996D01*
X147450089Y-53839533D01*
X147754035Y-53839533D01*
X147873281Y-53839209D01*
X147956937Y-53837619D01*
X148011742Y-53833831D01*
X148044437Y-53826917D01*
X148061764Y-53815944D01*
X148070464Y-53799985D01*
X148071902Y-53795672D01*
X148077857Y-53739953D01*
X148072925Y-53700422D01*
X148060027Y-53649033D01*
X147280791Y-53649033D01*
X147103179Y-53649404D01*
X146939026Y-53650459D01*
X146793116Y-53652114D01*
X146670234Y-53654283D01*
X146575163Y-53656881D01*
X146512687Y-53659824D01*
X146487589Y-53663026D01*
X146487445Y-53663144D01*
X146474589Y-53700031D01*
X141888007Y-53700031D01*
X141887858Y-53155033D01*
X143788281Y-53155033D01*
X143789508Y-53193136D01*
X143795750Y-53299783D01*
X144196181Y-53302960D01*
X144498529Y-53305359D01*
X145201309Y-53310934D01*
X145215564Y-53234947D01*
X145217032Y-53204923D01*
X145470815Y-53204923D01*
X145489388Y-53279032D01*
X145505177Y-53305075D01*
X145537844Y-53321412D01*
X145594821Y-53330714D01*
X145618187Y-53331533D01*
X145682782Y-53326389D01*
X145722472Y-53306306D01*
X145745192Y-53278369D01*
X145767385Y-53210933D01*
X145762452Y-53133260D01*
X145731898Y-53066296D01*
X145729783Y-53063675D01*
X145692652Y-53044871D01*
X145633047Y-53036421D01*
X145569074Y-53038487D01*
X145518841Y-53051232D01*
X145504536Y-53061658D01*
X145475846Y-53125781D01*
X145470815Y-53204923D01*
X145217032Y-53204923D01*
X145218954Y-53165617D01*
X145206447Y-53107663D01*
X145183074Y-53056366D01*
X144498232Y-53056366D01*
X144331950Y-53056816D01*
X144179315Y-53058090D01*
X144045456Y-53060080D01*
X143935501Y-53062674D01*
X143854581Y-53065762D01*
X143807824Y-53069234D01*
X143798327Y-53071428D01*
X143790804Y-53099663D01*
X143788281Y-53155033D01*
X141887858Y-53155033D01*
X141887491Y-51815055D01*
X143788652Y-51815055D01*
X143789531Y-51839152D01*
X143795750Y-51945116D01*
X144213792Y-51950855D01*
X144631833Y-51956594D01*
X144631833Y-52290580D01*
X144632617Y-52427315D01*
X144635925Y-52527378D01*
X144643192Y-52596414D01*
X144655852Y-52640071D01*
X144675339Y-52663996D01*
X144703088Y-52673834D01*
X144729586Y-52675366D01*
X144770434Y-52674415D01*
X144800123Y-52667679D01*
X144820434Y-52649333D01*
X144833146Y-52613552D01*
X144840039Y-52554512D01*
X144842896Y-52466388D01*
X144843494Y-52343355D01*
X144843500Y-52302685D01*
X144843500Y-51955700D01*
X145183074Y-51955700D01*
X145499667Y-51955700D01*
X145499667Y-52316057D01*
X145499831Y-52447249D01*
X145500857Y-52542340D01*
X145503547Y-52607562D01*
X145508701Y-52649146D01*
X145517121Y-52673325D01*
X145529607Y-52686330D01*
X145546960Y-52694393D01*
X145548363Y-52694928D01*
X145607321Y-52705241D01*
X145633047Y-52703748D01*
X145654197Y-52702520D01*
X145711333Y-52691598D01*
X145711333Y-52255197D01*
X146474162Y-52255197D01*
X146477792Y-52332807D01*
X146494395Y-52393840D01*
X146530607Y-52459448D01*
X146545184Y-52481549D01*
X146617035Y-52588318D01*
X146563194Y-52594801D01*
X146504749Y-52618554D01*
X146477720Y-52668652D01*
X146481269Y-52725267D01*
X146495437Y-52781720D01*
X147272844Y-52776168D01*
X148050250Y-52770616D01*
X148057007Y-52688104D01*
X148054533Y-52622582D01*
X148035840Y-52587886D01*
X148004957Y-52581148D01*
X147940806Y-52575536D01*
X147852447Y-52571599D01*
X147748940Y-52569885D01*
X147737742Y-52569857D01*
X147467566Y-52569533D01*
X147526075Y-52481120D01*
X147574903Y-52371036D01*
X147588578Y-52249689D01*
X147567134Y-52129354D01*
X147524833Y-52042235D01*
X147446197Y-51953445D01*
X147343409Y-51891127D01*
X147212547Y-51853691D01*
X147049687Y-51839550D01*
X147023667Y-51839339D01*
X146881472Y-51844631D01*
X146770894Y-51862096D01*
X146682332Y-51894251D01*
X146606187Y-51943610D01*
X146596990Y-51951177D01*
X146528519Y-52027377D01*
X146488919Y-52120590D01*
X146474391Y-52240216D01*
X146474162Y-52255197D01*
X145711333Y-52255197D01*
X145711333Y-51721818D01*
X145657039Y-51701176D01*
X145620817Y-51695330D01*
X145548963Y-51690416D01*
X145446851Y-51686417D01*
X145319857Y-51683315D01*
X145173356Y-51681095D01*
X145012725Y-51679739D01*
X144843337Y-51679233D01*
X144670570Y-51679558D01*
X144499798Y-51680698D01*
X144336397Y-51682637D01*
X144185742Y-51685358D01*
X144053208Y-51688845D01*
X143944172Y-51693081D01*
X143864009Y-51698050D01*
X143818094Y-51703735D01*
X143809640Y-51706860D01*
X143793673Y-51746340D01*
X143788652Y-51815055D01*
X141887491Y-51815055D01*
X141887312Y-51163567D01*
X146476079Y-51163567D01*
X146480558Y-51278299D01*
X146493537Y-51384917D01*
X146511302Y-51458283D01*
X146536394Y-51522151D01*
X146561414Y-51555543D01*
X146595649Y-51569267D01*
X146608204Y-51571063D01*
X146664159Y-51570084D01*
X146689463Y-51547156D01*
X146687022Y-51497055D01*
X146673887Y-51453045D01*
X146635953Y-51305065D01*
X146628234Y-51173391D01*
X146649860Y-51062024D01*
X146699957Y-50974967D01*
X146777654Y-50916222D01*
X146792224Y-50909863D01*
X146858511Y-50888264D01*
X146917764Y-50876773D01*
X146928845Y-50876200D01*
X146981333Y-50876200D01*
X146981333Y-51205674D01*
X146982720Y-51327235D01*
X146986573Y-51432998D01*
X146992433Y-51515194D01*
X146999839Y-51566050D01*
X147003245Y-51576091D01*
X147023667Y-51592007D01*
X147043054Y-51607118D01*
X147114715Y-51616867D01*
X147213393Y-51605183D01*
X147292053Y-51585336D01*
X147408575Y-51530614D01*
X147498917Y-51447227D01*
X147560550Y-51341615D01*
X147590949Y-51220219D01*
X147587587Y-51089482D01*
X147547939Y-50955844D01*
X147543116Y-50945206D01*
X147474888Y-50843297D01*
X147380558Y-50764730D01*
X147266926Y-50709309D01*
X147140795Y-50676838D01*
X147008965Y-50667121D01*
X146878238Y-50679964D01*
X146755415Y-50715169D01*
X146647297Y-50772542D01*
X146560686Y-50851887D01*
X146502383Y-50953008D01*
X146494857Y-50975365D01*
X146480659Y-51057121D01*
X146476079Y-51163567D01*
X141887312Y-51163567D01*
X141887242Y-50907950D01*
X141887160Y-50565141D01*
X143783711Y-50565141D01*
X143786931Y-50627754D01*
X143799735Y-50668755D01*
X143805896Y-50674846D01*
X143818332Y-50679149D01*
X143835967Y-50676756D01*
X143862476Y-50665227D01*
X143901533Y-50642118D01*
X143956814Y-50604987D01*
X144031994Y-50551394D01*
X144130748Y-50478896D01*
X144256751Y-50385050D01*
X144371935Y-50298747D01*
X144508054Y-50196935D01*
X144614581Y-50118292D01*
X144695557Y-50060275D01*
X144755020Y-50020341D01*
X144797011Y-49995946D01*
X144825567Y-49984547D01*
X144843337Y-49983670D01*
X144844729Y-49983601D01*
X144858535Y-49990564D01*
X144859778Y-49991599D01*
X144981218Y-50094933D01*
X145105122Y-50199044D01*
X145226762Y-50300084D01*
X145341408Y-50394205D01*
X145444334Y-50477560D01*
X145530810Y-50546299D01*
X145596108Y-50596576D01*
X145635500Y-50624542D01*
X145642100Y-50628261D01*
X145684611Y-50640684D01*
X145709592Y-50625351D01*
X145712525Y-50620996D01*
X145726110Y-50574859D01*
X145730114Y-50507944D01*
X145724289Y-50440767D01*
X145715137Y-50406739D01*
X145695138Y-50384320D01*
X145646389Y-50339820D01*
X145573534Y-50277175D01*
X145481220Y-50200320D01*
X145374092Y-50113189D01*
X145334759Y-50081789D01*
X146475764Y-50081789D01*
X146486181Y-50123052D01*
X146496207Y-50135551D01*
X146519162Y-50144563D01*
X146560964Y-50150628D01*
X146627530Y-50154285D01*
X146724779Y-50156074D01*
X146853618Y-50156533D01*
X147008965Y-50156533D01*
X147208207Y-50156533D01*
X147308886Y-50245154D01*
X147409566Y-50333776D01*
X147383130Y-50558700D01*
X147467237Y-50558700D01*
X147538069Y-50546220D01*
X147579158Y-50506804D01*
X147592557Y-50437490D01*
X147588612Y-50383606D01*
X147562632Y-50302396D01*
X147503259Y-50223503D01*
X147498784Y-50218873D01*
X147420267Y-50138464D01*
X147491842Y-50131623D01*
X147541288Y-50122008D01*
X147562997Y-50096550D01*
X147570279Y-50052919D01*
X147567182Y-49994338D01*
X147549112Y-49963285D01*
X147517523Y-49956468D01*
X147451603Y-49951209D01*
X147358601Y-49947459D01*
X147245769Y-49945171D01*
X147120359Y-49944296D01*
X146989622Y-49944785D01*
X146860809Y-49946591D01*
X146741172Y-49949666D01*
X146637961Y-49953961D01*
X146558428Y-49959427D01*
X146509825Y-49966018D01*
X146498733Y-49970266D01*
X146477135Y-50017087D01*
X146475764Y-50081789D01*
X145334759Y-50081789D01*
X145277806Y-50036322D01*
X144854863Y-49701450D01*
X145267223Y-49695905D01*
X145411744Y-49693553D01*
X145519662Y-49690569D01*
X145596706Y-49686416D01*
X145648607Y-49680558D01*
X145681094Y-49672458D01*
X145699897Y-49661580D01*
X145706042Y-49654818D01*
X145728132Y-49596667D01*
X145729822Y-49523250D01*
X145710604Y-49456670D01*
X145710589Y-49456641D01*
X145703966Y-49446874D01*
X145693012Y-49438796D01*
X145673970Y-49432248D01*
X145643085Y-49427069D01*
X145596602Y-49423099D01*
X145530765Y-49420179D01*
X145441820Y-49418146D01*
X145326010Y-49416843D01*
X145179581Y-49416107D01*
X144998776Y-49415780D01*
X144779841Y-49415700D01*
X144751033Y-49415700D01*
X144555761Y-49416008D01*
X144373632Y-49416892D01*
X144208990Y-49418286D01*
X144066179Y-49420126D01*
X143949541Y-49422348D01*
X143863421Y-49424887D01*
X143812161Y-49427679D01*
X143799278Y-49429811D01*
X143787787Y-49463638D01*
X143784747Y-49521573D01*
X143789145Y-49586466D01*
X143799966Y-49641162D01*
X143813284Y-49666685D01*
X143845653Y-49675624D01*
X143918296Y-49683184D01*
X144029169Y-49689244D01*
X144176231Y-49693680D01*
X144298024Y-49695735D01*
X144754646Y-49701450D01*
X144307468Y-50029533D01*
X144185334Y-50119493D01*
X144073013Y-50202895D01*
X143975499Y-50275977D01*
X143897787Y-50334978D01*
X143844871Y-50376134D01*
X143822728Y-50394658D01*
X143802493Y-50433891D01*
X143789193Y-50495619D01*
X143783711Y-50565141D01*
X141887160Y-50565141D01*
X141887067Y-50173078D01*
X141886948Y-49448607D01*
X141886932Y-49278560D01*
X146478099Y-49278560D01*
X146483602Y-49386331D01*
X146496006Y-49481067D01*
X146515028Y-49549117D01*
X146516966Y-49553283D01*
X146547333Y-49598273D01*
X146589795Y-49615201D01*
X146621785Y-49616783D01*
X146672723Y-49611657D01*
X146689342Y-49594053D01*
X146688513Y-49585033D01*
X146679678Y-49548335D01*
X146664028Y-49485762D01*
X146649170Y-49427371D01*
X146625602Y-49281444D01*
X146635580Y-49160081D01*
X146678688Y-49064080D01*
X146754508Y-48994240D01*
X146862623Y-48951358D01*
X146901958Y-48943766D01*
X146981333Y-48931528D01*
X146981333Y-49276855D01*
X146981646Y-49416383D01*
X146984452Y-49519011D01*
X146992550Y-49590174D01*
X147008741Y-49635304D01*
X147035825Y-49659834D01*
X147076601Y-49669198D01*
X147120359Y-49668917D01*
X147133871Y-49668829D01*
X147181840Y-49665907D01*
X147320656Y-49639340D01*
X147433362Y-49580329D01*
X147517661Y-49491041D01*
X147571255Y-49373646D01*
X147588685Y-49281882D01*
X147584304Y-49136101D01*
X147541231Y-49005368D01*
X147461636Y-48893653D01*
X147347684Y-48804925D01*
X147320000Y-48789793D01*
X147241018Y-48763354D01*
X147135136Y-48746678D01*
X147016776Y-48740342D01*
X146900362Y-48744919D01*
X146800317Y-48760983D01*
X146775696Y-48768114D01*
X146659795Y-48827781D01*
X146563645Y-48919166D01*
X146505815Y-49013533D01*
X146488924Y-49078510D01*
X146479779Y-49171403D01*
X146478099Y-49278560D01*
X141886932Y-49278560D01*
X141886882Y-48735693D01*
X141886869Y-48035495D01*
X141886907Y-47349172D01*
X141886964Y-46918212D01*
X143784712Y-46918212D01*
X143789177Y-46983145D01*
X143800103Y-47037863D01*
X143813483Y-47063350D01*
X143840738Y-47070436D01*
X143904881Y-47076532D01*
X144006927Y-47081672D01*
X144147892Y-47085893D01*
X144328793Y-47089230D01*
X144550646Y-47091719D01*
X144638672Y-47092400D01*
X145435545Y-47097950D01*
X144668564Y-47392720D01*
X144495872Y-47459250D01*
X144333710Y-47522030D01*
X144186775Y-47579218D01*
X144059767Y-47628971D01*
X143957383Y-47669449D01*
X143884323Y-47698809D01*
X143845284Y-47715210D01*
X143842307Y-47716608D01*
X143807592Y-47737349D01*
X143791036Y-47764011D01*
X143787405Y-47810358D01*
X143789390Y-47855754D01*
X143795750Y-47965783D01*
X144642417Y-48308940D01*
X145489083Y-48652097D01*
X144642417Y-48658190D01*
X143795750Y-48664283D01*
X143795750Y-48897116D01*
X144724644Y-48902632D01*
X144779841Y-48902877D01*
X144970240Y-48903723D01*
X145175645Y-48903802D01*
X145342991Y-48902830D01*
X145474410Y-48900765D01*
X145572033Y-48897565D01*
X145637992Y-48893190D01*
X145674418Y-48887599D01*
X145682436Y-48884166D01*
X145700198Y-48847957D01*
X145709561Y-48774332D01*
X145711333Y-48702423D01*
X145709732Y-48618223D01*
X145703009Y-48564504D01*
X145688286Y-48529472D01*
X145662686Y-48501333D01*
X145662145Y-48500850D01*
X145631549Y-48482782D01*
X145566521Y-48450980D01*
X145471875Y-48407577D01*
X145352426Y-48354708D01*
X145212988Y-48294506D01*
X145058375Y-48229107D01*
X144911511Y-48168095D01*
X144882919Y-48156283D01*
X146473333Y-48156283D01*
X146481539Y-48213914D01*
X146499792Y-48254417D01*
X146525396Y-48267937D01*
X146584786Y-48291365D01*
X146671181Y-48322514D01*
X146777797Y-48359199D01*
X146897852Y-48399231D01*
X147016776Y-48437891D01*
X147024564Y-48440423D01*
X147151151Y-48480590D01*
X147270830Y-48517542D01*
X147376820Y-48549094D01*
X147462337Y-48573059D01*
X147520600Y-48587249D01*
X147541103Y-48590200D01*
X147564611Y-48572592D01*
X147575315Y-48529827D01*
X147573550Y-48476990D01*
X147559648Y-48429168D01*
X147536958Y-48402841D01*
X147505694Y-48391194D01*
X147440609Y-48370339D01*
X147348674Y-48342391D01*
X147236857Y-48309467D01*
X147112131Y-48273681D01*
X147101768Y-48270748D01*
X146703619Y-48158169D01*
X146985351Y-48076706D01*
X147104530Y-48041967D01*
X147224241Y-48006592D01*
X147331021Y-47974590D01*
X147411405Y-47949967D01*
X147415250Y-47948763D01*
X147563417Y-47902283D01*
X147569891Y-47813025D01*
X147571380Y-47755914D01*
X147560160Y-47726919D01*
X147529195Y-47712206D01*
X147516975Y-47708996D01*
X147381242Y-47674363D01*
X147245305Y-47638114D01*
X147114917Y-47601950D01*
X146995831Y-47567577D01*
X146893797Y-47536698D01*
X146814569Y-47511018D01*
X146763900Y-47492240D01*
X146747540Y-47482069D01*
X146748500Y-47481351D01*
X146781052Y-47470556D01*
X146844400Y-47451036D01*
X146928663Y-47425796D01*
X147002500Y-47404086D01*
X147118183Y-47370178D01*
X147242021Y-47333614D01*
X147354410Y-47300192D01*
X147399375Y-47286715D01*
X147574000Y-47234172D01*
X147574000Y-47139602D01*
X147568356Y-47073692D01*
X147551949Y-47045573D01*
X147547542Y-47044735D01*
X147512413Y-47050855D01*
X147445297Y-47068158D01*
X147352942Y-47094485D01*
X147242097Y-47127678D01*
X147119511Y-47165577D01*
X146991933Y-47206025D01*
X146866111Y-47246862D01*
X146748795Y-47285930D01*
X146646733Y-47321070D01*
X146566674Y-47350124D01*
X146515367Y-47370933D01*
X146499792Y-47379858D01*
X146480482Y-47426651D01*
X146474157Y-47489916D01*
X146480701Y-47550961D01*
X146499997Y-47591098D01*
X146501115Y-47592072D01*
X146530330Y-47605168D01*
X146592893Y-47626306D01*
X146681119Y-47653111D01*
X146787323Y-47683209D01*
X146855656Y-47701643D01*
X146969166Y-47731877D01*
X147069666Y-47758984D01*
X147149377Y-47780841D01*
X147200522Y-47795322D01*
X147214167Y-47799554D01*
X147205368Y-47808727D01*
X147161553Y-47827255D01*
X147088472Y-47853095D01*
X146991879Y-47884205D01*
X146886083Y-47916048D01*
X146763233Y-47953411D01*
X146656436Y-47988743D01*
X146572329Y-48019643D01*
X146517549Y-48043712D01*
X146499792Y-48055718D01*
X146480616Y-48101413D01*
X146473333Y-48156283D01*
X144882919Y-48156283D01*
X144749504Y-48101166D01*
X144600032Y-48039041D01*
X144467581Y-47983613D01*
X144356636Y-47936775D01*
X144271681Y-47900420D01*
X144217202Y-47876440D01*
X144197788Y-47866876D01*
X144209484Y-47853725D01*
X144251872Y-47830843D01*
X144315905Y-47803086D01*
X144318713Y-47801973D01*
X144373043Y-47780524D01*
X144460311Y-47746089D01*
X144574075Y-47701211D01*
X144707891Y-47648430D01*
X144855314Y-47590289D01*
X145009902Y-47529329D01*
X145034000Y-47519827D01*
X145192210Y-47456474D01*
X145335545Y-47397195D01*
X145459130Y-47344135D01*
X145558090Y-47299439D01*
X145627550Y-47265254D01*
X145662635Y-47243725D01*
X145663708Y-47242716D01*
X145688084Y-47212993D01*
X145702476Y-47176580D01*
X145709386Y-47122066D01*
X145711317Y-47038040D01*
X145711333Y-47025573D01*
X145709982Y-46938698D01*
X145704558Y-46884501D01*
X145693008Y-46853374D01*
X145673277Y-46835712D01*
X145670392Y-46834111D01*
X145641759Y-46829708D01*
X145576611Y-46825729D01*
X145480250Y-46822196D01*
X145357976Y-46819131D01*
X145215090Y-46816556D01*
X145056894Y-46814493D01*
X144888687Y-46812964D01*
X144715772Y-46811992D01*
X144543449Y-46811598D01*
X144377019Y-46811805D01*
X144221782Y-46812634D01*
X144083041Y-46814109D01*
X143966095Y-46816250D01*
X143876246Y-46819080D01*
X143818795Y-46822620D01*
X143799278Y-46826311D01*
X143787736Y-46860216D01*
X143784712Y-46918212D01*
X141886964Y-46918212D01*
X141886996Y-46677883D01*
X141887021Y-46558200D01*
X143514990Y-46558200D01*
X143530010Y-46599338D01*
X143571441Y-46616726D01*
X143581349Y-46618061D01*
X143647110Y-46620426D01*
X143697040Y-46605771D01*
X143739777Y-46567717D01*
X143783955Y-46499885D01*
X143811912Y-46447735D01*
X143858044Y-46363981D01*
X143906084Y-46285536D01*
X143946521Y-46227828D01*
X143950696Y-46222686D01*
X144009817Y-46151756D01*
X144089581Y-46205884D01*
X144233452Y-46282113D01*
X144405841Y-46338016D01*
X144543449Y-46362327D01*
X144597217Y-46371827D01*
X144798047Y-46381777D01*
X144842364Y-46378711D01*
X146474154Y-46378711D01*
X146483903Y-46490169D01*
X146505467Y-46584906D01*
X146517567Y-46615042D01*
X146594757Y-46728009D01*
X146701613Y-46813036D01*
X146834596Y-46868448D01*
X146990169Y-46892566D01*
X147099224Y-46890859D01*
X147258620Y-46861807D01*
X147389382Y-46802612D01*
X147489624Y-46715942D01*
X147547542Y-46620768D01*
X147557461Y-46604468D01*
X147591005Y-46470857D01*
X147588371Y-46317779D01*
X147570302Y-46224200D01*
X147525237Y-46121880D01*
X147448818Y-46026834D01*
X147351883Y-45949832D01*
X147245846Y-45901803D01*
X147091932Y-45873644D01*
X146942429Y-45874501D01*
X146803642Y-45902087D01*
X146681876Y-45954116D01*
X146583436Y-46028302D01*
X146514628Y-46122359D01*
X146493811Y-46174444D01*
X146477147Y-46267735D01*
X146474154Y-46378711D01*
X144842364Y-46378711D01*
X144972670Y-46369696D01*
X145180165Y-46327496D01*
X145355055Y-46258315D01*
X145497314Y-46162182D01*
X145606914Y-46039125D01*
X145683830Y-45889174D01*
X145728035Y-45712357D01*
X145739840Y-45531616D01*
X145721294Y-45329943D01*
X145668747Y-45153042D01*
X145582560Y-45001470D01*
X145477174Y-44890597D01*
X146475762Y-44890597D01*
X146480450Y-44959548D01*
X146486181Y-44979552D01*
X146497721Y-44993658D01*
X146524081Y-45003260D01*
X146572012Y-45009157D01*
X146648265Y-45012148D01*
X146759588Y-45013029D01*
X146769277Y-45013033D01*
X147039525Y-45013033D01*
X147048862Y-45190926D01*
X147071440Y-45357913D01*
X147091932Y-45414209D01*
X147120167Y-45491778D01*
X147195458Y-45593015D01*
X147297726Y-45662114D01*
X147427386Y-45699570D01*
X147482166Y-45705492D01*
X147626485Y-45699782D01*
X147744481Y-45661088D01*
X147836978Y-45588912D01*
X147904797Y-45482756D01*
X147922428Y-45438697D01*
X147936471Y-45378246D01*
X147946833Y-45293313D01*
X147953399Y-45193800D01*
X147956053Y-45089613D01*
X147954678Y-44990657D01*
X147949158Y-44906837D01*
X147939378Y-44848056D01*
X147929600Y-44826766D01*
X147901747Y-44819318D01*
X147838276Y-44813049D01*
X147745200Y-44807953D01*
X147628532Y-44804028D01*
X147494285Y-44801268D01*
X147348474Y-44799669D01*
X147197111Y-44799226D01*
X147046210Y-44799936D01*
X146901784Y-44801794D01*
X146769848Y-44804795D01*
X146656413Y-44808934D01*
X146567494Y-44814209D01*
X146509104Y-44820613D01*
X146487352Y-44827825D01*
X146475762Y-44890597D01*
X145477174Y-44890597D01*
X145463091Y-44875781D01*
X145310703Y-44776531D01*
X145225167Y-44738129D01*
X145069896Y-44693337D01*
X144890008Y-44668275D01*
X144698326Y-44662914D01*
X144507673Y-44677229D01*
X144330874Y-44711190D01*
X144238762Y-44740241D01*
X144080845Y-44819420D01*
X143954420Y-44926581D01*
X143859947Y-45060913D01*
X143797884Y-45221604D01*
X143768690Y-45407842D01*
X143769056Y-45570724D01*
X143784761Y-45705591D01*
X143812358Y-45816280D01*
X143824137Y-45846443D01*
X143868236Y-45946136D01*
X143764754Y-46074556D01*
X143699040Y-46163997D01*
X143636841Y-46262680D01*
X143582858Y-46361498D01*
X143541794Y-46451348D01*
X143518351Y-46523125D01*
X143514990Y-46558200D01*
X141887021Y-46558200D01*
X141887134Y-46022785D01*
X141887320Y-45385038D01*
X141887554Y-44765799D01*
X141887833Y-44166227D01*
X141888157Y-43587481D01*
X141888524Y-43030719D01*
X141888934Y-42497100D01*
X141889386Y-41987781D01*
X141889877Y-41503922D01*
X141890407Y-41046681D01*
X141890976Y-40617217D01*
X141891158Y-40496936D01*
X143321813Y-40496936D01*
X143323565Y-40561097D01*
X143330083Y-40663283D01*
X143578792Y-40669246D01*
X143827500Y-40675210D01*
X143827500Y-40970200D01*
X143597259Y-40970200D01*
X143483002Y-40971613D01*
X143404689Y-40978370D01*
X143355960Y-40994243D01*
X143330455Y-41023007D01*
X143321813Y-41068436D01*
X143323565Y-41132597D01*
X143330083Y-41234783D01*
X143578792Y-41240746D01*
X143827500Y-41246710D01*
X143827500Y-41541700D01*
X143597259Y-41541700D01*
X143483002Y-41543113D01*
X143404689Y-41549870D01*
X143355960Y-41565743D01*
X143330455Y-41594507D01*
X143321813Y-41639936D01*
X143323565Y-41704097D01*
X143330083Y-41806283D01*
X143578792Y-41812246D01*
X143827500Y-41818210D01*
X143827500Y-42113200D01*
X143597259Y-42113200D01*
X143483002Y-42114613D01*
X143404689Y-42121370D01*
X143355960Y-42137243D01*
X143330455Y-42166007D01*
X143321813Y-42211436D01*
X143323565Y-42275597D01*
X143330083Y-42377783D01*
X143576367Y-42383725D01*
X143822651Y-42389668D01*
X143831255Y-42521309D01*
X143860587Y-42679197D01*
X143924863Y-42814927D01*
X144021463Y-42925861D01*
X144147768Y-43009361D01*
X144301159Y-43062792D01*
X144383125Y-43076921D01*
X144504833Y-43091744D01*
X144504833Y-43321394D01*
X144506433Y-43433591D01*
X144513479Y-43510203D01*
X144529339Y-43557924D01*
X144557382Y-43583452D01*
X144600978Y-43593481D01*
X144642417Y-43594866D01*
X144698326Y-43591757D01*
X144698646Y-43591739D01*
X144737116Y-43577911D01*
X144761154Y-43546710D01*
X144774086Y-43491464D01*
X144779239Y-43405503D01*
X144780000Y-43318955D01*
X144780000Y-43086866D01*
X145076333Y-43086866D01*
X145076333Y-43318955D01*
X145077893Y-43431717D01*
X145084788Y-43508866D01*
X145100347Y-43557071D01*
X145127895Y-43583006D01*
X145170759Y-43593340D01*
X145213917Y-43594866D01*
X145270146Y-43591739D01*
X145308616Y-43577911D01*
X145332654Y-43546710D01*
X145345586Y-43491464D01*
X145350739Y-43405503D01*
X145351500Y-43318955D01*
X145351500Y-43086866D01*
X145647833Y-43086866D01*
X145647833Y-43318955D01*
X145649393Y-43431717D01*
X145656288Y-43508866D01*
X145671847Y-43557071D01*
X145699395Y-43583006D01*
X145742259Y-43593340D01*
X145785417Y-43594866D01*
X145841646Y-43591739D01*
X145880116Y-43577911D01*
X145904154Y-43546710D01*
X145917086Y-43491464D01*
X145922239Y-43405503D01*
X145923000Y-43318955D01*
X145923000Y-43086866D01*
X146219333Y-43086866D01*
X146219333Y-43318955D01*
X146220893Y-43431717D01*
X146227788Y-43508866D01*
X146243347Y-43557071D01*
X146270895Y-43583006D01*
X146313759Y-43593340D01*
X146356917Y-43594866D01*
X146413146Y-43591739D01*
X146451616Y-43577911D01*
X146475654Y-43546710D01*
X146488586Y-43491464D01*
X146493739Y-43405503D01*
X146494500Y-43318955D01*
X146494500Y-43086866D01*
X146790833Y-43086866D01*
X146790833Y-43318955D01*
X146792393Y-43431717D01*
X146799288Y-43508866D01*
X146814847Y-43557071D01*
X146842395Y-43583006D01*
X146885259Y-43593340D01*
X146928417Y-43594866D01*
X146984890Y-43591680D01*
X147023442Y-43577654D01*
X147047447Y-43546089D01*
X147060278Y-43490287D01*
X147065311Y-43403549D01*
X147066000Y-43321689D01*
X147066000Y-43092334D01*
X147187708Y-43078562D01*
X147197111Y-43076442D01*
X147353801Y-43041106D01*
X147494448Y-42970426D01*
X147607595Y-42868585D01*
X147691185Y-42737644D01*
X147743162Y-42579665D01*
X147754555Y-42510075D01*
X147769378Y-42388366D01*
X147999028Y-42388366D01*
X148060027Y-42388005D01*
X148100910Y-42387763D01*
X148168691Y-42384975D01*
X148210599Y-42378536D01*
X148234858Y-42366982D01*
X148249696Y-42348845D01*
X148252887Y-42343130D01*
X148266203Y-42290449D01*
X148264415Y-42225385D01*
X148249855Y-42166071D01*
X148225625Y-42131111D01*
X148193954Y-42123823D01*
X148130345Y-42117987D01*
X148045191Y-42114353D01*
X147981458Y-42113524D01*
X147764500Y-42113200D01*
X147764500Y-41816866D01*
X147996589Y-41816866D01*
X148099081Y-41816276D01*
X148167421Y-41813543D01*
X148209783Y-41807226D01*
X148234341Y-41795880D01*
X148249271Y-41778064D01*
X148252887Y-41771630D01*
X148266203Y-41718949D01*
X148264415Y-41653885D01*
X148249855Y-41594571D01*
X148225625Y-41559611D01*
X148193954Y-41552323D01*
X148130345Y-41546487D01*
X148045191Y-41542853D01*
X147981458Y-41542024D01*
X147764500Y-41541700D01*
X147764500Y-41245366D01*
X147996589Y-41245366D01*
X148099081Y-41244776D01*
X148167421Y-41242043D01*
X148209783Y-41235726D01*
X148234341Y-41224380D01*
X148249271Y-41206564D01*
X148252887Y-41200130D01*
X148266203Y-41147449D01*
X148264415Y-41082385D01*
X148249855Y-41023071D01*
X148225625Y-40988111D01*
X148193954Y-40980823D01*
X148130345Y-40974987D01*
X148045191Y-40971353D01*
X147981458Y-40970524D01*
X147764500Y-40970200D01*
X147764500Y-40673866D01*
X147996589Y-40673866D01*
X148099081Y-40673276D01*
X148167421Y-40670543D01*
X148209783Y-40664226D01*
X148234341Y-40652880D01*
X148249271Y-40635064D01*
X148252887Y-40628630D01*
X148266203Y-40575949D01*
X148264415Y-40510885D01*
X148249855Y-40451571D01*
X148225625Y-40416611D01*
X148193954Y-40409323D01*
X148130345Y-40403487D01*
X148045191Y-40399853D01*
X147981458Y-40399024D01*
X147764500Y-40398700D01*
X147764500Y-40102366D01*
X147996589Y-40102366D01*
X148099081Y-40101776D01*
X148167421Y-40099043D01*
X148209783Y-40092726D01*
X148234341Y-40081380D01*
X148249271Y-40063564D01*
X148252887Y-40057130D01*
X148266203Y-40004449D01*
X148264415Y-39939385D01*
X148249855Y-39880071D01*
X148225625Y-39845111D01*
X148193917Y-39837798D01*
X148130321Y-39831952D01*
X148045274Y-39828329D01*
X147982982Y-39827524D01*
X147767546Y-39827200D01*
X147752884Y-39705491D01*
X147739353Y-39623506D01*
X147720796Y-39547032D01*
X147709327Y-39513124D01*
X147639202Y-39392712D01*
X147538983Y-39289823D01*
X147418074Y-39210909D01*
X147285880Y-39162419D01*
X147179708Y-39149866D01*
X147067344Y-39149866D01*
X147061380Y-38901158D01*
X147055417Y-38652450D01*
X146953231Y-38645931D01*
X146887857Y-38644233D01*
X146842838Y-38653180D01*
X146814400Y-38679130D01*
X146798769Y-38728445D01*
X146792172Y-38807485D01*
X146790833Y-38919625D01*
X146790833Y-39149866D01*
X146495844Y-39149866D01*
X146489880Y-38901158D01*
X146483917Y-38652450D01*
X146381731Y-38645931D01*
X146316357Y-38644233D01*
X146271338Y-38653180D01*
X146242900Y-38679130D01*
X146227269Y-38728445D01*
X146220672Y-38807485D01*
X146219333Y-38919625D01*
X146219333Y-39149866D01*
X145924344Y-39149866D01*
X145918380Y-38901158D01*
X145912417Y-38652450D01*
X145810231Y-38645931D01*
X145744857Y-38644233D01*
X145699838Y-38653180D01*
X145671400Y-38679130D01*
X145655769Y-38728445D01*
X145649172Y-38807485D01*
X145647833Y-38919625D01*
X145647833Y-39149866D01*
X145352844Y-39149866D01*
X145346880Y-38901158D01*
X145340917Y-38652450D01*
X145238731Y-38645931D01*
X145173357Y-38644233D01*
X145128338Y-38653180D01*
X145099900Y-38679130D01*
X145084269Y-38728445D01*
X145077672Y-38807485D01*
X145076333Y-38919625D01*
X145076333Y-39149866D01*
X144781344Y-39149866D01*
X144775380Y-38901158D01*
X144769417Y-38652450D01*
X144667231Y-38645931D01*
X144601857Y-38644233D01*
X144556838Y-38653180D01*
X144528400Y-38679130D01*
X144512769Y-38728445D01*
X144506172Y-38807485D01*
X144504833Y-38919625D01*
X144504833Y-39149866D01*
X144410378Y-39149866D01*
X144275118Y-39168925D01*
X144142263Y-39221717D01*
X144027148Y-39301665D01*
X144003741Y-39324289D01*
X143919012Y-39425477D01*
X143866223Y-39525548D01*
X143838288Y-39639791D01*
X143832400Y-39693951D01*
X143821704Y-39827200D01*
X143596002Y-39827200D01*
X143472021Y-39829834D01*
X143389223Y-39837796D01*
X143346787Y-39851171D01*
X143343973Y-39853527D01*
X143328006Y-39893006D01*
X143322985Y-39961721D01*
X143323865Y-39985818D01*
X143330083Y-40091783D01*
X143578792Y-40097746D01*
X143827500Y-40103710D01*
X143827500Y-40398700D01*
X143597259Y-40398700D01*
X143483002Y-40400113D01*
X143404689Y-40406870D01*
X143355960Y-40422743D01*
X143330455Y-40451507D01*
X143321813Y-40496936D01*
X141891158Y-40496936D01*
X141891581Y-40216687D01*
X141892221Y-39846250D01*
X141892896Y-39507065D01*
X141893605Y-39200291D01*
X141894345Y-38927085D01*
X141895117Y-38688607D01*
X141895918Y-38486014D01*
X141896748Y-38320465D01*
X141897606Y-38193119D01*
X141898490Y-38105133D01*
X141899399Y-38057668D01*
X141899925Y-38049200D01*
X141959528Y-37914973D01*
X142049380Y-37789530D01*
X142160131Y-37683170D01*
X142282431Y-37606189D01*
X142314680Y-37592368D01*
X142329459Y-37587048D01*
X142346236Y-37582213D01*
X142367006Y-37577842D01*
X142393764Y-37573910D01*
X142428506Y-37570394D01*
X142473228Y-37567272D01*
X142529925Y-37564519D01*
X142600593Y-37562113D01*
X142687228Y-37560030D01*
X142791825Y-37558247D01*
X142916380Y-37556741D01*
X143062888Y-37555489D01*
X143233346Y-37554466D01*
X143429749Y-37553651D01*
X143654092Y-37553019D01*
X143908371Y-37552548D01*
X144194583Y-37552214D01*
X144514721Y-37551993D01*
X144870783Y-37551864D01*
X145264764Y-37551801D01*
X145698659Y-37551783D01*
X146887857Y-37551783D01*
G36*
X146887857Y-37551783D02*
G01*
X149172083Y-37551783D01*
X149291632Y-37607831D01*
X149435975Y-37698089D01*
X149557040Y-37819688D01*
X149645202Y-37961401D01*
X149701250Y-38080950D01*
X149701250Y-63671450D01*
X149645202Y-63790998D01*
X149554944Y-63935341D01*
X149433345Y-64056406D01*
X149291632Y-64144568D01*
X149172083Y-64200616D01*
X145796000Y-64200616D01*
X145353383Y-64200604D01*
X144951104Y-64200553D01*
X144587167Y-64200440D01*
X144259576Y-64200241D01*
X143966336Y-64199933D01*
X143705452Y-64199492D01*
X143474926Y-64198897D01*
X143272764Y-64198122D01*
X143096971Y-64197146D01*
X142945550Y-64195944D01*
X142816506Y-64194493D01*
X142707843Y-64192771D01*
X142617565Y-64190754D01*
X142543678Y-64188418D01*
X142484184Y-64185741D01*
X142437089Y-64182699D01*
X142400398Y-64179269D01*
X142372113Y-64175427D01*
X142350240Y-64171151D01*
X142332783Y-64166416D01*
X142317747Y-64161201D01*
X142314680Y-64160031D01*
X142207509Y-64102025D01*
X142100562Y-64015324D01*
X142006556Y-63911679D01*
X141946846Y-63820035D01*
X141890750Y-63713783D01*
X141890388Y-62393199D01*
X143766454Y-62393199D01*
X143768906Y-62505175D01*
X143778266Y-62615272D01*
X143794157Y-62709011D01*
X143796827Y-62719794D01*
X143826603Y-62820558D01*
X143856849Y-62886144D01*
X143893113Y-62923404D01*
X143940944Y-62939187D01*
X143976155Y-62941200D01*
X144025220Y-62937961D01*
X144052041Y-62923489D01*
X144058184Y-62890652D01*
X144045215Y-62832317D01*
X144018000Y-62750700D01*
X143994214Y-62656441D01*
X143980135Y-62545330D01*
X143976379Y-62432366D01*
X143983565Y-62332551D01*
X143998243Y-62270536D01*
X144057780Y-62169629D01*
X144149330Y-62096267D01*
X144272569Y-62050674D01*
X144332190Y-62040057D01*
X144441333Y-62025579D01*
X144441333Y-62481877D01*
X144441622Y-62643740D01*
X144443487Y-62768187D01*
X144448425Y-62860135D01*
X144457934Y-62924503D01*
X144473511Y-62966208D01*
X144496655Y-62990167D01*
X144528862Y-63001298D01*
X144571631Y-63004519D01*
X144600554Y-63004700D01*
X144759972Y-62989253D01*
X144907953Y-62945487D01*
X144998313Y-62899201D01*
X145097653Y-62812594D01*
X145169949Y-62700993D01*
X145215040Y-62572104D01*
X145232767Y-62433634D01*
X145222970Y-62293290D01*
X145185488Y-62158778D01*
X145120162Y-62037806D01*
X145026832Y-61938079D01*
X145018405Y-61931445D01*
X144936769Y-61873996D01*
X144859108Y-61833749D01*
X144774950Y-61807885D01*
X144673826Y-61793583D01*
X144545266Y-61788023D01*
X144484353Y-61787616D01*
X144368128Y-61788534D01*
X144283919Y-61792188D01*
X144221430Y-61799932D01*
X144170367Y-61813118D01*
X144120433Y-61833099D01*
X144113250Y-61836376D01*
X143978378Y-61919616D01*
X143874472Y-62031289D01*
X143800481Y-62172621D01*
X143783794Y-62221533D01*
X143771291Y-62293825D01*
X143766454Y-62393199D01*
X141890388Y-62393199D01*
X141889983Y-60916456D01*
X143787485Y-60916456D01*
X143789376Y-60957500D01*
X143795750Y-61067950D01*
X144252465Y-61078533D01*
X144402759Y-61082142D01*
X144484353Y-61084608D01*
X144517000Y-61085596D01*
X144601460Y-61089678D01*
X144662410Y-61095174D01*
X144706119Y-61102866D01*
X144738860Y-61113540D01*
X144766902Y-61127980D01*
X144795794Y-61146492D01*
X144862574Y-61198841D01*
X144923969Y-61259775D01*
X144938725Y-61277702D01*
X144970334Y-61324812D01*
X144986125Y-61370102D01*
X144990035Y-61430096D01*
X144988063Y-61484910D01*
X144981083Y-61618283D01*
X145086917Y-61618283D01*
X145150061Y-61616720D01*
X145184691Y-61605972D01*
X145204626Y-61576949D01*
X145220576Y-61530373D01*
X145237227Y-61423493D01*
X145215753Y-61322586D01*
X145154694Y-61223379D01*
X145093219Y-61157908D01*
X144986855Y-61057366D01*
X145094691Y-61057366D01*
X145159175Y-61055325D01*
X145193662Y-61045449D01*
X145210432Y-61022104D01*
X145216554Y-61001477D01*
X145220219Y-60937426D01*
X145211164Y-60890352D01*
X145191746Y-60835116D01*
X144536081Y-60829194D01*
X144371513Y-60828096D01*
X144218920Y-60827818D01*
X144083908Y-60828311D01*
X143972086Y-60829528D01*
X143889061Y-60831422D01*
X143840440Y-60833945D01*
X143831709Y-60835161D01*
X143803321Y-60846338D01*
X143789935Y-60869520D01*
X143787485Y-60916456D01*
X141889983Y-60916456D01*
X141889668Y-59765400D01*
X143766084Y-59765400D01*
X143777488Y-59875121D01*
X143788524Y-59916499D01*
X143815948Y-59978663D01*
X143856129Y-60050495D01*
X143873280Y-60077060D01*
X143933513Y-60165671D01*
X143864631Y-60172310D01*
X143822740Y-60179179D01*
X143801507Y-60197181D01*
X143792440Y-60238324D01*
X143789327Y-60278804D01*
X143787530Y-60340073D01*
X143796056Y-60372050D01*
X143820312Y-60387487D01*
X143837454Y-60392349D01*
X143873597Y-60395890D01*
X143945375Y-60398389D01*
X144046099Y-60399781D01*
X144169082Y-60400001D01*
X144218920Y-60399636D01*
X144307636Y-60398984D01*
X144394210Y-60397773D01*
X144554201Y-60394924D01*
X144677965Y-60391922D01*
X144771605Y-60388189D01*
X144841224Y-60383145D01*
X144892928Y-60376211D01*
X144932819Y-60366810D01*
X144967002Y-60354361D01*
X144996811Y-60340619D01*
X145094548Y-60276175D01*
X145164386Y-60189482D01*
X145208301Y-60076379D01*
X145228274Y-59932705D01*
X145229927Y-59850484D01*
X145219703Y-59716237D01*
X145193809Y-59595813D01*
X145155191Y-59493823D01*
X145106796Y-59414879D01*
X145051569Y-59363591D01*
X144992458Y-59344571D01*
X144932407Y-59362429D01*
X144922502Y-59369325D01*
X144906021Y-59386309D01*
X144902443Y-59409784D01*
X144913402Y-59449412D01*
X144940538Y-59514858D01*
X144951260Y-59539133D01*
X145008097Y-59697960D01*
X145028369Y-59836709D01*
X145012213Y-59956393D01*
X145009321Y-59965261D01*
X144968996Y-60044520D01*
X144908095Y-60095692D01*
X144819567Y-60123236D01*
X144748250Y-60130377D01*
X144621250Y-60136616D01*
X144607818Y-59903783D01*
X144597051Y-59762217D01*
X144582130Y-59654375D01*
X144561215Y-59571710D01*
X144532466Y-59505674D01*
X144516336Y-59478882D01*
X144430858Y-59382671D01*
X144326569Y-59318947D01*
X144211366Y-59288824D01*
X144093146Y-59293417D01*
X143979808Y-59333841D01*
X143898999Y-59391765D01*
X143845793Y-59453783D01*
X143803531Y-59525070D01*
X143795796Y-59543950D01*
X143772324Y-59647999D01*
X143766084Y-59765400D01*
X141889668Y-59765400D01*
X141889322Y-58502702D01*
X143785142Y-58502702D01*
X143787322Y-58574244D01*
X143795526Y-58638067D01*
X143809119Y-58678873D01*
X143813221Y-58683632D01*
X143839300Y-58695089D01*
X143899976Y-58716922D01*
X143989320Y-58747262D01*
X144101402Y-58784245D01*
X144211366Y-58819870D01*
X144230296Y-58826003D01*
X144370072Y-58870670D01*
X144514801Y-58916380D01*
X144658555Y-58961266D01*
X144795406Y-59003461D01*
X144919425Y-59041100D01*
X145024684Y-59072316D01*
X145105253Y-59095243D01*
X145155205Y-59108013D01*
X145167634Y-59110033D01*
X145199559Y-59091645D01*
X145219520Y-59045383D01*
X145225159Y-58984605D01*
X145214119Y-58922665D01*
X145204574Y-58900684D01*
X145182743Y-58883778D01*
X145130653Y-58860469D01*
X145045982Y-58829955D01*
X144926403Y-58791436D01*
X144769592Y-58744110D01*
X144643614Y-58707385D01*
X144500925Y-58665534D01*
X144373516Y-58626833D01*
X144266477Y-58592936D01*
X144184897Y-58565500D01*
X144133866Y-58546180D01*
X144118473Y-58536630D01*
X144118499Y-58536605D01*
X144142367Y-58527017D01*
X144201425Y-58507569D01*
X144290136Y-58479959D01*
X144402962Y-58445883D01*
X144534369Y-58407037D01*
X144668552Y-58368072D01*
X145202687Y-58214253D01*
X145215604Y-58145400D01*
X145219120Y-58060169D01*
X145196000Y-57997261D01*
X145164858Y-57970542D01*
X145135197Y-57960440D01*
X145070571Y-57941321D01*
X144976974Y-57914863D01*
X144860403Y-57882740D01*
X144726853Y-57846630D01*
X144616012Y-57817106D01*
X144475861Y-57779612D01*
X144350291Y-57745242D01*
X144244782Y-57715561D01*
X144164813Y-57692132D01*
X144115866Y-57676517D01*
X144102720Y-57670655D01*
X144122173Y-57662172D01*
X144177040Y-57643669D01*
X144262039Y-57616787D01*
X144371889Y-57583166D01*
X144501307Y-57544446D01*
X144643811Y-57502617D01*
X144828112Y-57448089D01*
X144973376Y-57403005D01*
X145081661Y-57366653D01*
X145155028Y-57338318D01*
X145195535Y-57317287D01*
X145204728Y-57308261D01*
X145222385Y-57243826D01*
X145219756Y-57170956D01*
X145197809Y-57113122D01*
X145188053Y-57103884D01*
X145172164Y-57098976D01*
X145145942Y-57099413D01*
X145105187Y-57106213D01*
X145045698Y-57120395D01*
X144963276Y-57142974D01*
X144853721Y-57174968D01*
X144712833Y-57217394D01*
X144536411Y-57271271D01*
X144504601Y-57281023D01*
X144343403Y-57330842D01*
X144194650Y-57377551D01*
X144063325Y-57419526D01*
X143954411Y-57455147D01*
X143872891Y-57482791D01*
X143823749Y-57500837D01*
X143811625Y-57506571D01*
X143795866Y-57541056D01*
X143786802Y-57609101D01*
X143785167Y-57663788D01*
X143786174Y-57737700D01*
X143792461Y-57780937D01*
X143808925Y-57805153D01*
X143840464Y-57822005D01*
X143853958Y-57827513D01*
X143894963Y-57841179D01*
X143969622Y-57863326D01*
X144070592Y-57891885D01*
X144190529Y-57924788D01*
X144322090Y-57959966D01*
X144352336Y-57967929D01*
X144478049Y-58001899D01*
X144586675Y-58033130D01*
X144672709Y-58059880D01*
X144730643Y-58080406D01*
X144754970Y-58092966D01*
X144754503Y-58095170D01*
X144726903Y-58105059D01*
X144664838Y-58124711D01*
X144574541Y-58152238D01*
X144462244Y-58185750D01*
X144334181Y-58223358D01*
X144272016Y-58241419D01*
X144139589Y-58280623D01*
X144020928Y-58317386D01*
X143922075Y-58349703D01*
X143849073Y-58375567D01*
X143807963Y-58392973D01*
X143801382Y-58397653D01*
X143789617Y-58438739D01*
X143785142Y-58502702D01*
X141889322Y-58502702D01*
X141888829Y-56700863D01*
X143785167Y-56700863D01*
X143787620Y-56763125D01*
X143798988Y-56795838D01*
X143825277Y-56811688D01*
X143839574Y-56815715D01*
X143884936Y-56820847D01*
X143964516Y-56823531D01*
X144070529Y-56824019D01*
X144195190Y-56822563D01*
X144330715Y-56819414D01*
X144469317Y-56814823D01*
X144603213Y-56809043D01*
X144724617Y-56802324D01*
X144825743Y-56794918D01*
X144898808Y-56787077D01*
X144932639Y-56780394D01*
X145054162Y-56719147D01*
X145145840Y-56629135D01*
X145172164Y-56578012D01*
X145205169Y-56513912D01*
X145229645Y-56377033D01*
X145230134Y-56358089D01*
X145217550Y-56247420D01*
X145175276Y-56138700D01*
X145099752Y-56024179D01*
X145048491Y-55962414D01*
X145010402Y-55912190D01*
X145001054Y-55882451D01*
X145006481Y-55877178D01*
X145085008Y-55830449D01*
X145152091Y-55751855D01*
X145201857Y-55651499D01*
X145228434Y-55539481D01*
X145231270Y-55490533D01*
X145222225Y-55391152D01*
X145191593Y-55299486D01*
X145134311Y-55203445D01*
X145082864Y-55135991D01*
X145030037Y-55070772D01*
X146069537Y-55070772D01*
X146080417Y-55126384D01*
X146106732Y-55171179D01*
X146118792Y-55181019D01*
X146153068Y-55197358D01*
X146219883Y-55224612D01*
X146313727Y-55260825D01*
X146429088Y-55304041D01*
X146560455Y-55352302D01*
X146702316Y-55403653D01*
X146849161Y-55456136D01*
X146995478Y-55507795D01*
X147135756Y-55556675D01*
X147264483Y-55600817D01*
X147376149Y-55638265D01*
X147465241Y-55667064D01*
X147526250Y-55685256D01*
X147553664Y-55690885D01*
X147554372Y-55690665D01*
X147567003Y-55663524D01*
X147573684Y-55611466D01*
X147574000Y-55596638D01*
X147574543Y-55570439D01*
X147573190Y-55549504D01*
X147565468Y-55531566D01*
X147546902Y-55514356D01*
X147513021Y-55495606D01*
X147459351Y-55473051D01*
X147381418Y-55444420D01*
X147274749Y-55407447D01*
X147134872Y-55359865D01*
X147050125Y-55331060D01*
X146945223Y-55294611D01*
X146856215Y-55262261D01*
X146790037Y-55236643D01*
X146753623Y-55220393D01*
X146748744Y-55216593D01*
X146767821Y-55206278D01*
X146820823Y-55184522D01*
X146901644Y-55153653D01*
X147004175Y-55115996D01*
X147122310Y-55073880D01*
X147135036Y-55069411D01*
X147256592Y-55026217D01*
X147365230Y-54986536D01*
X147454277Y-54952894D01*
X147517061Y-54927813D01*
X147546911Y-54913818D01*
X147547542Y-54913361D01*
X147563666Y-54881497D01*
X147572456Y-54828350D01*
X147573024Y-54771884D01*
X147564481Y-54730057D01*
X147557077Y-54720572D01*
X147533553Y-54724957D01*
X147475789Y-54742624D01*
X147389093Y-54771744D01*
X147278771Y-54810489D01*
X147150127Y-54857029D01*
X147008469Y-54909537D01*
X147005196Y-54910765D01*
X146470238Y-55111416D01*
X146299851Y-55045708D01*
X146219174Y-55017063D01*
X146151572Y-54997573D01*
X146108045Y-54990242D01*
X146100316Y-54991185D01*
X146075650Y-55020365D01*
X146069537Y-55070772D01*
X145030037Y-55070772D01*
X145009999Y-55046033D01*
X145106263Y-55046033D01*
X145166682Y-55043312D01*
X145198032Y-55030711D01*
X145213452Y-55001571D01*
X145216554Y-54990144D01*
X145220219Y-54926093D01*
X145211163Y-54879019D01*
X145191745Y-54823783D01*
X144515097Y-54818187D01*
X144349124Y-54817144D01*
X144196181Y-54816814D01*
X144061558Y-54817160D01*
X143950543Y-54818142D01*
X143868426Y-54819723D01*
X143820496Y-54821866D01*
X143810694Y-54823242D01*
X143793210Y-54848539D01*
X143788037Y-54908836D01*
X143789344Y-54945254D01*
X143795750Y-55056616D01*
X144286221Y-55067200D01*
X144442543Y-55070678D01*
X144562218Y-55073933D01*
X144650923Y-55077622D01*
X144714335Y-55082404D01*
X144758130Y-55088937D01*
X144787985Y-55097877D01*
X144809577Y-55109884D01*
X144828583Y-55125615D01*
X144834131Y-55130700D01*
X144930023Y-55235273D01*
X144989714Y-55336865D01*
X145012925Y-55432067D01*
X144999375Y-55517472D01*
X144948784Y-55589674D01*
X144875895Y-55638387D01*
X144843812Y-55652359D01*
X144808833Y-55662927D01*
X144764755Y-55670565D01*
X144705377Y-55675746D01*
X144624496Y-55678945D01*
X144515910Y-55680633D01*
X144373416Y-55681285D01*
X144312942Y-55681357D01*
X144174227Y-55682208D01*
X144048994Y-55684412D01*
X143943701Y-55687738D01*
X143864805Y-55691956D01*
X143818765Y-55696836D01*
X143810333Y-55699280D01*
X143791812Y-55735423D01*
X143788572Y-55810016D01*
X143789166Y-55820664D01*
X143795750Y-55924450D01*
X144752122Y-55935810D01*
X144840874Y-56011779D01*
X144929460Y-56105166D01*
X144985511Y-56202300D01*
X145008606Y-56297533D01*
X144998325Y-56385218D01*
X144954248Y-56459706D01*
X144878275Y-56514262D01*
X144847784Y-56525771D01*
X144807364Y-56534498D01*
X144751290Y-56540797D01*
X144673838Y-56545023D01*
X144569281Y-56547533D01*
X144431896Y-56548682D01*
X144320660Y-56548866D01*
X144147586Y-56549624D01*
X144013738Y-56552001D01*
X143916036Y-56556150D01*
X143851396Y-56562224D01*
X143816738Y-56570377D01*
X143810567Y-56574266D01*
X143795442Y-56609421D01*
X143786350Y-56669210D01*
X143785167Y-56700863D01*
X141888829Y-56700863D01*
X141888048Y-53850503D01*
X143788037Y-53850503D01*
X143789344Y-53886921D01*
X143795750Y-53998283D01*
X144196181Y-54007344D01*
X144263425Y-54008866D01*
X144731101Y-54019450D01*
X144830585Y-54101021D01*
X144909482Y-54169953D01*
X144958291Y-54227107D01*
X144982524Y-54283615D01*
X144987692Y-54350611D01*
X144983004Y-54408935D01*
X144976142Y-54478360D01*
X144977874Y-54516921D01*
X144991618Y-54535769D01*
X145020788Y-54546056D01*
X145025364Y-54547213D01*
X145090140Y-54553297D01*
X145142164Y-54548104D01*
X145185965Y-54529546D01*
X145212755Y-54489650D01*
X145224930Y-54451769D01*
X145236172Y-54342289D01*
X145208180Y-54237771D01*
X145139746Y-54134812D01*
X145095598Y-54088241D01*
X144991807Y-53987700D01*
X145097167Y-53987700D01*
X145160789Y-53985536D01*
X145194597Y-53975157D01*
X145211044Y-53950736D01*
X145216554Y-53931810D01*
X145220219Y-53867759D01*
X145211163Y-53820685D01*
X145191745Y-53765450D01*
X144515097Y-53759854D01*
X144349124Y-53758811D01*
X144196181Y-53758481D01*
X144061558Y-53758826D01*
X143950543Y-53759809D01*
X143868426Y-53761390D01*
X143820496Y-53763533D01*
X143810694Y-53764909D01*
X143793210Y-53790206D01*
X143788037Y-53850503D01*
X141888048Y-53850503D01*
X141888007Y-53700031D01*
X146474589Y-53700031D01*
X146477720Y-53755012D01*
X146486181Y-53784885D01*
X146516598Y-53810779D01*
X146561262Y-53818366D01*
X146623495Y-53818366D01*
X146554645Y-53904041D01*
X146513412Y-53962631D01*
X146490546Y-54020016D01*
X146479336Y-54095185D01*
X146477324Y-54122744D01*
X146485550Y-54259583D01*
X146528668Y-54372928D01*
X146605991Y-54462222D01*
X146716832Y-54526909D01*
X146860502Y-54566433D01*
X147036316Y-54580238D01*
X147042906Y-54580248D01*
X147207209Y-54569850D01*
X147338217Y-54537678D01*
X147439996Y-54481861D01*
X147516615Y-54400529D01*
X147547542Y-54348169D01*
X147557077Y-54322177D01*
X147587780Y-54238478D01*
X147591435Y-54134144D01*
X147557909Y-54025878D01*
X147522628Y-53959996D01*
X147450089Y-53839533D01*
X147754035Y-53839533D01*
X147873281Y-53839209D01*
X147956937Y-53837619D01*
X148011742Y-53833831D01*
X148044437Y-53826917D01*
X148061764Y-53815944D01*
X148070464Y-53799985D01*
X148071902Y-53795672D01*
X148077857Y-53739953D01*
X148072925Y-53700422D01*
X148060027Y-53649033D01*
X147280791Y-53649033D01*
X147103179Y-53649404D01*
X146939026Y-53650459D01*
X146793116Y-53652114D01*
X146670234Y-53654283D01*
X146575163Y-53656881D01*
X146512687Y-53659824D01*
X146487589Y-53663026D01*
X146487445Y-53663144D01*
X146474589Y-53700031D01*
X141888007Y-53700031D01*
X141887858Y-53155033D01*
X143788281Y-53155033D01*
X143789508Y-53193136D01*
X143795750Y-53299783D01*
X144196181Y-53302960D01*
X144498529Y-53305359D01*
X145201309Y-53310934D01*
X145215564Y-53234947D01*
X145217032Y-53204923D01*
X145470815Y-53204923D01*
X145489388Y-53279032D01*
X145505177Y-53305075D01*
X145537844Y-53321412D01*
X145594821Y-53330714D01*
X145618187Y-53331533D01*
X145682782Y-53326389D01*
X145722472Y-53306306D01*
X145745192Y-53278369D01*
X145767385Y-53210933D01*
X145762452Y-53133260D01*
X145731898Y-53066296D01*
X145729783Y-53063675D01*
X145692652Y-53044871D01*
X145633047Y-53036421D01*
X145569074Y-53038487D01*
X145518841Y-53051232D01*
X145504536Y-53061658D01*
X145475846Y-53125781D01*
X145470815Y-53204923D01*
X145217032Y-53204923D01*
X145218954Y-53165617D01*
X145206447Y-53107663D01*
X145183074Y-53056366D01*
X144498232Y-53056366D01*
X144331950Y-53056816D01*
X144179315Y-53058090D01*
X144045456Y-53060080D01*
X143935501Y-53062674D01*
X143854581Y-53065762D01*
X143807824Y-53069234D01*
X143798327Y-53071428D01*
X143790804Y-53099663D01*
X143788281Y-53155033D01*
X141887858Y-53155033D01*
X141887491Y-51815055D01*
X143788652Y-51815055D01*
X143789531Y-51839152D01*
X143795750Y-51945116D01*
X144213792Y-51950855D01*
X144631833Y-51956594D01*
X144631833Y-52290580D01*
X144632617Y-52427315D01*
X144635925Y-52527378D01*
X144643192Y-52596414D01*
X144655852Y-52640071D01*
X144675339Y-52663996D01*
X144703088Y-52673834D01*
X144729586Y-52675366D01*
X144770434Y-52674415D01*
X144800123Y-52667679D01*
X144820434Y-52649333D01*
X144833146Y-52613552D01*
X144840039Y-52554512D01*
X144842896Y-52466388D01*
X144843494Y-52343355D01*
X144843500Y-52302685D01*
X144843500Y-51955700D01*
X145183074Y-51955700D01*
X145499667Y-51955700D01*
X145499667Y-52316057D01*
X145499831Y-52447249D01*
X145500857Y-52542340D01*
X145503547Y-52607562D01*
X145508701Y-52649146D01*
X145517121Y-52673325D01*
X145529607Y-52686330D01*
X145546960Y-52694393D01*
X145548363Y-52694928D01*
X145607321Y-52705241D01*
X145633047Y-52703748D01*
X145654197Y-52702520D01*
X145711333Y-52691598D01*
X145711333Y-52255197D01*
X146474162Y-52255197D01*
X146477792Y-52332807D01*
X146494395Y-52393840D01*
X146530607Y-52459448D01*
X146545184Y-52481549D01*
X146617035Y-52588318D01*
X146563194Y-52594801D01*
X146504749Y-52618554D01*
X146477720Y-52668652D01*
X146481269Y-52725267D01*
X146495437Y-52781720D01*
X147272844Y-52776168D01*
X148050250Y-52770616D01*
X148057007Y-52688104D01*
X148054533Y-52622582D01*
X148035840Y-52587886D01*
X148004957Y-52581148D01*
X147940806Y-52575536D01*
X147852447Y-52571599D01*
X147748940Y-52569885D01*
X147737742Y-52569857D01*
X147467566Y-52569533D01*
X147526075Y-52481120D01*
X147574903Y-52371036D01*
X147588578Y-52249689D01*
X147567134Y-52129354D01*
X147524833Y-52042235D01*
X147446197Y-51953445D01*
X147343409Y-51891127D01*
X147212547Y-51853691D01*
X147049687Y-51839550D01*
X147023667Y-51839339D01*
X146881472Y-51844631D01*
X146770894Y-51862096D01*
X146682332Y-51894251D01*
X146606187Y-51943610D01*
X146596990Y-51951177D01*
X146528519Y-52027377D01*
X146488919Y-52120590D01*
X146474391Y-52240216D01*
X146474162Y-52255197D01*
X145711333Y-52255197D01*
X145711333Y-51721818D01*
X145657039Y-51701176D01*
X145620817Y-51695330D01*
X145548963Y-51690416D01*
X145446851Y-51686417D01*
X145319857Y-51683315D01*
X145173356Y-51681095D01*
X145012725Y-51679739D01*
X144843337Y-51679233D01*
X144670570Y-51679558D01*
X144499798Y-51680698D01*
X144336397Y-51682637D01*
X144185742Y-51685358D01*
X144053208Y-51688845D01*
X143944172Y-51693081D01*
X143864009Y-51698050D01*
X143818094Y-51703735D01*
X143809640Y-51706860D01*
X143793673Y-51746340D01*
X143788652Y-51815055D01*
X141887491Y-51815055D01*
X141887312Y-51163567D01*
X146476079Y-51163567D01*
X146480558Y-51278299D01*
X146493537Y-51384917D01*
X146511302Y-51458283D01*
X146536394Y-51522151D01*
X146561414Y-51555543D01*
X146595649Y-51569267D01*
X146608204Y-51571063D01*
X146664159Y-51570084D01*
X146689463Y-51547156D01*
X146687022Y-51497055D01*
X146673887Y-51453045D01*
X146635953Y-51305065D01*
X146628234Y-51173391D01*
X146649860Y-51062024D01*
X146699957Y-50974967D01*
X146777654Y-50916222D01*
X146792224Y-50909863D01*
X146858511Y-50888264D01*
X146917764Y-50876773D01*
X146928845Y-50876200D01*
X146981333Y-50876200D01*
X146981333Y-51205674D01*
X146982720Y-51327235D01*
X146986573Y-51432998D01*
X146992433Y-51515194D01*
X146999839Y-51566050D01*
X147003245Y-51576091D01*
X147023667Y-51592007D01*
X147043054Y-51607118D01*
X147114715Y-51616867D01*
X147213393Y-51605183D01*
X147292053Y-51585336D01*
X147408575Y-51530614D01*
X147498917Y-51447227D01*
X147560550Y-51341615D01*
X147590949Y-51220219D01*
X147587587Y-51089482D01*
X147547939Y-50955844D01*
X147543116Y-50945206D01*
X147474888Y-50843297D01*
X147380558Y-50764730D01*
X147266926Y-50709309D01*
X147140795Y-50676838D01*
X147008965Y-50667121D01*
X146878238Y-50679964D01*
X146755415Y-50715169D01*
X146647297Y-50772542D01*
X146560686Y-50851887D01*
X146502383Y-50953008D01*
X146494857Y-50975365D01*
X146480659Y-51057121D01*
X146476079Y-51163567D01*
X141887312Y-51163567D01*
X141887242Y-50907950D01*
X141887160Y-50565141D01*
X143783711Y-50565141D01*
X143786931Y-50627754D01*
X143799735Y-50668755D01*
X143805896Y-50674846D01*
X143818332Y-50679149D01*
X143835967Y-50676756D01*
X143862476Y-50665227D01*
X143901533Y-50642118D01*
X143956814Y-50604987D01*
X144031994Y-50551394D01*
X144130748Y-50478896D01*
X144256751Y-50385050D01*
X144371935Y-50298747D01*
X144508054Y-50196935D01*
X144614581Y-50118292D01*
X144695557Y-50060275D01*
X144755020Y-50020341D01*
X144797011Y-49995946D01*
X144825567Y-49984547D01*
X144843337Y-49983670D01*
X144844729Y-49983601D01*
X144858535Y-49990564D01*
X144859778Y-49991599D01*
X144981218Y-50094933D01*
X145105122Y-50199044D01*
X145226762Y-50300084D01*
X145341408Y-50394205D01*
X145444334Y-50477560D01*
X145530810Y-50546299D01*
X145596108Y-50596576D01*
X145635500Y-50624542D01*
X145642100Y-50628261D01*
X145684611Y-50640684D01*
X145709592Y-50625351D01*
X145712525Y-50620996D01*
X145726110Y-50574859D01*
X145730114Y-50507944D01*
X145724289Y-50440767D01*
X145715137Y-50406739D01*
X145695138Y-50384320D01*
X145646389Y-50339820D01*
X145573534Y-50277175D01*
X145481220Y-50200320D01*
X145374092Y-50113189D01*
X145334759Y-50081789D01*
X146475764Y-50081789D01*
X146486181Y-50123052D01*
X146496207Y-50135551D01*
X146519162Y-50144563D01*
X146560964Y-50150628D01*
X146627530Y-50154285D01*
X146724779Y-50156074D01*
X146853618Y-50156533D01*
X147008965Y-50156533D01*
X147208207Y-50156533D01*
X147308886Y-50245154D01*
X147409566Y-50333776D01*
X147383130Y-50558700D01*
X147467237Y-50558700D01*
X147538069Y-50546220D01*
X147579158Y-50506804D01*
X147592557Y-50437490D01*
X147588612Y-50383606D01*
X147562632Y-50302396D01*
X147503259Y-50223503D01*
X147498784Y-50218873D01*
X147420267Y-50138464D01*
X147491842Y-50131623D01*
X147541288Y-50122008D01*
X147562997Y-50096550D01*
X147570279Y-50052919D01*
X147567182Y-49994338D01*
X147549112Y-49963285D01*
X147517523Y-49956468D01*
X147451603Y-49951209D01*
X147358601Y-49947459D01*
X147245769Y-49945171D01*
X147120359Y-49944296D01*
X146989622Y-49944785D01*
X146860809Y-49946591D01*
X146741172Y-49949666D01*
X146637961Y-49953961D01*
X146558428Y-49959427D01*
X146509825Y-49966018D01*
X146498733Y-49970266D01*
X146477135Y-50017087D01*
X146475764Y-50081789D01*
X145334759Y-50081789D01*
X145277806Y-50036322D01*
X144854863Y-49701450D01*
X145267223Y-49695905D01*
X145411744Y-49693553D01*
X145519662Y-49690569D01*
X145596706Y-49686416D01*
X145648607Y-49680558D01*
X145681094Y-49672458D01*
X145699897Y-49661580D01*
X145706042Y-49654818D01*
X145728132Y-49596667D01*
X145729822Y-49523250D01*
X145710604Y-49456670D01*
X145710589Y-49456641D01*
X145703966Y-49446874D01*
X145693012Y-49438796D01*
X145673970Y-49432248D01*
X145643085Y-49427069D01*
X145596602Y-49423099D01*
X145530765Y-49420179D01*
X145441820Y-49418146D01*
X145326010Y-49416843D01*
X145179581Y-49416107D01*
X144998776Y-49415780D01*
X144779841Y-49415700D01*
X144751033Y-49415700D01*
X144555761Y-49416008D01*
X144373632Y-49416892D01*
X144208990Y-49418286D01*
X144066179Y-49420126D01*
X143949541Y-49422348D01*
X143863421Y-49424887D01*
X143812161Y-49427679D01*
X143799278Y-49429811D01*
X143787787Y-49463638D01*
X143784747Y-49521573D01*
X143789145Y-49586466D01*
X143799966Y-49641162D01*
X143813284Y-49666685D01*
X143845653Y-49675624D01*
X143918296Y-49683184D01*
X144029169Y-49689244D01*
X144176231Y-49693680D01*
X144298024Y-49695735D01*
X144754646Y-49701450D01*
X144307468Y-50029533D01*
X144185334Y-50119493D01*
X144073013Y-50202895D01*
X143975499Y-50275977D01*
X143897787Y-50334978D01*
X143844871Y-50376134D01*
X143822728Y-50394658D01*
X143802493Y-50433891D01*
X143789193Y-50495619D01*
X143783711Y-50565141D01*
X141887160Y-50565141D01*
X141887067Y-50173078D01*
X141886948Y-49448607D01*
X141886932Y-49278560D01*
X146478099Y-49278560D01*
X146483602Y-49386331D01*
X146496006Y-49481067D01*
X146515028Y-49549117D01*
X146516966Y-49553283D01*
X146547333Y-49598273D01*
X146589795Y-49615201D01*
X146621785Y-49616783D01*
X146672723Y-49611657D01*
X146689342Y-49594053D01*
X146688513Y-49585033D01*
X146679678Y-49548335D01*
X146664028Y-49485762D01*
X146649170Y-49427371D01*
X146625602Y-49281444D01*
X146635580Y-49160081D01*
X146678688Y-49064080D01*
X146754508Y-48994240D01*
X146862623Y-48951358D01*
X146901958Y-48943766D01*
X146981333Y-48931528D01*
X146981333Y-49276855D01*
X146981646Y-49416383D01*
X146984452Y-49519011D01*
X146992550Y-49590174D01*
X147008741Y-49635304D01*
X147035825Y-49659834D01*
X147076601Y-49669198D01*
X147120359Y-49668917D01*
X147133871Y-49668829D01*
X147181840Y-49665907D01*
X147320656Y-49639340D01*
X147433362Y-49580329D01*
X147517661Y-49491041D01*
X147571255Y-49373646D01*
X147588685Y-49281882D01*
X147584304Y-49136101D01*
X147541231Y-49005368D01*
X147461636Y-48893653D01*
X147347684Y-48804925D01*
X147320000Y-48789793D01*
X147241018Y-48763354D01*
X147135136Y-48746678D01*
X147016776Y-48740342D01*
X146900362Y-48744919D01*
X146800317Y-48760983D01*
X146775696Y-48768114D01*
X146659795Y-48827781D01*
X146563645Y-48919166D01*
X146505815Y-49013533D01*
X146488924Y-49078510D01*
X146479779Y-49171403D01*
X146478099Y-49278560D01*
X141886932Y-49278560D01*
X141886882Y-48735693D01*
X141886869Y-48035495D01*
X141886907Y-47349172D01*
X141886964Y-46918212D01*
X143784712Y-46918212D01*
X143789177Y-46983145D01*
X143800103Y-47037863D01*
X143813483Y-47063350D01*
X143840738Y-47070436D01*
X143904881Y-47076532D01*
X144006927Y-47081672D01*
X144147892Y-47085893D01*
X144328793Y-47089230D01*
X144550646Y-47091719D01*
X144638672Y-47092400D01*
X145435545Y-47097950D01*
X144668564Y-47392720D01*
X144495872Y-47459250D01*
X144333710Y-47522030D01*
X144186775Y-47579218D01*
X144059767Y-47628971D01*
X143957383Y-47669449D01*
X143884323Y-47698809D01*
X143845284Y-47715210D01*
X143842307Y-47716608D01*
X143807592Y-47737349D01*
X143791036Y-47764011D01*
X143787405Y-47810358D01*
X143789390Y-47855754D01*
X143795750Y-47965783D01*
X144642417Y-48308940D01*
X145489083Y-48652097D01*
X144642417Y-48658190D01*
X143795750Y-48664283D01*
X143795750Y-48897116D01*
X144724644Y-48902632D01*
X144779841Y-48902877D01*
X144970240Y-48903723D01*
X145175645Y-48903802D01*
X145342991Y-48902830D01*
X145474410Y-48900765D01*
X145572033Y-48897565D01*
X145637992Y-48893190D01*
X145674418Y-48887599D01*
X145682436Y-48884166D01*
X145700198Y-48847957D01*
X145709561Y-48774332D01*
X145711333Y-48702423D01*
X145709732Y-48618223D01*
X145703009Y-48564504D01*
X145688286Y-48529472D01*
X145662686Y-48501333D01*
X145662145Y-48500850D01*
X145631549Y-48482782D01*
X145566521Y-48450980D01*
X145471875Y-48407577D01*
X145352426Y-48354708D01*
X145212988Y-48294506D01*
X145058375Y-48229107D01*
X144911511Y-48168095D01*
X144882919Y-48156283D01*
X146473333Y-48156283D01*
X146481539Y-48213914D01*
X146499792Y-48254417D01*
X146525396Y-48267937D01*
X146584786Y-48291365D01*
X146671181Y-48322514D01*
X146777797Y-48359199D01*
X146897852Y-48399231D01*
X147016776Y-48437891D01*
X147024564Y-48440423D01*
X147151151Y-48480590D01*
X147270830Y-48517542D01*
X147376820Y-48549094D01*
X147462337Y-48573059D01*
X147520600Y-48587249D01*
X147541103Y-48590200D01*
X147564611Y-48572592D01*
X147575315Y-48529827D01*
X147573550Y-48476990D01*
X147559648Y-48429168D01*
X147536958Y-48402841D01*
X147505694Y-48391194D01*
X147440609Y-48370339D01*
X147348674Y-48342391D01*
X147236857Y-48309467D01*
X147112131Y-48273681D01*
X147101768Y-48270748D01*
X146703619Y-48158169D01*
X146985351Y-48076706D01*
X147104530Y-48041967D01*
X147224241Y-48006592D01*
X147331021Y-47974590D01*
X147411405Y-47949967D01*
X147415250Y-47948763D01*
X147563417Y-47902283D01*
X147569891Y-47813025D01*
X147571380Y-47755914D01*
X147560160Y-47726919D01*
X147529195Y-47712206D01*
X147516975Y-47708996D01*
X147381242Y-47674363D01*
X147245305Y-47638114D01*
X147114917Y-47601950D01*
X146995831Y-47567577D01*
X146893797Y-47536698D01*
X146814569Y-47511018D01*
X146763900Y-47492240D01*
X146747540Y-47482069D01*
X146748500Y-47481351D01*
X146781052Y-47470556D01*
X146844400Y-47451036D01*
X146928663Y-47425796D01*
X147002500Y-47404086D01*
X147118183Y-47370178D01*
X147242021Y-47333614D01*
X147354410Y-47300192D01*
X147399375Y-47286715D01*
X147574000Y-47234172D01*
X147574000Y-47139602D01*
X147568356Y-47073692D01*
X147551949Y-47045573D01*
X147547542Y-47044735D01*
X147512413Y-47050855D01*
X147445297Y-47068158D01*
X147352942Y-47094485D01*
X147242097Y-47127678D01*
X147119511Y-47165577D01*
X146991933Y-47206025D01*
X146866111Y-47246862D01*
X146748795Y-47285930D01*
X146646733Y-47321070D01*
X146566674Y-47350124D01*
X146515367Y-47370933D01*
X146499792Y-47379858D01*
X146480482Y-47426651D01*
X146474157Y-47489916D01*
X146480701Y-47550961D01*
X146499997Y-47591098D01*
X146501115Y-47592072D01*
X146530330Y-47605168D01*
X146592893Y-47626306D01*
X146681119Y-47653111D01*
X146787323Y-47683209D01*
X146855656Y-47701643D01*
X146969166Y-47731877D01*
X147069666Y-47758984D01*
X147149377Y-47780841D01*
X147200522Y-47795322D01*
X147214167Y-47799554D01*
X147205368Y-47808727D01*
X147161553Y-47827255D01*
X147088472Y-47853095D01*
X146991879Y-47884205D01*
X146886083Y-47916048D01*
X146763233Y-47953411D01*
X146656436Y-47988743D01*
X146572329Y-48019643D01*
X146517549Y-48043712D01*
X146499792Y-48055718D01*
X146480616Y-48101413D01*
X146473333Y-48156283D01*
X144882919Y-48156283D01*
X144749504Y-48101166D01*
X144600032Y-48039041D01*
X144467581Y-47983613D01*
X144356636Y-47936775D01*
X144271681Y-47900420D01*
X144217202Y-47876440D01*
X144197788Y-47866876D01*
X144209484Y-47853725D01*
X144251872Y-47830843D01*
X144315905Y-47803086D01*
X144318713Y-47801973D01*
X144373043Y-47780524D01*
X144460311Y-47746089D01*
X144574075Y-47701211D01*
X144707891Y-47648430D01*
X144855314Y-47590289D01*
X145009902Y-47529329D01*
X145034000Y-47519827D01*
X145192210Y-47456474D01*
X145335545Y-47397195D01*
X145459130Y-47344135D01*
X145558090Y-47299439D01*
X145627550Y-47265254D01*
X145662635Y-47243725D01*
X145663708Y-47242716D01*
X145688084Y-47212993D01*
X145702476Y-47176580D01*
X145709386Y-47122066D01*
X145711317Y-47038040D01*
X145711333Y-47025573D01*
X145709982Y-46938698D01*
X145704558Y-46884501D01*
X145693008Y-46853374D01*
X145673277Y-46835712D01*
X145670392Y-46834111D01*
X145641759Y-46829708D01*
X145576611Y-46825729D01*
X145480250Y-46822196D01*
X145357976Y-46819131D01*
X145215090Y-46816556D01*
X145056894Y-46814493D01*
X144888687Y-46812964D01*
X144715772Y-46811992D01*
X144543449Y-46811598D01*
X144377019Y-46811805D01*
X144221782Y-46812634D01*
X144083041Y-46814109D01*
X143966095Y-46816250D01*
X143876246Y-46819080D01*
X143818795Y-46822620D01*
X143799278Y-46826311D01*
X143787736Y-46860216D01*
X143784712Y-46918212D01*
X141886964Y-46918212D01*
X141886996Y-46677883D01*
X141887021Y-46558200D01*
X143514990Y-46558200D01*
X143530010Y-46599338D01*
X143571441Y-46616726D01*
X143581349Y-46618061D01*
X143647110Y-46620426D01*
X143697040Y-46605771D01*
X143739777Y-46567717D01*
X143783955Y-46499885D01*
X143811912Y-46447735D01*
X143858044Y-46363981D01*
X143906084Y-46285536D01*
X143946521Y-46227828D01*
X143950696Y-46222686D01*
X144009817Y-46151756D01*
X144089581Y-46205884D01*
X144233452Y-46282113D01*
X144405841Y-46338016D01*
X144543449Y-46362327D01*
X144597217Y-46371827D01*
X144798047Y-46381777D01*
X144842364Y-46378711D01*
X146474154Y-46378711D01*
X146483903Y-46490169D01*
X146505467Y-46584906D01*
X146517567Y-46615042D01*
X146594757Y-46728009D01*
X146701613Y-46813036D01*
X146834596Y-46868448D01*
X146990169Y-46892566D01*
X147099224Y-46890859D01*
X147258620Y-46861807D01*
X147389382Y-46802612D01*
X147489624Y-46715942D01*
X147547542Y-46620768D01*
X147557461Y-46604468D01*
X147591005Y-46470857D01*
X147588371Y-46317779D01*
X147570302Y-46224200D01*
X147525237Y-46121880D01*
X147448818Y-46026834D01*
X147351883Y-45949832D01*
X147245846Y-45901803D01*
X147091932Y-45873644D01*
X146942429Y-45874501D01*
X146803642Y-45902087D01*
X146681876Y-45954116D01*
X146583436Y-46028302D01*
X146514628Y-46122359D01*
X146493811Y-46174444D01*
X146477147Y-46267735D01*
X146474154Y-46378711D01*
X144842364Y-46378711D01*
X144972670Y-46369696D01*
X145180165Y-46327496D01*
X145355055Y-46258315D01*
X145497314Y-46162182D01*
X145606914Y-46039125D01*
X145683830Y-45889174D01*
X145728035Y-45712357D01*
X145739840Y-45531616D01*
X145721294Y-45329943D01*
X145668747Y-45153042D01*
X145582560Y-45001470D01*
X145477174Y-44890597D01*
X146475762Y-44890597D01*
X146480450Y-44959548D01*
X146486181Y-44979552D01*
X146497721Y-44993658D01*
X146524081Y-45003260D01*
X146572012Y-45009157D01*
X146648265Y-45012148D01*
X146759588Y-45013029D01*
X146769277Y-45013033D01*
X147039525Y-45013033D01*
X147048862Y-45190926D01*
X147071440Y-45357913D01*
X147091932Y-45414209D01*
X147120167Y-45491778D01*
X147195458Y-45593015D01*
X147297726Y-45662114D01*
X147427386Y-45699570D01*
X147482166Y-45705492D01*
X147626485Y-45699782D01*
X147744481Y-45661088D01*
X147836978Y-45588912D01*
X147904797Y-45482756D01*
X147922428Y-45438697D01*
X147936471Y-45378246D01*
X147946833Y-45293313D01*
X147953399Y-45193800D01*
X147956053Y-45089613D01*
X147954678Y-44990657D01*
X147949158Y-44906837D01*
X147939378Y-44848056D01*
X147929600Y-44826766D01*
X147901747Y-44819318D01*
X147838276Y-44813049D01*
X147745200Y-44807953D01*
X147628532Y-44804028D01*
X147494285Y-44801268D01*
X147348474Y-44799669D01*
X147197111Y-44799226D01*
X147046210Y-44799936D01*
X146901784Y-44801794D01*
X146769848Y-44804795D01*
X146656413Y-44808934D01*
X146567494Y-44814209D01*
X146509104Y-44820613D01*
X146487352Y-44827825D01*
X146475762Y-44890597D01*
X145477174Y-44890597D01*
X145463091Y-44875781D01*
X145310703Y-44776531D01*
X145225167Y-44738129D01*
X145069896Y-44693337D01*
X144890008Y-44668275D01*
X144698326Y-44662914D01*
X144507673Y-44677229D01*
X144330874Y-44711190D01*
X144238762Y-44740241D01*
X144080845Y-44819420D01*
X143954420Y-44926581D01*
X143859947Y-45060913D01*
X143797884Y-45221604D01*
X143768690Y-45407842D01*
X143769056Y-45570724D01*
X143784761Y-45705591D01*
X143812358Y-45816280D01*
X143824137Y-45846443D01*
X143868236Y-45946136D01*
X143764754Y-46074556D01*
X143699040Y-46163997D01*
X143636841Y-46262680D01*
X143582858Y-46361498D01*
X143541794Y-46451348D01*
X143518351Y-46523125D01*
X143514990Y-46558200D01*
X141887021Y-46558200D01*
X141887134Y-46022785D01*
X141887320Y-45385038D01*
X141887554Y-44765799D01*
X141887833Y-44166227D01*
X141888157Y-43587481D01*
X141888524Y-43030719D01*
X141888934Y-42497100D01*
X141889386Y-41987781D01*
X141889877Y-41503922D01*
X141890407Y-41046681D01*
X141890976Y-40617217D01*
X141891158Y-40496936D01*
X143321813Y-40496936D01*
X143323565Y-40561097D01*
X143330083Y-40663283D01*
X143578792Y-40669246D01*
X143827500Y-40675210D01*
X143827500Y-40970200D01*
X143597259Y-40970200D01*
X143483002Y-40971613D01*
X143404689Y-40978370D01*
X143355960Y-40994243D01*
X143330455Y-41023007D01*
X143321813Y-41068436D01*
X143323565Y-41132597D01*
X143330083Y-41234783D01*
X143578792Y-41240746D01*
X143827500Y-41246710D01*
X143827500Y-41541700D01*
X143597259Y-41541700D01*
X143483002Y-41543113D01*
X143404689Y-41549870D01*
X143355960Y-41565743D01*
X143330455Y-41594507D01*
X143321813Y-41639936D01*
X143323565Y-41704097D01*
X143330083Y-41806283D01*
X143578792Y-41812246D01*
X143827500Y-41818210D01*
X143827500Y-42113200D01*
X143597259Y-42113200D01*
X143483002Y-42114613D01*
X143404689Y-42121370D01*
X143355960Y-42137243D01*
X143330455Y-42166007D01*
X143321813Y-42211436D01*
X143323565Y-42275597D01*
X143330083Y-42377783D01*
X143576367Y-42383725D01*
X143822651Y-42389668D01*
X143831255Y-42521309D01*
X143860587Y-42679197D01*
X143924863Y-42814927D01*
X144021463Y-42925861D01*
X144147768Y-43009361D01*
X144301159Y-43062792D01*
X144383125Y-43076921D01*
X144504833Y-43091744D01*
X144504833Y-43321394D01*
X144506433Y-43433591D01*
X144513479Y-43510203D01*
X144529339Y-43557924D01*
X144557382Y-43583452D01*
X144600978Y-43593481D01*
X144642417Y-43594866D01*
X144698326Y-43591757D01*
X144698646Y-43591739D01*
X144737116Y-43577911D01*
X144761154Y-43546710D01*
X144774086Y-43491464D01*
X144779239Y-43405503D01*
X144780000Y-43318955D01*
X144780000Y-43086866D01*
X145076333Y-43086866D01*
X145076333Y-43318955D01*
X145077893Y-43431717D01*
X145084788Y-43508866D01*
X145100347Y-43557071D01*
X145127895Y-43583006D01*
X145170759Y-43593340D01*
X145213917Y-43594866D01*
X145270146Y-43591739D01*
X145308616Y-43577911D01*
X145332654Y-43546710D01*
X145345586Y-43491464D01*
X145350739Y-43405503D01*
X145351500Y-43318955D01*
X145351500Y-43086866D01*
X145647833Y-43086866D01*
X145647833Y-43318955D01*
X145649393Y-43431717D01*
X145656288Y-43508866D01*
X145671847Y-43557071D01*
X145699395Y-43583006D01*
X145742259Y-43593340D01*
X145785417Y-43594866D01*
X145841646Y-43591739D01*
X145880116Y-43577911D01*
X145904154Y-43546710D01*
X145917086Y-43491464D01*
X145922239Y-43405503D01*
X145923000Y-43318955D01*
X145923000Y-43086866D01*
X146219333Y-43086866D01*
X146219333Y-43318955D01*
X146220893Y-43431717D01*
X146227788Y-43508866D01*
X146243347Y-43557071D01*
X146270895Y-43583006D01*
X146313759Y-43593340D01*
X146356917Y-43594866D01*
X146413146Y-43591739D01*
X146451616Y-43577911D01*
X146475654Y-43546710D01*
X146488586Y-43491464D01*
X146493739Y-43405503D01*
X146494500Y-43318955D01*
X146494500Y-43086866D01*
X146790833Y-43086866D01*
X146790833Y-43318955D01*
X146792393Y-43431717D01*
X146799288Y-43508866D01*
X146814847Y-43557071D01*
X146842395Y-43583006D01*
X146885259Y-43593340D01*
X146928417Y-43594866D01*
X146984890Y-43591680D01*
X147023442Y-43577654D01*
X147047447Y-43546089D01*
X147060278Y-43490287D01*
X147065311Y-43403549D01*
X147066000Y-43321689D01*
X147066000Y-43092334D01*
X147187708Y-43078562D01*
X147197111Y-43076442D01*
X147353801Y-43041106D01*
X147494448Y-42970426D01*
X147607595Y-42868585D01*
X147691185Y-42737644D01*
X147743162Y-42579665D01*
X147754555Y-42510075D01*
X147769378Y-42388366D01*
X147999028Y-42388366D01*
X148060027Y-42388005D01*
X148100910Y-42387763D01*
X148168691Y-42384975D01*
X148210599Y-42378536D01*
X148234858Y-42366982D01*
X148249696Y-42348845D01*
X148252887Y-42343130D01*
X148266203Y-42290449D01*
X148264415Y-42225385D01*
X148249855Y-42166071D01*
X148225625Y-42131111D01*
X148193954Y-42123823D01*
X148130345Y-42117987D01*
X148045191Y-42114353D01*
X147981458Y-42113524D01*
X147764500Y-42113200D01*
X147764500Y-41816866D01*
X147996589Y-41816866D01*
X148099081Y-41816276D01*
X148167421Y-41813543D01*
X148209783Y-41807226D01*
X148234341Y-41795880D01*
X148249271Y-41778064D01*
X148252887Y-41771630D01*
X148266203Y-41718949D01*
X148264415Y-41653885D01*
X148249855Y-41594571D01*
X148225625Y-41559611D01*
X148193954Y-41552323D01*
X148130345Y-41546487D01*
X148045191Y-41542853D01*
X147981458Y-41542024D01*
X147764500Y-41541700D01*
X147764500Y-41245366D01*
X147996589Y-41245366D01*
X148099081Y-41244776D01*
X148167421Y-41242043D01*
X148209783Y-41235726D01*
X148234341Y-41224380D01*
X148249271Y-41206564D01*
X148252887Y-41200130D01*
X148266203Y-41147449D01*
X148264415Y-41082385D01*
X148249855Y-41023071D01*
X148225625Y-40988111D01*
X148193954Y-40980823D01*
X148130345Y-40974987D01*
X148045191Y-40971353D01*
X147981458Y-40970524D01*
X147764500Y-40970200D01*
X147764500Y-40673866D01*
X147996589Y-40673866D01*
X148099081Y-40673276D01*
X148167421Y-40670543D01*
X148209783Y-40664226D01*
X148234341Y-40652880D01*
X148249271Y-40635064D01*
X148252887Y-40628630D01*
X148266203Y-40575949D01*
X148264415Y-40510885D01*
X148249855Y-40451571D01*
X148225625Y-40416611D01*
X148193954Y-40409323D01*
X148130345Y-40403487D01*
X148045191Y-40399853D01*
X147981458Y-40399024D01*
X147764500Y-40398700D01*
X147764500Y-40102366D01*
X147996589Y-40102366D01*
X148099081Y-40101776D01*
X148167421Y-40099043D01*
X148209783Y-40092726D01*
X148234341Y-40081380D01*
X148249271Y-40063564D01*
X148252887Y-40057130D01*
X148266203Y-40004449D01*
X148264415Y-39939385D01*
X148249855Y-39880071D01*
X148225625Y-39845111D01*
X148193917Y-39837798D01*
X148130321Y-39831952D01*
X148045274Y-39828329D01*
X147982982Y-39827524D01*
X147767546Y-39827200D01*
X147752884Y-39705491D01*
X147739353Y-39623506D01*
X147720796Y-39547032D01*
X147709327Y-39513124D01*
X147639202Y-39392712D01*
X147538983Y-39289823D01*
X147418074Y-39210909D01*
X147285880Y-39162419D01*
X147179708Y-39149866D01*
X147067344Y-39149866D01*
X147061380Y-38901158D01*
X147055417Y-38652450D01*
X146953231Y-38645931D01*
X146887857Y-38644233D01*
X146842838Y-38653180D01*
X146814400Y-38679130D01*
X146798769Y-38728445D01*
X146792172Y-38807485D01*
X146790833Y-38919625D01*
X146790833Y-39149866D01*
X146495844Y-39149866D01*
X146489880Y-38901158D01*
X146483917Y-38652450D01*
X146381731Y-38645931D01*
X146316357Y-38644233D01*
X146271338Y-38653180D01*
X146242900Y-38679130D01*
X146227269Y-38728445D01*
X146220672Y-38807485D01*
X146219333Y-38919625D01*
X146219333Y-39149866D01*
X145924344Y-39149866D01*
X145918380Y-38901158D01*
X145912417Y-38652450D01*
X145810231Y-38645931D01*
X145744857Y-38644233D01*
X145699838Y-38653180D01*
X145671400Y-38679130D01*
X145655769Y-38728445D01*
X145649172Y-38807485D01*
X145647833Y-38919625D01*
X145647833Y-39149866D01*
X145352844Y-39149866D01*
X145346880Y-38901158D01*
X145340917Y-38652450D01*
X145238731Y-38645931D01*
X145173357Y-38644233D01*
X145128338Y-38653180D01*
X145099900Y-38679130D01*
X145084269Y-38728445D01*
X145077672Y-38807485D01*
X145076333Y-38919625D01*
X145076333Y-39149866D01*
X144781344Y-39149866D01*
X144775380Y-38901158D01*
X144769417Y-38652450D01*
X144667231Y-38645931D01*
X144601857Y-38644233D01*
X144556838Y-38653180D01*
X144528400Y-38679130D01*
X144512769Y-38728445D01*
X144506172Y-38807485D01*
X144504833Y-38919625D01*
X144504833Y-39149866D01*
X144410378Y-39149866D01*
X144275118Y-39168925D01*
X144142263Y-39221717D01*
X144027148Y-39301665D01*
X144003741Y-39324289D01*
X143919012Y-39425477D01*
X143866223Y-39525548D01*
X143838288Y-39639791D01*
X143832400Y-39693951D01*
X143821704Y-39827200D01*
X143596002Y-39827200D01*
X143472021Y-39829834D01*
X143389223Y-39837796D01*
X143346787Y-39851171D01*
X143343973Y-39853527D01*
X143328006Y-39893006D01*
X143322985Y-39961721D01*
X143323865Y-39985818D01*
X143330083Y-40091783D01*
X143578792Y-40097746D01*
X143827500Y-40103710D01*
X143827500Y-40398700D01*
X143597259Y-40398700D01*
X143483002Y-40400113D01*
X143404689Y-40406870D01*
X143355960Y-40422743D01*
X143330455Y-40451507D01*
X143321813Y-40496936D01*
X141891158Y-40496936D01*
X141891581Y-40216687D01*
X141892221Y-39846250D01*
X141892896Y-39507065D01*
X141893605Y-39200291D01*
X141894345Y-38927085D01*
X141895117Y-38688607D01*
X141895918Y-38486014D01*
X141896748Y-38320465D01*
X141897606Y-38193119D01*
X141898490Y-38105133D01*
X141899399Y-38057668D01*
X141899925Y-38049200D01*
X141959528Y-37914973D01*
X142049380Y-37789530D01*
X142160131Y-37683170D01*
X142282431Y-37606189D01*
X142314680Y-37592368D01*
X142329459Y-37587048D01*
X142346236Y-37582213D01*
X142367006Y-37577842D01*
X142393764Y-37573910D01*
X142428506Y-37570394D01*
X142473228Y-37567272D01*
X142529925Y-37564519D01*
X142600593Y-37562113D01*
X142687228Y-37560030D01*
X142791825Y-37558247D01*
X142916380Y-37556741D01*
X143062888Y-37555489D01*
X143233346Y-37554466D01*
X143429749Y-37553651D01*
X143654092Y-37553019D01*
X143908371Y-37552548D01*
X144194583Y-37552214D01*
X144514721Y-37551993D01*
X144870783Y-37551864D01*
X145264764Y-37551801D01*
X145698659Y-37551783D01*
X146887857Y-37551783D01*
G37*
D10*
%TO.C,SW6*%
X99710000Y-68331600D02*
X99710000Y-69331600D01*
X99710000Y-55331600D02*
X99710000Y-56331600D01*
X99710000Y-55331600D02*
X98710000Y-55331600D01*
X98710000Y-69331600D02*
X99710000Y-69331600D01*
X86710000Y-55331600D02*
X85710000Y-55331600D01*
X85710000Y-69331600D02*
X86710000Y-69331600D01*
X85710000Y-69331600D02*
X85710000Y-68331600D01*
X85710000Y-56331600D02*
X85710000Y-55331600D01*
%TO.C,SW5*%
X85735400Y-36875200D02*
X85735400Y-35875200D01*
X85735400Y-49875200D02*
X85735400Y-48875200D01*
X85735400Y-49875200D02*
X86735400Y-49875200D01*
X86735400Y-35875200D02*
X85735400Y-35875200D01*
X98735400Y-49875200D02*
X99735400Y-49875200D01*
X99735400Y-35875200D02*
X98735400Y-35875200D01*
X99735400Y-35875200D02*
X99735400Y-36875200D01*
X99735400Y-48875200D02*
X99735400Y-49875200D01*
%TO.C,SW2*%
X119090200Y-68357000D02*
X119090200Y-69357000D01*
X119090200Y-55357000D02*
X119090200Y-56357000D01*
X119090200Y-55357000D02*
X118090200Y-55357000D01*
X118090200Y-69357000D02*
X119090200Y-69357000D01*
X106090200Y-55357000D02*
X105090200Y-55357000D01*
X105090200Y-69357000D02*
X106090200Y-69357000D01*
X105090200Y-69357000D02*
X105090200Y-68357000D01*
X105090200Y-56357000D02*
X105090200Y-55357000D01*
%TO.C,SW1*%
X105090200Y-36875200D02*
X105090200Y-35875200D01*
X105090200Y-49875200D02*
X105090200Y-48875200D01*
X105090200Y-49875200D02*
X106090200Y-49875200D01*
X106090200Y-35875200D02*
X105090200Y-35875200D01*
X118090200Y-49875200D02*
X119090200Y-49875200D01*
X119090200Y-35875200D02*
X118090200Y-35875200D01*
X119090200Y-35875200D02*
X119090200Y-36875200D01*
X119090200Y-48875200D02*
X119090200Y-49875200D01*
D13*
%TO.C,J3*%
X145532800Y-78832400D02*
X146862800Y-78832400D01*
X145532800Y-80162400D02*
X145532800Y-78832400D01*
X145532800Y-81432400D02*
X145532800Y-89112400D01*
X145532800Y-81432400D02*
X148192800Y-81432400D01*
X145532800Y-89112400D02*
X148192800Y-89112400D01*
X148192800Y-81432400D02*
X148192800Y-89112400D01*
%TO.C,J2*%
X89255600Y-73396800D02*
X137575600Y-73396800D01*
X137575600Y-76056800D02*
X137575600Y-73396800D01*
X89255600Y-76056800D02*
X89255600Y-73396800D01*
X89255600Y-76056800D02*
X137575600Y-76056800D01*
X87985600Y-76056800D02*
X86655600Y-76056800D01*
X86655600Y-76056800D02*
X86655600Y-74726800D01*
%TO.C,J1*%
X86681000Y-91322200D02*
X86681000Y-89992200D01*
X88011000Y-91322200D02*
X86681000Y-91322200D01*
X89281000Y-91322200D02*
X137601000Y-91322200D01*
X89281000Y-91322200D02*
X89281000Y-88662200D01*
X137601000Y-91322200D02*
X137601000Y-88662200D01*
X89281000Y-88662200D02*
X137601000Y-88662200D01*
%TO.C,D6*%
X103135800Y-63236200D02*
X101435800Y-63236200D01*
X103135800Y-63236200D02*
X103135800Y-65896200D01*
X101435800Y-63236200D02*
X101435800Y-65896200D01*
%TO.C,D5*%
X103237400Y-43652800D02*
X101537400Y-43652800D01*
X103237400Y-43652800D02*
X103237400Y-46312800D01*
X101537400Y-43652800D02*
X101537400Y-46312800D01*
%TO.C,D2*%
X122262000Y-63236200D02*
X120562000Y-63236200D01*
X122262000Y-63236200D02*
X122262000Y-65896200D01*
X120562000Y-63236200D02*
X120562000Y-65896200D01*
%TO.C,D1*%
X120333400Y-43652800D02*
X120333400Y-46312800D01*
X122033400Y-43652800D02*
X122033400Y-46312800D01*
X122033400Y-43652800D02*
X120333400Y-43652800D01*
%TD*%
M02*
