%TF.GenerationSoftware,KiCad,Pcbnew,8.0.8*%
%TF.CreationDate,2025-06-15T23:17:14+08:00*%
%TF.ProjectId,2x2,3278322e-6b69-4636-9164-5f7063625858,rev?*%
%TF.SameCoordinates,Original*%
%TF.FileFunction,Soldermask,Bot*%
%TF.FilePolarity,Negative*%
%FSLAX46Y46*%
G04 Gerber Fmt 4.6, Leading zero omitted, Abs format (unit mm)*
G04 Created by KiCad (PCBNEW 8.0.8) date 2025-06-15 23:17:14*
%MOMM*%
%LPD*%
G01*
G04 APERTURE LIST*
%ADD10R,2.550000X2.500000*%
%ADD11C,1.701800*%
%ADD12C,3.000000*%
%ADD13C,3.987800*%
%ADD14R,1.700000X1.700000*%
%ADD15O,1.700000X1.700000*%
G04 APERTURE END LIST*
D10*
%TO.C,SW6*%
X85150000Y-59791600D03*
X99000000Y-57251600D03*
D11*
X97790000Y-62331600D03*
D12*
X95250000Y-57251600D03*
D13*
X92710000Y-62331600D03*
D12*
X88900000Y-59791600D03*
D11*
X87630000Y-62331600D03*
%TD*%
%TO.C,SW5*%
X87655400Y-42875200D03*
D12*
X88925400Y-40335200D03*
D13*
X92735400Y-42875200D03*
D12*
X95275400Y-37795200D03*
D11*
X97815400Y-42875200D03*
D10*
X99025400Y-37795200D03*
X85175400Y-40335200D03*
%TD*%
%TO.C,SW2*%
X104530200Y-59817000D03*
X118380200Y-57277000D03*
D11*
X117170200Y-62357000D03*
D12*
X114630200Y-57277000D03*
D13*
X112090200Y-62357000D03*
D12*
X108280200Y-59817000D03*
D11*
X107010200Y-62357000D03*
%TD*%
%TO.C,SW1*%
X107010200Y-42875200D03*
D12*
X108280200Y-40335200D03*
D13*
X112090200Y-42875200D03*
D12*
X114630200Y-37795200D03*
D11*
X117170200Y-42875200D03*
D10*
X118380200Y-37795200D03*
X104530200Y-40335200D03*
%TD*%
D14*
%TO.C,J3*%
X146862800Y-80162400D03*
D15*
X146862800Y-82702400D03*
X146862800Y-85242400D03*
X146862800Y-87782400D03*
%TD*%
%TO.C,J2*%
X136245600Y-74726800D03*
X133705600Y-74726800D03*
X131165600Y-74726800D03*
X128625600Y-74726800D03*
X126085600Y-74726800D03*
X123545600Y-74726800D03*
X121005600Y-74726800D03*
X118465600Y-74726800D03*
X115925600Y-74726800D03*
X113385600Y-74726800D03*
X110845600Y-74726800D03*
X108305600Y-74726800D03*
X105765600Y-74726800D03*
X103225600Y-74726800D03*
X100685600Y-74726800D03*
X98145600Y-74726800D03*
X95605600Y-74726800D03*
X93065600Y-74726800D03*
X90525600Y-74726800D03*
D14*
X87985600Y-74726800D03*
%TD*%
%TO.C,J1*%
X88011000Y-89992200D03*
D15*
X90551000Y-89992200D03*
X93091000Y-89992200D03*
X95631000Y-89992200D03*
X98171000Y-89992200D03*
X100711000Y-89992200D03*
X103251000Y-89992200D03*
X105791000Y-89992200D03*
X108331000Y-89992200D03*
X110871000Y-89992200D03*
X113411000Y-89992200D03*
X115951000Y-89992200D03*
X118491000Y-89992200D03*
X121031000Y-89992200D03*
X123571000Y-89992200D03*
X126111000Y-89992200D03*
X128651000Y-89992200D03*
X131191000Y-89992200D03*
X133731000Y-89992200D03*
X136271000Y-89992200D03*
%TD*%
M02*
