%TF.GenerationSoftware,KiCad,Pcbnew,8.0.8*%
%TF.CreationDate,2025-06-15T23:17:13+08:00*%
%TF.ProjectId,2x2,3278322e-6b69-4636-9164-5f7063625858,rev?*%
%TF.SameCoordinates,Original*%
%TF.FileFunction,Drillmap*%
%TF.FilePolarity,Positive*%
%FSLAX45Y45*%
G04 Gerber Fmt 4.5, Leading zero omitted, Abs format (unit mm)*
G04 Created by KiCad (PCBNEW 8.0.8) date 2025-06-15 23:17:13*
%MOMM*%
%LPD*%
G01*
G04 APERTURE LIST*
%ADD10C,0.050000*%
%ADD11C,0.200000*%
%ADD12C,0.170180*%
%ADD13C,0.300000*%
%ADD14C,0.398780*%
G04 APERTURE END LIST*
D10*
X8201660Y-3180080D02*
X15062200Y-3180080D01*
X15062200Y-9476740D01*
X8201660Y-9476740D01*
X8201660Y-3180080D01*
D11*
D12*
X8677910Y-6148070D02*
X8848090Y-6318250D01*
X8848090Y-6148070D02*
X8677910Y-6318250D01*
X8680450Y-4202430D02*
X8850630Y-4372610D01*
X8850630Y-4202430D02*
X8680450Y-4372610D01*
X9693910Y-6148070D02*
X9864090Y-6318250D01*
X9864090Y-6148070D02*
X9693910Y-6318250D01*
X9696450Y-4202430D02*
X9866630Y-4372610D01*
X9866630Y-4202430D02*
X9696450Y-4372610D01*
X10615930Y-4202430D02*
X10786110Y-4372610D01*
X10786110Y-4202430D02*
X10615930Y-4372610D01*
X10615930Y-6150610D02*
X10786110Y-6320790D01*
X10786110Y-6150610D02*
X10615930Y-6320790D01*
X11631930Y-4202430D02*
X11802110Y-4372610D01*
X11802110Y-4202430D02*
X11631930Y-4372610D01*
X11631930Y-6150610D02*
X11802110Y-6320790D01*
X11802110Y-6150610D02*
X11631930Y-6320790D01*
D13*
X9040000Y-5979160D02*
G75*
G02*
X8740000Y-5979160I-150000J0D01*
G01*
X8740000Y-5979160D02*
G75*
G02*
X9040000Y-5979160I150000J0D01*
G01*
X9042540Y-4033520D02*
G75*
G02*
X8742540Y-4033520I-150000J0D01*
G01*
X8742540Y-4033520D02*
G75*
G02*
X9042540Y-4033520I150000J0D01*
G01*
X9675000Y-5725160D02*
G75*
G02*
X9375000Y-5725160I-150000J0D01*
G01*
X9375000Y-5725160D02*
G75*
G02*
X9675000Y-5725160I150000J0D01*
G01*
X9677540Y-3779520D02*
G75*
G02*
X9377540Y-3779520I-150000J0D01*
G01*
X9377540Y-3779520D02*
G75*
G02*
X9677540Y-3779520I150000J0D01*
G01*
X10978020Y-4033520D02*
G75*
G02*
X10678020Y-4033520I-150000J0D01*
G01*
X10678020Y-4033520D02*
G75*
G02*
X10978020Y-4033520I150000J0D01*
G01*
X10978020Y-5981700D02*
G75*
G02*
X10678020Y-5981700I-150000J0D01*
G01*
X10678020Y-5981700D02*
G75*
G02*
X10978020Y-5981700I150000J0D01*
G01*
X11613020Y-3779520D02*
G75*
G02*
X11313020Y-3779520I-150000J0D01*
G01*
X11313020Y-3779520D02*
G75*
G02*
X11613020Y-3779520I150000J0D01*
G01*
X11613020Y-5727700D02*
G75*
G02*
X11313020Y-5727700I-150000J0D01*
G01*
X11313020Y-5727700D02*
G75*
G02*
X11613020Y-5727700I150000J0D01*
G01*
D14*
X9271000Y-6033770D02*
X9271000Y-6432550D01*
X9071610Y-6233160D02*
X9470390Y-6233160D01*
X9273540Y-4088130D02*
X9273540Y-4486910D01*
X9074150Y-4287520D02*
X9472930Y-4287520D01*
X11209020Y-4088130D02*
X11209020Y-4486910D01*
X11009630Y-4287520D02*
X11408410Y-4287520D01*
X11209020Y-6036310D02*
X11209020Y-6435090D01*
X11009630Y-6235700D02*
X11408410Y-6235700D01*
D11*
X8459937Y-9790724D02*
X8459937Y-9590724D01*
X8459937Y-9590724D02*
X8507556Y-9590724D01*
X8507556Y-9590724D02*
X8536127Y-9600248D01*
X8536127Y-9600248D02*
X8555175Y-9619295D01*
X8555175Y-9619295D02*
X8564699Y-9638343D01*
X8564699Y-9638343D02*
X8574223Y-9676438D01*
X8574223Y-9676438D02*
X8574223Y-9705010D01*
X8574223Y-9705010D02*
X8564699Y-9743105D01*
X8564699Y-9743105D02*
X8555175Y-9762152D01*
X8555175Y-9762152D02*
X8536127Y-9781200D01*
X8536127Y-9781200D02*
X8507556Y-9790724D01*
X8507556Y-9790724D02*
X8459937Y-9790724D01*
X8659937Y-9790724D02*
X8659937Y-9657390D01*
X8659937Y-9695486D02*
X8669461Y-9676438D01*
X8669461Y-9676438D02*
X8678984Y-9666914D01*
X8678984Y-9666914D02*
X8698032Y-9657390D01*
X8698032Y-9657390D02*
X8717080Y-9657390D01*
X8783746Y-9790724D02*
X8783746Y-9657390D01*
X8783746Y-9590724D02*
X8774223Y-9600248D01*
X8774223Y-9600248D02*
X8783746Y-9609771D01*
X8783746Y-9609771D02*
X8793270Y-9600248D01*
X8793270Y-9600248D02*
X8783746Y-9590724D01*
X8783746Y-9590724D02*
X8783746Y-9609771D01*
X8907556Y-9790724D02*
X8888508Y-9781200D01*
X8888508Y-9781200D02*
X8878984Y-9762152D01*
X8878984Y-9762152D02*
X8878984Y-9590724D01*
X9012318Y-9790724D02*
X8993270Y-9781200D01*
X8993270Y-9781200D02*
X8983746Y-9762152D01*
X8983746Y-9762152D02*
X8983746Y-9590724D01*
X9240889Y-9790724D02*
X9240889Y-9590724D01*
X9240889Y-9590724D02*
X9307556Y-9733581D01*
X9307556Y-9733581D02*
X9374223Y-9590724D01*
X9374223Y-9590724D02*
X9374223Y-9790724D01*
X9555175Y-9790724D02*
X9555175Y-9685962D01*
X9555175Y-9685962D02*
X9545651Y-9666914D01*
X9545651Y-9666914D02*
X9526604Y-9657390D01*
X9526604Y-9657390D02*
X9488508Y-9657390D01*
X9488508Y-9657390D02*
X9469461Y-9666914D01*
X9555175Y-9781200D02*
X9536127Y-9790724D01*
X9536127Y-9790724D02*
X9488508Y-9790724D01*
X9488508Y-9790724D02*
X9469461Y-9781200D01*
X9469461Y-9781200D02*
X9459937Y-9762152D01*
X9459937Y-9762152D02*
X9459937Y-9743105D01*
X9459937Y-9743105D02*
X9469461Y-9724057D01*
X9469461Y-9724057D02*
X9488508Y-9714533D01*
X9488508Y-9714533D02*
X9536127Y-9714533D01*
X9536127Y-9714533D02*
X9555175Y-9705010D01*
X9650413Y-9657390D02*
X9650413Y-9857390D01*
X9650413Y-9666914D02*
X9669461Y-9657390D01*
X9669461Y-9657390D02*
X9707556Y-9657390D01*
X9707556Y-9657390D02*
X9726604Y-9666914D01*
X9726604Y-9666914D02*
X9736127Y-9676438D01*
X9736127Y-9676438D02*
X9745651Y-9695486D01*
X9745651Y-9695486D02*
X9745651Y-9752629D01*
X9745651Y-9752629D02*
X9736127Y-9771676D01*
X9736127Y-9771676D02*
X9726604Y-9781200D01*
X9726604Y-9781200D02*
X9707556Y-9790724D01*
X9707556Y-9790724D02*
X9669461Y-9790724D01*
X9669461Y-9790724D02*
X9650413Y-9781200D01*
X9831365Y-9771676D02*
X9840889Y-9781200D01*
X9840889Y-9781200D02*
X9831365Y-9790724D01*
X9831365Y-9790724D02*
X9821842Y-9781200D01*
X9821842Y-9781200D02*
X9831365Y-9771676D01*
X9831365Y-9771676D02*
X9831365Y-9790724D01*
X9831365Y-9666914D02*
X9840889Y-9676438D01*
X9840889Y-9676438D02*
X9831365Y-9685962D01*
X9831365Y-9685962D02*
X9821842Y-9676438D01*
X9821842Y-9676438D02*
X9831365Y-9666914D01*
X9831365Y-9666914D02*
X9831365Y-9685962D01*
D12*
X8028980Y-10034150D02*
X8199160Y-10204330D01*
X8199160Y-10034150D02*
X8028980Y-10204330D01*
D11*
X8564699Y-10210724D02*
X8450413Y-10210724D01*
X8507556Y-10210724D02*
X8507556Y-10010724D01*
X8507556Y-10010724D02*
X8488508Y-10039295D01*
X8488508Y-10039295D02*
X8469461Y-10058343D01*
X8469461Y-10058343D02*
X8450413Y-10067867D01*
X8650413Y-10191676D02*
X8659937Y-10201200D01*
X8659937Y-10201200D02*
X8650413Y-10210724D01*
X8650413Y-10210724D02*
X8640889Y-10201200D01*
X8640889Y-10201200D02*
X8650413Y-10191676D01*
X8650413Y-10191676D02*
X8650413Y-10210724D01*
X8726604Y-10010724D02*
X8859937Y-10010724D01*
X8859937Y-10010724D02*
X8774223Y-10210724D01*
X8974223Y-10010724D02*
X8993270Y-10010724D01*
X8993270Y-10010724D02*
X9012318Y-10020248D01*
X9012318Y-10020248D02*
X9021842Y-10029771D01*
X9021842Y-10029771D02*
X9031365Y-10048819D01*
X9031365Y-10048819D02*
X9040889Y-10086914D01*
X9040889Y-10086914D02*
X9040889Y-10134533D01*
X9040889Y-10134533D02*
X9031365Y-10172629D01*
X9031365Y-10172629D02*
X9021842Y-10191676D01*
X9021842Y-10191676D02*
X9012318Y-10201200D01*
X9012318Y-10201200D02*
X8993270Y-10210724D01*
X8993270Y-10210724D02*
X8974223Y-10210724D01*
X8974223Y-10210724D02*
X8955175Y-10201200D01*
X8955175Y-10201200D02*
X8945651Y-10191676D01*
X8945651Y-10191676D02*
X8936127Y-10172629D01*
X8936127Y-10172629D02*
X8926604Y-10134533D01*
X8926604Y-10134533D02*
X8926604Y-10086914D01*
X8926604Y-10086914D02*
X8936127Y-10048819D01*
X8936127Y-10048819D02*
X8945651Y-10029771D01*
X8945651Y-10029771D02*
X8955175Y-10020248D01*
X8955175Y-10020248D02*
X8974223Y-10010724D01*
X9117080Y-10029771D02*
X9126604Y-10020248D01*
X9126604Y-10020248D02*
X9145651Y-10010724D01*
X9145651Y-10010724D02*
X9193270Y-10010724D01*
X9193270Y-10010724D02*
X9212318Y-10020248D01*
X9212318Y-10020248D02*
X9221842Y-10029771D01*
X9221842Y-10029771D02*
X9231365Y-10048819D01*
X9231365Y-10048819D02*
X9231365Y-10067867D01*
X9231365Y-10067867D02*
X9221842Y-10096438D01*
X9221842Y-10096438D02*
X9107556Y-10210724D01*
X9107556Y-10210724D02*
X9231365Y-10210724D01*
X9317080Y-10210724D02*
X9317080Y-10077390D01*
X9317080Y-10096438D02*
X9326604Y-10086914D01*
X9326604Y-10086914D02*
X9345651Y-10077390D01*
X9345651Y-10077390D02*
X9374223Y-10077390D01*
X9374223Y-10077390D02*
X9393270Y-10086914D01*
X9393270Y-10086914D02*
X9402794Y-10105962D01*
X9402794Y-10105962D02*
X9402794Y-10210724D01*
X9402794Y-10105962D02*
X9412318Y-10086914D01*
X9412318Y-10086914D02*
X9431365Y-10077390D01*
X9431365Y-10077390D02*
X9459937Y-10077390D01*
X9459937Y-10077390D02*
X9478985Y-10086914D01*
X9478985Y-10086914D02*
X9488508Y-10105962D01*
X9488508Y-10105962D02*
X9488508Y-10210724D01*
X9583746Y-10210724D02*
X9583746Y-10077390D01*
X9583746Y-10096438D02*
X9593270Y-10086914D01*
X9593270Y-10086914D02*
X9612318Y-10077390D01*
X9612318Y-10077390D02*
X9640889Y-10077390D01*
X9640889Y-10077390D02*
X9659937Y-10086914D01*
X9659937Y-10086914D02*
X9669461Y-10105962D01*
X9669461Y-10105962D02*
X9669461Y-10210724D01*
X9669461Y-10105962D02*
X9678985Y-10086914D01*
X9678985Y-10086914D02*
X9698032Y-10077390D01*
X9698032Y-10077390D02*
X9726604Y-10077390D01*
X9726604Y-10077390D02*
X9745651Y-10086914D01*
X9745651Y-10086914D02*
X9755175Y-10105962D01*
X9755175Y-10105962D02*
X9755175Y-10210724D01*
X10145651Y-10001200D02*
X9974223Y-10258343D01*
X10402794Y-10010724D02*
X10421842Y-10010724D01*
X10421842Y-10010724D02*
X10440889Y-10020248D01*
X10440889Y-10020248D02*
X10450413Y-10029771D01*
X10450413Y-10029771D02*
X10459937Y-10048819D01*
X10459937Y-10048819D02*
X10469461Y-10086914D01*
X10469461Y-10086914D02*
X10469461Y-10134533D01*
X10469461Y-10134533D02*
X10459937Y-10172629D01*
X10459937Y-10172629D02*
X10450413Y-10191676D01*
X10450413Y-10191676D02*
X10440889Y-10201200D01*
X10440889Y-10201200D02*
X10421842Y-10210724D01*
X10421842Y-10210724D02*
X10402794Y-10210724D01*
X10402794Y-10210724D02*
X10383747Y-10201200D01*
X10383747Y-10201200D02*
X10374223Y-10191676D01*
X10374223Y-10191676D02*
X10364699Y-10172629D01*
X10364699Y-10172629D02*
X10355175Y-10134533D01*
X10355175Y-10134533D02*
X10355175Y-10086914D01*
X10355175Y-10086914D02*
X10364699Y-10048819D01*
X10364699Y-10048819D02*
X10374223Y-10029771D01*
X10374223Y-10029771D02*
X10383747Y-10020248D01*
X10383747Y-10020248D02*
X10402794Y-10010724D01*
X10555175Y-10191676D02*
X10564699Y-10201200D01*
X10564699Y-10201200D02*
X10555175Y-10210724D01*
X10555175Y-10210724D02*
X10545651Y-10201200D01*
X10545651Y-10201200D02*
X10555175Y-10191676D01*
X10555175Y-10191676D02*
X10555175Y-10210724D01*
X10688508Y-10010724D02*
X10707556Y-10010724D01*
X10707556Y-10010724D02*
X10726604Y-10020248D01*
X10726604Y-10020248D02*
X10736128Y-10029771D01*
X10736128Y-10029771D02*
X10745651Y-10048819D01*
X10745651Y-10048819D02*
X10755175Y-10086914D01*
X10755175Y-10086914D02*
X10755175Y-10134533D01*
X10755175Y-10134533D02*
X10745651Y-10172629D01*
X10745651Y-10172629D02*
X10736128Y-10191676D01*
X10736128Y-10191676D02*
X10726604Y-10201200D01*
X10726604Y-10201200D02*
X10707556Y-10210724D01*
X10707556Y-10210724D02*
X10688508Y-10210724D01*
X10688508Y-10210724D02*
X10669461Y-10201200D01*
X10669461Y-10201200D02*
X10659937Y-10191676D01*
X10659937Y-10191676D02*
X10650413Y-10172629D01*
X10650413Y-10172629D02*
X10640889Y-10134533D01*
X10640889Y-10134533D02*
X10640889Y-10086914D01*
X10640889Y-10086914D02*
X10650413Y-10048819D01*
X10650413Y-10048819D02*
X10659937Y-10029771D01*
X10659937Y-10029771D02*
X10669461Y-10020248D01*
X10669461Y-10020248D02*
X10688508Y-10010724D01*
X10926604Y-10010724D02*
X10888508Y-10010724D01*
X10888508Y-10010724D02*
X10869461Y-10020248D01*
X10869461Y-10020248D02*
X10859937Y-10029771D01*
X10859937Y-10029771D02*
X10840889Y-10058343D01*
X10840889Y-10058343D02*
X10831366Y-10096438D01*
X10831366Y-10096438D02*
X10831366Y-10172629D01*
X10831366Y-10172629D02*
X10840889Y-10191676D01*
X10840889Y-10191676D02*
X10850413Y-10201200D01*
X10850413Y-10201200D02*
X10869461Y-10210724D01*
X10869461Y-10210724D02*
X10907556Y-10210724D01*
X10907556Y-10210724D02*
X10926604Y-10201200D01*
X10926604Y-10201200D02*
X10936128Y-10191676D01*
X10936128Y-10191676D02*
X10945651Y-10172629D01*
X10945651Y-10172629D02*
X10945651Y-10125010D01*
X10945651Y-10125010D02*
X10936128Y-10105962D01*
X10936128Y-10105962D02*
X10926604Y-10096438D01*
X10926604Y-10096438D02*
X10907556Y-10086914D01*
X10907556Y-10086914D02*
X10869461Y-10086914D01*
X10869461Y-10086914D02*
X10850413Y-10096438D01*
X10850413Y-10096438D02*
X10840889Y-10105962D01*
X10840889Y-10105962D02*
X10831366Y-10125010D01*
X11012318Y-10010724D02*
X11145651Y-10010724D01*
X11145651Y-10010724D02*
X11059937Y-10210724D01*
X11259937Y-10010724D02*
X11278985Y-10010724D01*
X11278985Y-10010724D02*
X11298032Y-10020248D01*
X11298032Y-10020248D02*
X11307556Y-10029771D01*
X11307556Y-10029771D02*
X11317080Y-10048819D01*
X11317080Y-10048819D02*
X11326604Y-10086914D01*
X11326604Y-10086914D02*
X11326604Y-10134533D01*
X11326604Y-10134533D02*
X11317080Y-10172629D01*
X11317080Y-10172629D02*
X11307556Y-10191676D01*
X11307556Y-10191676D02*
X11298032Y-10201200D01*
X11298032Y-10201200D02*
X11278985Y-10210724D01*
X11278985Y-10210724D02*
X11259937Y-10210724D01*
X11259937Y-10210724D02*
X11240889Y-10201200D01*
X11240889Y-10201200D02*
X11231366Y-10191676D01*
X11231366Y-10191676D02*
X11221842Y-10172629D01*
X11221842Y-10172629D02*
X11212318Y-10134533D01*
X11212318Y-10134533D02*
X11212318Y-10086914D01*
X11212318Y-10086914D02*
X11221842Y-10048819D01*
X11221842Y-10048819D02*
X11231366Y-10029771D01*
X11231366Y-10029771D02*
X11240889Y-10020248D01*
X11240889Y-10020248D02*
X11259937Y-10010724D01*
X11402794Y-10010724D02*
X11402794Y-10048819D01*
X11478985Y-10010724D02*
X11478985Y-10048819D01*
X11774223Y-10286914D02*
X11764699Y-10277390D01*
X11764699Y-10277390D02*
X11745651Y-10248819D01*
X11745651Y-10248819D02*
X11736128Y-10229771D01*
X11736128Y-10229771D02*
X11726604Y-10201200D01*
X11726604Y-10201200D02*
X11717080Y-10153581D01*
X11717080Y-10153581D02*
X11717080Y-10115486D01*
X11717080Y-10115486D02*
X11726604Y-10067867D01*
X11726604Y-10067867D02*
X11736128Y-10039295D01*
X11736128Y-10039295D02*
X11745651Y-10020248D01*
X11745651Y-10020248D02*
X11764699Y-9991676D01*
X11764699Y-9991676D02*
X11774223Y-9982152D01*
X11878985Y-10096438D02*
X11859937Y-10086914D01*
X11859937Y-10086914D02*
X11850413Y-10077390D01*
X11850413Y-10077390D02*
X11840889Y-10058343D01*
X11840889Y-10058343D02*
X11840889Y-10048819D01*
X11840889Y-10048819D02*
X11850413Y-10029771D01*
X11850413Y-10029771D02*
X11859937Y-10020248D01*
X11859937Y-10020248D02*
X11878985Y-10010724D01*
X11878985Y-10010724D02*
X11917080Y-10010724D01*
X11917080Y-10010724D02*
X11936128Y-10020248D01*
X11936128Y-10020248D02*
X11945651Y-10029771D01*
X11945651Y-10029771D02*
X11955175Y-10048819D01*
X11955175Y-10048819D02*
X11955175Y-10058343D01*
X11955175Y-10058343D02*
X11945651Y-10077390D01*
X11945651Y-10077390D02*
X11936128Y-10086914D01*
X11936128Y-10086914D02*
X11917080Y-10096438D01*
X11917080Y-10096438D02*
X11878985Y-10096438D01*
X11878985Y-10096438D02*
X11859937Y-10105962D01*
X11859937Y-10105962D02*
X11850413Y-10115486D01*
X11850413Y-10115486D02*
X11840889Y-10134533D01*
X11840889Y-10134533D02*
X11840889Y-10172629D01*
X11840889Y-10172629D02*
X11850413Y-10191676D01*
X11850413Y-10191676D02*
X11859937Y-10201200D01*
X11859937Y-10201200D02*
X11878985Y-10210724D01*
X11878985Y-10210724D02*
X11917080Y-10210724D01*
X11917080Y-10210724D02*
X11936128Y-10201200D01*
X11936128Y-10201200D02*
X11945651Y-10191676D01*
X11945651Y-10191676D02*
X11955175Y-10172629D01*
X11955175Y-10172629D02*
X11955175Y-10134533D01*
X11955175Y-10134533D02*
X11945651Y-10115486D01*
X11945651Y-10115486D02*
X11936128Y-10105962D01*
X11936128Y-10105962D02*
X11917080Y-10096438D01*
X12193270Y-10210724D02*
X12193270Y-10010724D01*
X12278985Y-10210724D02*
X12278985Y-10105962D01*
X12278985Y-10105962D02*
X12269461Y-10086914D01*
X12269461Y-10086914D02*
X12250413Y-10077390D01*
X12250413Y-10077390D02*
X12221842Y-10077390D01*
X12221842Y-10077390D02*
X12202794Y-10086914D01*
X12202794Y-10086914D02*
X12193270Y-10096438D01*
X12402794Y-10210724D02*
X12383747Y-10201200D01*
X12383747Y-10201200D02*
X12374223Y-10191676D01*
X12374223Y-10191676D02*
X12364699Y-10172629D01*
X12364699Y-10172629D02*
X12364699Y-10115486D01*
X12364699Y-10115486D02*
X12374223Y-10096438D01*
X12374223Y-10096438D02*
X12383747Y-10086914D01*
X12383747Y-10086914D02*
X12402794Y-10077390D01*
X12402794Y-10077390D02*
X12431366Y-10077390D01*
X12431366Y-10077390D02*
X12450413Y-10086914D01*
X12450413Y-10086914D02*
X12459937Y-10096438D01*
X12459937Y-10096438D02*
X12469461Y-10115486D01*
X12469461Y-10115486D02*
X12469461Y-10172629D01*
X12469461Y-10172629D02*
X12459937Y-10191676D01*
X12459937Y-10191676D02*
X12450413Y-10201200D01*
X12450413Y-10201200D02*
X12431366Y-10210724D01*
X12431366Y-10210724D02*
X12402794Y-10210724D01*
X12583747Y-10210724D02*
X12564699Y-10201200D01*
X12564699Y-10201200D02*
X12555175Y-10182152D01*
X12555175Y-10182152D02*
X12555175Y-10010724D01*
X12736128Y-10201200D02*
X12717080Y-10210724D01*
X12717080Y-10210724D02*
X12678985Y-10210724D01*
X12678985Y-10210724D02*
X12659937Y-10201200D01*
X12659937Y-10201200D02*
X12650413Y-10182152D01*
X12650413Y-10182152D02*
X12650413Y-10105962D01*
X12650413Y-10105962D02*
X12659937Y-10086914D01*
X12659937Y-10086914D02*
X12678985Y-10077390D01*
X12678985Y-10077390D02*
X12717080Y-10077390D01*
X12717080Y-10077390D02*
X12736128Y-10086914D01*
X12736128Y-10086914D02*
X12745651Y-10105962D01*
X12745651Y-10105962D02*
X12745651Y-10125010D01*
X12745651Y-10125010D02*
X12650413Y-10144057D01*
X12821842Y-10201200D02*
X12840890Y-10210724D01*
X12840890Y-10210724D02*
X12878985Y-10210724D01*
X12878985Y-10210724D02*
X12898032Y-10201200D01*
X12898032Y-10201200D02*
X12907556Y-10182152D01*
X12907556Y-10182152D02*
X12907556Y-10172629D01*
X12907556Y-10172629D02*
X12898032Y-10153581D01*
X12898032Y-10153581D02*
X12878985Y-10144057D01*
X12878985Y-10144057D02*
X12850413Y-10144057D01*
X12850413Y-10144057D02*
X12831366Y-10134533D01*
X12831366Y-10134533D02*
X12821842Y-10115486D01*
X12821842Y-10115486D02*
X12821842Y-10105962D01*
X12821842Y-10105962D02*
X12831366Y-10086914D01*
X12831366Y-10086914D02*
X12850413Y-10077390D01*
X12850413Y-10077390D02*
X12878985Y-10077390D01*
X12878985Y-10077390D02*
X12898032Y-10086914D01*
X12974223Y-10286914D02*
X12983747Y-10277390D01*
X12983747Y-10277390D02*
X13002794Y-10248819D01*
X13002794Y-10248819D02*
X13012318Y-10229771D01*
X13012318Y-10229771D02*
X13021842Y-10201200D01*
X13021842Y-10201200D02*
X13031366Y-10153581D01*
X13031366Y-10153581D02*
X13031366Y-10115486D01*
X13031366Y-10115486D02*
X13021842Y-10067867D01*
X13021842Y-10067867D02*
X13012318Y-10039295D01*
X13012318Y-10039295D02*
X13002794Y-10020248D01*
X13002794Y-10020248D02*
X12983747Y-9991676D01*
X12983747Y-9991676D02*
X12974223Y-9982152D01*
X13336128Y-10286914D02*
X13326604Y-10277390D01*
X13326604Y-10277390D02*
X13307556Y-10248819D01*
X13307556Y-10248819D02*
X13298032Y-10229771D01*
X13298032Y-10229771D02*
X13288509Y-10201200D01*
X13288509Y-10201200D02*
X13278985Y-10153581D01*
X13278985Y-10153581D02*
X13278985Y-10115486D01*
X13278985Y-10115486D02*
X13288509Y-10067867D01*
X13288509Y-10067867D02*
X13298032Y-10039295D01*
X13298032Y-10039295D02*
X13307556Y-10020248D01*
X13307556Y-10020248D02*
X13326604Y-9991676D01*
X13326604Y-9991676D02*
X13336128Y-9982152D01*
X13412318Y-10077390D02*
X13412318Y-10210724D01*
X13412318Y-10096438D02*
X13421842Y-10086914D01*
X13421842Y-10086914D02*
X13440890Y-10077390D01*
X13440890Y-10077390D02*
X13469461Y-10077390D01*
X13469461Y-10077390D02*
X13488509Y-10086914D01*
X13488509Y-10086914D02*
X13498032Y-10105962D01*
X13498032Y-10105962D02*
X13498032Y-10210724D01*
X13621842Y-10210724D02*
X13602794Y-10201200D01*
X13602794Y-10201200D02*
X13593271Y-10191676D01*
X13593271Y-10191676D02*
X13583747Y-10172629D01*
X13583747Y-10172629D02*
X13583747Y-10115486D01*
X13583747Y-10115486D02*
X13593271Y-10096438D01*
X13593271Y-10096438D02*
X13602794Y-10086914D01*
X13602794Y-10086914D02*
X13621842Y-10077390D01*
X13621842Y-10077390D02*
X13650413Y-10077390D01*
X13650413Y-10077390D02*
X13669461Y-10086914D01*
X13669461Y-10086914D02*
X13678985Y-10096438D01*
X13678985Y-10096438D02*
X13688509Y-10115486D01*
X13688509Y-10115486D02*
X13688509Y-10172629D01*
X13688509Y-10172629D02*
X13678985Y-10191676D01*
X13678985Y-10191676D02*
X13669461Y-10201200D01*
X13669461Y-10201200D02*
X13650413Y-10210724D01*
X13650413Y-10210724D02*
X13621842Y-10210724D01*
X13745652Y-10077390D02*
X13821842Y-10077390D01*
X13774223Y-10010724D02*
X13774223Y-10182152D01*
X13774223Y-10182152D02*
X13783747Y-10201200D01*
X13783747Y-10201200D02*
X13802794Y-10210724D01*
X13802794Y-10210724D02*
X13821842Y-10210724D01*
X14040890Y-10077390D02*
X14040890Y-10277390D01*
X14040890Y-10086914D02*
X14059937Y-10077390D01*
X14059937Y-10077390D02*
X14098033Y-10077390D01*
X14098033Y-10077390D02*
X14117080Y-10086914D01*
X14117080Y-10086914D02*
X14126604Y-10096438D01*
X14126604Y-10096438D02*
X14136128Y-10115486D01*
X14136128Y-10115486D02*
X14136128Y-10172629D01*
X14136128Y-10172629D02*
X14126604Y-10191676D01*
X14126604Y-10191676D02*
X14117080Y-10201200D01*
X14117080Y-10201200D02*
X14098033Y-10210724D01*
X14098033Y-10210724D02*
X14059937Y-10210724D01*
X14059937Y-10210724D02*
X14040890Y-10201200D01*
X14250413Y-10210724D02*
X14231366Y-10201200D01*
X14231366Y-10201200D02*
X14221842Y-10182152D01*
X14221842Y-10182152D02*
X14221842Y-10010724D01*
X14412318Y-10210724D02*
X14412318Y-10105962D01*
X14412318Y-10105962D02*
X14402794Y-10086914D01*
X14402794Y-10086914D02*
X14383747Y-10077390D01*
X14383747Y-10077390D02*
X14345652Y-10077390D01*
X14345652Y-10077390D02*
X14326604Y-10086914D01*
X14412318Y-10201200D02*
X14393271Y-10210724D01*
X14393271Y-10210724D02*
X14345652Y-10210724D01*
X14345652Y-10210724D02*
X14326604Y-10201200D01*
X14326604Y-10201200D02*
X14317080Y-10182152D01*
X14317080Y-10182152D02*
X14317080Y-10163105D01*
X14317080Y-10163105D02*
X14326604Y-10144057D01*
X14326604Y-10144057D02*
X14345652Y-10134533D01*
X14345652Y-10134533D02*
X14393271Y-10134533D01*
X14393271Y-10134533D02*
X14412318Y-10125010D01*
X14478985Y-10077390D02*
X14555175Y-10077390D01*
X14507556Y-10010724D02*
X14507556Y-10182152D01*
X14507556Y-10182152D02*
X14517080Y-10201200D01*
X14517080Y-10201200D02*
X14536128Y-10210724D01*
X14536128Y-10210724D02*
X14555175Y-10210724D01*
X14698033Y-10201200D02*
X14678985Y-10210724D01*
X14678985Y-10210724D02*
X14640890Y-10210724D01*
X14640890Y-10210724D02*
X14621842Y-10201200D01*
X14621842Y-10201200D02*
X14612318Y-10182152D01*
X14612318Y-10182152D02*
X14612318Y-10105962D01*
X14612318Y-10105962D02*
X14621842Y-10086914D01*
X14621842Y-10086914D02*
X14640890Y-10077390D01*
X14640890Y-10077390D02*
X14678985Y-10077390D01*
X14678985Y-10077390D02*
X14698033Y-10086914D01*
X14698033Y-10086914D02*
X14707556Y-10105962D01*
X14707556Y-10105962D02*
X14707556Y-10125010D01*
X14707556Y-10125010D02*
X14612318Y-10144057D01*
X14878985Y-10210724D02*
X14878985Y-10010724D01*
X14878985Y-10201200D02*
X14859937Y-10210724D01*
X14859937Y-10210724D02*
X14821842Y-10210724D01*
X14821842Y-10210724D02*
X14802794Y-10201200D01*
X14802794Y-10201200D02*
X14793271Y-10191676D01*
X14793271Y-10191676D02*
X14783747Y-10172629D01*
X14783747Y-10172629D02*
X14783747Y-10115486D01*
X14783747Y-10115486D02*
X14793271Y-10096438D01*
X14793271Y-10096438D02*
X14802794Y-10086914D01*
X14802794Y-10086914D02*
X14821842Y-10077390D01*
X14821842Y-10077390D02*
X14859937Y-10077390D01*
X14859937Y-10077390D02*
X14878985Y-10086914D01*
X14955175Y-10286914D02*
X14964699Y-10277390D01*
X14964699Y-10277390D02*
X14983747Y-10248819D01*
X14983747Y-10248819D02*
X14993271Y-10229771D01*
X14993271Y-10229771D02*
X15002794Y-10201200D01*
X15002794Y-10201200D02*
X15012318Y-10153581D01*
X15012318Y-10153581D02*
X15012318Y-10115486D01*
X15012318Y-10115486D02*
X15002794Y-10067867D01*
X15002794Y-10067867D02*
X14993271Y-10039295D01*
X14993271Y-10039295D02*
X14983747Y-10020248D01*
X14983747Y-10020248D02*
X14964699Y-9991676D01*
X14964699Y-9991676D02*
X14955175Y-9982152D01*
X8199160Y-10409420D02*
G75*
G02*
X7999160Y-10409420I-100000J0D01*
G01*
X7999160Y-10409420D02*
G75*
G02*
X8199160Y-10409420I100000J0D01*
G01*
X8440889Y-10300904D02*
X8564699Y-10300904D01*
X8564699Y-10300904D02*
X8498032Y-10377094D01*
X8498032Y-10377094D02*
X8526604Y-10377094D01*
X8526604Y-10377094D02*
X8545651Y-10386618D01*
X8545651Y-10386618D02*
X8555175Y-10396142D01*
X8555175Y-10396142D02*
X8564699Y-10415190D01*
X8564699Y-10415190D02*
X8564699Y-10462809D01*
X8564699Y-10462809D02*
X8555175Y-10481856D01*
X8555175Y-10481856D02*
X8545651Y-10491380D01*
X8545651Y-10491380D02*
X8526604Y-10500904D01*
X8526604Y-10500904D02*
X8469461Y-10500904D01*
X8469461Y-10500904D02*
X8450413Y-10491380D01*
X8450413Y-10491380D02*
X8440889Y-10481856D01*
X8650413Y-10481856D02*
X8659937Y-10491380D01*
X8659937Y-10491380D02*
X8650413Y-10500904D01*
X8650413Y-10500904D02*
X8640889Y-10491380D01*
X8640889Y-10491380D02*
X8650413Y-10481856D01*
X8650413Y-10481856D02*
X8650413Y-10500904D01*
X8783746Y-10300904D02*
X8802794Y-10300904D01*
X8802794Y-10300904D02*
X8821842Y-10310428D01*
X8821842Y-10310428D02*
X8831365Y-10319951D01*
X8831365Y-10319951D02*
X8840889Y-10338999D01*
X8840889Y-10338999D02*
X8850413Y-10377094D01*
X8850413Y-10377094D02*
X8850413Y-10424713D01*
X8850413Y-10424713D02*
X8840889Y-10462809D01*
X8840889Y-10462809D02*
X8831365Y-10481856D01*
X8831365Y-10481856D02*
X8821842Y-10491380D01*
X8821842Y-10491380D02*
X8802794Y-10500904D01*
X8802794Y-10500904D02*
X8783746Y-10500904D01*
X8783746Y-10500904D02*
X8764699Y-10491380D01*
X8764699Y-10491380D02*
X8755175Y-10481856D01*
X8755175Y-10481856D02*
X8745651Y-10462809D01*
X8745651Y-10462809D02*
X8736127Y-10424713D01*
X8736127Y-10424713D02*
X8736127Y-10377094D01*
X8736127Y-10377094D02*
X8745651Y-10338999D01*
X8745651Y-10338999D02*
X8755175Y-10319951D01*
X8755175Y-10319951D02*
X8764699Y-10310428D01*
X8764699Y-10310428D02*
X8783746Y-10300904D01*
X8974223Y-10300904D02*
X8993270Y-10300904D01*
X8993270Y-10300904D02*
X9012318Y-10310428D01*
X9012318Y-10310428D02*
X9021842Y-10319951D01*
X9021842Y-10319951D02*
X9031365Y-10338999D01*
X9031365Y-10338999D02*
X9040889Y-10377094D01*
X9040889Y-10377094D02*
X9040889Y-10424713D01*
X9040889Y-10424713D02*
X9031365Y-10462809D01*
X9031365Y-10462809D02*
X9021842Y-10481856D01*
X9021842Y-10481856D02*
X9012318Y-10491380D01*
X9012318Y-10491380D02*
X8993270Y-10500904D01*
X8993270Y-10500904D02*
X8974223Y-10500904D01*
X8974223Y-10500904D02*
X8955175Y-10491380D01*
X8955175Y-10491380D02*
X8945651Y-10481856D01*
X8945651Y-10481856D02*
X8936127Y-10462809D01*
X8936127Y-10462809D02*
X8926604Y-10424713D01*
X8926604Y-10424713D02*
X8926604Y-10377094D01*
X8926604Y-10377094D02*
X8936127Y-10338999D01*
X8936127Y-10338999D02*
X8945651Y-10319951D01*
X8945651Y-10319951D02*
X8955175Y-10310428D01*
X8955175Y-10310428D02*
X8974223Y-10300904D01*
X9164699Y-10300904D02*
X9183746Y-10300904D01*
X9183746Y-10300904D02*
X9202794Y-10310428D01*
X9202794Y-10310428D02*
X9212318Y-10319951D01*
X9212318Y-10319951D02*
X9221842Y-10338999D01*
X9221842Y-10338999D02*
X9231365Y-10377094D01*
X9231365Y-10377094D02*
X9231365Y-10424713D01*
X9231365Y-10424713D02*
X9221842Y-10462809D01*
X9221842Y-10462809D02*
X9212318Y-10481856D01*
X9212318Y-10481856D02*
X9202794Y-10491380D01*
X9202794Y-10491380D02*
X9183746Y-10500904D01*
X9183746Y-10500904D02*
X9164699Y-10500904D01*
X9164699Y-10500904D02*
X9145651Y-10491380D01*
X9145651Y-10491380D02*
X9136127Y-10481856D01*
X9136127Y-10481856D02*
X9126604Y-10462809D01*
X9126604Y-10462809D02*
X9117080Y-10424713D01*
X9117080Y-10424713D02*
X9117080Y-10377094D01*
X9117080Y-10377094D02*
X9126604Y-10338999D01*
X9126604Y-10338999D02*
X9136127Y-10319951D01*
X9136127Y-10319951D02*
X9145651Y-10310428D01*
X9145651Y-10310428D02*
X9164699Y-10300904D01*
X9317080Y-10500904D02*
X9317080Y-10367570D01*
X9317080Y-10386618D02*
X9326604Y-10377094D01*
X9326604Y-10377094D02*
X9345651Y-10367570D01*
X9345651Y-10367570D02*
X9374223Y-10367570D01*
X9374223Y-10367570D02*
X9393270Y-10377094D01*
X9393270Y-10377094D02*
X9402794Y-10396142D01*
X9402794Y-10396142D02*
X9402794Y-10500904D01*
X9402794Y-10396142D02*
X9412318Y-10377094D01*
X9412318Y-10377094D02*
X9431365Y-10367570D01*
X9431365Y-10367570D02*
X9459937Y-10367570D01*
X9459937Y-10367570D02*
X9478985Y-10377094D01*
X9478985Y-10377094D02*
X9488508Y-10396142D01*
X9488508Y-10396142D02*
X9488508Y-10500904D01*
X9583746Y-10500904D02*
X9583746Y-10367570D01*
X9583746Y-10386618D02*
X9593270Y-10377094D01*
X9593270Y-10377094D02*
X9612318Y-10367570D01*
X9612318Y-10367570D02*
X9640889Y-10367570D01*
X9640889Y-10367570D02*
X9659937Y-10377094D01*
X9659937Y-10377094D02*
X9669461Y-10396142D01*
X9669461Y-10396142D02*
X9669461Y-10500904D01*
X9669461Y-10396142D02*
X9678985Y-10377094D01*
X9678985Y-10377094D02*
X9698032Y-10367570D01*
X9698032Y-10367570D02*
X9726604Y-10367570D01*
X9726604Y-10367570D02*
X9745651Y-10377094D01*
X9745651Y-10377094D02*
X9755175Y-10396142D01*
X9755175Y-10396142D02*
X9755175Y-10500904D01*
X10145651Y-10291380D02*
X9974223Y-10548523D01*
X10402794Y-10300904D02*
X10421842Y-10300904D01*
X10421842Y-10300904D02*
X10440889Y-10310428D01*
X10440889Y-10310428D02*
X10450413Y-10319951D01*
X10450413Y-10319951D02*
X10459937Y-10338999D01*
X10459937Y-10338999D02*
X10469461Y-10377094D01*
X10469461Y-10377094D02*
X10469461Y-10424713D01*
X10469461Y-10424713D02*
X10459937Y-10462809D01*
X10459937Y-10462809D02*
X10450413Y-10481856D01*
X10450413Y-10481856D02*
X10440889Y-10491380D01*
X10440889Y-10491380D02*
X10421842Y-10500904D01*
X10421842Y-10500904D02*
X10402794Y-10500904D01*
X10402794Y-10500904D02*
X10383747Y-10491380D01*
X10383747Y-10491380D02*
X10374223Y-10481856D01*
X10374223Y-10481856D02*
X10364699Y-10462809D01*
X10364699Y-10462809D02*
X10355175Y-10424713D01*
X10355175Y-10424713D02*
X10355175Y-10377094D01*
X10355175Y-10377094D02*
X10364699Y-10338999D01*
X10364699Y-10338999D02*
X10374223Y-10319951D01*
X10374223Y-10319951D02*
X10383747Y-10310428D01*
X10383747Y-10310428D02*
X10402794Y-10300904D01*
X10555175Y-10481856D02*
X10564699Y-10491380D01*
X10564699Y-10491380D02*
X10555175Y-10500904D01*
X10555175Y-10500904D02*
X10545651Y-10491380D01*
X10545651Y-10491380D02*
X10555175Y-10481856D01*
X10555175Y-10481856D02*
X10555175Y-10500904D01*
X10755175Y-10500904D02*
X10640889Y-10500904D01*
X10698032Y-10500904D02*
X10698032Y-10300904D01*
X10698032Y-10300904D02*
X10678985Y-10329475D01*
X10678985Y-10329475D02*
X10659937Y-10348523D01*
X10659937Y-10348523D02*
X10640889Y-10358047D01*
X10945651Y-10500904D02*
X10831366Y-10500904D01*
X10888508Y-10500904D02*
X10888508Y-10300904D01*
X10888508Y-10300904D02*
X10869461Y-10329475D01*
X10869461Y-10329475D02*
X10850413Y-10348523D01*
X10850413Y-10348523D02*
X10831366Y-10358047D01*
X11059937Y-10386618D02*
X11040889Y-10377094D01*
X11040889Y-10377094D02*
X11031366Y-10367570D01*
X11031366Y-10367570D02*
X11021842Y-10348523D01*
X11021842Y-10348523D02*
X11021842Y-10338999D01*
X11021842Y-10338999D02*
X11031366Y-10319951D01*
X11031366Y-10319951D02*
X11040889Y-10310428D01*
X11040889Y-10310428D02*
X11059937Y-10300904D01*
X11059937Y-10300904D02*
X11098032Y-10300904D01*
X11098032Y-10300904D02*
X11117080Y-10310428D01*
X11117080Y-10310428D02*
X11126604Y-10319951D01*
X11126604Y-10319951D02*
X11136128Y-10338999D01*
X11136128Y-10338999D02*
X11136128Y-10348523D01*
X11136128Y-10348523D02*
X11126604Y-10367570D01*
X11126604Y-10367570D02*
X11117080Y-10377094D01*
X11117080Y-10377094D02*
X11098032Y-10386618D01*
X11098032Y-10386618D02*
X11059937Y-10386618D01*
X11059937Y-10386618D02*
X11040889Y-10396142D01*
X11040889Y-10396142D02*
X11031366Y-10405666D01*
X11031366Y-10405666D02*
X11021842Y-10424713D01*
X11021842Y-10424713D02*
X11021842Y-10462809D01*
X11021842Y-10462809D02*
X11031366Y-10481856D01*
X11031366Y-10481856D02*
X11040889Y-10491380D01*
X11040889Y-10491380D02*
X11059937Y-10500904D01*
X11059937Y-10500904D02*
X11098032Y-10500904D01*
X11098032Y-10500904D02*
X11117080Y-10491380D01*
X11117080Y-10491380D02*
X11126604Y-10481856D01*
X11126604Y-10481856D02*
X11136128Y-10462809D01*
X11136128Y-10462809D02*
X11136128Y-10424713D01*
X11136128Y-10424713D02*
X11126604Y-10405666D01*
X11126604Y-10405666D02*
X11117080Y-10396142D01*
X11117080Y-10396142D02*
X11098032Y-10386618D01*
X11326604Y-10500904D02*
X11212318Y-10500904D01*
X11269461Y-10500904D02*
X11269461Y-10300904D01*
X11269461Y-10300904D02*
X11250413Y-10329475D01*
X11250413Y-10329475D02*
X11231366Y-10348523D01*
X11231366Y-10348523D02*
X11212318Y-10358047D01*
X11402794Y-10300904D02*
X11402794Y-10338999D01*
X11478985Y-10300904D02*
X11478985Y-10338999D01*
X11774223Y-10577094D02*
X11764699Y-10567570D01*
X11764699Y-10567570D02*
X11745651Y-10538999D01*
X11745651Y-10538999D02*
X11736128Y-10519951D01*
X11736128Y-10519951D02*
X11726604Y-10491380D01*
X11726604Y-10491380D02*
X11717080Y-10443761D01*
X11717080Y-10443761D02*
X11717080Y-10405666D01*
X11717080Y-10405666D02*
X11726604Y-10358047D01*
X11726604Y-10358047D02*
X11736128Y-10329475D01*
X11736128Y-10329475D02*
X11745651Y-10310428D01*
X11745651Y-10310428D02*
X11764699Y-10281856D01*
X11764699Y-10281856D02*
X11774223Y-10272332D01*
X11878985Y-10386618D02*
X11859937Y-10377094D01*
X11859937Y-10377094D02*
X11850413Y-10367570D01*
X11850413Y-10367570D02*
X11840889Y-10348523D01*
X11840889Y-10348523D02*
X11840889Y-10338999D01*
X11840889Y-10338999D02*
X11850413Y-10319951D01*
X11850413Y-10319951D02*
X11859937Y-10310428D01*
X11859937Y-10310428D02*
X11878985Y-10300904D01*
X11878985Y-10300904D02*
X11917080Y-10300904D01*
X11917080Y-10300904D02*
X11936128Y-10310428D01*
X11936128Y-10310428D02*
X11945651Y-10319951D01*
X11945651Y-10319951D02*
X11955175Y-10338999D01*
X11955175Y-10338999D02*
X11955175Y-10348523D01*
X11955175Y-10348523D02*
X11945651Y-10367570D01*
X11945651Y-10367570D02*
X11936128Y-10377094D01*
X11936128Y-10377094D02*
X11917080Y-10386618D01*
X11917080Y-10386618D02*
X11878985Y-10386618D01*
X11878985Y-10386618D02*
X11859937Y-10396142D01*
X11859937Y-10396142D02*
X11850413Y-10405666D01*
X11850413Y-10405666D02*
X11840889Y-10424713D01*
X11840889Y-10424713D02*
X11840889Y-10462809D01*
X11840889Y-10462809D02*
X11850413Y-10481856D01*
X11850413Y-10481856D02*
X11859937Y-10491380D01*
X11859937Y-10491380D02*
X11878985Y-10500904D01*
X11878985Y-10500904D02*
X11917080Y-10500904D01*
X11917080Y-10500904D02*
X11936128Y-10491380D01*
X11936128Y-10491380D02*
X11945651Y-10481856D01*
X11945651Y-10481856D02*
X11955175Y-10462809D01*
X11955175Y-10462809D02*
X11955175Y-10424713D01*
X11955175Y-10424713D02*
X11945651Y-10405666D01*
X11945651Y-10405666D02*
X11936128Y-10396142D01*
X11936128Y-10396142D02*
X11917080Y-10386618D01*
X12193270Y-10500904D02*
X12193270Y-10300904D01*
X12278985Y-10500904D02*
X12278985Y-10396142D01*
X12278985Y-10396142D02*
X12269461Y-10377094D01*
X12269461Y-10377094D02*
X12250413Y-10367570D01*
X12250413Y-10367570D02*
X12221842Y-10367570D01*
X12221842Y-10367570D02*
X12202794Y-10377094D01*
X12202794Y-10377094D02*
X12193270Y-10386618D01*
X12402794Y-10500904D02*
X12383747Y-10491380D01*
X12383747Y-10491380D02*
X12374223Y-10481856D01*
X12374223Y-10481856D02*
X12364699Y-10462809D01*
X12364699Y-10462809D02*
X12364699Y-10405666D01*
X12364699Y-10405666D02*
X12374223Y-10386618D01*
X12374223Y-10386618D02*
X12383747Y-10377094D01*
X12383747Y-10377094D02*
X12402794Y-10367570D01*
X12402794Y-10367570D02*
X12431366Y-10367570D01*
X12431366Y-10367570D02*
X12450413Y-10377094D01*
X12450413Y-10377094D02*
X12459937Y-10386618D01*
X12459937Y-10386618D02*
X12469461Y-10405666D01*
X12469461Y-10405666D02*
X12469461Y-10462809D01*
X12469461Y-10462809D02*
X12459937Y-10481856D01*
X12459937Y-10481856D02*
X12450413Y-10491380D01*
X12450413Y-10491380D02*
X12431366Y-10500904D01*
X12431366Y-10500904D02*
X12402794Y-10500904D01*
X12583747Y-10500904D02*
X12564699Y-10491380D01*
X12564699Y-10491380D02*
X12555175Y-10472332D01*
X12555175Y-10472332D02*
X12555175Y-10300904D01*
X12736128Y-10491380D02*
X12717080Y-10500904D01*
X12717080Y-10500904D02*
X12678985Y-10500904D01*
X12678985Y-10500904D02*
X12659937Y-10491380D01*
X12659937Y-10491380D02*
X12650413Y-10472332D01*
X12650413Y-10472332D02*
X12650413Y-10396142D01*
X12650413Y-10396142D02*
X12659937Y-10377094D01*
X12659937Y-10377094D02*
X12678985Y-10367570D01*
X12678985Y-10367570D02*
X12717080Y-10367570D01*
X12717080Y-10367570D02*
X12736128Y-10377094D01*
X12736128Y-10377094D02*
X12745651Y-10396142D01*
X12745651Y-10396142D02*
X12745651Y-10415190D01*
X12745651Y-10415190D02*
X12650413Y-10434237D01*
X12821842Y-10491380D02*
X12840890Y-10500904D01*
X12840890Y-10500904D02*
X12878985Y-10500904D01*
X12878985Y-10500904D02*
X12898032Y-10491380D01*
X12898032Y-10491380D02*
X12907556Y-10472332D01*
X12907556Y-10472332D02*
X12907556Y-10462809D01*
X12907556Y-10462809D02*
X12898032Y-10443761D01*
X12898032Y-10443761D02*
X12878985Y-10434237D01*
X12878985Y-10434237D02*
X12850413Y-10434237D01*
X12850413Y-10434237D02*
X12831366Y-10424713D01*
X12831366Y-10424713D02*
X12821842Y-10405666D01*
X12821842Y-10405666D02*
X12821842Y-10396142D01*
X12821842Y-10396142D02*
X12831366Y-10377094D01*
X12831366Y-10377094D02*
X12850413Y-10367570D01*
X12850413Y-10367570D02*
X12878985Y-10367570D01*
X12878985Y-10367570D02*
X12898032Y-10377094D01*
X12974223Y-10577094D02*
X12983747Y-10567570D01*
X12983747Y-10567570D02*
X13002794Y-10538999D01*
X13002794Y-10538999D02*
X13012318Y-10519951D01*
X13012318Y-10519951D02*
X13021842Y-10491380D01*
X13021842Y-10491380D02*
X13031366Y-10443761D01*
X13031366Y-10443761D02*
X13031366Y-10405666D01*
X13031366Y-10405666D02*
X13021842Y-10358047D01*
X13021842Y-10358047D02*
X13012318Y-10329475D01*
X13012318Y-10329475D02*
X13002794Y-10310428D01*
X13002794Y-10310428D02*
X12983747Y-10281856D01*
X12983747Y-10281856D02*
X12974223Y-10272332D01*
X13336128Y-10577094D02*
X13326604Y-10567570D01*
X13326604Y-10567570D02*
X13307556Y-10538999D01*
X13307556Y-10538999D02*
X13298032Y-10519951D01*
X13298032Y-10519951D02*
X13288509Y-10491380D01*
X13288509Y-10491380D02*
X13278985Y-10443761D01*
X13278985Y-10443761D02*
X13278985Y-10405666D01*
X13278985Y-10405666D02*
X13288509Y-10358047D01*
X13288509Y-10358047D02*
X13298032Y-10329475D01*
X13298032Y-10329475D02*
X13307556Y-10310428D01*
X13307556Y-10310428D02*
X13326604Y-10281856D01*
X13326604Y-10281856D02*
X13336128Y-10272332D01*
X13412318Y-10367570D02*
X13412318Y-10500904D01*
X13412318Y-10386618D02*
X13421842Y-10377094D01*
X13421842Y-10377094D02*
X13440890Y-10367570D01*
X13440890Y-10367570D02*
X13469461Y-10367570D01*
X13469461Y-10367570D02*
X13488509Y-10377094D01*
X13488509Y-10377094D02*
X13498032Y-10396142D01*
X13498032Y-10396142D02*
X13498032Y-10500904D01*
X13621842Y-10500904D02*
X13602794Y-10491380D01*
X13602794Y-10491380D02*
X13593271Y-10481856D01*
X13593271Y-10481856D02*
X13583747Y-10462809D01*
X13583747Y-10462809D02*
X13583747Y-10405666D01*
X13583747Y-10405666D02*
X13593271Y-10386618D01*
X13593271Y-10386618D02*
X13602794Y-10377094D01*
X13602794Y-10377094D02*
X13621842Y-10367570D01*
X13621842Y-10367570D02*
X13650413Y-10367570D01*
X13650413Y-10367570D02*
X13669461Y-10377094D01*
X13669461Y-10377094D02*
X13678985Y-10386618D01*
X13678985Y-10386618D02*
X13688509Y-10405666D01*
X13688509Y-10405666D02*
X13688509Y-10462809D01*
X13688509Y-10462809D02*
X13678985Y-10481856D01*
X13678985Y-10481856D02*
X13669461Y-10491380D01*
X13669461Y-10491380D02*
X13650413Y-10500904D01*
X13650413Y-10500904D02*
X13621842Y-10500904D01*
X13745652Y-10367570D02*
X13821842Y-10367570D01*
X13774223Y-10300904D02*
X13774223Y-10472332D01*
X13774223Y-10472332D02*
X13783747Y-10491380D01*
X13783747Y-10491380D02*
X13802794Y-10500904D01*
X13802794Y-10500904D02*
X13821842Y-10500904D01*
X14040890Y-10367570D02*
X14040890Y-10567570D01*
X14040890Y-10377094D02*
X14059937Y-10367570D01*
X14059937Y-10367570D02*
X14098033Y-10367570D01*
X14098033Y-10367570D02*
X14117080Y-10377094D01*
X14117080Y-10377094D02*
X14126604Y-10386618D01*
X14126604Y-10386618D02*
X14136128Y-10405666D01*
X14136128Y-10405666D02*
X14136128Y-10462809D01*
X14136128Y-10462809D02*
X14126604Y-10481856D01*
X14126604Y-10481856D02*
X14117080Y-10491380D01*
X14117080Y-10491380D02*
X14098033Y-10500904D01*
X14098033Y-10500904D02*
X14059937Y-10500904D01*
X14059937Y-10500904D02*
X14040890Y-10491380D01*
X14250413Y-10500904D02*
X14231366Y-10491380D01*
X14231366Y-10491380D02*
X14221842Y-10472332D01*
X14221842Y-10472332D02*
X14221842Y-10300904D01*
X14412318Y-10500904D02*
X14412318Y-10396142D01*
X14412318Y-10396142D02*
X14402794Y-10377094D01*
X14402794Y-10377094D02*
X14383747Y-10367570D01*
X14383747Y-10367570D02*
X14345652Y-10367570D01*
X14345652Y-10367570D02*
X14326604Y-10377094D01*
X14412318Y-10491380D02*
X14393271Y-10500904D01*
X14393271Y-10500904D02*
X14345652Y-10500904D01*
X14345652Y-10500904D02*
X14326604Y-10491380D01*
X14326604Y-10491380D02*
X14317080Y-10472332D01*
X14317080Y-10472332D02*
X14317080Y-10453285D01*
X14317080Y-10453285D02*
X14326604Y-10434237D01*
X14326604Y-10434237D02*
X14345652Y-10424713D01*
X14345652Y-10424713D02*
X14393271Y-10424713D01*
X14393271Y-10424713D02*
X14412318Y-10415190D01*
X14478985Y-10367570D02*
X14555175Y-10367570D01*
X14507556Y-10300904D02*
X14507556Y-10472332D01*
X14507556Y-10472332D02*
X14517080Y-10491380D01*
X14517080Y-10491380D02*
X14536128Y-10500904D01*
X14536128Y-10500904D02*
X14555175Y-10500904D01*
X14698033Y-10491380D02*
X14678985Y-10500904D01*
X14678985Y-10500904D02*
X14640890Y-10500904D01*
X14640890Y-10500904D02*
X14621842Y-10491380D01*
X14621842Y-10491380D02*
X14612318Y-10472332D01*
X14612318Y-10472332D02*
X14612318Y-10396142D01*
X14612318Y-10396142D02*
X14621842Y-10377094D01*
X14621842Y-10377094D02*
X14640890Y-10367570D01*
X14640890Y-10367570D02*
X14678985Y-10367570D01*
X14678985Y-10367570D02*
X14698033Y-10377094D01*
X14698033Y-10377094D02*
X14707556Y-10396142D01*
X14707556Y-10396142D02*
X14707556Y-10415190D01*
X14707556Y-10415190D02*
X14612318Y-10434237D01*
X14878985Y-10500904D02*
X14878985Y-10300904D01*
X14878985Y-10491380D02*
X14859937Y-10500904D01*
X14859937Y-10500904D02*
X14821842Y-10500904D01*
X14821842Y-10500904D02*
X14802794Y-10491380D01*
X14802794Y-10491380D02*
X14793271Y-10481856D01*
X14793271Y-10481856D02*
X14783747Y-10462809D01*
X14783747Y-10462809D02*
X14783747Y-10405666D01*
X14783747Y-10405666D02*
X14793271Y-10386618D01*
X14793271Y-10386618D02*
X14802794Y-10377094D01*
X14802794Y-10377094D02*
X14821842Y-10367570D01*
X14821842Y-10367570D02*
X14859937Y-10367570D01*
X14859937Y-10367570D02*
X14878985Y-10377094D01*
X14955175Y-10577094D02*
X14964699Y-10567570D01*
X14964699Y-10567570D02*
X14983747Y-10538999D01*
X14983747Y-10538999D02*
X14993271Y-10519951D01*
X14993271Y-10519951D02*
X15002794Y-10491380D01*
X15002794Y-10491380D02*
X15012318Y-10443761D01*
X15012318Y-10443761D02*
X15012318Y-10405666D01*
X15012318Y-10405666D02*
X15002794Y-10358047D01*
X15002794Y-10358047D02*
X14993271Y-10329475D01*
X14993271Y-10329475D02*
X14983747Y-10310428D01*
X14983747Y-10310428D02*
X14964699Y-10281856D01*
X14964699Y-10281856D02*
X14955175Y-10272332D01*
X8099160Y-10629420D02*
X8099160Y-10829420D01*
X7999160Y-10729420D02*
X8199160Y-10729420D01*
X8440889Y-10620904D02*
X8564699Y-10620904D01*
X8564699Y-10620904D02*
X8498032Y-10697094D01*
X8498032Y-10697094D02*
X8526604Y-10697094D01*
X8526604Y-10697094D02*
X8545651Y-10706618D01*
X8545651Y-10706618D02*
X8555175Y-10716142D01*
X8555175Y-10716142D02*
X8564699Y-10735190D01*
X8564699Y-10735190D02*
X8564699Y-10782809D01*
X8564699Y-10782809D02*
X8555175Y-10801856D01*
X8555175Y-10801856D02*
X8545651Y-10811380D01*
X8545651Y-10811380D02*
X8526604Y-10820904D01*
X8526604Y-10820904D02*
X8469461Y-10820904D01*
X8469461Y-10820904D02*
X8450413Y-10811380D01*
X8450413Y-10811380D02*
X8440889Y-10801856D01*
X8650413Y-10801856D02*
X8659937Y-10811380D01*
X8659937Y-10811380D02*
X8650413Y-10820904D01*
X8650413Y-10820904D02*
X8640889Y-10811380D01*
X8640889Y-10811380D02*
X8650413Y-10801856D01*
X8650413Y-10801856D02*
X8650413Y-10820904D01*
X8755175Y-10820904D02*
X8793270Y-10820904D01*
X8793270Y-10820904D02*
X8812318Y-10811380D01*
X8812318Y-10811380D02*
X8821842Y-10801856D01*
X8821842Y-10801856D02*
X8840889Y-10773285D01*
X8840889Y-10773285D02*
X8850413Y-10735190D01*
X8850413Y-10735190D02*
X8850413Y-10658999D01*
X8850413Y-10658999D02*
X8840889Y-10639951D01*
X8840889Y-10639951D02*
X8831365Y-10630428D01*
X8831365Y-10630428D02*
X8812318Y-10620904D01*
X8812318Y-10620904D02*
X8774223Y-10620904D01*
X8774223Y-10620904D02*
X8755175Y-10630428D01*
X8755175Y-10630428D02*
X8745651Y-10639951D01*
X8745651Y-10639951D02*
X8736127Y-10658999D01*
X8736127Y-10658999D02*
X8736127Y-10706618D01*
X8736127Y-10706618D02*
X8745651Y-10725666D01*
X8745651Y-10725666D02*
X8755175Y-10735190D01*
X8755175Y-10735190D02*
X8774223Y-10744713D01*
X8774223Y-10744713D02*
X8812318Y-10744713D01*
X8812318Y-10744713D02*
X8831365Y-10735190D01*
X8831365Y-10735190D02*
X8840889Y-10725666D01*
X8840889Y-10725666D02*
X8850413Y-10706618D01*
X8964699Y-10706618D02*
X8945651Y-10697094D01*
X8945651Y-10697094D02*
X8936127Y-10687570D01*
X8936127Y-10687570D02*
X8926604Y-10668523D01*
X8926604Y-10668523D02*
X8926604Y-10658999D01*
X8926604Y-10658999D02*
X8936127Y-10639951D01*
X8936127Y-10639951D02*
X8945651Y-10630428D01*
X8945651Y-10630428D02*
X8964699Y-10620904D01*
X8964699Y-10620904D02*
X9002794Y-10620904D01*
X9002794Y-10620904D02*
X9021842Y-10630428D01*
X9021842Y-10630428D02*
X9031365Y-10639951D01*
X9031365Y-10639951D02*
X9040889Y-10658999D01*
X9040889Y-10658999D02*
X9040889Y-10668523D01*
X9040889Y-10668523D02*
X9031365Y-10687570D01*
X9031365Y-10687570D02*
X9021842Y-10697094D01*
X9021842Y-10697094D02*
X9002794Y-10706618D01*
X9002794Y-10706618D02*
X8964699Y-10706618D01*
X8964699Y-10706618D02*
X8945651Y-10716142D01*
X8945651Y-10716142D02*
X8936127Y-10725666D01*
X8936127Y-10725666D02*
X8926604Y-10744713D01*
X8926604Y-10744713D02*
X8926604Y-10782809D01*
X8926604Y-10782809D02*
X8936127Y-10801856D01*
X8936127Y-10801856D02*
X8945651Y-10811380D01*
X8945651Y-10811380D02*
X8964699Y-10820904D01*
X8964699Y-10820904D02*
X9002794Y-10820904D01*
X9002794Y-10820904D02*
X9021842Y-10811380D01*
X9021842Y-10811380D02*
X9031365Y-10801856D01*
X9031365Y-10801856D02*
X9040889Y-10782809D01*
X9040889Y-10782809D02*
X9040889Y-10744713D01*
X9040889Y-10744713D02*
X9031365Y-10725666D01*
X9031365Y-10725666D02*
X9021842Y-10716142D01*
X9021842Y-10716142D02*
X9002794Y-10706618D01*
X9155175Y-10706618D02*
X9136127Y-10697094D01*
X9136127Y-10697094D02*
X9126604Y-10687570D01*
X9126604Y-10687570D02*
X9117080Y-10668523D01*
X9117080Y-10668523D02*
X9117080Y-10658999D01*
X9117080Y-10658999D02*
X9126604Y-10639951D01*
X9126604Y-10639951D02*
X9136127Y-10630428D01*
X9136127Y-10630428D02*
X9155175Y-10620904D01*
X9155175Y-10620904D02*
X9193270Y-10620904D01*
X9193270Y-10620904D02*
X9212318Y-10630428D01*
X9212318Y-10630428D02*
X9221842Y-10639951D01*
X9221842Y-10639951D02*
X9231365Y-10658999D01*
X9231365Y-10658999D02*
X9231365Y-10668523D01*
X9231365Y-10668523D02*
X9221842Y-10687570D01*
X9221842Y-10687570D02*
X9212318Y-10697094D01*
X9212318Y-10697094D02*
X9193270Y-10706618D01*
X9193270Y-10706618D02*
X9155175Y-10706618D01*
X9155175Y-10706618D02*
X9136127Y-10716142D01*
X9136127Y-10716142D02*
X9126604Y-10725666D01*
X9126604Y-10725666D02*
X9117080Y-10744713D01*
X9117080Y-10744713D02*
X9117080Y-10782809D01*
X9117080Y-10782809D02*
X9126604Y-10801856D01*
X9126604Y-10801856D02*
X9136127Y-10811380D01*
X9136127Y-10811380D02*
X9155175Y-10820904D01*
X9155175Y-10820904D02*
X9193270Y-10820904D01*
X9193270Y-10820904D02*
X9212318Y-10811380D01*
X9212318Y-10811380D02*
X9221842Y-10801856D01*
X9221842Y-10801856D02*
X9231365Y-10782809D01*
X9231365Y-10782809D02*
X9231365Y-10744713D01*
X9231365Y-10744713D02*
X9221842Y-10725666D01*
X9221842Y-10725666D02*
X9212318Y-10716142D01*
X9212318Y-10716142D02*
X9193270Y-10706618D01*
X9317080Y-10820904D02*
X9317080Y-10687570D01*
X9317080Y-10706618D02*
X9326604Y-10697094D01*
X9326604Y-10697094D02*
X9345651Y-10687570D01*
X9345651Y-10687570D02*
X9374223Y-10687570D01*
X9374223Y-10687570D02*
X9393270Y-10697094D01*
X9393270Y-10697094D02*
X9402794Y-10716142D01*
X9402794Y-10716142D02*
X9402794Y-10820904D01*
X9402794Y-10716142D02*
X9412318Y-10697094D01*
X9412318Y-10697094D02*
X9431365Y-10687570D01*
X9431365Y-10687570D02*
X9459937Y-10687570D01*
X9459937Y-10687570D02*
X9478985Y-10697094D01*
X9478985Y-10697094D02*
X9488508Y-10716142D01*
X9488508Y-10716142D02*
X9488508Y-10820904D01*
X9583746Y-10820904D02*
X9583746Y-10687570D01*
X9583746Y-10706618D02*
X9593270Y-10697094D01*
X9593270Y-10697094D02*
X9612318Y-10687570D01*
X9612318Y-10687570D02*
X9640889Y-10687570D01*
X9640889Y-10687570D02*
X9659937Y-10697094D01*
X9659937Y-10697094D02*
X9669461Y-10716142D01*
X9669461Y-10716142D02*
X9669461Y-10820904D01*
X9669461Y-10716142D02*
X9678985Y-10697094D01*
X9678985Y-10697094D02*
X9698032Y-10687570D01*
X9698032Y-10687570D02*
X9726604Y-10687570D01*
X9726604Y-10687570D02*
X9745651Y-10697094D01*
X9745651Y-10697094D02*
X9755175Y-10716142D01*
X9755175Y-10716142D02*
X9755175Y-10820904D01*
X10145651Y-10611380D02*
X9974223Y-10868523D01*
X10402794Y-10620904D02*
X10421842Y-10620904D01*
X10421842Y-10620904D02*
X10440889Y-10630428D01*
X10440889Y-10630428D02*
X10450413Y-10639951D01*
X10450413Y-10639951D02*
X10459937Y-10658999D01*
X10459937Y-10658999D02*
X10469461Y-10697094D01*
X10469461Y-10697094D02*
X10469461Y-10744713D01*
X10469461Y-10744713D02*
X10459937Y-10782809D01*
X10459937Y-10782809D02*
X10450413Y-10801856D01*
X10450413Y-10801856D02*
X10440889Y-10811380D01*
X10440889Y-10811380D02*
X10421842Y-10820904D01*
X10421842Y-10820904D02*
X10402794Y-10820904D01*
X10402794Y-10820904D02*
X10383747Y-10811380D01*
X10383747Y-10811380D02*
X10374223Y-10801856D01*
X10374223Y-10801856D02*
X10364699Y-10782809D01*
X10364699Y-10782809D02*
X10355175Y-10744713D01*
X10355175Y-10744713D02*
X10355175Y-10697094D01*
X10355175Y-10697094D02*
X10364699Y-10658999D01*
X10364699Y-10658999D02*
X10374223Y-10639951D01*
X10374223Y-10639951D02*
X10383747Y-10630428D01*
X10383747Y-10630428D02*
X10402794Y-10620904D01*
X10555175Y-10801856D02*
X10564699Y-10811380D01*
X10564699Y-10811380D02*
X10555175Y-10820904D01*
X10555175Y-10820904D02*
X10545651Y-10811380D01*
X10545651Y-10811380D02*
X10555175Y-10801856D01*
X10555175Y-10801856D02*
X10555175Y-10820904D01*
X10755175Y-10820904D02*
X10640889Y-10820904D01*
X10698032Y-10820904D02*
X10698032Y-10620904D01*
X10698032Y-10620904D02*
X10678985Y-10649475D01*
X10678985Y-10649475D02*
X10659937Y-10668523D01*
X10659937Y-10668523D02*
X10640889Y-10678047D01*
X10936128Y-10620904D02*
X10840889Y-10620904D01*
X10840889Y-10620904D02*
X10831366Y-10716142D01*
X10831366Y-10716142D02*
X10840889Y-10706618D01*
X10840889Y-10706618D02*
X10859937Y-10697094D01*
X10859937Y-10697094D02*
X10907556Y-10697094D01*
X10907556Y-10697094D02*
X10926604Y-10706618D01*
X10926604Y-10706618D02*
X10936128Y-10716142D01*
X10936128Y-10716142D02*
X10945651Y-10735190D01*
X10945651Y-10735190D02*
X10945651Y-10782809D01*
X10945651Y-10782809D02*
X10936128Y-10801856D01*
X10936128Y-10801856D02*
X10926604Y-10811380D01*
X10926604Y-10811380D02*
X10907556Y-10820904D01*
X10907556Y-10820904D02*
X10859937Y-10820904D01*
X10859937Y-10820904D02*
X10840889Y-10811380D01*
X10840889Y-10811380D02*
X10831366Y-10801856D01*
X11012318Y-10620904D02*
X11145651Y-10620904D01*
X11145651Y-10620904D02*
X11059937Y-10820904D01*
X11259937Y-10620904D02*
X11278985Y-10620904D01*
X11278985Y-10620904D02*
X11298032Y-10630428D01*
X11298032Y-10630428D02*
X11307556Y-10639951D01*
X11307556Y-10639951D02*
X11317080Y-10658999D01*
X11317080Y-10658999D02*
X11326604Y-10697094D01*
X11326604Y-10697094D02*
X11326604Y-10744713D01*
X11326604Y-10744713D02*
X11317080Y-10782809D01*
X11317080Y-10782809D02*
X11307556Y-10801856D01*
X11307556Y-10801856D02*
X11298032Y-10811380D01*
X11298032Y-10811380D02*
X11278985Y-10820904D01*
X11278985Y-10820904D02*
X11259937Y-10820904D01*
X11259937Y-10820904D02*
X11240889Y-10811380D01*
X11240889Y-10811380D02*
X11231366Y-10801856D01*
X11231366Y-10801856D02*
X11221842Y-10782809D01*
X11221842Y-10782809D02*
X11212318Y-10744713D01*
X11212318Y-10744713D02*
X11212318Y-10697094D01*
X11212318Y-10697094D02*
X11221842Y-10658999D01*
X11221842Y-10658999D02*
X11231366Y-10639951D01*
X11231366Y-10639951D02*
X11240889Y-10630428D01*
X11240889Y-10630428D02*
X11259937Y-10620904D01*
X11402794Y-10620904D02*
X11402794Y-10658999D01*
X11478985Y-10620904D02*
X11478985Y-10658999D01*
X11774223Y-10897094D02*
X11764699Y-10887570D01*
X11764699Y-10887570D02*
X11745651Y-10858999D01*
X11745651Y-10858999D02*
X11736128Y-10839951D01*
X11736128Y-10839951D02*
X11726604Y-10811380D01*
X11726604Y-10811380D02*
X11717080Y-10763761D01*
X11717080Y-10763761D02*
X11717080Y-10725666D01*
X11717080Y-10725666D02*
X11726604Y-10678047D01*
X11726604Y-10678047D02*
X11736128Y-10649475D01*
X11736128Y-10649475D02*
X11745651Y-10630428D01*
X11745651Y-10630428D02*
X11764699Y-10601856D01*
X11764699Y-10601856D02*
X11774223Y-10592332D01*
X11936128Y-10687570D02*
X11936128Y-10820904D01*
X11888508Y-10611380D02*
X11840889Y-10754237D01*
X11840889Y-10754237D02*
X11964699Y-10754237D01*
X12193270Y-10820904D02*
X12193270Y-10620904D01*
X12278985Y-10820904D02*
X12278985Y-10716142D01*
X12278985Y-10716142D02*
X12269461Y-10697094D01*
X12269461Y-10697094D02*
X12250413Y-10687570D01*
X12250413Y-10687570D02*
X12221842Y-10687570D01*
X12221842Y-10687570D02*
X12202794Y-10697094D01*
X12202794Y-10697094D02*
X12193270Y-10706618D01*
X12402794Y-10820904D02*
X12383747Y-10811380D01*
X12383747Y-10811380D02*
X12374223Y-10801856D01*
X12374223Y-10801856D02*
X12364699Y-10782809D01*
X12364699Y-10782809D02*
X12364699Y-10725666D01*
X12364699Y-10725666D02*
X12374223Y-10706618D01*
X12374223Y-10706618D02*
X12383747Y-10697094D01*
X12383747Y-10697094D02*
X12402794Y-10687570D01*
X12402794Y-10687570D02*
X12431366Y-10687570D01*
X12431366Y-10687570D02*
X12450413Y-10697094D01*
X12450413Y-10697094D02*
X12459937Y-10706618D01*
X12459937Y-10706618D02*
X12469461Y-10725666D01*
X12469461Y-10725666D02*
X12469461Y-10782809D01*
X12469461Y-10782809D02*
X12459937Y-10801856D01*
X12459937Y-10801856D02*
X12450413Y-10811380D01*
X12450413Y-10811380D02*
X12431366Y-10820904D01*
X12431366Y-10820904D02*
X12402794Y-10820904D01*
X12583747Y-10820904D02*
X12564699Y-10811380D01*
X12564699Y-10811380D02*
X12555175Y-10792332D01*
X12555175Y-10792332D02*
X12555175Y-10620904D01*
X12736128Y-10811380D02*
X12717080Y-10820904D01*
X12717080Y-10820904D02*
X12678985Y-10820904D01*
X12678985Y-10820904D02*
X12659937Y-10811380D01*
X12659937Y-10811380D02*
X12650413Y-10792332D01*
X12650413Y-10792332D02*
X12650413Y-10716142D01*
X12650413Y-10716142D02*
X12659937Y-10697094D01*
X12659937Y-10697094D02*
X12678985Y-10687570D01*
X12678985Y-10687570D02*
X12717080Y-10687570D01*
X12717080Y-10687570D02*
X12736128Y-10697094D01*
X12736128Y-10697094D02*
X12745651Y-10716142D01*
X12745651Y-10716142D02*
X12745651Y-10735190D01*
X12745651Y-10735190D02*
X12650413Y-10754237D01*
X12821842Y-10811380D02*
X12840890Y-10820904D01*
X12840890Y-10820904D02*
X12878985Y-10820904D01*
X12878985Y-10820904D02*
X12898032Y-10811380D01*
X12898032Y-10811380D02*
X12907556Y-10792332D01*
X12907556Y-10792332D02*
X12907556Y-10782809D01*
X12907556Y-10782809D02*
X12898032Y-10763761D01*
X12898032Y-10763761D02*
X12878985Y-10754237D01*
X12878985Y-10754237D02*
X12850413Y-10754237D01*
X12850413Y-10754237D02*
X12831366Y-10744713D01*
X12831366Y-10744713D02*
X12821842Y-10725666D01*
X12821842Y-10725666D02*
X12821842Y-10716142D01*
X12821842Y-10716142D02*
X12831366Y-10697094D01*
X12831366Y-10697094D02*
X12850413Y-10687570D01*
X12850413Y-10687570D02*
X12878985Y-10687570D01*
X12878985Y-10687570D02*
X12898032Y-10697094D01*
X12974223Y-10897094D02*
X12983747Y-10887570D01*
X12983747Y-10887570D02*
X13002794Y-10858999D01*
X13002794Y-10858999D02*
X13012318Y-10839951D01*
X13012318Y-10839951D02*
X13021842Y-10811380D01*
X13021842Y-10811380D02*
X13031366Y-10763761D01*
X13031366Y-10763761D02*
X13031366Y-10725666D01*
X13031366Y-10725666D02*
X13021842Y-10678047D01*
X13021842Y-10678047D02*
X13012318Y-10649475D01*
X13012318Y-10649475D02*
X13002794Y-10630428D01*
X13002794Y-10630428D02*
X12983747Y-10601856D01*
X12983747Y-10601856D02*
X12974223Y-10592332D01*
X13336128Y-10897094D02*
X13326604Y-10887570D01*
X13326604Y-10887570D02*
X13307556Y-10858999D01*
X13307556Y-10858999D02*
X13298032Y-10839951D01*
X13298032Y-10839951D02*
X13288509Y-10811380D01*
X13288509Y-10811380D02*
X13278985Y-10763761D01*
X13278985Y-10763761D02*
X13278985Y-10725666D01*
X13278985Y-10725666D02*
X13288509Y-10678047D01*
X13288509Y-10678047D02*
X13298032Y-10649475D01*
X13298032Y-10649475D02*
X13307556Y-10630428D01*
X13307556Y-10630428D02*
X13326604Y-10601856D01*
X13326604Y-10601856D02*
X13336128Y-10592332D01*
X13412318Y-10687570D02*
X13412318Y-10820904D01*
X13412318Y-10706618D02*
X13421842Y-10697094D01*
X13421842Y-10697094D02*
X13440890Y-10687570D01*
X13440890Y-10687570D02*
X13469461Y-10687570D01*
X13469461Y-10687570D02*
X13488509Y-10697094D01*
X13488509Y-10697094D02*
X13498032Y-10716142D01*
X13498032Y-10716142D02*
X13498032Y-10820904D01*
X13621842Y-10820904D02*
X13602794Y-10811380D01*
X13602794Y-10811380D02*
X13593271Y-10801856D01*
X13593271Y-10801856D02*
X13583747Y-10782809D01*
X13583747Y-10782809D02*
X13583747Y-10725666D01*
X13583747Y-10725666D02*
X13593271Y-10706618D01*
X13593271Y-10706618D02*
X13602794Y-10697094D01*
X13602794Y-10697094D02*
X13621842Y-10687570D01*
X13621842Y-10687570D02*
X13650413Y-10687570D01*
X13650413Y-10687570D02*
X13669461Y-10697094D01*
X13669461Y-10697094D02*
X13678985Y-10706618D01*
X13678985Y-10706618D02*
X13688509Y-10725666D01*
X13688509Y-10725666D02*
X13688509Y-10782809D01*
X13688509Y-10782809D02*
X13678985Y-10801856D01*
X13678985Y-10801856D02*
X13669461Y-10811380D01*
X13669461Y-10811380D02*
X13650413Y-10820904D01*
X13650413Y-10820904D02*
X13621842Y-10820904D01*
X13745652Y-10687570D02*
X13821842Y-10687570D01*
X13774223Y-10620904D02*
X13774223Y-10792332D01*
X13774223Y-10792332D02*
X13783747Y-10811380D01*
X13783747Y-10811380D02*
X13802794Y-10820904D01*
X13802794Y-10820904D02*
X13821842Y-10820904D01*
X14040890Y-10687570D02*
X14040890Y-10887570D01*
X14040890Y-10697094D02*
X14059937Y-10687570D01*
X14059937Y-10687570D02*
X14098033Y-10687570D01*
X14098033Y-10687570D02*
X14117080Y-10697094D01*
X14117080Y-10697094D02*
X14126604Y-10706618D01*
X14126604Y-10706618D02*
X14136128Y-10725666D01*
X14136128Y-10725666D02*
X14136128Y-10782809D01*
X14136128Y-10782809D02*
X14126604Y-10801856D01*
X14126604Y-10801856D02*
X14117080Y-10811380D01*
X14117080Y-10811380D02*
X14098033Y-10820904D01*
X14098033Y-10820904D02*
X14059937Y-10820904D01*
X14059937Y-10820904D02*
X14040890Y-10811380D01*
X14250413Y-10820904D02*
X14231366Y-10811380D01*
X14231366Y-10811380D02*
X14221842Y-10792332D01*
X14221842Y-10792332D02*
X14221842Y-10620904D01*
X14412318Y-10820904D02*
X14412318Y-10716142D01*
X14412318Y-10716142D02*
X14402794Y-10697094D01*
X14402794Y-10697094D02*
X14383747Y-10687570D01*
X14383747Y-10687570D02*
X14345652Y-10687570D01*
X14345652Y-10687570D02*
X14326604Y-10697094D01*
X14412318Y-10811380D02*
X14393271Y-10820904D01*
X14393271Y-10820904D02*
X14345652Y-10820904D01*
X14345652Y-10820904D02*
X14326604Y-10811380D01*
X14326604Y-10811380D02*
X14317080Y-10792332D01*
X14317080Y-10792332D02*
X14317080Y-10773285D01*
X14317080Y-10773285D02*
X14326604Y-10754237D01*
X14326604Y-10754237D02*
X14345652Y-10744713D01*
X14345652Y-10744713D02*
X14393271Y-10744713D01*
X14393271Y-10744713D02*
X14412318Y-10735190D01*
X14478985Y-10687570D02*
X14555175Y-10687570D01*
X14507556Y-10620904D02*
X14507556Y-10792332D01*
X14507556Y-10792332D02*
X14517080Y-10811380D01*
X14517080Y-10811380D02*
X14536128Y-10820904D01*
X14536128Y-10820904D02*
X14555175Y-10820904D01*
X14698033Y-10811380D02*
X14678985Y-10820904D01*
X14678985Y-10820904D02*
X14640890Y-10820904D01*
X14640890Y-10820904D02*
X14621842Y-10811380D01*
X14621842Y-10811380D02*
X14612318Y-10792332D01*
X14612318Y-10792332D02*
X14612318Y-10716142D01*
X14612318Y-10716142D02*
X14621842Y-10697094D01*
X14621842Y-10697094D02*
X14640890Y-10687570D01*
X14640890Y-10687570D02*
X14678985Y-10687570D01*
X14678985Y-10687570D02*
X14698033Y-10697094D01*
X14698033Y-10697094D02*
X14707556Y-10716142D01*
X14707556Y-10716142D02*
X14707556Y-10735190D01*
X14707556Y-10735190D02*
X14612318Y-10754237D01*
X14878985Y-10820904D02*
X14878985Y-10620904D01*
X14878985Y-10811380D02*
X14859937Y-10820904D01*
X14859937Y-10820904D02*
X14821842Y-10820904D01*
X14821842Y-10820904D02*
X14802794Y-10811380D01*
X14802794Y-10811380D02*
X14793271Y-10801856D01*
X14793271Y-10801856D02*
X14783747Y-10782809D01*
X14783747Y-10782809D02*
X14783747Y-10725666D01*
X14783747Y-10725666D02*
X14793271Y-10706618D01*
X14793271Y-10706618D02*
X14802794Y-10697094D01*
X14802794Y-10697094D02*
X14821842Y-10687570D01*
X14821842Y-10687570D02*
X14859937Y-10687570D01*
X14859937Y-10687570D02*
X14878985Y-10697094D01*
X14955175Y-10897094D02*
X14964699Y-10887570D01*
X14964699Y-10887570D02*
X14983747Y-10858999D01*
X14983747Y-10858999D02*
X14993271Y-10839951D01*
X14993271Y-10839951D02*
X15002794Y-10811380D01*
X15002794Y-10811380D02*
X15012318Y-10763761D01*
X15012318Y-10763761D02*
X15012318Y-10725666D01*
X15012318Y-10725666D02*
X15002794Y-10678047D01*
X15002794Y-10678047D02*
X14993271Y-10649475D01*
X14993271Y-10649475D02*
X14983747Y-10630428D01*
X14983747Y-10630428D02*
X14964699Y-10601856D01*
X14964699Y-10601856D02*
X14955175Y-10592332D01*
M02*
