M48
; DRILL file {KiCad 8.0.8} date 2025-06-15T23:17:13+0800
; FORMAT={-:-/ absolute / inch / decimal}
; #@! TF.CreationDate,2025-06-15T23:17:13+08:00
; #@! TF.GenerationSoftware,Kicad,Pcbnew,8.0.8
; #@! TF.FileFunction,Plated,1,2,PTH
FMAT,2
INCH
; #@! TA.AperFunction,Plated,PTH,ViaDrill
T1C0.0118
; #@! TA.AperFunction,Plated,PTH,ComponentDrill
T2C0.0394
%
G90
G05
T1
X3.8976Y-2.254
X3.8986Y-1.488
X4.6606Y-1.488
X4.6606Y-2.255
T2
X3.464Y-2.942
X3.465Y-3.543
X3.564Y-2.942
X3.565Y-3.543
X3.664Y-2.942
X3.665Y-3.543
X3.764Y-2.942
X3.765Y-3.543
X3.864Y-2.942
X3.865Y-3.543
X3.964Y-2.942
X3.965Y-3.543
X4.064Y-2.942
X4.065Y-3.543
X4.164Y-2.942
X4.165Y-3.543
X4.264Y-2.942
X4.265Y-3.543
X4.364Y-2.942
X4.365Y-3.543
X4.464Y-2.942
X4.465Y-3.543
X4.564Y-2.942
X4.565Y-3.543
X4.664Y-2.942
X4.665Y-3.543
X4.764Y-2.942
X4.765Y-3.543
X4.864Y-2.942
X4.865Y-3.543
X4.964Y-2.942
X4.965Y-3.543
X5.064Y-2.942
X5.065Y-3.543
X5.164Y-2.942
X5.165Y-3.543
X5.264Y-2.942
X5.265Y-3.543
X5.364Y-2.942
X5.365Y-3.543
X5.782Y-3.156
X5.782Y-3.256
X5.782Y-3.356
X5.782Y-3.456
M30
