%TF.GenerationSoftware,KiCad,Pcbnew,8.0.8*%
%TF.CreationDate,2025-06-15T23:17:14+08:00*%
%TF.ProjectId,2x2,3278322e-6b69-4636-9164-5f7063625858,rev?*%
%TF.SameCoordinates,Original*%
%TF.FileFunction,Profile,NP*%
%FSLAX46Y46*%
G04 Gerber Fmt 4.6, Leading zero omitted, Abs format (unit mm)*
G04 Created by KiCad (PCBNEW 8.0.8) date 2025-06-15 23:17:14*
%MOMM*%
%LPD*%
G01*
G04 APERTURE LIST*
%ADD10C,0.150000*%
%TA.AperFunction,Profile*%
%ADD11C,0.050000*%
%TD*%
G04 APERTURE END LIST*
D10*
X128222598Y-32995485D02*
X128294026Y-32924057D01*
X128294026Y-32924057D02*
X128436884Y-32852628D01*
X128436884Y-32852628D02*
X128794026Y-32852628D01*
X128794026Y-32852628D02*
X128936884Y-32924057D01*
X128936884Y-32924057D02*
X129008312Y-32995485D01*
X129008312Y-32995485D02*
X129079741Y-33138342D01*
X129079741Y-33138342D02*
X129079741Y-33281200D01*
X129079741Y-33281200D02*
X129008312Y-33495485D01*
X129008312Y-33495485D02*
X128151169Y-34352628D01*
X128151169Y-34352628D02*
X129079741Y-34352628D01*
X129579740Y-34352628D02*
X130365455Y-33352628D01*
X129579740Y-33352628D02*
X130365455Y-34352628D01*
X130865455Y-32995485D02*
X130936883Y-32924057D01*
X130936883Y-32924057D02*
X131079741Y-32852628D01*
X131079741Y-32852628D02*
X131436883Y-32852628D01*
X131436883Y-32852628D02*
X131579741Y-32924057D01*
X131579741Y-32924057D02*
X131651169Y-32995485D01*
X131651169Y-32995485D02*
X131722598Y-33138342D01*
X131722598Y-33138342D02*
X131722598Y-33281200D01*
X131722598Y-33281200D02*
X131651169Y-33495485D01*
X131651169Y-33495485D02*
X130794026Y-34352628D01*
X130794026Y-34352628D02*
X131722598Y-34352628D01*
X133508311Y-34352628D02*
X133508311Y-32852628D01*
X134365454Y-34352628D02*
X133722597Y-33495485D01*
X134365454Y-32852628D02*
X133508311Y-33709771D01*
X135579740Y-34281200D02*
X135436883Y-34352628D01*
X135436883Y-34352628D02*
X135151169Y-34352628D01*
X135151169Y-34352628D02*
X135008311Y-34281200D01*
X135008311Y-34281200D02*
X134936883Y-34138342D01*
X134936883Y-34138342D02*
X134936883Y-33566914D01*
X134936883Y-33566914D02*
X135008311Y-33424057D01*
X135008311Y-33424057D02*
X135151169Y-33352628D01*
X135151169Y-33352628D02*
X135436883Y-33352628D01*
X135436883Y-33352628D02*
X135579740Y-33424057D01*
X135579740Y-33424057D02*
X135651169Y-33566914D01*
X135651169Y-33566914D02*
X135651169Y-33709771D01*
X135651169Y-33709771D02*
X134936883Y-33852628D01*
X136151168Y-33352628D02*
X136508311Y-34352628D01*
X136865454Y-33352628D02*
X136508311Y-34352628D01*
X136508311Y-34352628D02*
X136365454Y-34709771D01*
X136365454Y-34709771D02*
X136294025Y-34781200D01*
X136294025Y-34781200D02*
X136151168Y-34852628D01*
X137436882Y-34352628D02*
X137436882Y-32852628D01*
X137436882Y-33424057D02*
X137579740Y-33352628D01*
X137579740Y-33352628D02*
X137865454Y-33352628D01*
X137865454Y-33352628D02*
X138008311Y-33424057D01*
X138008311Y-33424057D02*
X138079740Y-33495485D01*
X138079740Y-33495485D02*
X138151168Y-33638342D01*
X138151168Y-33638342D02*
X138151168Y-34066914D01*
X138151168Y-34066914D02*
X138079740Y-34209771D01*
X138079740Y-34209771D02*
X138008311Y-34281200D01*
X138008311Y-34281200D02*
X137865454Y-34352628D01*
X137865454Y-34352628D02*
X137579740Y-34352628D01*
X137579740Y-34352628D02*
X137436882Y-34281200D01*
X139008311Y-34352628D02*
X138865454Y-34281200D01*
X138865454Y-34281200D02*
X138794025Y-34209771D01*
X138794025Y-34209771D02*
X138722597Y-34066914D01*
X138722597Y-34066914D02*
X138722597Y-33638342D01*
X138722597Y-33638342D02*
X138794025Y-33495485D01*
X138794025Y-33495485D02*
X138865454Y-33424057D01*
X138865454Y-33424057D02*
X139008311Y-33352628D01*
X139008311Y-33352628D02*
X139222597Y-33352628D01*
X139222597Y-33352628D02*
X139365454Y-33424057D01*
X139365454Y-33424057D02*
X139436883Y-33495485D01*
X139436883Y-33495485D02*
X139508311Y-33638342D01*
X139508311Y-33638342D02*
X139508311Y-34066914D01*
X139508311Y-34066914D02*
X139436883Y-34209771D01*
X139436883Y-34209771D02*
X139365454Y-34281200D01*
X139365454Y-34281200D02*
X139222597Y-34352628D01*
X139222597Y-34352628D02*
X139008311Y-34352628D01*
X140794026Y-34352628D02*
X140794026Y-33566914D01*
X140794026Y-33566914D02*
X140722597Y-33424057D01*
X140722597Y-33424057D02*
X140579740Y-33352628D01*
X140579740Y-33352628D02*
X140294026Y-33352628D01*
X140294026Y-33352628D02*
X140151168Y-33424057D01*
X140794026Y-34281200D02*
X140651168Y-34352628D01*
X140651168Y-34352628D02*
X140294026Y-34352628D01*
X140294026Y-34352628D02*
X140151168Y-34281200D01*
X140151168Y-34281200D02*
X140079740Y-34138342D01*
X140079740Y-34138342D02*
X140079740Y-33995485D01*
X140079740Y-33995485D02*
X140151168Y-33852628D01*
X140151168Y-33852628D02*
X140294026Y-33781200D01*
X140294026Y-33781200D02*
X140651168Y-33781200D01*
X140651168Y-33781200D02*
X140794026Y-33709771D01*
X141508311Y-34352628D02*
X141508311Y-33352628D01*
X141508311Y-33638342D02*
X141579740Y-33495485D01*
X141579740Y-33495485D02*
X141651169Y-33424057D01*
X141651169Y-33424057D02*
X141794026Y-33352628D01*
X141794026Y-33352628D02*
X141936883Y-33352628D01*
X143079740Y-34352628D02*
X143079740Y-32852628D01*
X143079740Y-34281200D02*
X142936882Y-34352628D01*
X142936882Y-34352628D02*
X142651168Y-34352628D01*
X142651168Y-34352628D02*
X142508311Y-34281200D01*
X142508311Y-34281200D02*
X142436882Y-34209771D01*
X142436882Y-34209771D02*
X142365454Y-34066914D01*
X142365454Y-34066914D02*
X142365454Y-33638342D01*
X142365454Y-33638342D02*
X142436882Y-33495485D01*
X142436882Y-33495485D02*
X142508311Y-33424057D01*
X142508311Y-33424057D02*
X142651168Y-33352628D01*
X142651168Y-33352628D02*
X142936882Y-33352628D01*
X142936882Y-33352628D02*
X143079740Y-33424057D01*
X145436882Y-33566914D02*
X145651168Y-33638342D01*
X145651168Y-33638342D02*
X145722597Y-33709771D01*
X145722597Y-33709771D02*
X145794025Y-33852628D01*
X145794025Y-33852628D02*
X145794025Y-34066914D01*
X145794025Y-34066914D02*
X145722597Y-34209771D01*
X145722597Y-34209771D02*
X145651168Y-34281200D01*
X145651168Y-34281200D02*
X145508311Y-34352628D01*
X145508311Y-34352628D02*
X144936882Y-34352628D01*
X144936882Y-34352628D02*
X144936882Y-32852628D01*
X144936882Y-32852628D02*
X145436882Y-32852628D01*
X145436882Y-32852628D02*
X145579740Y-32924057D01*
X145579740Y-32924057D02*
X145651168Y-32995485D01*
X145651168Y-32995485D02*
X145722597Y-33138342D01*
X145722597Y-33138342D02*
X145722597Y-33281200D01*
X145722597Y-33281200D02*
X145651168Y-33424057D01*
X145651168Y-33424057D02*
X145579740Y-33495485D01*
X145579740Y-33495485D02*
X145436882Y-33566914D01*
X145436882Y-33566914D02*
X144936882Y-33566914D01*
X146294025Y-33352628D02*
X146651168Y-34352628D01*
X147008311Y-33352628D02*
X146651168Y-34352628D01*
X146651168Y-34352628D02*
X146508311Y-34709771D01*
X146508311Y-34709771D02*
X146436882Y-34781200D01*
X146436882Y-34781200D02*
X146294025Y-34852628D01*
X149222596Y-33566914D02*
X149436882Y-33638342D01*
X149436882Y-33638342D02*
X149508311Y-33709771D01*
X149508311Y-33709771D02*
X149579739Y-33852628D01*
X149579739Y-33852628D02*
X149579739Y-34066914D01*
X149579739Y-34066914D02*
X149508311Y-34209771D01*
X149508311Y-34209771D02*
X149436882Y-34281200D01*
X149436882Y-34281200D02*
X149294025Y-34352628D01*
X149294025Y-34352628D02*
X148722596Y-34352628D01*
X148722596Y-34352628D02*
X148722596Y-32852628D01*
X148722596Y-32852628D02*
X149222596Y-32852628D01*
X149222596Y-32852628D02*
X149365454Y-32924057D01*
X149365454Y-32924057D02*
X149436882Y-32995485D01*
X149436882Y-32995485D02*
X149508311Y-33138342D01*
X149508311Y-33138342D02*
X149508311Y-33281200D01*
X149508311Y-33281200D02*
X149436882Y-33424057D01*
X149436882Y-33424057D02*
X149365454Y-33495485D01*
X149365454Y-33495485D02*
X149222596Y-33566914D01*
X149222596Y-33566914D02*
X148722596Y-33566914D01*
D11*
X82016600Y-31800800D02*
X150622000Y-31800800D01*
X150622000Y-94767400D01*
X82016600Y-94767400D01*
X82016600Y-31800800D01*
M02*
