%TF.GenerationSoftware,KiCad,Pcbnew,8.0.8*%
%TF.CreationDate,2025-06-15T19:23:17+08:00*%
%TF.ProjectId,USB_C_Connector,5553425f-435f-4436-9f6e-6e6563746f72,rev?*%
%TF.SameCoordinates,Original*%
%TF.FileFunction,Drillmap*%
%TF.FilePolarity,Positive*%
%FSLAX45Y45*%
G04 Gerber Fmt 4.5, Leading zero omitted, Abs format (unit mm)*
G04 Created by KiCad (PCBNEW 8.0.8) date 2025-06-15 19:23:17*
%MOMM*%
%LPD*%
G01*
G04 APERTURE LIST*
%ADD10C,0.050000*%
%ADD11C,0.200000*%
%ADD12C,0.100000*%
G04 APERTURE END LIST*
D10*
X3482340Y-4353560D02*
X6451600Y-4353560D01*
X6451600Y-5819140D01*
X3482340Y-5819140D01*
X3482340Y-4353560D01*
D11*
D12*
X3840530Y-5275820D02*
X3870530Y-5305820D01*
X3870530Y-5275820D02*
X3840530Y-5305820D01*
X3840720Y-4976100D02*
X3870720Y-5006100D01*
X3870720Y-4976100D02*
X3840720Y-5006100D01*
X4141080Y-4775560D02*
X4171080Y-4805560D01*
X4171080Y-4775560D02*
X4141080Y-4805560D01*
X4141080Y-4855560D02*
X4171080Y-4885560D01*
X4171080Y-4855560D02*
X4141080Y-4885560D01*
X4141080Y-5345560D02*
X4171080Y-5375560D01*
X4171080Y-5345560D02*
X4141080Y-5375560D01*
X4141080Y-5425560D02*
X4171080Y-5455560D01*
X4171080Y-5425560D02*
X4141080Y-5455560D01*
X4351260Y-5519550D02*
X4381260Y-5549550D01*
X4381260Y-5519550D02*
X4351260Y-5549550D01*
X4557550Y-4898770D02*
X4587550Y-4928770D01*
X4587550Y-4898770D02*
X4557550Y-4928770D01*
X4602720Y-5438380D02*
X4632720Y-5468380D01*
X4632720Y-5438380D02*
X4602720Y-5468380D01*
X4785050Y-4993770D02*
X4815050Y-5023770D01*
X4815050Y-4993770D02*
X4785050Y-5023770D01*
X4785490Y-4635740D02*
X4815490Y-4665740D01*
X4815490Y-4635740D02*
X4785490Y-4665740D01*
X5184610Y-4828590D02*
X5214610Y-4858590D01*
X5214610Y-4828590D02*
X5184610Y-4858590D01*
X5184610Y-5047030D02*
X5214610Y-5077030D01*
X5214610Y-5047030D02*
X5184610Y-5077030D01*
X5547600Y-5169140D02*
X5577600Y-5199140D01*
X5577600Y-5169140D02*
X5547600Y-5199140D01*
X3676580Y-4683560D02*
G75*
G02*
X3616580Y-4683560I-30000J0D01*
G01*
X3616580Y-4683560D02*
G75*
G02*
X3676580Y-4683560I30000J0D01*
G01*
X3676580Y-4653560D02*
X3616580Y-4653560D01*
X3616580Y-4713560D02*
G75*
G02*
X3616580Y-4653560I0J30000D01*
G01*
X3616580Y-4713560D02*
X3676580Y-4713560D01*
X3676580Y-4713560D02*
G75*
G03*
X3676580Y-4653560I0J30000D01*
G01*
X3676580Y-5547560D02*
G75*
G02*
X3616580Y-5547560I-30000J0D01*
G01*
X3616580Y-5547560D02*
G75*
G02*
X3676580Y-5547560I30000J0D01*
G01*
X3676580Y-5517560D02*
X3616580Y-5517560D01*
X3616580Y-5577560D02*
G75*
G02*
X3616580Y-5517560I0J30000D01*
G01*
X3616580Y-5577560D02*
X3676580Y-5577560D01*
X3676580Y-5577560D02*
G75*
G03*
X3676580Y-5517560I0J30000D01*
G01*
X4094580Y-4683560D02*
G75*
G02*
X4034580Y-4683560I-30000J0D01*
G01*
X4034580Y-4683560D02*
G75*
G02*
X4094580Y-4683560I30000J0D01*
G01*
X4119580Y-4653560D02*
X4009580Y-4653560D01*
X4009580Y-4713560D02*
G75*
G02*
X4009580Y-4653560I0J30000D01*
G01*
X4009580Y-4713560D02*
X4119580Y-4713560D01*
X4119580Y-4713560D02*
G75*
G03*
X4119580Y-4653560I0J30000D01*
G01*
X4094580Y-5547560D02*
G75*
G02*
X4034580Y-5547560I-30000J0D01*
G01*
X4034580Y-5547560D02*
G75*
G02*
X4094580Y-5547560I30000J0D01*
G01*
X4119580Y-5517560D02*
X4009580Y-5517560D01*
X4009580Y-5577560D02*
G75*
G02*
X4009580Y-5517560I0J30000D01*
G01*
X4009580Y-5577560D02*
X4119580Y-5577560D01*
X4119580Y-5577560D02*
G75*
G03*
X4119580Y-5517560I0J30000D01*
G01*
X5880100Y-4534700D02*
X5880100Y-4634700D01*
X5830100Y-4584700D02*
X5930100Y-4584700D01*
X5880100Y-4788700D02*
X5880100Y-4888700D01*
X5830100Y-4838700D02*
X5930100Y-4838700D01*
X5880100Y-5042700D02*
X5880100Y-5142700D01*
X5830100Y-5092700D02*
X5930100Y-5092700D01*
X5880100Y-5296700D02*
X5880100Y-5396700D01*
X5830100Y-5346700D02*
X5930100Y-5346700D01*
X5880100Y-5550700D02*
X5880100Y-5650700D01*
X5830100Y-5600700D02*
X5930100Y-5600700D01*
D11*
X3740617Y-6133124D02*
X3740617Y-5933124D01*
X3740617Y-5933124D02*
X3788236Y-5933124D01*
X3788236Y-5933124D02*
X3816807Y-5942648D01*
X3816807Y-5942648D02*
X3835855Y-5961695D01*
X3835855Y-5961695D02*
X3845379Y-5980743D01*
X3845379Y-5980743D02*
X3854902Y-6018838D01*
X3854902Y-6018838D02*
X3854902Y-6047409D01*
X3854902Y-6047409D02*
X3845379Y-6085505D01*
X3845379Y-6085505D02*
X3835855Y-6104552D01*
X3835855Y-6104552D02*
X3816807Y-6123600D01*
X3816807Y-6123600D02*
X3788236Y-6133124D01*
X3788236Y-6133124D02*
X3740617Y-6133124D01*
X3940617Y-6133124D02*
X3940617Y-5999790D01*
X3940617Y-6037886D02*
X3950141Y-6018838D01*
X3950141Y-6018838D02*
X3959664Y-6009314D01*
X3959664Y-6009314D02*
X3978712Y-5999790D01*
X3978712Y-5999790D02*
X3997760Y-5999790D01*
X4064426Y-6133124D02*
X4064426Y-5999790D01*
X4064426Y-5933124D02*
X4054902Y-5942648D01*
X4054902Y-5942648D02*
X4064426Y-5952171D01*
X4064426Y-5952171D02*
X4073950Y-5942648D01*
X4073950Y-5942648D02*
X4064426Y-5933124D01*
X4064426Y-5933124D02*
X4064426Y-5952171D01*
X4188236Y-6133124D02*
X4169188Y-6123600D01*
X4169188Y-6123600D02*
X4159664Y-6104552D01*
X4159664Y-6104552D02*
X4159664Y-5933124D01*
X4292998Y-6133124D02*
X4273950Y-6123600D01*
X4273950Y-6123600D02*
X4264426Y-6104552D01*
X4264426Y-6104552D02*
X4264426Y-5933124D01*
X4521569Y-6133124D02*
X4521569Y-5933124D01*
X4521569Y-5933124D02*
X4588236Y-6075981D01*
X4588236Y-6075981D02*
X4654903Y-5933124D01*
X4654903Y-5933124D02*
X4654903Y-6133124D01*
X4835855Y-6133124D02*
X4835855Y-6028362D01*
X4835855Y-6028362D02*
X4826331Y-6009314D01*
X4826331Y-6009314D02*
X4807284Y-5999790D01*
X4807284Y-5999790D02*
X4769188Y-5999790D01*
X4769188Y-5999790D02*
X4750141Y-6009314D01*
X4835855Y-6123600D02*
X4816807Y-6133124D01*
X4816807Y-6133124D02*
X4769188Y-6133124D01*
X4769188Y-6133124D02*
X4750141Y-6123600D01*
X4750141Y-6123600D02*
X4740617Y-6104552D01*
X4740617Y-6104552D02*
X4740617Y-6085505D01*
X4740617Y-6085505D02*
X4750141Y-6066457D01*
X4750141Y-6066457D02*
X4769188Y-6056933D01*
X4769188Y-6056933D02*
X4816807Y-6056933D01*
X4816807Y-6056933D02*
X4835855Y-6047409D01*
X4931093Y-5999790D02*
X4931093Y-6199790D01*
X4931093Y-6009314D02*
X4950141Y-5999790D01*
X4950141Y-5999790D02*
X4988236Y-5999790D01*
X4988236Y-5999790D02*
X5007284Y-6009314D01*
X5007284Y-6009314D02*
X5016807Y-6018838D01*
X5016807Y-6018838D02*
X5026331Y-6037886D01*
X5026331Y-6037886D02*
X5026331Y-6095028D01*
X5026331Y-6095028D02*
X5016807Y-6114076D01*
X5016807Y-6114076D02*
X5007284Y-6123600D01*
X5007284Y-6123600D02*
X4988236Y-6133124D01*
X4988236Y-6133124D02*
X4950141Y-6133124D01*
X4950141Y-6133124D02*
X4931093Y-6123600D01*
X5112045Y-6114076D02*
X5121569Y-6123600D01*
X5121569Y-6123600D02*
X5112045Y-6133124D01*
X5112045Y-6133124D02*
X5102522Y-6123600D01*
X5102522Y-6123600D02*
X5112045Y-6114076D01*
X5112045Y-6114076D02*
X5112045Y-6133124D01*
X5112045Y-6009314D02*
X5121569Y-6018838D01*
X5121569Y-6018838D02*
X5112045Y-6028362D01*
X5112045Y-6028362D02*
X5102522Y-6018838D01*
X5102522Y-6018838D02*
X5112045Y-6009314D01*
X5112045Y-6009314D02*
X5112045Y-6028362D01*
D12*
X3449840Y-6446640D02*
X3479840Y-6476640D01*
X3479840Y-6446640D02*
X3449840Y-6476640D01*
D11*
X3778712Y-6353124D02*
X3797760Y-6353124D01*
X3797760Y-6353124D02*
X3816807Y-6362648D01*
X3816807Y-6362648D02*
X3826331Y-6372171D01*
X3826331Y-6372171D02*
X3835855Y-6391219D01*
X3835855Y-6391219D02*
X3845379Y-6429314D01*
X3845379Y-6429314D02*
X3845379Y-6476933D01*
X3845379Y-6476933D02*
X3835855Y-6515028D01*
X3835855Y-6515028D02*
X3826331Y-6534076D01*
X3826331Y-6534076D02*
X3816807Y-6543600D01*
X3816807Y-6543600D02*
X3797760Y-6553124D01*
X3797760Y-6553124D02*
X3778712Y-6553124D01*
X3778712Y-6553124D02*
X3759664Y-6543600D01*
X3759664Y-6543600D02*
X3750141Y-6534076D01*
X3750141Y-6534076D02*
X3740617Y-6515028D01*
X3740617Y-6515028D02*
X3731093Y-6476933D01*
X3731093Y-6476933D02*
X3731093Y-6429314D01*
X3731093Y-6429314D02*
X3740617Y-6391219D01*
X3740617Y-6391219D02*
X3750141Y-6372171D01*
X3750141Y-6372171D02*
X3759664Y-6362648D01*
X3759664Y-6362648D02*
X3778712Y-6353124D01*
X3931093Y-6534076D02*
X3940617Y-6543600D01*
X3940617Y-6543600D02*
X3931093Y-6553124D01*
X3931093Y-6553124D02*
X3921569Y-6543600D01*
X3921569Y-6543600D02*
X3931093Y-6534076D01*
X3931093Y-6534076D02*
X3931093Y-6553124D01*
X4007283Y-6353124D02*
X4131093Y-6353124D01*
X4131093Y-6353124D02*
X4064426Y-6429314D01*
X4064426Y-6429314D02*
X4092998Y-6429314D01*
X4092998Y-6429314D02*
X4112045Y-6438838D01*
X4112045Y-6438838D02*
X4121569Y-6448362D01*
X4121569Y-6448362D02*
X4131093Y-6467409D01*
X4131093Y-6467409D02*
X4131093Y-6515028D01*
X4131093Y-6515028D02*
X4121569Y-6534076D01*
X4121569Y-6534076D02*
X4112045Y-6543600D01*
X4112045Y-6543600D02*
X4092998Y-6553124D01*
X4092998Y-6553124D02*
X4035855Y-6553124D01*
X4035855Y-6553124D02*
X4016807Y-6543600D01*
X4016807Y-6543600D02*
X4007283Y-6534076D01*
X4254903Y-6353124D02*
X4273950Y-6353124D01*
X4273950Y-6353124D02*
X4292998Y-6362648D01*
X4292998Y-6362648D02*
X4302522Y-6372171D01*
X4302522Y-6372171D02*
X4312045Y-6391219D01*
X4312045Y-6391219D02*
X4321569Y-6429314D01*
X4321569Y-6429314D02*
X4321569Y-6476933D01*
X4321569Y-6476933D02*
X4312045Y-6515028D01*
X4312045Y-6515028D02*
X4302522Y-6534076D01*
X4302522Y-6534076D02*
X4292998Y-6543600D01*
X4292998Y-6543600D02*
X4273950Y-6553124D01*
X4273950Y-6553124D02*
X4254903Y-6553124D01*
X4254903Y-6553124D02*
X4235855Y-6543600D01*
X4235855Y-6543600D02*
X4226331Y-6534076D01*
X4226331Y-6534076D02*
X4216807Y-6515028D01*
X4216807Y-6515028D02*
X4207284Y-6476933D01*
X4207284Y-6476933D02*
X4207284Y-6429314D01*
X4207284Y-6429314D02*
X4216807Y-6391219D01*
X4216807Y-6391219D02*
X4226331Y-6372171D01*
X4226331Y-6372171D02*
X4235855Y-6362648D01*
X4235855Y-6362648D02*
X4254903Y-6353124D01*
X4445379Y-6353124D02*
X4464426Y-6353124D01*
X4464426Y-6353124D02*
X4483474Y-6362648D01*
X4483474Y-6362648D02*
X4492998Y-6372171D01*
X4492998Y-6372171D02*
X4502522Y-6391219D01*
X4502522Y-6391219D02*
X4512045Y-6429314D01*
X4512045Y-6429314D02*
X4512045Y-6476933D01*
X4512045Y-6476933D02*
X4502522Y-6515028D01*
X4502522Y-6515028D02*
X4492998Y-6534076D01*
X4492998Y-6534076D02*
X4483474Y-6543600D01*
X4483474Y-6543600D02*
X4464426Y-6553124D01*
X4464426Y-6553124D02*
X4445379Y-6553124D01*
X4445379Y-6553124D02*
X4426331Y-6543600D01*
X4426331Y-6543600D02*
X4416807Y-6534076D01*
X4416807Y-6534076D02*
X4407284Y-6515028D01*
X4407284Y-6515028D02*
X4397760Y-6476933D01*
X4397760Y-6476933D02*
X4397760Y-6429314D01*
X4397760Y-6429314D02*
X4407284Y-6391219D01*
X4407284Y-6391219D02*
X4416807Y-6372171D01*
X4416807Y-6372171D02*
X4426331Y-6362648D01*
X4426331Y-6362648D02*
X4445379Y-6353124D01*
X4597760Y-6553124D02*
X4597760Y-6419790D01*
X4597760Y-6438838D02*
X4607284Y-6429314D01*
X4607284Y-6429314D02*
X4626331Y-6419790D01*
X4626331Y-6419790D02*
X4654903Y-6419790D01*
X4654903Y-6419790D02*
X4673950Y-6429314D01*
X4673950Y-6429314D02*
X4683474Y-6448362D01*
X4683474Y-6448362D02*
X4683474Y-6553124D01*
X4683474Y-6448362D02*
X4692998Y-6429314D01*
X4692998Y-6429314D02*
X4712045Y-6419790D01*
X4712045Y-6419790D02*
X4740617Y-6419790D01*
X4740617Y-6419790D02*
X4759665Y-6429314D01*
X4759665Y-6429314D02*
X4769188Y-6448362D01*
X4769188Y-6448362D02*
X4769188Y-6553124D01*
X4864426Y-6553124D02*
X4864426Y-6419790D01*
X4864426Y-6438838D02*
X4873950Y-6429314D01*
X4873950Y-6429314D02*
X4892998Y-6419790D01*
X4892998Y-6419790D02*
X4921569Y-6419790D01*
X4921569Y-6419790D02*
X4940617Y-6429314D01*
X4940617Y-6429314D02*
X4950141Y-6448362D01*
X4950141Y-6448362D02*
X4950141Y-6553124D01*
X4950141Y-6448362D02*
X4959665Y-6429314D01*
X4959665Y-6429314D02*
X4978712Y-6419790D01*
X4978712Y-6419790D02*
X5007284Y-6419790D01*
X5007284Y-6419790D02*
X5026331Y-6429314D01*
X5026331Y-6429314D02*
X5035855Y-6448362D01*
X5035855Y-6448362D02*
X5035855Y-6553124D01*
X5426331Y-6343600D02*
X5254903Y-6600743D01*
X5683474Y-6353124D02*
X5702522Y-6353124D01*
X5702522Y-6353124D02*
X5721569Y-6362648D01*
X5721569Y-6362648D02*
X5731093Y-6372171D01*
X5731093Y-6372171D02*
X5740617Y-6391219D01*
X5740617Y-6391219D02*
X5750141Y-6429314D01*
X5750141Y-6429314D02*
X5750141Y-6476933D01*
X5750141Y-6476933D02*
X5740617Y-6515028D01*
X5740617Y-6515028D02*
X5731093Y-6534076D01*
X5731093Y-6534076D02*
X5721569Y-6543600D01*
X5721569Y-6543600D02*
X5702522Y-6553124D01*
X5702522Y-6553124D02*
X5683474Y-6553124D01*
X5683474Y-6553124D02*
X5664426Y-6543600D01*
X5664426Y-6543600D02*
X5654903Y-6534076D01*
X5654903Y-6534076D02*
X5645379Y-6515028D01*
X5645379Y-6515028D02*
X5635855Y-6476933D01*
X5635855Y-6476933D02*
X5635855Y-6429314D01*
X5635855Y-6429314D02*
X5645379Y-6391219D01*
X5645379Y-6391219D02*
X5654903Y-6372171D01*
X5654903Y-6372171D02*
X5664426Y-6362648D01*
X5664426Y-6362648D02*
X5683474Y-6353124D01*
X5835855Y-6534076D02*
X5845379Y-6543600D01*
X5845379Y-6543600D02*
X5835855Y-6553124D01*
X5835855Y-6553124D02*
X5826331Y-6543600D01*
X5826331Y-6543600D02*
X5835855Y-6534076D01*
X5835855Y-6534076D02*
X5835855Y-6553124D01*
X5969188Y-6353124D02*
X5988236Y-6353124D01*
X5988236Y-6353124D02*
X6007284Y-6362648D01*
X6007284Y-6362648D02*
X6016807Y-6372171D01*
X6016807Y-6372171D02*
X6026331Y-6391219D01*
X6026331Y-6391219D02*
X6035855Y-6429314D01*
X6035855Y-6429314D02*
X6035855Y-6476933D01*
X6035855Y-6476933D02*
X6026331Y-6515028D01*
X6026331Y-6515028D02*
X6016807Y-6534076D01*
X6016807Y-6534076D02*
X6007284Y-6543600D01*
X6007284Y-6543600D02*
X5988236Y-6553124D01*
X5988236Y-6553124D02*
X5969188Y-6553124D01*
X5969188Y-6553124D02*
X5950141Y-6543600D01*
X5950141Y-6543600D02*
X5940617Y-6534076D01*
X5940617Y-6534076D02*
X5931093Y-6515028D01*
X5931093Y-6515028D02*
X5921569Y-6476933D01*
X5921569Y-6476933D02*
X5921569Y-6429314D01*
X5921569Y-6429314D02*
X5931093Y-6391219D01*
X5931093Y-6391219D02*
X5940617Y-6372171D01*
X5940617Y-6372171D02*
X5950141Y-6362648D01*
X5950141Y-6362648D02*
X5969188Y-6353124D01*
X6226331Y-6553124D02*
X6112046Y-6553124D01*
X6169188Y-6553124D02*
X6169188Y-6353124D01*
X6169188Y-6353124D02*
X6150141Y-6381695D01*
X6150141Y-6381695D02*
X6131093Y-6400743D01*
X6131093Y-6400743D02*
X6112046Y-6410267D01*
X6416807Y-6553124D02*
X6302522Y-6553124D01*
X6359665Y-6553124D02*
X6359665Y-6353124D01*
X6359665Y-6353124D02*
X6340617Y-6381695D01*
X6340617Y-6381695D02*
X6321569Y-6400743D01*
X6321569Y-6400743D02*
X6302522Y-6410267D01*
X6531093Y-6438838D02*
X6512046Y-6429314D01*
X6512046Y-6429314D02*
X6502522Y-6419790D01*
X6502522Y-6419790D02*
X6492998Y-6400743D01*
X6492998Y-6400743D02*
X6492998Y-6391219D01*
X6492998Y-6391219D02*
X6502522Y-6372171D01*
X6502522Y-6372171D02*
X6512046Y-6362648D01*
X6512046Y-6362648D02*
X6531093Y-6353124D01*
X6531093Y-6353124D02*
X6569188Y-6353124D01*
X6569188Y-6353124D02*
X6588236Y-6362648D01*
X6588236Y-6362648D02*
X6597760Y-6372171D01*
X6597760Y-6372171D02*
X6607284Y-6391219D01*
X6607284Y-6391219D02*
X6607284Y-6400743D01*
X6607284Y-6400743D02*
X6597760Y-6419790D01*
X6597760Y-6419790D02*
X6588236Y-6429314D01*
X6588236Y-6429314D02*
X6569188Y-6438838D01*
X6569188Y-6438838D02*
X6531093Y-6438838D01*
X6531093Y-6438838D02*
X6512046Y-6448362D01*
X6512046Y-6448362D02*
X6502522Y-6457886D01*
X6502522Y-6457886D02*
X6492998Y-6476933D01*
X6492998Y-6476933D02*
X6492998Y-6515028D01*
X6492998Y-6515028D02*
X6502522Y-6534076D01*
X6502522Y-6534076D02*
X6512046Y-6543600D01*
X6512046Y-6543600D02*
X6531093Y-6553124D01*
X6531093Y-6553124D02*
X6569188Y-6553124D01*
X6569188Y-6553124D02*
X6588236Y-6543600D01*
X6588236Y-6543600D02*
X6597760Y-6534076D01*
X6597760Y-6534076D02*
X6607284Y-6515028D01*
X6607284Y-6515028D02*
X6607284Y-6476933D01*
X6607284Y-6476933D02*
X6597760Y-6457886D01*
X6597760Y-6457886D02*
X6588236Y-6448362D01*
X6588236Y-6448362D02*
X6569188Y-6438838D01*
X6683474Y-6353124D02*
X6683474Y-6391219D01*
X6759665Y-6353124D02*
X6759665Y-6391219D01*
X7054903Y-6629314D02*
X7045379Y-6619790D01*
X7045379Y-6619790D02*
X7026331Y-6591219D01*
X7026331Y-6591219D02*
X7016808Y-6572171D01*
X7016808Y-6572171D02*
X7007284Y-6543600D01*
X7007284Y-6543600D02*
X6997760Y-6495981D01*
X6997760Y-6495981D02*
X6997760Y-6457886D01*
X6997760Y-6457886D02*
X7007284Y-6410267D01*
X7007284Y-6410267D02*
X7016808Y-6381695D01*
X7016808Y-6381695D02*
X7026331Y-6362648D01*
X7026331Y-6362648D02*
X7045379Y-6334076D01*
X7045379Y-6334076D02*
X7054903Y-6324552D01*
X7235855Y-6553124D02*
X7121569Y-6553124D01*
X7178712Y-6553124D02*
X7178712Y-6353124D01*
X7178712Y-6353124D02*
X7159665Y-6381695D01*
X7159665Y-6381695D02*
X7140617Y-6400743D01*
X7140617Y-6400743D02*
X7121569Y-6410267D01*
X7407284Y-6419790D02*
X7407284Y-6553124D01*
X7359665Y-6343600D02*
X7312046Y-6486457D01*
X7312046Y-6486457D02*
X7435855Y-6486457D01*
X7664427Y-6553124D02*
X7664427Y-6353124D01*
X7750141Y-6553124D02*
X7750141Y-6448362D01*
X7750141Y-6448362D02*
X7740617Y-6429314D01*
X7740617Y-6429314D02*
X7721570Y-6419790D01*
X7721570Y-6419790D02*
X7692998Y-6419790D01*
X7692998Y-6419790D02*
X7673950Y-6429314D01*
X7673950Y-6429314D02*
X7664427Y-6438838D01*
X7873950Y-6553124D02*
X7854903Y-6543600D01*
X7854903Y-6543600D02*
X7845379Y-6534076D01*
X7845379Y-6534076D02*
X7835855Y-6515028D01*
X7835855Y-6515028D02*
X7835855Y-6457886D01*
X7835855Y-6457886D02*
X7845379Y-6438838D01*
X7845379Y-6438838D02*
X7854903Y-6429314D01*
X7854903Y-6429314D02*
X7873950Y-6419790D01*
X7873950Y-6419790D02*
X7902522Y-6419790D01*
X7902522Y-6419790D02*
X7921570Y-6429314D01*
X7921570Y-6429314D02*
X7931093Y-6438838D01*
X7931093Y-6438838D02*
X7940617Y-6457886D01*
X7940617Y-6457886D02*
X7940617Y-6515028D01*
X7940617Y-6515028D02*
X7931093Y-6534076D01*
X7931093Y-6534076D02*
X7921570Y-6543600D01*
X7921570Y-6543600D02*
X7902522Y-6553124D01*
X7902522Y-6553124D02*
X7873950Y-6553124D01*
X8054903Y-6553124D02*
X8035855Y-6543600D01*
X8035855Y-6543600D02*
X8026331Y-6524552D01*
X8026331Y-6524552D02*
X8026331Y-6353124D01*
X8207284Y-6543600D02*
X8188236Y-6553124D01*
X8188236Y-6553124D02*
X8150141Y-6553124D01*
X8150141Y-6553124D02*
X8131093Y-6543600D01*
X8131093Y-6543600D02*
X8121570Y-6524552D01*
X8121570Y-6524552D02*
X8121570Y-6448362D01*
X8121570Y-6448362D02*
X8131093Y-6429314D01*
X8131093Y-6429314D02*
X8150141Y-6419790D01*
X8150141Y-6419790D02*
X8188236Y-6419790D01*
X8188236Y-6419790D02*
X8207284Y-6429314D01*
X8207284Y-6429314D02*
X8216808Y-6448362D01*
X8216808Y-6448362D02*
X8216808Y-6467409D01*
X8216808Y-6467409D02*
X8121570Y-6486457D01*
X8292998Y-6543600D02*
X8312046Y-6553124D01*
X8312046Y-6553124D02*
X8350141Y-6553124D01*
X8350141Y-6553124D02*
X8369189Y-6543600D01*
X8369189Y-6543600D02*
X8378712Y-6524552D01*
X8378712Y-6524552D02*
X8378712Y-6515028D01*
X8378712Y-6515028D02*
X8369189Y-6495981D01*
X8369189Y-6495981D02*
X8350141Y-6486457D01*
X8350141Y-6486457D02*
X8321570Y-6486457D01*
X8321570Y-6486457D02*
X8302522Y-6476933D01*
X8302522Y-6476933D02*
X8292998Y-6457886D01*
X8292998Y-6457886D02*
X8292998Y-6448362D01*
X8292998Y-6448362D02*
X8302522Y-6429314D01*
X8302522Y-6429314D02*
X8321570Y-6419790D01*
X8321570Y-6419790D02*
X8350141Y-6419790D01*
X8350141Y-6419790D02*
X8369189Y-6429314D01*
X8445379Y-6629314D02*
X8454903Y-6619790D01*
X8454903Y-6619790D02*
X8473951Y-6591219D01*
X8473951Y-6591219D02*
X8483474Y-6572171D01*
X8483474Y-6572171D02*
X8492998Y-6543600D01*
X8492998Y-6543600D02*
X8502522Y-6495981D01*
X8502522Y-6495981D02*
X8502522Y-6457886D01*
X8502522Y-6457886D02*
X8492998Y-6410267D01*
X8492998Y-6410267D02*
X8483474Y-6381695D01*
X8483474Y-6381695D02*
X8473951Y-6362648D01*
X8473951Y-6362648D02*
X8454903Y-6334076D01*
X8454903Y-6334076D02*
X8445379Y-6324552D01*
D12*
X3479840Y-6725640D02*
G75*
G02*
X3419840Y-6725640I-30000J0D01*
G01*
X3419840Y-6725640D02*
G75*
G02*
X3479840Y-6725640I30000J0D01*
G01*
D11*
X3778712Y-6617124D02*
X3797760Y-6617124D01*
X3797760Y-6617124D02*
X3816807Y-6626648D01*
X3816807Y-6626648D02*
X3826331Y-6636171D01*
X3826331Y-6636171D02*
X3835855Y-6655219D01*
X3835855Y-6655219D02*
X3845379Y-6693314D01*
X3845379Y-6693314D02*
X3845379Y-6740933D01*
X3845379Y-6740933D02*
X3835855Y-6779028D01*
X3835855Y-6779028D02*
X3826331Y-6798076D01*
X3826331Y-6798076D02*
X3816807Y-6807600D01*
X3816807Y-6807600D02*
X3797760Y-6817124D01*
X3797760Y-6817124D02*
X3778712Y-6817124D01*
X3778712Y-6817124D02*
X3759664Y-6807600D01*
X3759664Y-6807600D02*
X3750141Y-6798076D01*
X3750141Y-6798076D02*
X3740617Y-6779028D01*
X3740617Y-6779028D02*
X3731093Y-6740933D01*
X3731093Y-6740933D02*
X3731093Y-6693314D01*
X3731093Y-6693314D02*
X3740617Y-6655219D01*
X3740617Y-6655219D02*
X3750141Y-6636171D01*
X3750141Y-6636171D02*
X3759664Y-6626648D01*
X3759664Y-6626648D02*
X3778712Y-6617124D01*
X3931093Y-6798076D02*
X3940617Y-6807600D01*
X3940617Y-6807600D02*
X3931093Y-6817124D01*
X3931093Y-6817124D02*
X3921569Y-6807600D01*
X3921569Y-6807600D02*
X3931093Y-6798076D01*
X3931093Y-6798076D02*
X3931093Y-6817124D01*
X4112045Y-6617124D02*
X4073950Y-6617124D01*
X4073950Y-6617124D02*
X4054902Y-6626648D01*
X4054902Y-6626648D02*
X4045379Y-6636171D01*
X4045379Y-6636171D02*
X4026331Y-6664743D01*
X4026331Y-6664743D02*
X4016807Y-6702838D01*
X4016807Y-6702838D02*
X4016807Y-6779028D01*
X4016807Y-6779028D02*
X4026331Y-6798076D01*
X4026331Y-6798076D02*
X4035855Y-6807600D01*
X4035855Y-6807600D02*
X4054902Y-6817124D01*
X4054902Y-6817124D02*
X4092998Y-6817124D01*
X4092998Y-6817124D02*
X4112045Y-6807600D01*
X4112045Y-6807600D02*
X4121569Y-6798076D01*
X4121569Y-6798076D02*
X4131093Y-6779028D01*
X4131093Y-6779028D02*
X4131093Y-6731409D01*
X4131093Y-6731409D02*
X4121569Y-6712362D01*
X4121569Y-6712362D02*
X4112045Y-6702838D01*
X4112045Y-6702838D02*
X4092998Y-6693314D01*
X4092998Y-6693314D02*
X4054902Y-6693314D01*
X4054902Y-6693314D02*
X4035855Y-6702838D01*
X4035855Y-6702838D02*
X4026331Y-6712362D01*
X4026331Y-6712362D02*
X4016807Y-6731409D01*
X4254903Y-6617124D02*
X4273950Y-6617124D01*
X4273950Y-6617124D02*
X4292998Y-6626648D01*
X4292998Y-6626648D02*
X4302522Y-6636171D01*
X4302522Y-6636171D02*
X4312045Y-6655219D01*
X4312045Y-6655219D02*
X4321569Y-6693314D01*
X4321569Y-6693314D02*
X4321569Y-6740933D01*
X4321569Y-6740933D02*
X4312045Y-6779028D01*
X4312045Y-6779028D02*
X4302522Y-6798076D01*
X4302522Y-6798076D02*
X4292998Y-6807600D01*
X4292998Y-6807600D02*
X4273950Y-6817124D01*
X4273950Y-6817124D02*
X4254903Y-6817124D01*
X4254903Y-6817124D02*
X4235855Y-6807600D01*
X4235855Y-6807600D02*
X4226331Y-6798076D01*
X4226331Y-6798076D02*
X4216807Y-6779028D01*
X4216807Y-6779028D02*
X4207284Y-6740933D01*
X4207284Y-6740933D02*
X4207284Y-6693314D01*
X4207284Y-6693314D02*
X4216807Y-6655219D01*
X4216807Y-6655219D02*
X4226331Y-6636171D01*
X4226331Y-6636171D02*
X4235855Y-6626648D01*
X4235855Y-6626648D02*
X4254903Y-6617124D01*
X4445379Y-6617124D02*
X4464426Y-6617124D01*
X4464426Y-6617124D02*
X4483474Y-6626648D01*
X4483474Y-6626648D02*
X4492998Y-6636171D01*
X4492998Y-6636171D02*
X4502522Y-6655219D01*
X4502522Y-6655219D02*
X4512045Y-6693314D01*
X4512045Y-6693314D02*
X4512045Y-6740933D01*
X4512045Y-6740933D02*
X4502522Y-6779028D01*
X4502522Y-6779028D02*
X4492998Y-6798076D01*
X4492998Y-6798076D02*
X4483474Y-6807600D01*
X4483474Y-6807600D02*
X4464426Y-6817124D01*
X4464426Y-6817124D02*
X4445379Y-6817124D01*
X4445379Y-6817124D02*
X4426331Y-6807600D01*
X4426331Y-6807600D02*
X4416807Y-6798076D01*
X4416807Y-6798076D02*
X4407284Y-6779028D01*
X4407284Y-6779028D02*
X4397760Y-6740933D01*
X4397760Y-6740933D02*
X4397760Y-6693314D01*
X4397760Y-6693314D02*
X4407284Y-6655219D01*
X4407284Y-6655219D02*
X4416807Y-6636171D01*
X4416807Y-6636171D02*
X4426331Y-6626648D01*
X4426331Y-6626648D02*
X4445379Y-6617124D01*
X4597760Y-6817124D02*
X4597760Y-6683790D01*
X4597760Y-6702838D02*
X4607284Y-6693314D01*
X4607284Y-6693314D02*
X4626331Y-6683790D01*
X4626331Y-6683790D02*
X4654903Y-6683790D01*
X4654903Y-6683790D02*
X4673950Y-6693314D01*
X4673950Y-6693314D02*
X4683474Y-6712362D01*
X4683474Y-6712362D02*
X4683474Y-6817124D01*
X4683474Y-6712362D02*
X4692998Y-6693314D01*
X4692998Y-6693314D02*
X4712045Y-6683790D01*
X4712045Y-6683790D02*
X4740617Y-6683790D01*
X4740617Y-6683790D02*
X4759665Y-6693314D01*
X4759665Y-6693314D02*
X4769188Y-6712362D01*
X4769188Y-6712362D02*
X4769188Y-6817124D01*
X4864426Y-6817124D02*
X4864426Y-6683790D01*
X4864426Y-6702838D02*
X4873950Y-6693314D01*
X4873950Y-6693314D02*
X4892998Y-6683790D01*
X4892998Y-6683790D02*
X4921569Y-6683790D01*
X4921569Y-6683790D02*
X4940617Y-6693314D01*
X4940617Y-6693314D02*
X4950141Y-6712362D01*
X4950141Y-6712362D02*
X4950141Y-6817124D01*
X4950141Y-6712362D02*
X4959665Y-6693314D01*
X4959665Y-6693314D02*
X4978712Y-6683790D01*
X4978712Y-6683790D02*
X5007284Y-6683790D01*
X5007284Y-6683790D02*
X5026331Y-6693314D01*
X5026331Y-6693314D02*
X5035855Y-6712362D01*
X5035855Y-6712362D02*
X5035855Y-6817124D01*
X5426331Y-6607600D02*
X5254903Y-6864743D01*
X5683474Y-6617124D02*
X5702522Y-6617124D01*
X5702522Y-6617124D02*
X5721569Y-6626648D01*
X5721569Y-6626648D02*
X5731093Y-6636171D01*
X5731093Y-6636171D02*
X5740617Y-6655219D01*
X5740617Y-6655219D02*
X5750141Y-6693314D01*
X5750141Y-6693314D02*
X5750141Y-6740933D01*
X5750141Y-6740933D02*
X5740617Y-6779028D01*
X5740617Y-6779028D02*
X5731093Y-6798076D01*
X5731093Y-6798076D02*
X5721569Y-6807600D01*
X5721569Y-6807600D02*
X5702522Y-6817124D01*
X5702522Y-6817124D02*
X5683474Y-6817124D01*
X5683474Y-6817124D02*
X5664426Y-6807600D01*
X5664426Y-6807600D02*
X5654903Y-6798076D01*
X5654903Y-6798076D02*
X5645379Y-6779028D01*
X5645379Y-6779028D02*
X5635855Y-6740933D01*
X5635855Y-6740933D02*
X5635855Y-6693314D01*
X5635855Y-6693314D02*
X5645379Y-6655219D01*
X5645379Y-6655219D02*
X5654903Y-6636171D01*
X5654903Y-6636171D02*
X5664426Y-6626648D01*
X5664426Y-6626648D02*
X5683474Y-6617124D01*
X5835855Y-6798076D02*
X5845379Y-6807600D01*
X5845379Y-6807600D02*
X5835855Y-6817124D01*
X5835855Y-6817124D02*
X5826331Y-6807600D01*
X5826331Y-6807600D02*
X5835855Y-6798076D01*
X5835855Y-6798076D02*
X5835855Y-6817124D01*
X5969188Y-6617124D02*
X5988236Y-6617124D01*
X5988236Y-6617124D02*
X6007284Y-6626648D01*
X6007284Y-6626648D02*
X6016807Y-6636171D01*
X6016807Y-6636171D02*
X6026331Y-6655219D01*
X6026331Y-6655219D02*
X6035855Y-6693314D01*
X6035855Y-6693314D02*
X6035855Y-6740933D01*
X6035855Y-6740933D02*
X6026331Y-6779028D01*
X6026331Y-6779028D02*
X6016807Y-6798076D01*
X6016807Y-6798076D02*
X6007284Y-6807600D01*
X6007284Y-6807600D02*
X5988236Y-6817124D01*
X5988236Y-6817124D02*
X5969188Y-6817124D01*
X5969188Y-6817124D02*
X5950141Y-6807600D01*
X5950141Y-6807600D02*
X5940617Y-6798076D01*
X5940617Y-6798076D02*
X5931093Y-6779028D01*
X5931093Y-6779028D02*
X5921569Y-6740933D01*
X5921569Y-6740933D02*
X5921569Y-6693314D01*
X5921569Y-6693314D02*
X5931093Y-6655219D01*
X5931093Y-6655219D02*
X5940617Y-6636171D01*
X5940617Y-6636171D02*
X5950141Y-6626648D01*
X5950141Y-6626648D02*
X5969188Y-6617124D01*
X6112046Y-6636171D02*
X6121569Y-6626648D01*
X6121569Y-6626648D02*
X6140617Y-6617124D01*
X6140617Y-6617124D02*
X6188236Y-6617124D01*
X6188236Y-6617124D02*
X6207284Y-6626648D01*
X6207284Y-6626648D02*
X6216807Y-6636171D01*
X6216807Y-6636171D02*
X6226331Y-6655219D01*
X6226331Y-6655219D02*
X6226331Y-6674267D01*
X6226331Y-6674267D02*
X6216807Y-6702838D01*
X6216807Y-6702838D02*
X6102522Y-6817124D01*
X6102522Y-6817124D02*
X6226331Y-6817124D01*
X6292998Y-6617124D02*
X6416807Y-6617124D01*
X6416807Y-6617124D02*
X6350141Y-6693314D01*
X6350141Y-6693314D02*
X6378712Y-6693314D01*
X6378712Y-6693314D02*
X6397760Y-6702838D01*
X6397760Y-6702838D02*
X6407284Y-6712362D01*
X6407284Y-6712362D02*
X6416807Y-6731409D01*
X6416807Y-6731409D02*
X6416807Y-6779028D01*
X6416807Y-6779028D02*
X6407284Y-6798076D01*
X6407284Y-6798076D02*
X6397760Y-6807600D01*
X6397760Y-6807600D02*
X6378712Y-6817124D01*
X6378712Y-6817124D02*
X6321569Y-6817124D01*
X6321569Y-6817124D02*
X6302522Y-6807600D01*
X6302522Y-6807600D02*
X6292998Y-6798076D01*
X6588236Y-6617124D02*
X6550141Y-6617124D01*
X6550141Y-6617124D02*
X6531093Y-6626648D01*
X6531093Y-6626648D02*
X6521569Y-6636171D01*
X6521569Y-6636171D02*
X6502522Y-6664743D01*
X6502522Y-6664743D02*
X6492998Y-6702838D01*
X6492998Y-6702838D02*
X6492998Y-6779028D01*
X6492998Y-6779028D02*
X6502522Y-6798076D01*
X6502522Y-6798076D02*
X6512046Y-6807600D01*
X6512046Y-6807600D02*
X6531093Y-6817124D01*
X6531093Y-6817124D02*
X6569188Y-6817124D01*
X6569188Y-6817124D02*
X6588236Y-6807600D01*
X6588236Y-6807600D02*
X6597760Y-6798076D01*
X6597760Y-6798076D02*
X6607284Y-6779028D01*
X6607284Y-6779028D02*
X6607284Y-6731409D01*
X6607284Y-6731409D02*
X6597760Y-6712362D01*
X6597760Y-6712362D02*
X6588236Y-6702838D01*
X6588236Y-6702838D02*
X6569188Y-6693314D01*
X6569188Y-6693314D02*
X6531093Y-6693314D01*
X6531093Y-6693314D02*
X6512046Y-6702838D01*
X6512046Y-6702838D02*
X6502522Y-6712362D01*
X6502522Y-6712362D02*
X6492998Y-6731409D01*
X6683474Y-6617124D02*
X6683474Y-6655219D01*
X6759665Y-6617124D02*
X6759665Y-6655219D01*
X7054903Y-6893314D02*
X7045379Y-6883790D01*
X7045379Y-6883790D02*
X7026331Y-6855219D01*
X7026331Y-6855219D02*
X7016808Y-6836171D01*
X7016808Y-6836171D02*
X7007284Y-6807600D01*
X7007284Y-6807600D02*
X6997760Y-6759981D01*
X6997760Y-6759981D02*
X6997760Y-6721886D01*
X6997760Y-6721886D02*
X7007284Y-6674267D01*
X7007284Y-6674267D02*
X7016808Y-6645695D01*
X7016808Y-6645695D02*
X7026331Y-6626648D01*
X7026331Y-6626648D02*
X7045379Y-6598076D01*
X7045379Y-6598076D02*
X7054903Y-6588552D01*
X7169188Y-6617124D02*
X7188236Y-6617124D01*
X7188236Y-6617124D02*
X7207284Y-6626648D01*
X7207284Y-6626648D02*
X7216808Y-6636171D01*
X7216808Y-6636171D02*
X7226331Y-6655219D01*
X7226331Y-6655219D02*
X7235855Y-6693314D01*
X7235855Y-6693314D02*
X7235855Y-6740933D01*
X7235855Y-6740933D02*
X7226331Y-6779028D01*
X7226331Y-6779028D02*
X7216808Y-6798076D01*
X7216808Y-6798076D02*
X7207284Y-6807600D01*
X7207284Y-6807600D02*
X7188236Y-6817124D01*
X7188236Y-6817124D02*
X7169188Y-6817124D01*
X7169188Y-6817124D02*
X7150141Y-6807600D01*
X7150141Y-6807600D02*
X7140617Y-6798076D01*
X7140617Y-6798076D02*
X7131093Y-6779028D01*
X7131093Y-6779028D02*
X7121569Y-6740933D01*
X7121569Y-6740933D02*
X7121569Y-6693314D01*
X7121569Y-6693314D02*
X7131093Y-6655219D01*
X7131093Y-6655219D02*
X7140617Y-6636171D01*
X7140617Y-6636171D02*
X7150141Y-6626648D01*
X7150141Y-6626648D02*
X7169188Y-6617124D01*
X7473950Y-6817124D02*
X7473950Y-6617124D01*
X7559665Y-6817124D02*
X7559665Y-6712362D01*
X7559665Y-6712362D02*
X7550141Y-6693314D01*
X7550141Y-6693314D02*
X7531093Y-6683790D01*
X7531093Y-6683790D02*
X7502522Y-6683790D01*
X7502522Y-6683790D02*
X7483474Y-6693314D01*
X7483474Y-6693314D02*
X7473950Y-6702838D01*
X7683474Y-6817124D02*
X7664427Y-6807600D01*
X7664427Y-6807600D02*
X7654903Y-6798076D01*
X7654903Y-6798076D02*
X7645379Y-6779028D01*
X7645379Y-6779028D02*
X7645379Y-6721886D01*
X7645379Y-6721886D02*
X7654903Y-6702838D01*
X7654903Y-6702838D02*
X7664427Y-6693314D01*
X7664427Y-6693314D02*
X7683474Y-6683790D01*
X7683474Y-6683790D02*
X7712046Y-6683790D01*
X7712046Y-6683790D02*
X7731093Y-6693314D01*
X7731093Y-6693314D02*
X7740617Y-6702838D01*
X7740617Y-6702838D02*
X7750141Y-6721886D01*
X7750141Y-6721886D02*
X7750141Y-6779028D01*
X7750141Y-6779028D02*
X7740617Y-6798076D01*
X7740617Y-6798076D02*
X7731093Y-6807600D01*
X7731093Y-6807600D02*
X7712046Y-6817124D01*
X7712046Y-6817124D02*
X7683474Y-6817124D01*
X7864427Y-6817124D02*
X7845379Y-6807600D01*
X7845379Y-6807600D02*
X7835855Y-6788552D01*
X7835855Y-6788552D02*
X7835855Y-6617124D01*
X8016808Y-6807600D02*
X7997760Y-6817124D01*
X7997760Y-6817124D02*
X7959665Y-6817124D01*
X7959665Y-6817124D02*
X7940617Y-6807600D01*
X7940617Y-6807600D02*
X7931093Y-6788552D01*
X7931093Y-6788552D02*
X7931093Y-6712362D01*
X7931093Y-6712362D02*
X7940617Y-6693314D01*
X7940617Y-6693314D02*
X7959665Y-6683790D01*
X7959665Y-6683790D02*
X7997760Y-6683790D01*
X7997760Y-6683790D02*
X8016808Y-6693314D01*
X8016808Y-6693314D02*
X8026331Y-6712362D01*
X8026331Y-6712362D02*
X8026331Y-6731409D01*
X8026331Y-6731409D02*
X7931093Y-6750457D01*
X8102522Y-6807600D02*
X8121570Y-6817124D01*
X8121570Y-6817124D02*
X8159665Y-6817124D01*
X8159665Y-6817124D02*
X8178712Y-6807600D01*
X8178712Y-6807600D02*
X8188236Y-6788552D01*
X8188236Y-6788552D02*
X8188236Y-6779028D01*
X8188236Y-6779028D02*
X8178712Y-6759981D01*
X8178712Y-6759981D02*
X8159665Y-6750457D01*
X8159665Y-6750457D02*
X8131093Y-6750457D01*
X8131093Y-6750457D02*
X8112046Y-6740933D01*
X8112046Y-6740933D02*
X8102522Y-6721886D01*
X8102522Y-6721886D02*
X8102522Y-6712362D01*
X8102522Y-6712362D02*
X8112046Y-6693314D01*
X8112046Y-6693314D02*
X8131093Y-6683790D01*
X8131093Y-6683790D02*
X8159665Y-6683790D01*
X8159665Y-6683790D02*
X8178712Y-6693314D01*
X8426332Y-6740933D02*
X8578713Y-6740933D01*
X8502522Y-6817124D02*
X8502522Y-6664743D01*
X8912046Y-6683790D02*
X8912046Y-6817124D01*
X8864427Y-6607600D02*
X8816808Y-6750457D01*
X8816808Y-6750457D02*
X8940617Y-6750457D01*
X9159665Y-6807600D02*
X9178713Y-6817124D01*
X9178713Y-6817124D02*
X9216808Y-6817124D01*
X9216808Y-6817124D02*
X9235856Y-6807600D01*
X9235856Y-6807600D02*
X9245379Y-6788552D01*
X9245379Y-6788552D02*
X9245379Y-6779028D01*
X9245379Y-6779028D02*
X9235856Y-6759981D01*
X9235856Y-6759981D02*
X9216808Y-6750457D01*
X9216808Y-6750457D02*
X9188236Y-6750457D01*
X9188236Y-6750457D02*
X9169189Y-6740933D01*
X9169189Y-6740933D02*
X9159665Y-6721886D01*
X9159665Y-6721886D02*
X9159665Y-6712362D01*
X9159665Y-6712362D02*
X9169189Y-6693314D01*
X9169189Y-6693314D02*
X9188236Y-6683790D01*
X9188236Y-6683790D02*
X9216808Y-6683790D01*
X9216808Y-6683790D02*
X9235856Y-6693314D01*
X9359665Y-6817124D02*
X9340617Y-6807600D01*
X9340617Y-6807600D02*
X9331094Y-6788552D01*
X9331094Y-6788552D02*
X9331094Y-6617124D01*
X9464427Y-6817124D02*
X9445379Y-6807600D01*
X9445379Y-6807600D02*
X9435856Y-6798076D01*
X9435856Y-6798076D02*
X9426332Y-6779028D01*
X9426332Y-6779028D02*
X9426332Y-6721886D01*
X9426332Y-6721886D02*
X9435856Y-6702838D01*
X9435856Y-6702838D02*
X9445379Y-6693314D01*
X9445379Y-6693314D02*
X9464427Y-6683790D01*
X9464427Y-6683790D02*
X9492998Y-6683790D01*
X9492998Y-6683790D02*
X9512046Y-6693314D01*
X9512046Y-6693314D02*
X9521570Y-6702838D01*
X9521570Y-6702838D02*
X9531094Y-6721886D01*
X9531094Y-6721886D02*
X9531094Y-6779028D01*
X9531094Y-6779028D02*
X9521570Y-6798076D01*
X9521570Y-6798076D02*
X9512046Y-6807600D01*
X9512046Y-6807600D02*
X9492998Y-6817124D01*
X9492998Y-6817124D02*
X9464427Y-6817124D01*
X9588237Y-6683790D02*
X9664427Y-6683790D01*
X9616808Y-6617124D02*
X9616808Y-6788552D01*
X9616808Y-6788552D02*
X9626332Y-6807600D01*
X9626332Y-6807600D02*
X9645379Y-6817124D01*
X9645379Y-6817124D02*
X9664427Y-6817124D01*
X9721570Y-6807600D02*
X9740617Y-6817124D01*
X9740617Y-6817124D02*
X9778713Y-6817124D01*
X9778713Y-6817124D02*
X9797760Y-6807600D01*
X9797760Y-6807600D02*
X9807284Y-6788552D01*
X9807284Y-6788552D02*
X9807284Y-6779028D01*
X9807284Y-6779028D02*
X9797760Y-6759981D01*
X9797760Y-6759981D02*
X9778713Y-6750457D01*
X9778713Y-6750457D02*
X9750141Y-6750457D01*
X9750141Y-6750457D02*
X9731094Y-6740933D01*
X9731094Y-6740933D02*
X9721570Y-6721886D01*
X9721570Y-6721886D02*
X9721570Y-6712362D01*
X9721570Y-6712362D02*
X9731094Y-6693314D01*
X9731094Y-6693314D02*
X9750141Y-6683790D01*
X9750141Y-6683790D02*
X9778713Y-6683790D01*
X9778713Y-6683790D02*
X9797760Y-6693314D01*
X9873951Y-6893314D02*
X9883475Y-6883790D01*
X9883475Y-6883790D02*
X9902522Y-6855219D01*
X9902522Y-6855219D02*
X9912046Y-6836171D01*
X9912046Y-6836171D02*
X9921570Y-6807600D01*
X9921570Y-6807600D02*
X9931094Y-6759981D01*
X9931094Y-6759981D02*
X9931094Y-6721886D01*
X9931094Y-6721886D02*
X9921570Y-6674267D01*
X9921570Y-6674267D02*
X9912046Y-6645695D01*
X9912046Y-6645695D02*
X9902522Y-6626648D01*
X9902522Y-6626648D02*
X9883475Y-6598076D01*
X9883475Y-6598076D02*
X9873951Y-6588552D01*
D12*
X3429840Y-6939640D02*
X3429840Y-7039640D01*
X3379840Y-6989640D02*
X3479840Y-6989640D01*
D11*
X3845379Y-7081124D02*
X3731093Y-7081124D01*
X3788236Y-7081124D02*
X3788236Y-6881124D01*
X3788236Y-6881124D02*
X3769188Y-6909695D01*
X3769188Y-6909695D02*
X3750141Y-6928743D01*
X3750141Y-6928743D02*
X3731093Y-6938267D01*
X3931093Y-7062076D02*
X3940617Y-7071600D01*
X3940617Y-7071600D02*
X3931093Y-7081124D01*
X3931093Y-7081124D02*
X3921569Y-7071600D01*
X3921569Y-7071600D02*
X3931093Y-7062076D01*
X3931093Y-7062076D02*
X3931093Y-7081124D01*
X4064426Y-6881124D02*
X4083474Y-6881124D01*
X4083474Y-6881124D02*
X4102522Y-6890648D01*
X4102522Y-6890648D02*
X4112045Y-6900171D01*
X4112045Y-6900171D02*
X4121569Y-6919219D01*
X4121569Y-6919219D02*
X4131093Y-6957314D01*
X4131093Y-6957314D02*
X4131093Y-7004933D01*
X4131093Y-7004933D02*
X4121569Y-7043028D01*
X4121569Y-7043028D02*
X4112045Y-7062076D01*
X4112045Y-7062076D02*
X4102522Y-7071600D01*
X4102522Y-7071600D02*
X4083474Y-7081124D01*
X4083474Y-7081124D02*
X4064426Y-7081124D01*
X4064426Y-7081124D02*
X4045379Y-7071600D01*
X4045379Y-7071600D02*
X4035855Y-7062076D01*
X4035855Y-7062076D02*
X4026331Y-7043028D01*
X4026331Y-7043028D02*
X4016807Y-7004933D01*
X4016807Y-7004933D02*
X4016807Y-6957314D01*
X4016807Y-6957314D02*
X4026331Y-6919219D01*
X4026331Y-6919219D02*
X4035855Y-6900171D01*
X4035855Y-6900171D02*
X4045379Y-6890648D01*
X4045379Y-6890648D02*
X4064426Y-6881124D01*
X4254903Y-6881124D02*
X4273950Y-6881124D01*
X4273950Y-6881124D02*
X4292998Y-6890648D01*
X4292998Y-6890648D02*
X4302522Y-6900171D01*
X4302522Y-6900171D02*
X4312045Y-6919219D01*
X4312045Y-6919219D02*
X4321569Y-6957314D01*
X4321569Y-6957314D02*
X4321569Y-7004933D01*
X4321569Y-7004933D02*
X4312045Y-7043028D01*
X4312045Y-7043028D02*
X4302522Y-7062076D01*
X4302522Y-7062076D02*
X4292998Y-7071600D01*
X4292998Y-7071600D02*
X4273950Y-7081124D01*
X4273950Y-7081124D02*
X4254903Y-7081124D01*
X4254903Y-7081124D02*
X4235855Y-7071600D01*
X4235855Y-7071600D02*
X4226331Y-7062076D01*
X4226331Y-7062076D02*
X4216807Y-7043028D01*
X4216807Y-7043028D02*
X4207284Y-7004933D01*
X4207284Y-7004933D02*
X4207284Y-6957314D01*
X4207284Y-6957314D02*
X4216807Y-6919219D01*
X4216807Y-6919219D02*
X4226331Y-6900171D01*
X4226331Y-6900171D02*
X4235855Y-6890648D01*
X4235855Y-6890648D02*
X4254903Y-6881124D01*
X4445379Y-6881124D02*
X4464426Y-6881124D01*
X4464426Y-6881124D02*
X4483474Y-6890648D01*
X4483474Y-6890648D02*
X4492998Y-6900171D01*
X4492998Y-6900171D02*
X4502522Y-6919219D01*
X4502522Y-6919219D02*
X4512045Y-6957314D01*
X4512045Y-6957314D02*
X4512045Y-7004933D01*
X4512045Y-7004933D02*
X4502522Y-7043028D01*
X4502522Y-7043028D02*
X4492998Y-7062076D01*
X4492998Y-7062076D02*
X4483474Y-7071600D01*
X4483474Y-7071600D02*
X4464426Y-7081124D01*
X4464426Y-7081124D02*
X4445379Y-7081124D01*
X4445379Y-7081124D02*
X4426331Y-7071600D01*
X4426331Y-7071600D02*
X4416807Y-7062076D01*
X4416807Y-7062076D02*
X4407284Y-7043028D01*
X4407284Y-7043028D02*
X4397760Y-7004933D01*
X4397760Y-7004933D02*
X4397760Y-6957314D01*
X4397760Y-6957314D02*
X4407284Y-6919219D01*
X4407284Y-6919219D02*
X4416807Y-6900171D01*
X4416807Y-6900171D02*
X4426331Y-6890648D01*
X4426331Y-6890648D02*
X4445379Y-6881124D01*
X4597760Y-7081124D02*
X4597760Y-6947790D01*
X4597760Y-6966838D02*
X4607284Y-6957314D01*
X4607284Y-6957314D02*
X4626331Y-6947790D01*
X4626331Y-6947790D02*
X4654903Y-6947790D01*
X4654903Y-6947790D02*
X4673950Y-6957314D01*
X4673950Y-6957314D02*
X4683474Y-6976362D01*
X4683474Y-6976362D02*
X4683474Y-7081124D01*
X4683474Y-6976362D02*
X4692998Y-6957314D01*
X4692998Y-6957314D02*
X4712045Y-6947790D01*
X4712045Y-6947790D02*
X4740617Y-6947790D01*
X4740617Y-6947790D02*
X4759665Y-6957314D01*
X4759665Y-6957314D02*
X4769188Y-6976362D01*
X4769188Y-6976362D02*
X4769188Y-7081124D01*
X4864426Y-7081124D02*
X4864426Y-6947790D01*
X4864426Y-6966838D02*
X4873950Y-6957314D01*
X4873950Y-6957314D02*
X4892998Y-6947790D01*
X4892998Y-6947790D02*
X4921569Y-6947790D01*
X4921569Y-6947790D02*
X4940617Y-6957314D01*
X4940617Y-6957314D02*
X4950141Y-6976362D01*
X4950141Y-6976362D02*
X4950141Y-7081124D01*
X4950141Y-6976362D02*
X4959665Y-6957314D01*
X4959665Y-6957314D02*
X4978712Y-6947790D01*
X4978712Y-6947790D02*
X5007284Y-6947790D01*
X5007284Y-6947790D02*
X5026331Y-6957314D01*
X5026331Y-6957314D02*
X5035855Y-6976362D01*
X5035855Y-6976362D02*
X5035855Y-7081124D01*
X5426331Y-6871600D02*
X5254903Y-7128743D01*
X5683474Y-6881124D02*
X5702522Y-6881124D01*
X5702522Y-6881124D02*
X5721569Y-6890648D01*
X5721569Y-6890648D02*
X5731093Y-6900171D01*
X5731093Y-6900171D02*
X5740617Y-6919219D01*
X5740617Y-6919219D02*
X5750141Y-6957314D01*
X5750141Y-6957314D02*
X5750141Y-7004933D01*
X5750141Y-7004933D02*
X5740617Y-7043028D01*
X5740617Y-7043028D02*
X5731093Y-7062076D01*
X5731093Y-7062076D02*
X5721569Y-7071600D01*
X5721569Y-7071600D02*
X5702522Y-7081124D01*
X5702522Y-7081124D02*
X5683474Y-7081124D01*
X5683474Y-7081124D02*
X5664426Y-7071600D01*
X5664426Y-7071600D02*
X5654903Y-7062076D01*
X5654903Y-7062076D02*
X5645379Y-7043028D01*
X5645379Y-7043028D02*
X5635855Y-7004933D01*
X5635855Y-7004933D02*
X5635855Y-6957314D01*
X5635855Y-6957314D02*
X5645379Y-6919219D01*
X5645379Y-6919219D02*
X5654903Y-6900171D01*
X5654903Y-6900171D02*
X5664426Y-6890648D01*
X5664426Y-6890648D02*
X5683474Y-6881124D01*
X5835855Y-7062076D02*
X5845379Y-7071600D01*
X5845379Y-7071600D02*
X5835855Y-7081124D01*
X5835855Y-7081124D02*
X5826331Y-7071600D01*
X5826331Y-7071600D02*
X5835855Y-7062076D01*
X5835855Y-7062076D02*
X5835855Y-7081124D01*
X5969188Y-6881124D02*
X5988236Y-6881124D01*
X5988236Y-6881124D02*
X6007284Y-6890648D01*
X6007284Y-6890648D02*
X6016807Y-6900171D01*
X6016807Y-6900171D02*
X6026331Y-6919219D01*
X6026331Y-6919219D02*
X6035855Y-6957314D01*
X6035855Y-6957314D02*
X6035855Y-7004933D01*
X6035855Y-7004933D02*
X6026331Y-7043028D01*
X6026331Y-7043028D02*
X6016807Y-7062076D01*
X6016807Y-7062076D02*
X6007284Y-7071600D01*
X6007284Y-7071600D02*
X5988236Y-7081124D01*
X5988236Y-7081124D02*
X5969188Y-7081124D01*
X5969188Y-7081124D02*
X5950141Y-7071600D01*
X5950141Y-7071600D02*
X5940617Y-7062076D01*
X5940617Y-7062076D02*
X5931093Y-7043028D01*
X5931093Y-7043028D02*
X5921569Y-7004933D01*
X5921569Y-7004933D02*
X5921569Y-6957314D01*
X5921569Y-6957314D02*
X5931093Y-6919219D01*
X5931093Y-6919219D02*
X5940617Y-6900171D01*
X5940617Y-6900171D02*
X5950141Y-6890648D01*
X5950141Y-6890648D02*
X5969188Y-6881124D01*
X6102522Y-6881124D02*
X6226331Y-6881124D01*
X6226331Y-6881124D02*
X6159665Y-6957314D01*
X6159665Y-6957314D02*
X6188236Y-6957314D01*
X6188236Y-6957314D02*
X6207284Y-6966838D01*
X6207284Y-6966838D02*
X6216807Y-6976362D01*
X6216807Y-6976362D02*
X6226331Y-6995409D01*
X6226331Y-6995409D02*
X6226331Y-7043028D01*
X6226331Y-7043028D02*
X6216807Y-7062076D01*
X6216807Y-7062076D02*
X6207284Y-7071600D01*
X6207284Y-7071600D02*
X6188236Y-7081124D01*
X6188236Y-7081124D02*
X6131093Y-7081124D01*
X6131093Y-7081124D02*
X6112046Y-7071600D01*
X6112046Y-7071600D02*
X6102522Y-7062076D01*
X6321569Y-7081124D02*
X6359665Y-7081124D01*
X6359665Y-7081124D02*
X6378712Y-7071600D01*
X6378712Y-7071600D02*
X6388236Y-7062076D01*
X6388236Y-7062076D02*
X6407284Y-7033505D01*
X6407284Y-7033505D02*
X6416807Y-6995409D01*
X6416807Y-6995409D02*
X6416807Y-6919219D01*
X6416807Y-6919219D02*
X6407284Y-6900171D01*
X6407284Y-6900171D02*
X6397760Y-6890648D01*
X6397760Y-6890648D02*
X6378712Y-6881124D01*
X6378712Y-6881124D02*
X6340617Y-6881124D01*
X6340617Y-6881124D02*
X6321569Y-6890648D01*
X6321569Y-6890648D02*
X6312046Y-6900171D01*
X6312046Y-6900171D02*
X6302522Y-6919219D01*
X6302522Y-6919219D02*
X6302522Y-6966838D01*
X6302522Y-6966838D02*
X6312046Y-6985886D01*
X6312046Y-6985886D02*
X6321569Y-6995409D01*
X6321569Y-6995409D02*
X6340617Y-7004933D01*
X6340617Y-7004933D02*
X6378712Y-7004933D01*
X6378712Y-7004933D02*
X6397760Y-6995409D01*
X6397760Y-6995409D02*
X6407284Y-6985886D01*
X6407284Y-6985886D02*
X6416807Y-6966838D01*
X6588236Y-6947790D02*
X6588236Y-7081124D01*
X6540617Y-6871600D02*
X6492998Y-7014457D01*
X6492998Y-7014457D02*
X6616807Y-7014457D01*
X6683474Y-6881124D02*
X6683474Y-6919219D01*
X6759665Y-6881124D02*
X6759665Y-6919219D01*
X7054903Y-7157314D02*
X7045379Y-7147790D01*
X7045379Y-7147790D02*
X7026331Y-7119219D01*
X7026331Y-7119219D02*
X7016808Y-7100171D01*
X7016808Y-7100171D02*
X7007284Y-7071600D01*
X7007284Y-7071600D02*
X6997760Y-7023981D01*
X6997760Y-7023981D02*
X6997760Y-6985886D01*
X6997760Y-6985886D02*
X7007284Y-6938267D01*
X7007284Y-6938267D02*
X7016808Y-6909695D01*
X7016808Y-6909695D02*
X7026331Y-6890648D01*
X7026331Y-6890648D02*
X7045379Y-6862076D01*
X7045379Y-6862076D02*
X7054903Y-6852552D01*
X7226331Y-6881124D02*
X7131093Y-6881124D01*
X7131093Y-6881124D02*
X7121569Y-6976362D01*
X7121569Y-6976362D02*
X7131093Y-6966838D01*
X7131093Y-6966838D02*
X7150141Y-6957314D01*
X7150141Y-6957314D02*
X7197760Y-6957314D01*
X7197760Y-6957314D02*
X7216808Y-6966838D01*
X7216808Y-6966838D02*
X7226331Y-6976362D01*
X7226331Y-6976362D02*
X7235855Y-6995409D01*
X7235855Y-6995409D02*
X7235855Y-7043028D01*
X7235855Y-7043028D02*
X7226331Y-7062076D01*
X7226331Y-7062076D02*
X7216808Y-7071600D01*
X7216808Y-7071600D02*
X7197760Y-7081124D01*
X7197760Y-7081124D02*
X7150141Y-7081124D01*
X7150141Y-7081124D02*
X7131093Y-7071600D01*
X7131093Y-7071600D02*
X7121569Y-7062076D01*
X7473950Y-7081124D02*
X7473950Y-6881124D01*
X7559665Y-7081124D02*
X7559665Y-6976362D01*
X7559665Y-6976362D02*
X7550141Y-6957314D01*
X7550141Y-6957314D02*
X7531093Y-6947790D01*
X7531093Y-6947790D02*
X7502522Y-6947790D01*
X7502522Y-6947790D02*
X7483474Y-6957314D01*
X7483474Y-6957314D02*
X7473950Y-6966838D01*
X7683474Y-7081124D02*
X7664427Y-7071600D01*
X7664427Y-7071600D02*
X7654903Y-7062076D01*
X7654903Y-7062076D02*
X7645379Y-7043028D01*
X7645379Y-7043028D02*
X7645379Y-6985886D01*
X7645379Y-6985886D02*
X7654903Y-6966838D01*
X7654903Y-6966838D02*
X7664427Y-6957314D01*
X7664427Y-6957314D02*
X7683474Y-6947790D01*
X7683474Y-6947790D02*
X7712046Y-6947790D01*
X7712046Y-6947790D02*
X7731093Y-6957314D01*
X7731093Y-6957314D02*
X7740617Y-6966838D01*
X7740617Y-6966838D02*
X7750141Y-6985886D01*
X7750141Y-6985886D02*
X7750141Y-7043028D01*
X7750141Y-7043028D02*
X7740617Y-7062076D01*
X7740617Y-7062076D02*
X7731093Y-7071600D01*
X7731093Y-7071600D02*
X7712046Y-7081124D01*
X7712046Y-7081124D02*
X7683474Y-7081124D01*
X7864427Y-7081124D02*
X7845379Y-7071600D01*
X7845379Y-7071600D02*
X7835855Y-7052552D01*
X7835855Y-7052552D02*
X7835855Y-6881124D01*
X8016808Y-7071600D02*
X7997760Y-7081124D01*
X7997760Y-7081124D02*
X7959665Y-7081124D01*
X7959665Y-7081124D02*
X7940617Y-7071600D01*
X7940617Y-7071600D02*
X7931093Y-7052552D01*
X7931093Y-7052552D02*
X7931093Y-6976362D01*
X7931093Y-6976362D02*
X7940617Y-6957314D01*
X7940617Y-6957314D02*
X7959665Y-6947790D01*
X7959665Y-6947790D02*
X7997760Y-6947790D01*
X7997760Y-6947790D02*
X8016808Y-6957314D01*
X8016808Y-6957314D02*
X8026331Y-6976362D01*
X8026331Y-6976362D02*
X8026331Y-6995409D01*
X8026331Y-6995409D02*
X7931093Y-7014457D01*
X8102522Y-7071600D02*
X8121570Y-7081124D01*
X8121570Y-7081124D02*
X8159665Y-7081124D01*
X8159665Y-7081124D02*
X8178712Y-7071600D01*
X8178712Y-7071600D02*
X8188236Y-7052552D01*
X8188236Y-7052552D02*
X8188236Y-7043028D01*
X8188236Y-7043028D02*
X8178712Y-7023981D01*
X8178712Y-7023981D02*
X8159665Y-7014457D01*
X8159665Y-7014457D02*
X8131093Y-7014457D01*
X8131093Y-7014457D02*
X8112046Y-7004933D01*
X8112046Y-7004933D02*
X8102522Y-6985886D01*
X8102522Y-6985886D02*
X8102522Y-6976362D01*
X8102522Y-6976362D02*
X8112046Y-6957314D01*
X8112046Y-6957314D02*
X8131093Y-6947790D01*
X8131093Y-6947790D02*
X8159665Y-6947790D01*
X8159665Y-6947790D02*
X8178712Y-6957314D01*
X8254903Y-7157314D02*
X8264427Y-7147790D01*
X8264427Y-7147790D02*
X8283474Y-7119219D01*
X8283474Y-7119219D02*
X8292998Y-7100171D01*
X8292998Y-7100171D02*
X8302522Y-7071600D01*
X8302522Y-7071600D02*
X8312046Y-7023981D01*
X8312046Y-7023981D02*
X8312046Y-6985886D01*
X8312046Y-6985886D02*
X8302522Y-6938267D01*
X8302522Y-6938267D02*
X8292998Y-6909695D01*
X8292998Y-6909695D02*
X8283474Y-6890648D01*
X8283474Y-6890648D02*
X8264427Y-6862076D01*
X8264427Y-6862076D02*
X8254903Y-6852552D01*
M02*
