M48
; DRILL file {KiCad 8.0.8} date 2025-06-15T19:23:16+0800
; FORMAT={-:-/ absolute / inch / decimal}
; #@! TF.CreationDate,2025-06-15T19:23:16+08:00
; #@! TF.GenerationSoftware,Kicad,Pcbnew,8.0.8
; #@! TF.FileFunction,Plated,1,2,PTH
FMAT,2
INCH
; #@! TA.AperFunction,Plated,PTH,ViaDrill
T1C0.0118
; #@! TA.AperFunction,Plated,PTH,ComponentDrill
T2C0.0236
; #@! TA.AperFunction,Plated,PTH,ComponentDrill
T3C0.0394
%
G90
G05
T1
X1.5179Y-2.083
X1.518Y-1.965
X1.6363Y-1.886
X1.6363Y-1.9175
X1.6363Y-2.1105
X1.6363Y-2.142
X1.719Y-2.179
X1.8002Y-1.9346
X1.818Y-2.147
X1.8898Y-1.972
X1.89Y-1.831
X2.0471Y-1.9069
X2.0471Y-1.9929
X2.19Y-2.041
T3
X2.315Y-1.805
X2.315Y-1.905
X2.315Y-2.005
X2.315Y-2.105
X2.315Y-2.205
T2
G00X1.4475Y-1.8439
M15
G01X1.4239Y-1.8439
M16
G05
G00X1.4475Y-2.1841
M15
G01X1.4239Y-2.1841
M16
G05
G00X1.6219Y-1.8439
M15
G01X1.5786Y-1.8439
M16
G05
G00X1.6219Y-2.1841
M15
G01X1.5786Y-2.1841
M16
G05
M30
