%TF.GenerationSoftware,KiCad,Pcbnew,8.0.8*%
%TF.CreationDate,2025-06-15T19:23:17+08:00*%
%TF.ProjectId,USB_C_Connector,5553425f-435f-4436-9f6e-6e6563746f72,rev?*%
%TF.SameCoordinates,Original*%
%TF.FileFunction,Copper,L2,Bot*%
%TF.FilePolarity,Positive*%
%FSLAX46Y46*%
G04 Gerber Fmt 4.6, Leading zero omitted, Abs format (unit mm)*
G04 Created by KiCad (PCBNEW 8.0.8) date 2025-06-15 19:23:17*
%MOMM*%
%LPD*%
G01*
G04 APERTURE LIST*
G04 Aperture macros list*
%AMRoundRect*
0 Rectangle with rounded corners*
0 $1 Rounding radius*
0 $2 $3 $4 $5 $6 $7 $8 $9 X,Y pos of 4 corners*
0 Add a 4 corners polygon primitive as box body*
4,1,4,$2,$3,$4,$5,$6,$7,$8,$9,$2,$3,0*
0 Add four circle primitives for the rounded corners*
1,1,$1+$1,$2,$3*
1,1,$1+$1,$4,$5*
1,1,$1+$1,$6,$7*
1,1,$1+$1,$8,$9*
0 Add four rect primitives between the rounded corners*
20,1,$1+$1,$2,$3,$4,$5,0*
20,1,$1+$1,$4,$5,$6,$7,0*
20,1,$1+$1,$6,$7,$8,$9,0*
20,1,$1+$1,$8,$9,$2,$3,0*%
G04 Aperture macros list end*
%TA.AperFunction,ComponentPad*%
%ADD10R,1.700000X1.700000*%
%TD*%
%TA.AperFunction,ComponentPad*%
%ADD11O,1.700000X1.700000*%
%TD*%
%TA.AperFunction,HeatsinkPad*%
%ADD12O,2.100000X1.000000*%
%TD*%
%TA.AperFunction,HeatsinkPad*%
%ADD13O,1.600000X1.000000*%
%TD*%
%TA.AperFunction,SMDPad,CuDef*%
%ADD14RoundRect,0.237500X0.250000X0.237500X-0.250000X0.237500X-0.250000X-0.237500X0.250000X-0.237500X0*%
%TD*%
%TA.AperFunction,SMDPad,CuDef*%
%ADD15RoundRect,0.237500X0.287500X0.237500X-0.287500X0.237500X-0.287500X-0.237500X0.287500X-0.237500X0*%
%TD*%
%TA.AperFunction,ViaPad*%
%ADD16C,0.600000*%
%TD*%
%TA.AperFunction,Conductor*%
%ADD17C,0.300000*%
%TD*%
%TA.AperFunction,Conductor*%
%ADD18C,0.500000*%
%TD*%
G04 APERTURE END LIST*
D10*
%TO.P,J2,1,Pin_1*%
%TO.N,GND*%
X58801000Y-56007000D03*
D11*
%TO.P,J2,2,Pin_2*%
%TO.N,D+*%
X58801000Y-53467000D03*
%TO.P,J2,3,Pin_3*%
%TO.N,D-*%
X58801000Y-50927000D03*
%TO.P,J2,4,Pin_4*%
%TO.N,Net-(D2-A)*%
X58801000Y-48387000D03*
%TO.P,J2,5,Pin_5*%
%TO.N,Net-(D1-A)*%
X58801000Y-45847000D03*
%TD*%
D12*
%TO.P,J1,S1,SHIELD*%
%TO.N,GND*%
X40645800Y-46835600D03*
D13*
X36465800Y-46835600D03*
D12*
X40645800Y-55475600D03*
D13*
X36465800Y-55475600D03*
%TD*%
D14*
%TO.P,R2,1*%
%TO.N,Net-(J1-CC2)*%
X38555300Y-52908200D03*
%TO.P,R2,2*%
%TO.N,GND*%
X36730300Y-52908200D03*
%TD*%
D15*
%TO.P,F1,1*%
%TO.N,Net-(D2-A)*%
X47458600Y-49123600D03*
%TO.P,F1,2*%
%TO.N,+5V*%
X45708600Y-49123600D03*
%TD*%
%TO.P,F2,1*%
%TO.N,Net-(D1-A)*%
X49744600Y-46507400D03*
%TO.P,F2,2*%
%TO.N,+3.3V*%
X47994600Y-46507400D03*
%TD*%
D14*
%TO.P,R1,1*%
%TO.N,Net-(J1-CC1)*%
X38557200Y-49911000D03*
%TO.P,R1,2*%
%TO.N,GND*%
X36732200Y-49911000D03*
%TD*%
D16*
%TO.N,GND*%
X43662600Y-55345500D03*
X48000500Y-50087700D03*
X41560800Y-47905600D03*
X41560800Y-54405600D03*
X55626000Y-51841400D03*
X46177200Y-54533800D03*
%TO.N,+5V*%
X45725500Y-49137700D03*
X41560800Y-48705600D03*
X41560800Y-53605600D03*
%TO.N,+3.3V*%
X48004900Y-46507400D03*
%TO.N,Net-(J1-CC1)*%
X38557200Y-49911000D03*
%TO.N,Net-(J1-CC2)*%
X38555300Y-52908200D03*
%TO.N,Net-(D1-A)*%
X51996100Y-48435900D03*
%TO.N,Net-(D2-A)*%
X51996100Y-50620300D03*
%TD*%
D17*
%TO.N,GND*%
X36465800Y-49644600D02*
X36732200Y-49911000D01*
D18*
X45365500Y-55345500D02*
X46177200Y-54533800D01*
X48000500Y-52710500D02*
X48000500Y-50087700D01*
X55626000Y-51841400D02*
X55626000Y-54864000D01*
X43662600Y-55345500D02*
X45365500Y-55345500D01*
X55626000Y-51841400D02*
X48869600Y-51841400D01*
D17*
X36730300Y-49912900D02*
X36732200Y-49911000D01*
X36465800Y-53172700D02*
X36730300Y-52908200D01*
X40645800Y-55475600D02*
X41560800Y-54560600D01*
D18*
X48869600Y-51841400D02*
X48000500Y-52710500D01*
D17*
X36465800Y-55475600D02*
X36465800Y-53172700D01*
D18*
X56769000Y-56007000D02*
X58801000Y-56007000D01*
D17*
X40645800Y-46835600D02*
X41560800Y-47750600D01*
D18*
X46177200Y-54533800D02*
X48000500Y-52710500D01*
D17*
X41560800Y-54560600D02*
X41560800Y-54405600D01*
X36465800Y-46835600D02*
X40645800Y-46835600D01*
X36465800Y-46835600D02*
X36465800Y-49644600D01*
X41560800Y-47750600D02*
X41560800Y-47905600D01*
X36465800Y-55475600D02*
X40645800Y-55475600D01*
D18*
X55626000Y-54864000D02*
X56769000Y-56007000D01*
D17*
X36730300Y-52908200D02*
X36730300Y-49912900D01*
%TO.N,+5V*%
X45711400Y-49123600D02*
X45725500Y-49137700D01*
X45683200Y-49123600D02*
X45711400Y-49123600D01*
X41560800Y-48705600D02*
X41560800Y-53605600D01*
%TO.N,+3.3V*%
X48008600Y-46507400D02*
X48004900Y-46507400D01*
D18*
%TO.N,Net-(D1-A)*%
X50901600Y-48412400D02*
X51972600Y-48412400D01*
X51996100Y-48435900D02*
X54027700Y-48435900D01*
X56616600Y-45847000D02*
X58801000Y-45847000D01*
X49744600Y-47255400D02*
X50901600Y-48412400D01*
X49744600Y-46507400D02*
X49744600Y-47255400D01*
X54027700Y-48435900D02*
X56616600Y-45847000D01*
X51972600Y-48412400D02*
X51996100Y-48435900D01*
%TO.N,Net-(D2-A)*%
X52023400Y-50647600D02*
X54787800Y-50647600D01*
X48742600Y-49123600D02*
X50215800Y-50596800D01*
X51996100Y-50620300D02*
X52023400Y-50647600D01*
X47458600Y-49123600D02*
X48742600Y-49123600D01*
X58164100Y-48435900D02*
X58166000Y-48437800D01*
X54787800Y-50647600D02*
X57048400Y-48387000D01*
X50215800Y-50596800D02*
X51972600Y-50596800D01*
X51972600Y-50596800D02*
X51996100Y-50620300D01*
X57048400Y-48387000D02*
X58801000Y-48387000D01*
%TD*%
M02*
