%TF.GenerationSoftware,KiCad,Pcbnew,8.0.8*%
%TF.CreationDate,2025-06-15T19:23:17+08:00*%
%TF.ProjectId,USB_C_Connector,5553425f-435f-4436-9f6e-6e6563746f72,rev?*%
%TF.SameCoordinates,Original*%
%TF.FileFunction,Drillmap*%
%TF.FilePolarity,Positive*%
%FSLAX45Y45*%
G04 Gerber Fmt 4.5, Leading zero omitted, Abs format (unit mm)*
G04 Created by KiCad (PCBNEW 8.0.8) date 2025-06-15 19:23:17*
%MOMM*%
%LPD*%
G01*
G04 APERTURE LIST*
%ADD10C,0.050000*%
%ADD11C,0.200000*%
%ADD12C,0.100000*%
G04 APERTURE END LIST*
D10*
X3482340Y-4353560D02*
X6451600Y-4353560D01*
X6451600Y-5819140D01*
X3482340Y-5819140D01*
X3482340Y-4353560D01*
D11*
D12*
X3979080Y-4794060D02*
X4044080Y-4859060D01*
X4044080Y-4794060D02*
X3979080Y-4859060D01*
X3979080Y-5372060D02*
X4044080Y-5437060D01*
X4044080Y-5372060D02*
X3979080Y-5437060D01*
D11*
X3740617Y-6133124D02*
X3740617Y-5933124D01*
X3740617Y-5933124D02*
X3788236Y-5933124D01*
X3788236Y-5933124D02*
X3816807Y-5942648D01*
X3816807Y-5942648D02*
X3835855Y-5961695D01*
X3835855Y-5961695D02*
X3845379Y-5980743D01*
X3845379Y-5980743D02*
X3854902Y-6018838D01*
X3854902Y-6018838D02*
X3854902Y-6047409D01*
X3854902Y-6047409D02*
X3845379Y-6085505D01*
X3845379Y-6085505D02*
X3835855Y-6104552D01*
X3835855Y-6104552D02*
X3816807Y-6123600D01*
X3816807Y-6123600D02*
X3788236Y-6133124D01*
X3788236Y-6133124D02*
X3740617Y-6133124D01*
X3940617Y-6133124D02*
X3940617Y-5999790D01*
X3940617Y-6037886D02*
X3950141Y-6018838D01*
X3950141Y-6018838D02*
X3959664Y-6009314D01*
X3959664Y-6009314D02*
X3978712Y-5999790D01*
X3978712Y-5999790D02*
X3997760Y-5999790D01*
X4064426Y-6133124D02*
X4064426Y-5999790D01*
X4064426Y-5933124D02*
X4054902Y-5942648D01*
X4054902Y-5942648D02*
X4064426Y-5952171D01*
X4064426Y-5952171D02*
X4073950Y-5942648D01*
X4073950Y-5942648D02*
X4064426Y-5933124D01*
X4064426Y-5933124D02*
X4064426Y-5952171D01*
X4188236Y-6133124D02*
X4169188Y-6123600D01*
X4169188Y-6123600D02*
X4159664Y-6104552D01*
X4159664Y-6104552D02*
X4159664Y-5933124D01*
X4292998Y-6133124D02*
X4273950Y-6123600D01*
X4273950Y-6123600D02*
X4264426Y-6104552D01*
X4264426Y-6104552D02*
X4264426Y-5933124D01*
X4521569Y-6133124D02*
X4521569Y-5933124D01*
X4521569Y-5933124D02*
X4588236Y-6075981D01*
X4588236Y-6075981D02*
X4654903Y-5933124D01*
X4654903Y-5933124D02*
X4654903Y-6133124D01*
X4835855Y-6133124D02*
X4835855Y-6028362D01*
X4835855Y-6028362D02*
X4826331Y-6009314D01*
X4826331Y-6009314D02*
X4807284Y-5999790D01*
X4807284Y-5999790D02*
X4769188Y-5999790D01*
X4769188Y-5999790D02*
X4750141Y-6009314D01*
X4835855Y-6123600D02*
X4816807Y-6133124D01*
X4816807Y-6133124D02*
X4769188Y-6133124D01*
X4769188Y-6133124D02*
X4750141Y-6123600D01*
X4750141Y-6123600D02*
X4740617Y-6104552D01*
X4740617Y-6104552D02*
X4740617Y-6085505D01*
X4740617Y-6085505D02*
X4750141Y-6066457D01*
X4750141Y-6066457D02*
X4769188Y-6056933D01*
X4769188Y-6056933D02*
X4816807Y-6056933D01*
X4816807Y-6056933D02*
X4835855Y-6047409D01*
X4931093Y-5999790D02*
X4931093Y-6199790D01*
X4931093Y-6009314D02*
X4950141Y-5999790D01*
X4950141Y-5999790D02*
X4988236Y-5999790D01*
X4988236Y-5999790D02*
X5007284Y-6009314D01*
X5007284Y-6009314D02*
X5016807Y-6018838D01*
X5016807Y-6018838D02*
X5026331Y-6037886D01*
X5026331Y-6037886D02*
X5026331Y-6095028D01*
X5026331Y-6095028D02*
X5016807Y-6114076D01*
X5016807Y-6114076D02*
X5007284Y-6123600D01*
X5007284Y-6123600D02*
X4988236Y-6133124D01*
X4988236Y-6133124D02*
X4950141Y-6133124D01*
X4950141Y-6133124D02*
X4931093Y-6123600D01*
X5112045Y-6114076D02*
X5121569Y-6123600D01*
X5121569Y-6123600D02*
X5112045Y-6133124D01*
X5112045Y-6133124D02*
X5102522Y-6123600D01*
X5102522Y-6123600D02*
X5112045Y-6114076D01*
X5112045Y-6114076D02*
X5112045Y-6133124D01*
X5112045Y-6009314D02*
X5121569Y-6018838D01*
X5121569Y-6018838D02*
X5112045Y-6028362D01*
X5112045Y-6028362D02*
X5102522Y-6018838D01*
X5102522Y-6018838D02*
X5112045Y-6009314D01*
X5112045Y-6009314D02*
X5112045Y-6028362D01*
D12*
X3414840Y-6429140D02*
X3479840Y-6494140D01*
X3479840Y-6429140D02*
X3414840Y-6494140D01*
D11*
X3778712Y-6353124D02*
X3797760Y-6353124D01*
X3797760Y-6353124D02*
X3816807Y-6362648D01*
X3816807Y-6362648D02*
X3826331Y-6372171D01*
X3826331Y-6372171D02*
X3835855Y-6391219D01*
X3835855Y-6391219D02*
X3845379Y-6429314D01*
X3845379Y-6429314D02*
X3845379Y-6476933D01*
X3845379Y-6476933D02*
X3835855Y-6515028D01*
X3835855Y-6515028D02*
X3826331Y-6534076D01*
X3826331Y-6534076D02*
X3816807Y-6543600D01*
X3816807Y-6543600D02*
X3797760Y-6553124D01*
X3797760Y-6553124D02*
X3778712Y-6553124D01*
X3778712Y-6553124D02*
X3759664Y-6543600D01*
X3759664Y-6543600D02*
X3750141Y-6534076D01*
X3750141Y-6534076D02*
X3740617Y-6515028D01*
X3740617Y-6515028D02*
X3731093Y-6476933D01*
X3731093Y-6476933D02*
X3731093Y-6429314D01*
X3731093Y-6429314D02*
X3740617Y-6391219D01*
X3740617Y-6391219D02*
X3750141Y-6372171D01*
X3750141Y-6372171D02*
X3759664Y-6362648D01*
X3759664Y-6362648D02*
X3778712Y-6353124D01*
X3931093Y-6534076D02*
X3940617Y-6543600D01*
X3940617Y-6543600D02*
X3931093Y-6553124D01*
X3931093Y-6553124D02*
X3921569Y-6543600D01*
X3921569Y-6543600D02*
X3931093Y-6534076D01*
X3931093Y-6534076D02*
X3931093Y-6553124D01*
X4112045Y-6353124D02*
X4073950Y-6353124D01*
X4073950Y-6353124D02*
X4054902Y-6362648D01*
X4054902Y-6362648D02*
X4045379Y-6372171D01*
X4045379Y-6372171D02*
X4026331Y-6400743D01*
X4026331Y-6400743D02*
X4016807Y-6438838D01*
X4016807Y-6438838D02*
X4016807Y-6515028D01*
X4016807Y-6515028D02*
X4026331Y-6534076D01*
X4026331Y-6534076D02*
X4035855Y-6543600D01*
X4035855Y-6543600D02*
X4054902Y-6553124D01*
X4054902Y-6553124D02*
X4092998Y-6553124D01*
X4092998Y-6553124D02*
X4112045Y-6543600D01*
X4112045Y-6543600D02*
X4121569Y-6534076D01*
X4121569Y-6534076D02*
X4131093Y-6515028D01*
X4131093Y-6515028D02*
X4131093Y-6467409D01*
X4131093Y-6467409D02*
X4121569Y-6448362D01*
X4121569Y-6448362D02*
X4112045Y-6438838D01*
X4112045Y-6438838D02*
X4092998Y-6429314D01*
X4092998Y-6429314D02*
X4054902Y-6429314D01*
X4054902Y-6429314D02*
X4035855Y-6438838D01*
X4035855Y-6438838D02*
X4026331Y-6448362D01*
X4026331Y-6448362D02*
X4016807Y-6467409D01*
X4312045Y-6353124D02*
X4216807Y-6353124D01*
X4216807Y-6353124D02*
X4207284Y-6448362D01*
X4207284Y-6448362D02*
X4216807Y-6438838D01*
X4216807Y-6438838D02*
X4235855Y-6429314D01*
X4235855Y-6429314D02*
X4283474Y-6429314D01*
X4283474Y-6429314D02*
X4302522Y-6438838D01*
X4302522Y-6438838D02*
X4312045Y-6448362D01*
X4312045Y-6448362D02*
X4321569Y-6467409D01*
X4321569Y-6467409D02*
X4321569Y-6515028D01*
X4321569Y-6515028D02*
X4312045Y-6534076D01*
X4312045Y-6534076D02*
X4302522Y-6543600D01*
X4302522Y-6543600D02*
X4283474Y-6553124D01*
X4283474Y-6553124D02*
X4235855Y-6553124D01*
X4235855Y-6553124D02*
X4216807Y-6543600D01*
X4216807Y-6543600D02*
X4207284Y-6534076D01*
X4445379Y-6353124D02*
X4464426Y-6353124D01*
X4464426Y-6353124D02*
X4483474Y-6362648D01*
X4483474Y-6362648D02*
X4492998Y-6372171D01*
X4492998Y-6372171D02*
X4502522Y-6391219D01*
X4502522Y-6391219D02*
X4512045Y-6429314D01*
X4512045Y-6429314D02*
X4512045Y-6476933D01*
X4512045Y-6476933D02*
X4502522Y-6515028D01*
X4502522Y-6515028D02*
X4492998Y-6534076D01*
X4492998Y-6534076D02*
X4483474Y-6543600D01*
X4483474Y-6543600D02*
X4464426Y-6553124D01*
X4464426Y-6553124D02*
X4445379Y-6553124D01*
X4445379Y-6553124D02*
X4426331Y-6543600D01*
X4426331Y-6543600D02*
X4416807Y-6534076D01*
X4416807Y-6534076D02*
X4407284Y-6515028D01*
X4407284Y-6515028D02*
X4397760Y-6476933D01*
X4397760Y-6476933D02*
X4397760Y-6429314D01*
X4397760Y-6429314D02*
X4407284Y-6391219D01*
X4407284Y-6391219D02*
X4416807Y-6372171D01*
X4416807Y-6372171D02*
X4426331Y-6362648D01*
X4426331Y-6362648D02*
X4445379Y-6353124D01*
X4597760Y-6553124D02*
X4597760Y-6419790D01*
X4597760Y-6438838D02*
X4607284Y-6429314D01*
X4607284Y-6429314D02*
X4626331Y-6419790D01*
X4626331Y-6419790D02*
X4654903Y-6419790D01*
X4654903Y-6419790D02*
X4673950Y-6429314D01*
X4673950Y-6429314D02*
X4683474Y-6448362D01*
X4683474Y-6448362D02*
X4683474Y-6553124D01*
X4683474Y-6448362D02*
X4692998Y-6429314D01*
X4692998Y-6429314D02*
X4712045Y-6419790D01*
X4712045Y-6419790D02*
X4740617Y-6419790D01*
X4740617Y-6419790D02*
X4759665Y-6429314D01*
X4759665Y-6429314D02*
X4769188Y-6448362D01*
X4769188Y-6448362D02*
X4769188Y-6553124D01*
X4864426Y-6553124D02*
X4864426Y-6419790D01*
X4864426Y-6438838D02*
X4873950Y-6429314D01*
X4873950Y-6429314D02*
X4892998Y-6419790D01*
X4892998Y-6419790D02*
X4921569Y-6419790D01*
X4921569Y-6419790D02*
X4940617Y-6429314D01*
X4940617Y-6429314D02*
X4950141Y-6448362D01*
X4950141Y-6448362D02*
X4950141Y-6553124D01*
X4950141Y-6448362D02*
X4959665Y-6429314D01*
X4959665Y-6429314D02*
X4978712Y-6419790D01*
X4978712Y-6419790D02*
X5007284Y-6419790D01*
X5007284Y-6419790D02*
X5026331Y-6429314D01*
X5026331Y-6429314D02*
X5035855Y-6448362D01*
X5035855Y-6448362D02*
X5035855Y-6553124D01*
X5426331Y-6343600D02*
X5254903Y-6600743D01*
X5683474Y-6353124D02*
X5702522Y-6353124D01*
X5702522Y-6353124D02*
X5721569Y-6362648D01*
X5721569Y-6362648D02*
X5731093Y-6372171D01*
X5731093Y-6372171D02*
X5740617Y-6391219D01*
X5740617Y-6391219D02*
X5750141Y-6429314D01*
X5750141Y-6429314D02*
X5750141Y-6476933D01*
X5750141Y-6476933D02*
X5740617Y-6515028D01*
X5740617Y-6515028D02*
X5731093Y-6534076D01*
X5731093Y-6534076D02*
X5721569Y-6543600D01*
X5721569Y-6543600D02*
X5702522Y-6553124D01*
X5702522Y-6553124D02*
X5683474Y-6553124D01*
X5683474Y-6553124D02*
X5664426Y-6543600D01*
X5664426Y-6543600D02*
X5654903Y-6534076D01*
X5654903Y-6534076D02*
X5645379Y-6515028D01*
X5645379Y-6515028D02*
X5635855Y-6476933D01*
X5635855Y-6476933D02*
X5635855Y-6429314D01*
X5635855Y-6429314D02*
X5645379Y-6391219D01*
X5645379Y-6391219D02*
X5654903Y-6372171D01*
X5654903Y-6372171D02*
X5664426Y-6362648D01*
X5664426Y-6362648D02*
X5683474Y-6353124D01*
X5835855Y-6534076D02*
X5845379Y-6543600D01*
X5845379Y-6543600D02*
X5835855Y-6553124D01*
X5835855Y-6553124D02*
X5826331Y-6543600D01*
X5826331Y-6543600D02*
X5835855Y-6534076D01*
X5835855Y-6534076D02*
X5835855Y-6553124D01*
X5969188Y-6353124D02*
X5988236Y-6353124D01*
X5988236Y-6353124D02*
X6007284Y-6362648D01*
X6007284Y-6362648D02*
X6016807Y-6372171D01*
X6016807Y-6372171D02*
X6026331Y-6391219D01*
X6026331Y-6391219D02*
X6035855Y-6429314D01*
X6035855Y-6429314D02*
X6035855Y-6476933D01*
X6035855Y-6476933D02*
X6026331Y-6515028D01*
X6026331Y-6515028D02*
X6016807Y-6534076D01*
X6016807Y-6534076D02*
X6007284Y-6543600D01*
X6007284Y-6543600D02*
X5988236Y-6553124D01*
X5988236Y-6553124D02*
X5969188Y-6553124D01*
X5969188Y-6553124D02*
X5950141Y-6543600D01*
X5950141Y-6543600D02*
X5940617Y-6534076D01*
X5940617Y-6534076D02*
X5931093Y-6515028D01*
X5931093Y-6515028D02*
X5921569Y-6476933D01*
X5921569Y-6476933D02*
X5921569Y-6429314D01*
X5921569Y-6429314D02*
X5931093Y-6391219D01*
X5931093Y-6391219D02*
X5940617Y-6372171D01*
X5940617Y-6372171D02*
X5950141Y-6362648D01*
X5950141Y-6362648D02*
X5969188Y-6353124D01*
X6112046Y-6372171D02*
X6121569Y-6362648D01*
X6121569Y-6362648D02*
X6140617Y-6353124D01*
X6140617Y-6353124D02*
X6188236Y-6353124D01*
X6188236Y-6353124D02*
X6207284Y-6362648D01*
X6207284Y-6362648D02*
X6216807Y-6372171D01*
X6216807Y-6372171D02*
X6226331Y-6391219D01*
X6226331Y-6391219D02*
X6226331Y-6410267D01*
X6226331Y-6410267D02*
X6216807Y-6438838D01*
X6216807Y-6438838D02*
X6102522Y-6553124D01*
X6102522Y-6553124D02*
X6226331Y-6553124D01*
X6407284Y-6353124D02*
X6312046Y-6353124D01*
X6312046Y-6353124D02*
X6302522Y-6448362D01*
X6302522Y-6448362D02*
X6312046Y-6438838D01*
X6312046Y-6438838D02*
X6331093Y-6429314D01*
X6331093Y-6429314D02*
X6378712Y-6429314D01*
X6378712Y-6429314D02*
X6397760Y-6438838D01*
X6397760Y-6438838D02*
X6407284Y-6448362D01*
X6407284Y-6448362D02*
X6416807Y-6467409D01*
X6416807Y-6467409D02*
X6416807Y-6515028D01*
X6416807Y-6515028D02*
X6407284Y-6534076D01*
X6407284Y-6534076D02*
X6397760Y-6543600D01*
X6397760Y-6543600D02*
X6378712Y-6553124D01*
X6378712Y-6553124D02*
X6331093Y-6553124D01*
X6331093Y-6553124D02*
X6312046Y-6543600D01*
X6312046Y-6543600D02*
X6302522Y-6534076D01*
X6588236Y-6353124D02*
X6550141Y-6353124D01*
X6550141Y-6353124D02*
X6531093Y-6362648D01*
X6531093Y-6362648D02*
X6521569Y-6372171D01*
X6521569Y-6372171D02*
X6502522Y-6400743D01*
X6502522Y-6400743D02*
X6492998Y-6438838D01*
X6492998Y-6438838D02*
X6492998Y-6515028D01*
X6492998Y-6515028D02*
X6502522Y-6534076D01*
X6502522Y-6534076D02*
X6512046Y-6543600D01*
X6512046Y-6543600D02*
X6531093Y-6553124D01*
X6531093Y-6553124D02*
X6569188Y-6553124D01*
X6569188Y-6553124D02*
X6588236Y-6543600D01*
X6588236Y-6543600D02*
X6597760Y-6534076D01*
X6597760Y-6534076D02*
X6607284Y-6515028D01*
X6607284Y-6515028D02*
X6607284Y-6467409D01*
X6607284Y-6467409D02*
X6597760Y-6448362D01*
X6597760Y-6448362D02*
X6588236Y-6438838D01*
X6588236Y-6438838D02*
X6569188Y-6429314D01*
X6569188Y-6429314D02*
X6531093Y-6429314D01*
X6531093Y-6429314D02*
X6512046Y-6438838D01*
X6512046Y-6438838D02*
X6502522Y-6448362D01*
X6502522Y-6448362D02*
X6492998Y-6467409D01*
X6683474Y-6353124D02*
X6683474Y-6391219D01*
X6759665Y-6353124D02*
X6759665Y-6391219D01*
X7054903Y-6629314D02*
X7045379Y-6619790D01*
X7045379Y-6619790D02*
X7026331Y-6591219D01*
X7026331Y-6591219D02*
X7016808Y-6572171D01*
X7016808Y-6572171D02*
X7007284Y-6543600D01*
X7007284Y-6543600D02*
X6997760Y-6495981D01*
X6997760Y-6495981D02*
X6997760Y-6457886D01*
X6997760Y-6457886D02*
X7007284Y-6410267D01*
X7007284Y-6410267D02*
X7016808Y-6381695D01*
X7016808Y-6381695D02*
X7026331Y-6362648D01*
X7026331Y-6362648D02*
X7045379Y-6334076D01*
X7045379Y-6334076D02*
X7054903Y-6324552D01*
X7121569Y-6372171D02*
X7131093Y-6362648D01*
X7131093Y-6362648D02*
X7150141Y-6353124D01*
X7150141Y-6353124D02*
X7197760Y-6353124D01*
X7197760Y-6353124D02*
X7216808Y-6362648D01*
X7216808Y-6362648D02*
X7226331Y-6372171D01*
X7226331Y-6372171D02*
X7235855Y-6391219D01*
X7235855Y-6391219D02*
X7235855Y-6410267D01*
X7235855Y-6410267D02*
X7226331Y-6438838D01*
X7226331Y-6438838D02*
X7112046Y-6553124D01*
X7112046Y-6553124D02*
X7235855Y-6553124D01*
X7473950Y-6553124D02*
X7473950Y-6353124D01*
X7559665Y-6553124D02*
X7559665Y-6448362D01*
X7559665Y-6448362D02*
X7550141Y-6429314D01*
X7550141Y-6429314D02*
X7531093Y-6419790D01*
X7531093Y-6419790D02*
X7502522Y-6419790D01*
X7502522Y-6419790D02*
X7483474Y-6429314D01*
X7483474Y-6429314D02*
X7473950Y-6438838D01*
X7683474Y-6553124D02*
X7664427Y-6543600D01*
X7664427Y-6543600D02*
X7654903Y-6534076D01*
X7654903Y-6534076D02*
X7645379Y-6515028D01*
X7645379Y-6515028D02*
X7645379Y-6457886D01*
X7645379Y-6457886D02*
X7654903Y-6438838D01*
X7654903Y-6438838D02*
X7664427Y-6429314D01*
X7664427Y-6429314D02*
X7683474Y-6419790D01*
X7683474Y-6419790D02*
X7712046Y-6419790D01*
X7712046Y-6419790D02*
X7731093Y-6429314D01*
X7731093Y-6429314D02*
X7740617Y-6438838D01*
X7740617Y-6438838D02*
X7750141Y-6457886D01*
X7750141Y-6457886D02*
X7750141Y-6515028D01*
X7750141Y-6515028D02*
X7740617Y-6534076D01*
X7740617Y-6534076D02*
X7731093Y-6543600D01*
X7731093Y-6543600D02*
X7712046Y-6553124D01*
X7712046Y-6553124D02*
X7683474Y-6553124D01*
X7864427Y-6553124D02*
X7845379Y-6543600D01*
X7845379Y-6543600D02*
X7835855Y-6524552D01*
X7835855Y-6524552D02*
X7835855Y-6353124D01*
X8016808Y-6543600D02*
X7997760Y-6553124D01*
X7997760Y-6553124D02*
X7959665Y-6553124D01*
X7959665Y-6553124D02*
X7940617Y-6543600D01*
X7940617Y-6543600D02*
X7931093Y-6524552D01*
X7931093Y-6524552D02*
X7931093Y-6448362D01*
X7931093Y-6448362D02*
X7940617Y-6429314D01*
X7940617Y-6429314D02*
X7959665Y-6419790D01*
X7959665Y-6419790D02*
X7997760Y-6419790D01*
X7997760Y-6419790D02*
X8016808Y-6429314D01*
X8016808Y-6429314D02*
X8026331Y-6448362D01*
X8026331Y-6448362D02*
X8026331Y-6467409D01*
X8026331Y-6467409D02*
X7931093Y-6486457D01*
X8102522Y-6543600D02*
X8121570Y-6553124D01*
X8121570Y-6553124D02*
X8159665Y-6553124D01*
X8159665Y-6553124D02*
X8178712Y-6543600D01*
X8178712Y-6543600D02*
X8188236Y-6524552D01*
X8188236Y-6524552D02*
X8188236Y-6515028D01*
X8188236Y-6515028D02*
X8178712Y-6495981D01*
X8178712Y-6495981D02*
X8159665Y-6486457D01*
X8159665Y-6486457D02*
X8131093Y-6486457D01*
X8131093Y-6486457D02*
X8112046Y-6476933D01*
X8112046Y-6476933D02*
X8102522Y-6457886D01*
X8102522Y-6457886D02*
X8102522Y-6448362D01*
X8102522Y-6448362D02*
X8112046Y-6429314D01*
X8112046Y-6429314D02*
X8131093Y-6419790D01*
X8131093Y-6419790D02*
X8159665Y-6419790D01*
X8159665Y-6419790D02*
X8178712Y-6429314D01*
X8254903Y-6629314D02*
X8264427Y-6619790D01*
X8264427Y-6619790D02*
X8283474Y-6591219D01*
X8283474Y-6591219D02*
X8292998Y-6572171D01*
X8292998Y-6572171D02*
X8302522Y-6543600D01*
X8302522Y-6543600D02*
X8312046Y-6495981D01*
X8312046Y-6495981D02*
X8312046Y-6457886D01*
X8312046Y-6457886D02*
X8302522Y-6410267D01*
X8302522Y-6410267D02*
X8292998Y-6381695D01*
X8292998Y-6381695D02*
X8283474Y-6362648D01*
X8283474Y-6362648D02*
X8264427Y-6334076D01*
X8264427Y-6334076D02*
X8254903Y-6324552D01*
X8616808Y-6629314D02*
X8607284Y-6619790D01*
X8607284Y-6619790D02*
X8588236Y-6591219D01*
X8588236Y-6591219D02*
X8578713Y-6572171D01*
X8578713Y-6572171D02*
X8569189Y-6543600D01*
X8569189Y-6543600D02*
X8559665Y-6495981D01*
X8559665Y-6495981D02*
X8559665Y-6457886D01*
X8559665Y-6457886D02*
X8569189Y-6410267D01*
X8569189Y-6410267D02*
X8578713Y-6381695D01*
X8578713Y-6381695D02*
X8588236Y-6362648D01*
X8588236Y-6362648D02*
X8607284Y-6334076D01*
X8607284Y-6334076D02*
X8616808Y-6324552D01*
X8692998Y-6419790D02*
X8692998Y-6553124D01*
X8692998Y-6438838D02*
X8702522Y-6429314D01*
X8702522Y-6429314D02*
X8721570Y-6419790D01*
X8721570Y-6419790D02*
X8750141Y-6419790D01*
X8750141Y-6419790D02*
X8769189Y-6429314D01*
X8769189Y-6429314D02*
X8778713Y-6448362D01*
X8778713Y-6448362D02*
X8778713Y-6553124D01*
X8902522Y-6553124D02*
X8883474Y-6543600D01*
X8883474Y-6543600D02*
X8873951Y-6534076D01*
X8873951Y-6534076D02*
X8864427Y-6515028D01*
X8864427Y-6515028D02*
X8864427Y-6457886D01*
X8864427Y-6457886D02*
X8873951Y-6438838D01*
X8873951Y-6438838D02*
X8883474Y-6429314D01*
X8883474Y-6429314D02*
X8902522Y-6419790D01*
X8902522Y-6419790D02*
X8931094Y-6419790D01*
X8931094Y-6419790D02*
X8950141Y-6429314D01*
X8950141Y-6429314D02*
X8959665Y-6438838D01*
X8959665Y-6438838D02*
X8969189Y-6457886D01*
X8969189Y-6457886D02*
X8969189Y-6515028D01*
X8969189Y-6515028D02*
X8959665Y-6534076D01*
X8959665Y-6534076D02*
X8950141Y-6543600D01*
X8950141Y-6543600D02*
X8931094Y-6553124D01*
X8931094Y-6553124D02*
X8902522Y-6553124D01*
X9026332Y-6419790D02*
X9102522Y-6419790D01*
X9054903Y-6353124D02*
X9054903Y-6524552D01*
X9054903Y-6524552D02*
X9064427Y-6543600D01*
X9064427Y-6543600D02*
X9083474Y-6553124D01*
X9083474Y-6553124D02*
X9102522Y-6553124D01*
X9321570Y-6419790D02*
X9321570Y-6619790D01*
X9321570Y-6429314D02*
X9340617Y-6419790D01*
X9340617Y-6419790D02*
X9378713Y-6419790D01*
X9378713Y-6419790D02*
X9397760Y-6429314D01*
X9397760Y-6429314D02*
X9407284Y-6438838D01*
X9407284Y-6438838D02*
X9416808Y-6457886D01*
X9416808Y-6457886D02*
X9416808Y-6515028D01*
X9416808Y-6515028D02*
X9407284Y-6534076D01*
X9407284Y-6534076D02*
X9397760Y-6543600D01*
X9397760Y-6543600D02*
X9378713Y-6553124D01*
X9378713Y-6553124D02*
X9340617Y-6553124D01*
X9340617Y-6553124D02*
X9321570Y-6543600D01*
X9531094Y-6553124D02*
X9512046Y-6543600D01*
X9512046Y-6543600D02*
X9502522Y-6524552D01*
X9502522Y-6524552D02*
X9502522Y-6353124D01*
X9692998Y-6553124D02*
X9692998Y-6448362D01*
X9692998Y-6448362D02*
X9683475Y-6429314D01*
X9683475Y-6429314D02*
X9664427Y-6419790D01*
X9664427Y-6419790D02*
X9626332Y-6419790D01*
X9626332Y-6419790D02*
X9607284Y-6429314D01*
X9692998Y-6543600D02*
X9673951Y-6553124D01*
X9673951Y-6553124D02*
X9626332Y-6553124D01*
X9626332Y-6553124D02*
X9607284Y-6543600D01*
X9607284Y-6543600D02*
X9597760Y-6524552D01*
X9597760Y-6524552D02*
X9597760Y-6505505D01*
X9597760Y-6505505D02*
X9607284Y-6486457D01*
X9607284Y-6486457D02*
X9626332Y-6476933D01*
X9626332Y-6476933D02*
X9673951Y-6476933D01*
X9673951Y-6476933D02*
X9692998Y-6467409D01*
X9759665Y-6419790D02*
X9835855Y-6419790D01*
X9788236Y-6353124D02*
X9788236Y-6524552D01*
X9788236Y-6524552D02*
X9797760Y-6543600D01*
X9797760Y-6543600D02*
X9816808Y-6553124D01*
X9816808Y-6553124D02*
X9835855Y-6553124D01*
X9978713Y-6543600D02*
X9959665Y-6553124D01*
X9959665Y-6553124D02*
X9921570Y-6553124D01*
X9921570Y-6553124D02*
X9902522Y-6543600D01*
X9902522Y-6543600D02*
X9892998Y-6524552D01*
X9892998Y-6524552D02*
X9892998Y-6448362D01*
X9892998Y-6448362D02*
X9902522Y-6429314D01*
X9902522Y-6429314D02*
X9921570Y-6419790D01*
X9921570Y-6419790D02*
X9959665Y-6419790D01*
X9959665Y-6419790D02*
X9978713Y-6429314D01*
X9978713Y-6429314D02*
X9988236Y-6448362D01*
X9988236Y-6448362D02*
X9988236Y-6467409D01*
X9988236Y-6467409D02*
X9892998Y-6486457D01*
X10159665Y-6553124D02*
X10159665Y-6353124D01*
X10159665Y-6543600D02*
X10140617Y-6553124D01*
X10140617Y-6553124D02*
X10102522Y-6553124D01*
X10102522Y-6553124D02*
X10083475Y-6543600D01*
X10083475Y-6543600D02*
X10073951Y-6534076D01*
X10073951Y-6534076D02*
X10064427Y-6515028D01*
X10064427Y-6515028D02*
X10064427Y-6457886D01*
X10064427Y-6457886D02*
X10073951Y-6438838D01*
X10073951Y-6438838D02*
X10083475Y-6429314D01*
X10083475Y-6429314D02*
X10102522Y-6419790D01*
X10102522Y-6419790D02*
X10140617Y-6419790D01*
X10140617Y-6419790D02*
X10159665Y-6429314D01*
X10235856Y-6629314D02*
X10245379Y-6619790D01*
X10245379Y-6619790D02*
X10264427Y-6591219D01*
X10264427Y-6591219D02*
X10273951Y-6572171D01*
X10273951Y-6572171D02*
X10283475Y-6543600D01*
X10283475Y-6543600D02*
X10292998Y-6495981D01*
X10292998Y-6495981D02*
X10292998Y-6457886D01*
X10292998Y-6457886D02*
X10283475Y-6410267D01*
X10283475Y-6410267D02*
X10273951Y-6381695D01*
X10273951Y-6381695D02*
X10264427Y-6362648D01*
X10264427Y-6362648D02*
X10245379Y-6334076D01*
X10245379Y-6334076D02*
X10235856Y-6324552D01*
M02*
